<?xml version="1.0" encoding="UTF-8" standalone="no"?>
<!DOCTYPE svg PUBLIC "-//W3C//DTD SVG 1.1//EN"
 "http://www.w3.org/Graphics/SVG/1.1/DTD/svg11.dtd">
<!-- Generated by graphviz version 14.1.1 (20251213.1925)
 -->
<!-- Title: G Pages: 1 -->
<svg width="316pt" height="148pt"
 viewBox="0.00 0.00 316.00 148.00" xmlns="http://www.w3.org/2000/svg" xmlns:xlink="http://www.w3.org/1999/xlink">
<g id="graph0" class="graph" transform="scale(1 1) rotate(0) translate(4 144)">
<title>G</title>
<polygon fill="white" stroke="none" points="-4,4 -4,-144 312,-144 312,4 -4,4"/>
<g id="clust1" class="cluster">
<title>cluster_G1</title>
<polygon fill="none" stroke="black" points="8,-8 8,-132 150,-132 150,-8 8,-8"/>
</g>
<g id="clust3" class="cluster">
<title>cluster_G2</title>
<polygon fill="none" stroke="black" points="158,-8 158,-132 300,-132 300,-8 158,-8"/>
</g>
<!-- A -->
<g id="node1" class="node">
<title>A</title>
<ellipse fill="none" stroke="black" cx="43" cy="-34" rx="27" ry="18"/>
<text xml:space="preserve" text-anchor="middle" x="43" y="-28.95" font-family="Times,serif" font-size="14.00">A</text>
</g>
<!-- B -->
<g id="node2" class="node">
<title>B</title>
<ellipse fill="none" stroke="black" cx="115" cy="-34" rx="27" ry="18"/>
<text xml:space="preserve" text-anchor="middle" x="115" y="-28.95" font-family="Times,serif" font-size="14.00">B</text>
</g>
<!-- A&#45;&gt;B -->
<g id="edge1" class="edge">
<title>A&#45;&gt;B</title>
<path fill="none" stroke="black" d="M70.28,-34C72.28,-34 74.28,-34 76.29,-34"/>
<polygon fill="black" stroke="black" points="76.24,-37.5 86.24,-34 76.24,-30.5 76.24,-37.5"/>
</g>
<!-- D -->
<g id="node4" class="node">
<title>D</title>
<ellipse fill="none" stroke="black" cx="193" cy="-34" rx="27" ry="18"/>
<text xml:space="preserve" text-anchor="middle" x="193" y="-28.95" font-family="Times,serif" font-size="14.00">D</text>
</g>
<!-- B&#45;&gt;D -->
<g id="edge5" class="edge">
<title>B&#45;&gt;D</title>
<path fill="none" stroke="black" d="M136.94,-23.08C144.59,-20.77 152.24,-20.01 159.89,-20.81"/>
<polygon fill="black" stroke="black" points="159.12,-24.22 169.62,-22.79 160.52,-17.36 159.12,-24.22"/>
</g>
<!-- B&#45;&gt;D -->
<g id="edge6" class="edge">
<title>B&#45;&gt;D</title>
<path fill="none" stroke="black" d="M136.94,-44.92C144.59,-47.23 152.24,-47.99 159.89,-47.19"/>
<polygon fill="black" stroke="black" points="160.52,-50.64 169.62,-45.21 159.12,-43.78 160.52,-50.64"/>
</g>
<!-- C -->
<g id="node3" class="node">
<title>C</title>
<ellipse fill="none" stroke="black" cx="43" cy="-106" rx="27" ry="18"/>
<text xml:space="preserve" text-anchor="middle" x="43" y="-100.95" font-family="Times,serif" font-size="14.00">C</text>
</g>
<!-- C&#45;&gt;A -->
<g id="edge2" class="edge">
<title>C&#45;&gt;A</title>
<path fill="none" stroke="black" d="M43,-87.7C43,-80.41 43,-71.73 43,-63.54"/>
<polygon fill="black" stroke="black" points="46.5,-63.62 43,-53.62 39.5,-63.62 46.5,-63.62"/>
</g>
<!-- E -->
<g id="node5" class="node">
<title>E</title>
<ellipse fill="none" stroke="black" cx="265" cy="-34" rx="27" ry="18"/>
<text xml:space="preserve" text-anchor="middle" x="265" y="-28.95" font-family="Times,serif" font-size="14.00">E</text>
</g>
<!-- D&#45;&gt;E -->
<g id="edge3" class="edge">
<title>D&#45;&gt;E</title>
<path fill="none" stroke="black" d="M220.28,-34C222.28,-34 224.28,-34 226.29,-34"/>
<polygon fill="black" stroke="black" points="226.24,-37.5 236.24,-34 226.24,-30.5 226.24,-37.5"/>
</g>
<!-- F -->
<g id="node6" class="node">
<title>F</title>
<ellipse fill="none" stroke="black" cx="265" cy="-106" rx="27" ry="18"/>
<text xml:space="preserve" text-anchor="middle" x="265" y="-100.95" font-family="Times,serif" font-size="14.00">F</text>
</g>
<!-- F&#45;&gt;E -->
<g id="edge4" class="edge">
<title>F&#45;&gt;E</title>
<path fill="none" stroke="black" d="M265,-87.7C265,-80.41 265,-71.73 265,-63.54"/>
<polygon fill="black" stroke="black" points="268.5,-63.62 265,-53.62 261.5,-63.62 268.5,-63.62"/>
</g>
</g>
</svg>
