<?xml version="1.0" encoding="UTF-8" standalone="no"?>
<!DOCTYPE svg PUBLIC "-//W3C//DTD SVG 1.1//EN"
 "http://www.w3.org/Graphics/SVG/1.1/DTD/svg11.dtd">
<!-- Generated by graphviz version 14.1.1 (20251213.1925)
 -->
<!-- Pages: 1 -->
<svg width="126pt" height="108pt"
 viewBox="0.00 0.00 126.00 108.00" xmlns="http://www.w3.org/2000/svg" xmlns:xlink="http://www.w3.org/1999/xlink">
<g id="graph0" class="graph" transform="scale(1 1) rotate(0) translate(4 104)">
<polygon fill="white" stroke="none" points="-4,4 -4,-104 122,-104 122,4 -4,4"/>
<!-- a -->
<g id="node1" class="node">
<title>a</title>
<polygon fill="none" stroke="black" points="102,-84 16,-84 16,-16 102,-16 102,-84"/>
<polygon fill="none" stroke="black" points="106,-88 12,-88 12,-12 106,-12 106,-88"/>
<polygon fill="none" stroke="black" points="110,-92 8,-92 8,-8 110,-8 110,-92"/>
<polygon fill="none" stroke="black" points="114,-96 4,-96 4,-4 114,-4 114,-96"/>
<polygon fill="none" stroke="black" points="118,-100 0,-100 0,0 118,0 118,-100"/>
<text xml:space="preserve" text-anchor="middle" x="59" y="-44.95" font-family="Times,serif" font-size="14.00">a</text>
</g>
</g>
</svg>
