<?xml version="1.0" encoding="UTF-8" standalone="no"?>
<!DOCTYPE svg PUBLIC "-//W3C//DTD SVG 1.1//EN"
 "http://www.w3.org/Graphics/SVG/1.1/DTD/svg11.dtd">
<!-- Generated by graphviz version 14.1.1 (20251213.1925)
 -->
<!-- Title: process Pages: 1 -->
<svg width="5521pt" height="518pt"
 viewBox="0.00 0.00 5521.00 518.00" xmlns="http://www.w3.org/2000/svg" xmlns:xlink="http://www.w3.org/1999/xlink">
<g id="graph0" class="graph" transform="scale(1 1) rotate(0) translate(4 514.3)">
<title>process</title>
<polygon fill="white" stroke="none" points="-4,4 -4,-514.3 5516.69,-514.3 5516.69,4 -4,4"/>
<!-- node1 -->
<g id="node1" class="node">
<title>node1</title>
<ellipse fill="purple" stroke="purple" cx="93.38" cy="-224" rx="93.38" ry="18"/>
<text xml:space="preserve" text-anchor="middle" x="93.38" y="-219.8" font-family="Arial-Bold" font-size="14.00" fill="white">1 &#45; Subscription page</text>
</g>
<!-- node2 -->
<g id="node2" class="node">
<title>node2</title>
<polygon fill="none" stroke="black" points="252.49,-256.2 252.49,-305.8 327.28,-305.8 327.28,-256.2 252.49,-256.2"/>
<text xml:space="preserve" text-anchor="middle" x="278.38" y="-289.2" font-family="Arial-Bold" font-size="14.00">Popup</text>
<polyline fill="none" stroke="black" points="304.28,-281 304.28,-305.8"/>
<text xml:space="preserve" text-anchor="middle" x="315.78" y="-289.2" font-family="Arial-Bold" font-size="14.00">2</text>
<polyline fill="none" stroke="black" points="252.49,-281 327.28,-281"/>
<text xml:space="preserve" text-anchor="middle" x="289.88" y="-264.4" font-family="Arial-Bold" font-size="14.00">Drops out</text>
</g>
<!-- node1&#45;&gt;node2 -->
<g id="edge1" class="edge">
<title>node1&#45;&gt;node2</title>
<path fill="none" stroke="black" d="M146.24,-239.2C179.67,-248.99 222.31,-261.49 252.23,-270.26"/>
</g>
<!-- node20 -->
<g id="node27" class="node">
<title>node20</title>
<polygon fill="purple" stroke="purple" points="223.75,-146.2 223.75,-195.8 356.02,-195.8 356.02,-146.2 223.75,-146.2"/>
<text xml:space="preserve" text-anchor="middle" x="254" y="-179.2" font-family="Arial-Bold" font-size="14.00" fill="white"> </text>
<polyline fill="none" stroke="purple" points="284.25,-171 284.25,-195.8"/>
<text xml:space="preserve" text-anchor="middle" x="319.75" y="-179.2" font-family="Arial-Bold" font-size="14.00" fill="white">20</text>
<polyline fill="none" stroke="purple" points="223.75,-171 356.02,-171"/>
<text xml:space="preserve" text-anchor="middle" x="289.88" y="-154.4" font-family="Arial-Bold" font-size="14.00" fill="white">Honey &#160;&#160;subscription</text>
</g>
<!-- node1&#45;&gt;node20 -->
<g id="edge27" class="edge">
<title>node1&#45;&gt;node20</title>
<path fill="none" stroke="black" d="M148.82,-209.17C171.97,-202.86 199.16,-195.45 223.4,-188.84"/>
</g>
<!-- node3 -->
<g id="node3" class="node">
<title>node3</title>
<ellipse fill="none" stroke="black" cx="497.13" cy="-287" rx="99.83" ry="18"/>
<text xml:space="preserve" text-anchor="middle" x="497.13" y="-282.8" font-family="Arial-Bold" font-size="14.00">3 &#45; Subscription Popup</text>
</g>
<!-- node2&#45;&gt;node3 -->
<g id="edge2" class="edge">
<title>node2&#45;&gt;node3</title>
<path fill="none" stroke="black" d="M327.58,-282.07C344.39,-282.56 365.29,-283.18 386.6,-283.8"/>
<polygon fill="black" stroke="black" points="386.49,-287.3 396.59,-284.09 386.69,-280.3 386.49,-287.3"/>
</g>
<!-- node4 -->
<g id="node4" class="node">
<title>node4</title>
<polygon fill="none" stroke="black" points="652.06,-265.2 652.06,-314.8 772.27,-314.8 772.27,-265.2 652.06,-265.2"/>
<text xml:space="preserve" text-anchor="middle" x="687.73" y="-298.2" font-family="Arial-Bold" font-size="14.00">Form</text>
<polyline fill="none" stroke="black" points="723.4,-290 723.4,-314.8"/>
<text xml:space="preserve" text-anchor="middle" x="747.4" y="-298.2" font-family="Arial-Bold" font-size="14.00">4</text>
<polyline fill="none" stroke="black" points="652.06,-290 772.27,-290"/>
<text xml:space="preserve" text-anchor="middle" x="712.16" y="-273.4" font-family="Arial-Bold" font-size="14.00">Signup news letter</text>
</g>
<!-- node3&#45;&gt;node4 -->
<g id="edge3" class="edge">
<title>node3&#45;&gt;node4</title>
<path fill="none" stroke="black" d="M597.16,-288.39C615.85,-288.66 634.85,-288.93 651.84,-289.16"/>
</g>
<!-- node5 -->
<g id="node5" class="node">
<title>node5</title>
<ellipse fill="none" stroke="black" cx="978.96" cy="-351" rx="125.31" ry="18"/>
<text xml:space="preserve" text-anchor="middle" x="978.96" y="-346.8" font-family="Arial-Bold" font-size="14.00">5 &#45; Signup submitted (output)</text>
</g>
<!-- node4&#45;&gt;node5 -->
<g id="edge4" class="edge">
<title>node4&#45;&gt;node5</title>
<path fill="none" stroke="black" d="M772.71,-304.91C789.02,-308.92 806.72,-313.19 823.08,-317 846.81,-322.52 872.64,-328.28 896.28,-333.47"/>
<polygon fill="black" stroke="black" points="895.33,-336.84 905.85,-335.56 896.83,-330 895.33,-336.84"/>
</g>
<!-- node8 -->
<g id="node6" class="node">
<title>node8</title>
<ellipse fill="none" stroke="black" cx="978.96" cy="-290" rx="122.08" ry="18"/>
<text xml:space="preserve" text-anchor="middle" x="978.96" y="-285.8" font-family="Arial-Bold" font-size="14.00">8 &#45; Signup submitted (email)</text>
</g>
<!-- node4&#45;&gt;node8 -->
<g id="edge5" class="edge">
<title>node4&#45;&gt;node8</title>
<path fill="none" stroke="black" d="M772.59,-290C794.24,-290 819.67,-290 845.13,-290"/>
<polygon fill="black" stroke="black" points="844.91,-293.5 854.91,-290 844.91,-286.5 844.91,-293.5"/>
</g>
<!-- node6 -->
<g id="node7" class="node">
<title>node6</title>
<polygon fill="none" stroke="black" points="1171.83,-334.2 1171.83,-383.8 1289.7,-383.8 1289.7,-334.2 1171.83,-334.2"/>
<text xml:space="preserve" text-anchor="middle" x="1208.77" y="-367.2" font-family="Arial-Bold" font-size="14.00">Output</text>
<polyline fill="none" stroke="black" points="1245.72,-359 1245.72,-383.8"/>
<text xml:space="preserve" text-anchor="middle" x="1267.22" y="-367.2" font-family="Arial-Bold" font-size="14.00">6</text>
<polyline fill="none" stroke="black" points="1171.83,-359 1289.7,-359"/>
<text xml:space="preserve" text-anchor="middle" x="1230.77" y="-342.4" font-family="Arial-Bold" font-size="14.00">Thanks for signup</text>
</g>
<!-- node5&#45;&gt;node6 -->
<g id="edge6" class="edge">
<title>node5&#45;&gt;node6</title>
<path fill="none" stroke="black" d="M1101.57,-354.89C1125.89,-355.67 1150.38,-356.46 1171.34,-357.13"/>
</g>
<!-- node9 -->
<g id="node9" class="node">
<title>node9</title>
<polygon fill="none" stroke="black" points="1179.79,-265.2 1179.79,-314.8 1281.74,-314.8 1281.74,-265.2 1179.79,-265.2"/>
<text xml:space="preserve" text-anchor="middle" x="1214.77" y="-298.2" font-family="Arial-Bold" font-size="14.00">Timeout</text>
<polyline fill="none" stroke="black" points="1249.74,-290 1249.74,-314.8"/>
<text xml:space="preserve" text-anchor="middle" x="1265.24" y="-298.2" font-family="Arial-Bold" font-size="14.00">9</text>
<polyline fill="none" stroke="black" points="1179.79,-290 1281.74,-290"/>
<text xml:space="preserve" text-anchor="middle" x="1230.77" y="-273.4" font-family="Arial-Bold" font-size="14.00">Signup timeout</text>
</g>
<!-- node8&#45;&gt;node9 -->
<g id="edge8" class="edge">
<title>node8&#45;&gt;node9</title>
<path fill="none" stroke="black" d="M1101.2,-290C1128.8,-290 1156.64,-290 1179.31,-290"/>
</g>
<!-- node7 -->
<g id="node8" class="node">
<title>node7</title>
<ellipse fill="black" stroke="black" cx="1440.21" cy="-359" rx="95" ry="18"/>
<text xml:space="preserve" text-anchor="middle" x="1440.21" y="-354.8" font-family="Arial-Bold" font-size="14.00" fill="white">7 &#45; &#160;&#160;signup submitted</text>
</g>
<!-- node6&#45;&gt;node7 -->
<g id="edge7" class="edge">
<title>node6&#45;&gt;node7</title>
<path fill="none" stroke="black" d="M1290.1,-359C1303.66,-359 1318.51,-359 1333.42,-359"/>
<polygon fill="black" stroke="black" points="1333.3,-362.5 1343.3,-359 1333.3,-355.5 1333.3,-362.5"/>
</g>
<!-- node10 -->
<g id="node10" class="node">
<title>node10</title>
<ellipse fill="none" stroke="black" cx="1440.21" cy="-301" rx="113.51" ry="18"/>
<text xml:space="preserve" text-anchor="middle" x="1440.21" y="-296.8" font-family="Arial-Bold" font-size="14.00">10 &#45; Popup signup timeout</text>
</g>
<!-- node9&#45;&gt;node10 -->
<g id="edge9" class="edge">
<title>node9&#45;&gt;node10</title>
<path fill="none" stroke="black" d="M1281.98,-292.66C1293.88,-293.29 1307.07,-293.99 1320.61,-294.71"/>
<polygon fill="black" stroke="black" points="1320.36,-298.2 1330.53,-295.24 1320.73,-291.21 1320.36,-298.2"/>
</g>
<!-- node11 -->
<g id="node11" class="node">
<title>node11</title>
<polygon fill="none" stroke="black" points="1681.91,-286.2 1681.91,-335.8 1762.85,-335.8 1762.85,-286.2 1681.91,-286.2"/>
<text xml:space="preserve" text-anchor="middle" x="1707.13" y="-319.2" font-family="Arial-Bold" font-size="14.00">Email</text>
<polyline fill="none" stroke="black" points="1732.35,-311 1732.35,-335.8"/>
<text xml:space="preserve" text-anchor="middle" x="1747.59" y="-319.2" font-family="Arial-Bold" font-size="14.00">11</text>
<polyline fill="none" stroke="black" points="1681.91,-311 1762.85,-311"/>
<text xml:space="preserve" text-anchor="middle" x="1722.38" y="-294.4" font-family="Arial-Bold" font-size="14.00">Send Email</text>
</g>
<!-- node10&#45;&gt;node11 -->
<g id="edge10" class="edge">
<title>node10&#45;&gt;node11</title>
<path fill="none" stroke="black" d="M1551.54,-304.94C1597.33,-306.57 1647.56,-308.37 1681.43,-309.57"/>
</g>
<!-- node12 -->
<g id="node12" class="node">
<title>node12</title>
<ellipse fill="none" stroke="black" cx="2193.18" cy="-347" rx="96.87" ry="18"/>
<text xml:space="preserve" text-anchor="middle" x="2193.18" y="-342.8" font-family="Arial-Bold" font-size="14.00">12 &#45; Popup Email sent</text>
</g>
<!-- node11&#45;&gt;node12 -->
<g id="edge11" class="edge">
<title>node11&#45;&gt;node12</title>
<path fill="none" stroke="black" d="M1762.95,-314.04C1834.86,-319.56 1989.04,-331.4 2091.68,-339.28"/>
<polygon fill="black" stroke="black" points="2091.25,-342.76 2101.49,-340.04 2091.79,-335.78 2091.25,-342.76"/>
</g>
<!-- node13 -->
<g id="node13" class="node">
<title>node13</title>
<polygon fill="none" stroke="black" points="2378.41,-460.2 2378.41,-509.8 2478.77,-509.8 2478.77,-460.2 2378.41,-460.2"/>
<text xml:space="preserve" text-anchor="middle" x="2410.29" y="-493.2" font-family="Arial-Bold" font-size="14.00">Bounce</text>
<polyline fill="none" stroke="black" points="2442.17,-485 2442.17,-509.8"/>
<text xml:space="preserve" text-anchor="middle" x="2460.17" y="-493.2" font-family="Arial-Bold" font-size="14.00">13</text>
<polyline fill="none" stroke="black" points="2378.41,-485 2478.77,-485"/>
<text xml:space="preserve" text-anchor="middle" x="2428.59" y="-468.4" font-family="Arial-Bold" font-size="14.00">Email bounced</text>
</g>
<!-- node12&#45;&gt;node13 -->
<g id="edge12" class="edge">
<title>node12&#45;&gt;node13</title>
<path fill="none" stroke="black" d="M2223.74,-364.48C2264.46,-388.56 2338.09,-432.08 2384.82,-459.71"/>
</g>
<!-- node15 -->
<g id="node15" class="node">
<title>node15</title>
<polygon fill="none" stroke="black" points="2377.98,-391.2 2377.98,-440.8 2479.19,-440.8 2479.19,-391.2 2377.98,-391.2"/>
<text xml:space="preserve" text-anchor="middle" x="2413.59" y="-424.2" font-family="Arial-Bold" font-size="14.00">OptedOut</text>
<polyline fill="none" stroke="black" points="2449.19,-416 2449.19,-440.8"/>
<text xml:space="preserve" text-anchor="middle" x="2464.19" y="-424.2" font-family="Arial-Bold" font-size="14.00">15</text>
<polyline fill="none" stroke="black" points="2377.98,-416 2479.19,-416"/>
<text xml:space="preserve" text-anchor="middle" x="2428.59" y="-399.4" font-family="Arial-Bold" font-size="14.00">Email</text>
</g>
<!-- node12&#45;&gt;node15 -->
<g id="edge14" class="edge">
<title>node12&#45;&gt;node15</title>
<path fill="none" stroke="black" d="M2246.27,-362.4C2285.5,-374 2338.96,-389.8 2377.66,-401.24"/>
</g>
<!-- node17 -->
<g id="node17" class="node">
<title>node17</title>
<polygon fill="none" stroke="black" points="2385.02,-322.2 2385.02,-371.8 2472.16,-371.8 2472.16,-322.2 2385.02,-322.2"/>
<text xml:space="preserve" text-anchor="middle" x="2410.68" y="-355.2" font-family="Arial-Bold" font-size="14.00">Click</text>
<polyline fill="none" stroke="black" points="2436.35,-347 2436.35,-371.8"/>
<text xml:space="preserve" text-anchor="middle" x="2453.85" y="-355.2" font-family="Arial-Bold" font-size="14.00">17</text>
<polyline fill="none" stroke="black" points="2385.02,-347 2472.16,-347"/>
<text xml:space="preserve" text-anchor="middle" x="2428.59" y="-330.4" font-family="Arial-Bold" font-size="14.00">Email &#160;&#160;click</text>
</g>
<!-- node12&#45;&gt;node17 -->
<g id="edge16" class="edge">
<title>node12&#45;&gt;node17</title>
<path fill="none" stroke="black" d="M2290.46,-347C2323.24,-347 2358.23,-347 2384.66,-347"/>
</g>
<!-- node25 -->
<g id="node24" class="node">
<title>node25</title>
<polygon fill="none" stroke="black" points="2388.52,-253.2 2388.52,-302.8 2468.66,-302.8 2468.66,-253.2 2388.52,-253.2"/>
<text xml:space="preserve" text-anchor="middle" x="2412.18" y="-286.2" font-family="Arial-Bold" font-size="14.00">Click</text>
<polyline fill="none" stroke="black" points="2435.85,-278 2435.85,-302.8"/>
<text xml:space="preserve" text-anchor="middle" x="2451.85" y="-286.2" font-family="Arial-Bold" font-size="14.00">25</text>
<polyline fill="none" stroke="black" points="2388.52,-278 2468.66,-278"/>
<text xml:space="preserve" text-anchor="middle" x="2428.59" y="-261.4" font-family="Arial-Bold" font-size="14.00">Email click</text>
</g>
<!-- node12&#45;&gt;node25 -->
<g id="edge23" class="edge">
<title>node12&#45;&gt;node25</title>
<path fill="none" stroke="black" d="M2246.27,-331.6C2289.26,-318.89 2349.34,-301.13 2388.35,-289.6"/>
</g>
<!-- node14 -->
<g id="node14" class="node">
<title>node14</title>
<ellipse fill="black" stroke="black" cx="3064.81" cy="-486" rx="114.03" ry="18"/>
<text xml:space="preserve" text-anchor="middle" x="3064.81" y="-481.8" font-family="Arial-Bold" font-size="14.00" fill="white">14 &#45; Popup Email bounced</text>
</g>
<!-- node13&#45;&gt;node14 -->
<g id="edge13" class="edge">
<title>node13&#45;&gt;node14</title>
<path fill="none" stroke="black" d="M2479.09,-485.08C2577.16,-485.23 2798.76,-485.58 2939.24,-485.8"/>
<polygon fill="black" stroke="black" points="2938.96,-489.3 2948.96,-485.82 2938.97,-482.3 2938.96,-489.3"/>
</g>
<!-- node16 -->
<g id="node16" class="node">
<title>node16</title>
<ellipse fill="black" stroke="black" cx="3064.81" cy="-432" rx="83.73" ry="18"/>
<text xml:space="preserve" text-anchor="middle" x="3064.81" y="-427.8" font-family="Arial-Bold" font-size="14.00" fill="white">16 &#45; Popup Email &#160;</text>
</g>
<!-- node15&#45;&gt;node16 -->
<g id="edge15" class="edge">
<title>node15&#45;&gt;node16</title>
<path fill="none" stroke="black" d="M2479.62,-417.26C2585.52,-419.93 2833.79,-426.2 2970.11,-429.64"/>
<polygon fill="black" stroke="black" points="2969.74,-433.13 2979.82,-429.88 2969.91,-426.13 2969.74,-433.13"/>
</g>
<!-- node18 -->
<g id="node18" class="node">
<title>node18</title>
<ellipse fill="none" stroke="black" cx="3064.81" cy="-378" rx="56.63" ry="18"/>
<text xml:space="preserve" text-anchor="middle" x="3064.81" y="-373.8" font-family="Arial-Bold" font-size="14.00">18 &#45; Email &#160;</text>
</g>
<!-- node17&#45;&gt;node18 -->
<g id="edge17" class="edge">
<title>node17&#45;&gt;node18</title>
<path fill="none" stroke="black" d="M2472.18,-349.08C2580.43,-354.37 2866.69,-368.36 2997.23,-374.75"/>
<polygon fill="black" stroke="black" points="2996.94,-378.24 3007.1,-375.23 2997.29,-371.24 2996.94,-378.24"/>
</g>
<!-- node22 -->
<g id="node19" class="node">
<title>node22</title>
<ellipse fill="none" stroke="black" cx="3064.81" cy="-324" rx="83.72" ry="18"/>
<text xml:space="preserve" text-anchor="middle" x="3064.81" y="-319.8" font-family="Arial-Bold" font-size="14.00">22 &#45; Email output &#160;</text>
</g>
<!-- node17&#45;&gt;node22 -->
<g id="edge18" class="edge">
<title>node17&#45;&gt;node22</title>
<path fill="none" stroke="black" d="M2472.18,-345.46C2573.49,-341.78 2830.71,-332.45 2970.28,-327.39"/>
<polygon fill="black" stroke="black" points="2970.39,-330.89 2980.26,-327.03 2970.14,-323.89 2970.39,-330.89"/>
</g>
<!-- node19 -->
<g id="node20" class="node">
<title>node19</title>
<polygon fill="none" stroke="black" points="3250.84,-364.2 3250.84,-413.8 3304.84,-413.8 3304.84,-364.2 3250.84,-364.2"/>
<text xml:space="preserve" text-anchor="middle" x="3261.59" y="-397.2" font-family="Arial-Bold" font-size="14.00"> </text>
<polyline fill="none" stroke="black" points="3272.34,-389 3272.34,-413.8"/>
<text xml:space="preserve" text-anchor="middle" x="3288.34" y="-397.2" font-family="Arial-Bold" font-size="14.00">19</text>
<polyline fill="none" stroke="black" points="3250.84,-389 3304.84,-389"/>
<text xml:space="preserve" text-anchor="middle" x="3277.84" y="-372.4" font-family="Arial-Bold" font-size="14.00">Email</text>
</g>
<!-- node18&#45;&gt;node19 -->
<g id="edge19" class="edge">
<title>node18&#45;&gt;node19</title>
<path fill="none" stroke="black" d="M3120.98,-380.88C3162.74,-383.05 3218.26,-385.95 3250.51,-387.63"/>
</g>
<!-- node23 -->
<g id="node22" class="node">
<title>node23</title>
<polygon fill="none" stroke="black" points="3228.43,-295.2 3228.43,-344.8 3327.25,-344.8 3327.25,-295.2 3228.43,-295.2"/>
<text xml:space="preserve" text-anchor="middle" x="3258.87" y="-328.2" font-family="Arial-Bold" font-size="14.00">Output</text>
<polyline fill="none" stroke="black" points="3289.32,-320 3289.32,-344.8"/>
<text xml:space="preserve" text-anchor="middle" x="3307.82" y="-328.2" font-family="Arial-Bold" font-size="14.00">23</text>
<polyline fill="none" stroke="black" points="3228.43,-320 3327.25,-320"/>
<text xml:space="preserve" text-anchor="middle" x="3277.84" y="-303.4" font-family="Arial-Bold" font-size="14.00">Output &#160;&#160;Email</text>
</g>
<!-- node22&#45;&gt;node23 -->
<g id="edge21" class="edge">
<title>node22&#45;&gt;node23</title>
<path fill="none" stroke="black" d="M3148.61,-322.43C3175.51,-321.92 3204.49,-321.37 3228.07,-320.92"/>
</g>
<!-- node21 -->
<g id="node21" class="node">
<title>node21</title>
<ellipse fill="black" stroke="black" cx="3481.75" cy="-389" rx="77.81" ry="18"/>
<text xml:space="preserve" text-anchor="middle" x="3481.75" y="-384.8" font-family="Arial-Bold" font-size="14.00" fill="white">21 &#45; Email &#160;&#160;done</text>
</g>
<!-- node19&#45;&gt;node21 -->
<g id="edge20" class="edge">
<title>node19&#45;&gt;node21</title>
<path fill="none" stroke="black" d="M3305.23,-389C3327.61,-389 3361.02,-389 3392.71,-389"/>
<polygon fill="black" stroke="black" points="3392.32,-392.5 3402.32,-389 3392.32,-385.5 3392.32,-392.5"/>
</g>
<!-- node24 -->
<g id="node23" class="node">
<title>node24</title>
<ellipse fill="black" stroke="black" cx="3481.75" cy="-320" rx="104.91" ry="18"/>
<text xml:space="preserve" text-anchor="middle" x="3481.75" y="-315.8" font-family="Arial-Bold" font-size="14.00" fill="white">24 &#45; Email output &#160;&#160;done</text>
</g>
<!-- node23&#45;&gt;node24 -->
<g id="edge22" class="edge">
<title>node23&#45;&gt;node24</title>
<path fill="none" stroke="black" d="M3327.71,-320C3339.29,-320 3352.13,-320 3365.31,-320"/>
<polygon fill="black" stroke="black" points="3364.92,-323.5 3374.92,-320 3364.92,-316.5 3364.92,-323.5"/>
</g>
<!-- node26 -->
<g id="node25" class="node">
<title>node26</title>
<ellipse fill="none" stroke="black" cx="3064.81" cy="-270" rx="109.2" ry="18"/>
<text xml:space="preserve" text-anchor="middle" x="3064.81" y="-265.8" font-family="Arial-Bold" font-size="14.00">26 &#45; Popup Email clicked</text>
</g>
<!-- node25&#45;&gt;node26 -->
<g id="edge24" class="edge">
<title>node25&#45;&gt;node26</title>
<path fill="none" stroke="black" d="M2468.78,-277.51C2561.83,-276.33 2799.08,-273.34 2944.33,-271.51"/>
<polygon fill="black" stroke="black" points="2944.02,-275.01 2953.98,-271.39 2943.93,-268.01 2944.02,-275.01"/>
</g>
<!-- node27 -->
<g id="node26" class="node">
<title>node27</title>
<polygon fill="none" stroke="black" points="3230,-226.2 3230,-275.8 3325.68,-275.8 3325.68,-226.2 3230,-226.2"/>
<text xml:space="preserve" text-anchor="middle" x="3262.21" y="-259.2" font-family="Arial-Bold" font-size="14.00">Redirect</text>
<polyline fill="none" stroke="black" points="3294.42,-251 3294.42,-275.8"/>
<text xml:space="preserve" text-anchor="middle" x="3309.92" y="-259.2" font-family="Arial-Bold" font-size="14.00">27</text>
<polyline fill="none" stroke="black" points="3230,-251 3325.68,-251"/>
<text xml:space="preserve" text-anchor="middle" x="3277.84" y="-234.4" font-family="Arial-Bold" font-size="14.00">Email redirect</text>
</g>
<!-- node26&#45;&gt;node27 -->
<g id="edge25" class="edge">
<title>node26&#45;&gt;node27</title>
<path fill="none" stroke="black" d="M3161.75,-261.36C3185.27,-259.24 3209.43,-257.07 3229.5,-255.26"/>
</g>
<!-- node27&#45;&gt;node1 -->
<g id="edge26" class="edge">
<title>node27&#45;&gt;node1</title>
<path fill="none" stroke="black" d="M3229.7,-241.48C3187.08,-233.71 3122.51,-224 3065.81,-224 288.88,-224 288.88,-224 288.88,-224 259.52,-224 227.66,-224 198.39,-224"/>
<polygon fill="black" stroke="black" points="198.4,-220.5 188.4,-224 198.4,-227.5 198.4,-220.5"/>
</g>
<!-- node28 -->
<g id="node28" class="node">
<title>node28</title>
<ellipse fill="purple" stroke="purple" cx="497.13" cy="-171" rx="104.11" ry="18"/>
<text xml:space="preserve" text-anchor="middle" x="497.13" y="-166.8" font-family="Arial-Bold" font-size="14.00" fill="white">28 &#45; Limbo subscription</text>
</g>
<!-- node20&#45;&gt;node28 -->
<g id="edge28" class="edge">
<title>node20&#45;&gt;node28</title>
<path fill="none" stroke="black" d="M356.39,-171C364.46,-171 372.89,-171 381.44,-171"/>
<polygon fill="black" stroke="black" points="381.2,-174.5 391.2,-171 381.2,-167.5 381.2,-174.5"/>
</g>
<!-- node29 -->
<g id="node29" class="node">
<title>node29</title>
<polygon fill="purple" stroke="purple" points="638.24,-146.2 638.24,-195.8 786.08,-195.8 786.08,-146.2 638.24,-146.2"/>
<text xml:space="preserve" text-anchor="middle" x="686.85" y="-179.2" font-family="Arial-Bold" font-size="14.00" fill="white">Impression</text>
<polyline fill="none" stroke="purple" points="735.45,-171 735.45,-195.8"/>
<text xml:space="preserve" text-anchor="middle" x="760.45" y="-179.2" font-family="Arial-Bold" font-size="14.00" fill="white">29</text>
<polyline fill="none" stroke="purple" points="638.24,-171 786.08,-171"/>
<text xml:space="preserve" text-anchor="middle" x="712.16" y="-154.4" font-family="Arial-Bold" font-size="14.00" fill="white">Wait success confirmed</text>
</g>
<!-- node28&#45;&gt;node29 -->
<g id="edge29" class="edge">
<title>node28&#45;&gt;node29</title>
<path fill="none" stroke="black" d="M601.52,-171C613.82,-171 626.18,-171 637.93,-171"/>
</g>
<!-- node46 -->
<g id="node51" class="node">
<title>node46</title>
<polygon fill="none" stroke="black" points="650.89,-77.2 650.89,-126.8 773.44,-126.8 773.44,-77.2 650.89,-77.2"/>
<text xml:space="preserve" text-anchor="middle" x="689.36" y="-110.2" font-family="Arial-Bold" font-size="14.00">Timeout</text>
<polyline fill="none" stroke="black" points="727.84,-102 727.84,-126.8"/>
<text xml:space="preserve" text-anchor="middle" x="750.34" y="-110.2" font-family="Arial-Bold" font-size="14.00">46</text>
<polyline fill="none" stroke="black" points="650.89,-102 773.44,-102"/>
<text xml:space="preserve" text-anchor="middle" x="712.16" y="-85.4" font-family="Arial-Bold" font-size="14.00">Limbo sub timeout</text>
</g>
<!-- node28&#45;&gt;node46 -->
<g id="edge54" class="edge">
<title>node28&#45;&gt;node46</title>
<path fill="none" stroke="black" d="M547.81,-154.91C578.54,-144.95 618.21,-132.11 650.76,-121.56"/>
</g>
<!-- node30 -->
<g id="node30" class="node">
<title>node30</title>
<ellipse fill="purple" stroke="purple" cx="978.96" cy="-169" rx="155.87" ry="18"/>
<text xml:space="preserve" text-anchor="middle" x="978.96" y="-164.8" font-family="Arial-Bold" font-size="14.00" fill="white">30 &#45; Honey subscription confirmation</text>
</g>
<!-- node29&#45;&gt;node30 -->
<g id="edge30" class="edge">
<title>node29&#45;&gt;node30</title>
<path fill="none" stroke="black" d="M786.57,-170.45C794.66,-170.38 803.12,-170.32 811.78,-170.26"/>
<polygon fill="black" stroke="black" points="811.79,-173.76 821.76,-170.18 811.74,-166.76 811.79,-173.76"/>
</g>
<!-- node31 -->
<g id="node31" class="node">
<title>node31</title>
<polygon fill="none" stroke="black" points="1173.97,-139.2 1173.97,-188.8 1287.56,-188.8 1287.56,-139.2 1173.97,-139.2"/>
<text xml:space="preserve" text-anchor="middle" x="1209.64" y="-172.2" font-family="Arial-Bold" font-size="14.00">Success</text>
<polyline fill="none" stroke="black" points="1245.3,-164 1245.3,-188.8"/>
<text xml:space="preserve" text-anchor="middle" x="1266.3" y="-172.2" font-family="Arial-Bold" font-size="14.00">31</text>
<polyline fill="none" stroke="black" points="1173.97,-164 1287.56,-164"/>
<text xml:space="preserve" text-anchor="middle" x="1230.77" y="-147.4" font-family="Arial-Bold" font-size="14.00">Magazine bought</text>
</g>
<!-- node30&#45;&gt;node31 -->
<g id="edge31" class="edge">
<title>node30&#45;&gt;node31</title>
<path fill="none" stroke="black" d="M1132.83,-165.94C1147.21,-165.65 1161.07,-165.37 1173.59,-165.12"/>
</g>
<!-- node32 -->
<g id="node32" class="node">
<title>node32</title>
<ellipse fill="none" stroke="black" cx="1440.21" cy="-164" rx="96.05" ry="18"/>
<text xml:space="preserve" text-anchor="middle" x="1440.21" y="-159.8" font-family="Arial-Bold" font-size="14.00">32 &#45; Magazine bought</text>
</g>
<!-- node31&#45;&gt;node32 -->
<g id="edge32" class="edge">
<title>node31&#45;&gt;node32</title>
<path fill="none" stroke="black" d="M1287.9,-164C1301.81,-164 1317.17,-164 1332.62,-164"/>
<polygon fill="black" stroke="black" points="1332.34,-167.5 1342.34,-164 1332.34,-160.5 1332.34,-167.5"/>
</g>
<!-- node45 -->
<g id="node33" class="node">
<title>node45</title>
<ellipse fill="none" stroke="black" cx="1440.21" cy="-90" rx="89.09" ry="18"/>
<text xml:space="preserve" text-anchor="middle" x="1440.21" y="-85.8" font-family="Arial-Bold" font-size="14.00">45 &#45; Bill subcription</text>
</g>
<!-- node31&#45;&gt;node45 -->
<g id="edge33" class="edge">
<title>node31&#45;&gt;node45</title>
<path fill="none" stroke="black" d="M1287.9,-143.97C1317.83,-133.3 1354.5,-120.22 1384.24,-109.61"/>
<polygon fill="black" stroke="black" points="1385.19,-112.99 1393.44,-106.33 1382.84,-106.39 1385.19,-112.99"/>
</g>
<!-- node33 -->
<g id="node34" class="node">
<title>node33</title>
<polygon fill="none" stroke="black" points="1722.38,-182 1595.26,-164 1722.38,-146 1849.51,-164 1722.38,-182"/>
<text xml:space="preserve" text-anchor="middle" x="1722.38" y="-159.8" font-family="Arial-Bold" font-size="14.00">33 &#45; Check 1st Xsell</text>
</g>
<!-- node32&#45;&gt;node33 -->
<g id="edge34" class="edge">
<title>node32&#45;&gt;node33</title>
<path fill="none" stroke="black" d="M1536.46,-164C1554.38,-164 1573.4,-164 1592.16,-164"/>
</g>
<!-- node47 -->
<g id="node46" class="node">
<title>node47</title>
<polygon fill="none" stroke="black" points="1722.38,-90 1590.72,-72 1722.38,-54 1854.04,-72 1722.38,-90"/>
<text xml:space="preserve" text-anchor="middle" x="1722.38" y="-67.8" font-family="Arial-Bold" font-size="14.00">47 &#45; Check if billable</text>
</g>
<!-- node45&#45;&gt;node47 -->
<g id="edge49" class="edge">
<title>node45&#45;&gt;node47</title>
<path fill="none" stroke="black" d="M1525.65,-84.57C1558.68,-82.45 1596.64,-80.01 1630.29,-77.85"/>
</g>
<!-- node35 -->
<g id="node35" class="node">
<title>node35</title>
<ellipse fill="none" stroke="black" cx="3481.75" cy="-174" rx="93.12" ry="18"/>
<text xml:space="preserve" text-anchor="middle" x="3481.75" y="-169.8" font-family="Arial-Bold" font-size="14.00">35 &#45; End 1st Xselling</text>
</g>
<!-- node33&#45;&gt;node35 -->
<g id="edge35" class="edge">
<title>node33&#45;&gt;node35</title>
<path fill="none" stroke="black" d="M1808.01,-170.36C1901.85,-176.86 2057.74,-186 2192.18,-186 2192.18,-186 2192.18,-186 3278.84,-186 3313.38,-186 3351.2,-184.23 3384.66,-182.05"/>
<polygon fill="black" stroke="black" points="3384.58,-185.56 3394.33,-181.39 3384.11,-178.57 3384.58,-185.56"/>
<text xml:space="preserve" text-anchor="middle" x="2717.6" y="-189.2" font-family="Times,serif" font-size="14.00">&apos;HeartAndSoul&apos; in decode_b64(nvl(&apos;vmi_cookie_mag_sold&apos;,encode_b64([])))</text>
</g>
<!-- node42 -->
<g id="node36" class="node">
<title>node42</title>
<ellipse fill="none" stroke="black" cx="2193.18" cy="-137" rx="142.58" ry="18"/>
<text xml:space="preserve" text-anchor="middle" x="2193.18" y="-132.8" font-family="Arial-Bold" font-size="14.00">42 &#45; Wait before sending 1st Xsell</text>
</g>
<!-- node33&#45;&gt;node42 -->
<g id="edge36" class="edge">
<title>node33&#45;&gt;node42</title>
<path fill="none" stroke="black" d="M1815.44,-158.7C1882.66,-154.83 1975.03,-149.51 2051.47,-145.1"/>
<polygon fill="black" stroke="black" points="2051.34,-148.62 2061.12,-144.55 2050.93,-141.63 2051.34,-148.62"/>
<text xml:space="preserve" text-anchor="middle" x="1952.32" y="-158.47" font-family="Times,serif" font-size="14.00">default</text>
</g>
<!-- node36 -->
<g id="node37" class="node">
<title>node36</title>
<polygon fill="none" stroke="black" points="3755.33,-192 3623.66,-174 3755.33,-156 3887,-174 3755.33,-192"/>
<text xml:space="preserve" text-anchor="middle" x="3755.33" y="-169.8" font-family="Arial-Bold" font-size="14.00">36 &#45; Check 2nd Xsell</text>
</g>
<!-- node35&#45;&gt;node36 -->
<g id="edge37" class="edge">
<title>node35&#45;&gt;node36</title>
<path fill="none" stroke="black" d="M3575.07,-174C3589.68,-174 3605.04,-174 3620.37,-174"/>
</g>
<!-- node34 -->
<g id="node43" class="node">
<title>node34</title>
<polygon fill="none" stroke="black" points="2372.76,-108.2 2372.76,-157.8 2484.42,-157.8 2484.42,-108.2 2372.76,-108.2"/>
<text xml:space="preserve" text-anchor="middle" x="2408.73" y="-141.2" font-family="Arial-Bold" font-size="14.00">Timeout</text>
<polyline fill="none" stroke="black" points="2444.7,-133 2444.7,-157.8"/>
<text xml:space="preserve" text-anchor="middle" x="2464.2" y="-141.2" font-family="Arial-Bold" font-size="14.00">34</text>
<polyline fill="none" stroke="black" points="2372.76,-133 2484.42,-133"/>
<text xml:space="preserve" text-anchor="middle" x="2428.59" y="-116.4" font-family="Arial-Bold" font-size="14.00">1st Xsell timeout</text>
</g>
<!-- node42&#45;&gt;node34 -->
<g id="edge45" class="edge">
<title>node42&#45;&gt;node34</title>
<path fill="none" stroke="black" d="M2335,-134.59C2348.1,-134.36 2360.77,-134.15 2372.31,-133.95"/>
</g>
<!-- node37 -->
<g id="node38" class="node">
<title>node37</title>
<ellipse fill="black" stroke="black" cx="5433.26" cy="-174" rx="79.43" ry="18"/>
<text xml:space="preserve" text-anchor="middle" x="5433.26" y="-169.8" font-family="Arial-Bold" font-size="14.00" fill="white">37 &#45; End Xselling</text>
</g>
<!-- node36&#45;&gt;node37 -->
<g id="edge38" class="edge">
<title>node36&#45;&gt;node37</title>
<path fill="none" stroke="black" d="M3820.65,-183.48C3906.62,-195.31 4063.83,-214 4198.82,-214 4198.82,-214 4198.82,-214 5253.5,-214 5295.97,-214 5342.78,-203.11 5377.84,-192.7"/>
<polygon fill="black" stroke="black" points="5378.8,-196.07 5387.34,-189.79 5376.76,-189.37 5378.8,-196.07"/>
<text xml:space="preserve" text-anchor="middle" x="4712.1" y="-217.2" font-family="Times,serif" font-size="14.00">&apos;Honey&apos; in decode_b64(nvl(&apos;vmi_cookie_mag_sold&apos;, encode_b64([])))</text>
</g>
<!-- node36&#45;&gt;node37 -->
<g id="edge40" class="edge">
<title>node36&#45;&gt;node37</title>
<path fill="none" stroke="black" d="M3890.42,-174C3978.16,-174 4095.3,-174 4198.82,-174 4198.82,-174 4198.82,-174 5253.5,-174 5282.4,-174 5313.94,-174 5342.36,-174"/>
<polygon fill="black" stroke="black" points="5341.99,-177.5 5351.99,-174 5341.99,-170.5 5341.99,-177.5"/>
<text xml:space="preserve" text-anchor="middle" x="4712.1" y="-177.2" font-family="Times,serif" font-size="14.00">default</text>
</g>
<!-- node39 -->
<g id="node39" class="node">
<title>node39</title>
<ellipse fill="none" stroke="black" cx="4199.82" cy="-126" rx="145.8" ry="18"/>
<text xml:space="preserve" text-anchor="middle" x="4199.82" y="-121.8" font-family="Arial-Bold" font-size="14.00">39 &#45; Wait before sending 2nd Xsell</text>
</g>
<!-- node36&#45;&gt;node39 -->
<g id="edge39" class="edge">
<title>node36&#45;&gt;node39</title>
<path fill="none" stroke="black" d="M3804.58,-162.28C3833.52,-155.71 3871.17,-147.95 3905,-143.5 3950.66,-137.49 4000.57,-133.54 4046.1,-130.95"/>
<polygon fill="black" stroke="black" points="4046.27,-134.45 4056.06,-130.4 4045.89,-127.46 4046.27,-134.45"/>
<text xml:space="preserve" text-anchor="middle" x="3970.51" y="-146.7" font-family="Times,serif" font-size="14.00">!is_defined(&apos;xsell_flag&apos;)</text>
</g>
<!-- node38 -->
<g id="node40" class="node">
<title>node38</title>
<polygon fill="none" stroke="black" points="4382.62,-96.2 4382.62,-145.8 4498.94,-145.8 4498.94,-96.2 4382.62,-96.2"/>
<text xml:space="preserve" text-anchor="middle" x="4419.59" y="-129.2" font-family="Arial-Bold" font-size="14.00">Timeout</text>
<polyline fill="none" stroke="black" points="4456.56,-121 4456.56,-145.8"/>
<text xml:space="preserve" text-anchor="middle" x="4477.56" y="-129.2" font-family="Arial-Bold" font-size="14.00">38</text>
<polyline fill="none" stroke="black" points="4382.62,-121 4498.94,-121"/>
<text xml:space="preserve" text-anchor="middle" x="4440.78" y="-104.4" font-family="Arial-Bold" font-size="14.00">2nd Xsell timeout</text>
</g>
<!-- node39&#45;&gt;node38 -->
<g id="edge41" class="edge">
<title>node39&#45;&gt;node38</title>
<path fill="none" stroke="black" d="M4343.96,-123C4357.38,-122.72 4370.38,-122.45 4382.26,-122.2"/>
</g>
<!-- node40 -->
<g id="node41" class="node">
<title>node40</title>
<ellipse fill="none" stroke="black" cx="5038.21" cy="-121" rx="112.96" ry="18"/>
<text xml:space="preserve" text-anchor="middle" x="5038.21" y="-116.8" font-family="Arial-Bold" font-size="14.00">40 &#45; Activate 2nd Xselling</text>
</g>
<!-- node38&#45;&gt;node40 -->
<g id="edge42" class="edge">
<title>node38&#45;&gt;node40</title>
<path fill="none" stroke="black" d="M4499.41,-121C4594.6,-121 4786.75,-121 4913.7,-121"/>
<polygon fill="black" stroke="black" points="4913.5,-124.5 4923.5,-121 4913.5,-117.5 4913.5,-124.5"/>
</g>
<!-- node41 -->
<g id="node42" class="node">
<title>node41</title>
<polygon fill="none" stroke="black" points="5188.17,-96.2 5188.17,-145.8 5316.83,-145.8 5316.83,-96.2 5188.17,-96.2"/>
<text xml:space="preserve" text-anchor="middle" x="5230.28" y="-129.2" font-family="Arial-Bold" font-size="14.00">NewFlow</text>
<polyline fill="none" stroke="black" points="5272.39,-121 5272.39,-145.8"/>
<text xml:space="preserve" text-anchor="middle" x="5294.39" y="-129.2" font-family="Arial-Bold" font-size="14.00">41</text>
<polyline fill="none" stroke="black" points="5188.17,-121 5316.83,-121"/>
<text xml:space="preserve" text-anchor="middle" x="5252.5" y="-104.4" font-family="Arial-Bold" font-size="14.00">Send SEP 2nd Xsell</text>
</g>
<!-- node40&#45;&gt;node41 -->
<g id="edge43" class="edge">
<title>node40&#45;&gt;node41</title>
<path fill="none" stroke="black" d="M5151.57,-121C5164,-121 5176.32,-121 5187.84,-121"/>
</g>
<!-- node41&#45;&gt;node37 -->
<g id="edge44" class="edge">
<title>node41&#45;&gt;node37</title>
<path fill="none" stroke="black" d="M5317.28,-139.91C5335.38,-145.28 5355.01,-151.1 5372.85,-156.38"/>
<polygon fill="black" stroke="black" points="5371.65,-159.68 5382.23,-159.17 5373.64,-152.97 5371.65,-159.68"/>
</g>
<!-- node43 -->
<g id="node44" class="node">
<title>node43</title>
<ellipse fill="none" stroke="black" cx="3064.81" cy="-133" rx="109.74" ry="18"/>
<text xml:space="preserve" text-anchor="middle" x="3064.81" y="-128.8" font-family="Arial-Bold" font-size="14.00">43 &#45; Activate 1st Xselling</text>
</g>
<!-- node34&#45;&gt;node43 -->
<g id="edge46" class="edge">
<title>node34&#45;&gt;node43</title>
<path fill="none" stroke="black" d="M2484.76,-133C2586.48,-133 2805.71,-133 2943.33,-133"/>
<polygon fill="black" stroke="black" points="2943.23,-136.5 2953.23,-133 2943.23,-129.5 2943.23,-136.5"/>
</g>
<!-- node44 -->
<g id="node45" class="node">
<title>node44</title>
<polygon fill="none" stroke="black" points="3215.84,-108.2 3215.84,-157.8 3339.84,-157.8 3339.84,-108.2 3215.84,-108.2"/>
<text xml:space="preserve" text-anchor="middle" x="3256.95" y="-141.2" font-family="Arial-Bold" font-size="14.00">NewFlow</text>
<polyline fill="none" stroke="black" points="3298.06,-133 3298.06,-157.8"/>
<text xml:space="preserve" text-anchor="middle" x="3318.56" y="-141.2" font-family="Arial-Bold" font-size="14.00">44</text>
<polyline fill="none" stroke="black" points="3215.84,-133 3339.84,-133"/>
<text xml:space="preserve" text-anchor="middle" x="3277.84" y="-116.4" font-family="Arial-Bold" font-size="14.00">Send SEP 1st Xsell</text>
</g>
<!-- node43&#45;&gt;node44 -->
<g id="edge47" class="edge">
<title>node43&#45;&gt;node44</title>
<path fill="none" stroke="black" d="M3175.03,-133C3188.91,-133 3202.7,-133 3215.45,-133"/>
</g>
<!-- node44&#45;&gt;node35 -->
<g id="edge48" class="edge">
<title>node44&#45;&gt;node35</title>
<path fill="none" stroke="black" d="M3340.24,-145.47C3360.69,-149.62 3383.71,-154.3 3405.12,-158.64"/>
<polygon fill="black" stroke="black" points="3404.16,-162.02 3414.65,-160.58 3405.55,-155.16 3404.16,-162.02"/>
</g>
<!-- node48 -->
<g id="node47" class="node">
<title>node48</title>
<ellipse fill="none" stroke="black" cx="2193.18" cy="-72" rx="86.4" ry="18"/>
<text xml:space="preserve" text-anchor="middle" x="2193.18" y="-67.8" font-family="Arial-Bold" font-size="14.00">48 &#45; Bill authorized</text>
</g>
<!-- node47&#45;&gt;node48 -->
<g id="edge50" class="edge">
<title>node47&#45;&gt;node48</title>
<path fill="none" stroke="black" d="M1857.72,-72C1933.58,-72 2026.66,-72 2095.35,-72"/>
<polygon fill="black" stroke="black" points="2095.07,-75.5 2105.07,-72 2095.07,-68.5 2095.07,-75.5"/>
<text xml:space="preserve" text-anchor="middle" x="1952.32" y="-75.2" font-family="Times,serif" font-size="14.00">is_defined(&apos;vmi_cookie_ref&apos;)</text>
</g>
<!-- node51 -->
<g id="node48" class="node">
<title>node51</title>
<ellipse fill="black" stroke="black" cx="2193.18" cy="-18" rx="76.74" ry="18"/>
<text xml:space="preserve" text-anchor="middle" x="2193.18" y="-13.8" font-family="Arial-Bold" font-size="14.00" fill="white">51 &#45; Non billable</text>
</g>
<!-- node47&#45;&gt;node51 -->
<g id="edge51" class="edge">
<title>node47&#45;&gt;node51</title>
<path fill="none" stroke="black" d="M1788.45,-62.56C1814.43,-58.91 1844.63,-54.82 1872.04,-51.5 1952.9,-41.7 2045.45,-32.2 2110.18,-25.83"/>
<polygon fill="black" stroke="black" points="2110.41,-29.33 2120.02,-24.87 2109.73,-22.36 2110.41,-29.33"/>
<text xml:space="preserve" text-anchor="middle" x="1952.32" y="-54.7" font-family="Times,serif" font-size="14.00">default</text>
</g>
<!-- node49 -->
<g id="node49" class="node">
<title>node49</title>
<polygon fill="none" stroke="black" points="2374.11,-39.2 2374.11,-88.8 2483.06,-88.8 2483.06,-39.2 2374.11,-39.2"/>
<text xml:space="preserve" text-anchor="middle" x="2402.62" y="-72.2" font-family="Arial-Bold" font-size="14.00">Bill</text>
<polyline fill="none" stroke="black" points="2431.12,-64 2431.12,-88.8"/>
<text xml:space="preserve" text-anchor="middle" x="2456.62" y="-72.2" font-family="Arial-Bold" font-size="14.00">49</text>
<polyline fill="none" stroke="black" points="2374.11,-64 2483.06,-64"/>
<text xml:space="preserve" text-anchor="middle" x="2428.59" y="-47.4" font-family="Arial-Bold" font-size="14.00">Bill subscription</text>
</g>
<!-- node48&#45;&gt;node49 -->
<g id="edge52" class="edge">
<title>node48&#45;&gt;node49</title>
<path fill="none" stroke="black" d="M2278.77,-69.1C2310.48,-68.01 2345.61,-66.81 2373.77,-65.84"/>
</g>
<!-- node50 -->
<g id="node50" class="node">
<title>node50</title>
<ellipse fill="black" stroke="black" cx="3064.81" cy="-64" rx="73.8" ry="18"/>
<text xml:space="preserve" text-anchor="middle" x="3064.81" y="-59.8" font-family="Arial-Bold" font-size="14.00" fill="white">50 &#45; Subcription</text>
</g>
<!-- node49&#45;&gt;node50 -->
<g id="edge53" class="edge">
<title>node49&#45;&gt;node50</title>
<path fill="none" stroke="black" d="M2483.39,-64C2593.82,-64 2846.84,-64 2979.35,-64"/>
<polygon fill="black" stroke="black" points="2979.11,-67.5 2989.11,-64 2979.11,-60.5 2979.11,-67.5"/>
</g>
<!-- node52 -->
<g id="node52" class="node">
<title>node52</title>
<ellipse fill="black" stroke="black" cx="978.96" cy="-102" rx="136.03" ry="18"/>
<text xml:space="preserve" text-anchor="middle" x="978.96" y="-97.8" font-family="Arial-Bold" font-size="14.00" fill="white">52 &#45; Limbo subscription timeout</text>
</g>
<!-- node46&#45;&gt;node52 -->
<g id="edge55" class="edge">
<title>node46&#45;&gt;node52</title>
<path fill="none" stroke="black" d="M773.91,-102C791.3,-102 811.06,-102 831.26,-102"/>
<polygon fill="black" stroke="black" points="831,-105.5 841,-102 831,-98.5 831,-105.5"/>
</g>
</g>
</svg>
