<?xml version="1.0" encoding="UTF-8" standalone="no"?>
<!DOCTYPE svg PUBLIC "-//W3C//DTD SVG 1.1//EN"
 "http://www.w3.org/Graphics/SVG/1.1/DTD/svg11.dtd">
<!-- Generated by graphviz version 14.1.1 (20251213.1925)
 -->
<!-- Title: firewall Pages: 1 -->
<svg width="2502pt" height="133pt"
 viewBox="0.00 0.00 2502.00 133.00" xmlns="http://www.w3.org/2000/svg" xmlns:xlink="http://www.w3.org/1999/xlink">
<g id="graph0" class="graph" transform="scale(1 1) rotate(0) translate(4 128.5)">
<title>firewall</title>
<polygon fill="white" stroke="none" points="-4,4 -4,-128.5 2498.09,-128.5 2498.09,4 -4,4"/>
<!-- h208_50_157_183 -->
<g id="node1" class="node">
<title>h208_50_157_183</title>
<ellipse fill="none" stroke="black" cx="215.04" cy="-106.5" rx="80.01" ry="18"/>
<text xml:space="preserve" text-anchor="middle" x="215.04" y="-101.45" font-family="Times,serif" font-size="14.00">h208_50_157_183</text>
</g>
<!-- h130_75_118_14_p9705 -->
<g id="node2" class="node">
<title>h130_75_118_14_p9705</title>
<ellipse fill="none" stroke="black" cx="103.04" cy="-18" rx="103.04" ry="18"/>
<text xml:space="preserve" text-anchor="middle" x="103.04" y="-12.95" font-family="Times,serif" font-size="14.00">h130_75_118_14_p9705</text>
</g>
<!-- h208_50_157_183&#45;&gt;h130_75_118_14_p9705 -->
<g id="edge1" class="edge">
<title>h208_50_157_183&#45;&gt;h130_75_118_14_p9705</title>
<path fill="none" stroke="black" d="M193.45,-88.82C176.59,-75.8 152.94,-57.54 134.06,-42.96"/>
<polygon fill="black" stroke="black" points="136.21,-40.19 126.15,-36.85 131.93,-45.73 136.21,-40.19"/>
<text xml:space="preserve" text-anchor="middle" x="173.95" y="-57.2" font-family="Times,serif" font-size="14.00">X</text>
</g>
<!-- h130_75_118_14_p6635 -->
<g id="node3" class="node">
<title>h130_75_118_14_p6635</title>
<ellipse fill="none" stroke="black" cx="327.04" cy="-18" rx="103.04" ry="18"/>
<text xml:space="preserve" text-anchor="middle" x="327.04" y="-12.95" font-family="Times,serif" font-size="14.00">h130_75_118_14_p6635</text>
</g>
<!-- h208_50_157_183&#45;&gt;h130_75_118_14_p6635 -->
<g id="edge2" class="edge">
<title>h208_50_157_183&#45;&gt;h130_75_118_14_p6635</title>
<path fill="none" stroke="black" d="M236.64,-88.82C253.5,-75.8 277.14,-57.54 296.03,-42.96"/>
<polygon fill="black" stroke="black" points="298.16,-45.73 303.94,-36.85 293.88,-40.19 298.16,-45.73"/>
<text xml:space="preserve" text-anchor="middle" x="285.95" y="-57.2" font-family="Times,serif" font-size="14.00">X</text>
</g>
<!-- h130_75_118_214 -->
<g id="node4" class="node">
<title>h130_75_118_214</title>
<ellipse fill="none" stroke="black" cx="1102.04" cy="-106.5" rx="80.01" ry="18"/>
<text xml:space="preserve" text-anchor="middle" x="1102.04" y="-101.45" font-family="Times,serif" font-size="14.00">h130_75_118_214</text>
</g>
<!-- h130_75_118_14_p514 -->
<g id="node5" class="node">
<title>h130_75_118_14_p514</title>
<ellipse fill="none" stroke="black" cx="1185.04" cy="-18" rx="98.44" ry="18"/>
<text xml:space="preserve" text-anchor="middle" x="1185.04" y="-12.95" font-family="Times,serif" font-size="14.00">h130_75_118_14_p514</text>
</g>
<!-- h130_75_118_214&#45;&gt;h130_75_118_14_p514 -->
<g id="edge3" class="edge">
<title>h130_75_118_214&#45;&gt;h130_75_118_14_p514</title>
<path fill="none" stroke="black" d="M1022.15,-104.65C835.3,-102.28 383.82,-94.11 361.29,-70.5 356.23,-65.19 356.22,-59.29 361.29,-54 385.59,-28.65 856.68,-21.6 1075.3,-19.69"/>
<polygon fill="black" stroke="black" points="1075.31,-23.19 1085.28,-19.6 1075.25,-16.19 1075.31,-23.19"/>
<text xml:space="preserve" text-anchor="middle" x="366.17" y="-57.2" font-family="Times,serif" font-size="14.00">X</text>
</g>
<!-- h130_75_118_214&#45;&gt;h130_75_118_14_p514 -->
<g id="edge4" class="edge">
<title>h130_75_118_214&#45;&gt;h130_75_118_14_p514</title>
<path fill="none" stroke="black" d="M1022.04,-104.46C841.34,-101.73 415.64,-92.93 394.29,-70.5 389.24,-65.19 389.22,-59.3 394.29,-54 417.44,-29.81 863.74,-22.17 1075.41,-19.9"/>
<polygon fill="black" stroke="black" points="1075.38,-23.4 1085.34,-19.79 1075.3,-16.4 1075.38,-23.4"/>
<text xml:space="preserve" text-anchor="middle" x="399.17" y="-57.2" font-family="Times,serif" font-size="14.00">X</text>
</g>
<!-- h130_75_118_214&#45;&gt;h130_75_118_14_p514 -->
<g id="edge5" class="edge">
<title>h130_75_118_214&#45;&gt;h130_75_118_14_p514</title>
<path fill="none" stroke="black" d="M1022.21,-104.26C847.96,-101.17 447.49,-91.77 427.29,-70.5 422.24,-65.18 422.23,-59.3 427.29,-54 449.29,-30.97 870.81,-22.76 1075.43,-20.12"/>
<polygon fill="black" stroke="black" points="1075.33,-23.62 1085.29,-20 1075.24,-16.62 1075.33,-23.62"/>
<text xml:space="preserve" text-anchor="middle" x="432.17" y="-57.2" font-family="Times,serif" font-size="14.00">X</text>
</g>
<!-- h130_75_118_214&#45;&gt;h130_75_118_14_p514 -->
<g id="edge6" class="edge">
<title>h130_75_118_214&#45;&gt;h130_75_118_14_p514</title>
<path fill="none" stroke="black" d="M1022.34,-104.04C854.69,-100.57 479.33,-90.6 460.29,-70.5 455.25,-65.18 455.24,-59.31 460.29,-54 481.15,-32.11 878.49,-23.37 1075.78,-20.36"/>
<polygon fill="black" stroke="black" points="1075.58,-23.87 1085.53,-20.22 1075.48,-16.87 1075.58,-23.87"/>
<text xml:space="preserve" text-anchor="middle" x="465.17" y="-57.2" font-family="Times,serif" font-size="14.00">X</text>
</g>
<!-- h130_75_118_214&#45;&gt;h130_75_118_14_p514 -->
<g id="edge13" class="edge">
<title>h130_75_118_214&#45;&gt;h130_75_118_14_p514</title>
<path fill="none" stroke="black" d="M1022.49,-103.79C861.59,-99.95 511.18,-89.44 493.29,-70.5 488.26,-65.17 488.24,-59.31 493.29,-54 513.01,-33.26 885.9,-24.01 1075.82,-20.63"/>
<polygon fill="black" stroke="black" points="1075.78,-24.13 1085.72,-20.46 1075.66,-17.14 1075.78,-24.13"/>
<text xml:space="preserve" text-anchor="middle" x="498.17" y="-57.2" font-family="Times,serif" font-size="14.00">X</text>
</g>
<!-- h130_75_118_214&#45;&gt;h130_75_118_14_p514 -->
<g id="edge14" class="edge">
<title>h130_75_118_214&#45;&gt;h130_75_118_14_p514</title>
<path fill="none" stroke="black" d="M1022.7,-103.52C868.74,-99.29 543.03,-88.29 526.29,-70.5 521.27,-65.16 521.25,-59.32 526.29,-54 544.87,-34.41 893.54,-24.69 1075.91,-20.93"/>
<polygon fill="black" stroke="black" points="1075.97,-24.43 1085.89,-20.72 1075.82,-17.43 1075.97,-24.43"/>
<text xml:space="preserve" text-anchor="middle" x="531.17" y="-57.2" font-family="Times,serif" font-size="14.00">X</text>
</g>
<!-- h130_75_118_214&#45;&gt;h130_75_118_14_p514 -->
<g id="edge15" class="edge">
<title>h130_75_118_214&#45;&gt;h130_75_118_14_p514</title>
<path fill="none" stroke="black" d="M1021.65,-106.24C878.21,-106.7 590.19,-103.46 559.29,-70.5 554.28,-65.15 554.26,-59.33 559.29,-54 576.75,-35.54 901.82,-25.39 1076.35,-21.24"/>
<polygon fill="black" stroke="black" points="1076.19,-24.75 1086.11,-21.02 1076.03,-17.75 1076.19,-24.75"/>
<text xml:space="preserve" text-anchor="middle" x="564.17" y="-57.2" font-family="Times,serif" font-size="14.00">X</text>
</g>
<!-- h130_75_118_214&#45;&gt;h130_75_118_14_p514 -->
<g id="edge16" class="edge">
<title>h130_75_118_214&#45;&gt;h130_75_118_14_p514</title>
<path fill="none" stroke="black" d="M1021.72,-105.86C885.46,-105.62 620.92,-101.16 592.29,-70.5 587.29,-65.14 587.26,-59.34 592.29,-54 608.62,-36.68 910.12,-26.13 1076.66,-21.6"/>
<polygon fill="black" stroke="black" points="1076.51,-25.1 1086.41,-21.34 1076.32,-18.11 1076.51,-25.1"/>
<text xml:space="preserve" text-anchor="middle" x="597.17" y="-57.2" font-family="Times,serif" font-size="14.00">X</text>
</g>
<!-- h130_75_118_214&#45;&gt;h130_75_118_14_p514 -->
<g id="edge17" class="edge">
<title>h130_75_118_214&#45;&gt;h130_75_118_14_p514</title>
<path fill="none" stroke="black" d="M1021.79,-105.43C892.95,-104.47 651.65,-98.86 625.29,-70.5 620.3,-65.13 620.27,-59.34 625.29,-54 640.5,-37.81 918.48,-26.92 1076.86,-22"/>
<polygon fill="black" stroke="black" points="1076.65,-25.5 1086.54,-21.7 1076.44,-18.51 1076.65,-25.5"/>
<text xml:space="preserve" text-anchor="middle" x="630.17" y="-57.2" font-family="Times,serif" font-size="14.00">X</text>
</g>
<!-- h130_75_118_214&#45;&gt;h130_75_118_14_p514 -->
<g id="edge18" class="edge">
<title>h130_75_118_214&#45;&gt;h130_75_118_14_p514</title>
<path fill="none" stroke="black" d="M1022.21,-104.95C901.11,-103.27 682.42,-96.61 658.29,-70.5 653.32,-65.11 653.28,-59.35 658.29,-54 686.1,-24.28 928.9,-18.95 1074.97,-18.48"/>
<polygon fill="black" stroke="black" points="1074.68,-21.98 1084.67,-18.45 1074.66,-14.98 1074.68,-21.98"/>
<text xml:space="preserve" text-anchor="middle" x="663.17" y="-57.2" font-family="Times,serif" font-size="14.00">X</text>
</g>
<!-- h130_75_118_214&#45;&gt;h130_75_118_14_p514 -->
<g id="edge19" class="edge">
<title>h130_75_118_214&#45;&gt;h130_75_118_14_p514</title>
<path fill="none" stroke="black" d="M1022.11,-104.38C908.92,-101.95 713.17,-94.32 691.29,-70.5 686.33,-65.1 686.3,-59.37 691.29,-54 716.88,-26.54 937.52,-20.26 1075.05,-19.04"/>
<polygon fill="black" stroke="black" points="1074.96,-22.54 1084.94,-18.96 1074.91,-15.54 1074.96,-22.54"/>
<text xml:space="preserve" text-anchor="middle" x="696.17" y="-57.2" font-family="Times,serif" font-size="14.00">X</text>
</g>
<!-- h130_75_118_214&#45;&gt;h130_75_118_14_p514 -->
<g id="edge20" class="edge">
<title>h130_75_118_214&#45;&gt;h130_75_118_14_p514</title>
<path fill="none" stroke="black" d="M1021.89,-106.18C899.06,-105.82 682.62,-98.96 724.29,-54 747.67,-28.78 946.4,-21.64 1075.12,-19.68"/>
<polygon fill="black" stroke="black" points="1075.11,-23.18 1085.06,-19.54 1075.01,-16.18 1075.11,-23.18"/>
<text xml:space="preserve" text-anchor="middle" x="729.17" y="-57.2" font-family="Times,serif" font-size="14.00">X</text>
</g>
<!-- h130_75_118_214&#45;&gt;h130_75_118_14_p514 -->
<g id="edge21" class="edge">
<title>h130_75_118_214&#45;&gt;h130_75_118_14_p514</title>
<path fill="none" stroke="black" d="M1021.99,-105.21C908.92,-103.39 720.08,-94.39 757.29,-54 778.5,-30.99 956,-23.11 1075.59,-20.41"/>
<polygon fill="black" stroke="black" points="1075.53,-23.91 1085.46,-20.2 1075.38,-16.91 1075.53,-23.91"/>
<text xml:space="preserve" text-anchor="middle" x="762.17" y="-57.2" font-family="Times,serif" font-size="14.00">X</text>
</g>
<!-- h130_75_118_214&#45;&gt;h130_75_118_14_p514 -->
<g id="edge22" class="edge">
<title>h130_75_118_214&#45;&gt;h130_75_118_14_p514</title>
<path fill="none" stroke="black" d="M1022.37,-104.06C919.55,-100.75 757.47,-89.86 790.29,-54 809.35,-33.18 966.21,-24.67 1076.35,-21.24"/>
<polygon fill="black" stroke="black" points="1076.12,-24.75 1086.01,-20.95 1075.91,-17.75 1076.12,-24.75"/>
<text xml:space="preserve" text-anchor="middle" x="795.17" y="-57.2" font-family="Times,serif" font-size="14.00">X</text>
</g>
<!-- h130_75_118_214&#45;&gt;h130_75_118_14_p514 -->
<g id="edge23" class="edge">
<title>h130_75_118_214&#45;&gt;h130_75_118_14_p514</title>
<path fill="none" stroke="black" d="M1025.4,-101.02C947.54,-95.67 836.54,-85.52 823.29,-70.5 818.44,-65 818.36,-59.43 823.29,-54 840.22,-35.36 976.64,-26.36 1076.99,-22.22"/>
<polygon fill="black" stroke="black" points="1077.05,-25.72 1086.91,-21.83 1076.77,-18.73 1077.05,-25.72"/>
<text xml:space="preserve" text-anchor="middle" x="828.17" y="-57.2" font-family="Times,serif" font-size="14.00">X</text>
</g>
<!-- h130_75_118_214&#45;&gt;h130_75_118_14_p514 -->
<g id="edge24" class="edge">
<title>h130_75_118_214&#45;&gt;h130_75_118_14_p514</title>
<path fill="none" stroke="black" d="M1022.06,-105.05C958.75,-102.79 877.55,-94.99 856.29,-70.5 851.49,-64.96 851.39,-59.45 856.29,-54 871.13,-37.5 988,-28.16 1078.22,-23.36"/>
<polygon fill="black" stroke="black" points="1078.32,-26.86 1088.12,-22.84 1077.96,-19.86 1078.32,-26.86"/>
<text xml:space="preserve" text-anchor="middle" x="861.17" y="-57.2" font-family="Times,serif" font-size="14.00">X</text>
</g>
<!-- h130_75_118_214&#45;&gt;h130_75_118_14_p514 -->
<g id="edge25" class="edge">
<title>h130_75_118_214&#45;&gt;h130_75_118_14_p514</title>
<path fill="none" stroke="black" d="M1023.28,-102.91C970.07,-99.31 906.49,-90.76 889.29,-70.5 884.55,-64.91 884.42,-59.48 889.29,-54 902.11,-39.58 1000.48,-30.08 1080.31,-24.66"/>
<polygon fill="black" stroke="black" points="1080.18,-28.18 1089.93,-24.02 1079.72,-21.19 1080.18,-28.18"/>
<text xml:space="preserve" text-anchor="middle" x="894.17" y="-57.2" font-family="Times,serif" font-size="14.00">X</text>
</g>
<!-- h130_75_118_214&#45;&gt;h130_75_118_14_p514 -->
<g id="edge26" class="edge">
<title>h130_75_118_214&#45;&gt;h130_75_118_14_p514</title>
<path fill="none" stroke="black" d="M1021.97,-105.33C959.94,-102.43 889.63,-91.31 922.29,-54 942.46,-30.97 1012.6,-22.43 1075.34,-19.53"/>
<polygon fill="black" stroke="black" points="1075.19,-23.04 1085.04,-19.13 1074.91,-16.04 1075.19,-23.04"/>
<text xml:space="preserve" text-anchor="middle" x="927.17" y="-57.2" font-family="Times,serif" font-size="14.00">X</text>
</g>
<!-- h130_75_118_214&#45;&gt;h130_75_118_14_p514 -->
<g id="edge27" class="edge">
<title>h130_75_118_214&#45;&gt;h130_75_118_14_p514</title>
<path fill="none" stroke="black" d="M1025.04,-101.17C977.69,-95.61 930.44,-82.93 955.29,-54 971.49,-35.15 1025.32,-26.33 1076.8,-22.26"/>
<polygon fill="black" stroke="black" points="1076.85,-25.77 1086.57,-21.55 1076.34,-18.79 1076.85,-25.77"/>
<text xml:space="preserve" text-anchor="middle" x="960.17" y="-57.2" font-family="Times,serif" font-size="14.00">X</text>
</g>
<!-- h130_75_118_214&#45;&gt;h130_75_118_14_p514 -->
<g id="edge28" class="edge">
<title>h130_75_118_214&#45;&gt;h130_75_118_14_p514</title>
<path fill="none" stroke="black" d="M1034.9,-96.4C1000.73,-88.94 969.92,-75.93 988.29,-54 1000.82,-39.05 1040.29,-30.48 1080.63,-25.57"/>
<polygon fill="black" stroke="black" points="1080.96,-29.06 1090.5,-24.45 1080.17,-22.1 1080.96,-29.06"/>
<text xml:space="preserve" text-anchor="middle" x="993.17" y="-57.2" font-family="Times,serif" font-size="14.00">X</text>
</g>
<!-- h130_75_118_214&#45;&gt;h130_75_118_14_p514 -->
<g id="edge29" class="edge">
<title>h130_75_118_214&#45;&gt;h130_75_118_14_p514</title>
<path fill="none" stroke="black" d="M1051.63,-92.16C1028.1,-83.42 1007.91,-70.55 1021.29,-54 1030.62,-42.48 1058.49,-34.58 1088.67,-29.25"/>
<polygon fill="black" stroke="black" points="1089.07,-32.73 1098.36,-27.64 1087.93,-25.82 1089.07,-32.73"/>
<text xml:space="preserve" text-anchor="middle" x="1026.17" y="-57.2" font-family="Times,serif" font-size="14.00">X</text>
</g>
<!-- h130_75_118_214&#45;&gt;h130_75_118_14_p514 -->
<g id="edge30" class="edge">
<title>h130_75_118_214&#45;&gt;h130_75_118_14_p514</title>
<path fill="none" stroke="black" d="M1071.71,-89.49C1057.11,-79.66 1044.64,-66.57 1054.29,-54 1060.9,-45.39 1079.77,-38.43 1101.19,-33.06"/>
<polygon fill="black" stroke="black" points="1101.81,-36.51 1110.74,-30.82 1100.21,-29.7 1101.81,-36.51"/>
<text xml:space="preserve" text-anchor="middle" x="1059.17" y="-57.2" font-family="Times,serif" font-size="14.00">X</text>
</g>
<!-- h130_75_118_214&#45;&gt;h130_75_118_14_p514 -->
<g id="edge31" class="edge">
<title>h130_75_118_214&#45;&gt;h130_75_118_14_p514</title>
<path fill="none" stroke="black" d="M1090.3,-88.5C1084.5,-77.82 1080.12,-64.19 1087.29,-54 1092.4,-46.75 1099.16,-40.99 1106.74,-36.42"/>
<polygon fill="black" stroke="black" points="1108.12,-39.65 1115.38,-31.94 1104.89,-33.43 1108.12,-39.65"/>
<text xml:space="preserve" text-anchor="middle" x="1092.17" y="-57.2" font-family="Times,serif" font-size="14.00">X</text>
</g>
<!-- h130_75_118_214&#45;&gt;h130_75_118_14_p514 -->
<g id="edge32" class="edge">
<title>h130_75_118_214&#45;&gt;h130_75_118_14_p514</title>
<path fill="none" stroke="black" d="M1104.9,-88.14C1107.42,-77.31 1112.03,-63.66 1120.29,-54 1124.55,-49.02 1129.7,-44.64 1135.21,-40.81"/>
<polygon fill="black" stroke="black" points="1136.82,-43.93 1143.45,-35.67 1133.11,-37.99 1136.82,-43.93"/>
<text xml:space="preserve" text-anchor="middle" x="1125.17" y="-57.2" font-family="Times,serif" font-size="14.00">X</text>
</g>
<!-- h130_75_118_214&#45;&gt;h130_75_118_14_p514 -->
<g id="edge33" class="edge">
<title>h130_75_118_214&#45;&gt;h130_75_118_14_p514</title>
<path fill="none" stroke="black" d="M1118.44,-88.41C1130.61,-75.73 1147.38,-58.25 1161.05,-44.01"/>
<polygon fill="black" stroke="black" points="1163.23,-46.79 1167.63,-37.15 1158.18,-41.94 1163.23,-46.79"/>
<text xml:space="preserve" text-anchor="middle" x="1155.85" y="-57.2" font-family="Times,serif" font-size="14.00">X</text>
</g>
<!-- h130_75_118_214&#45;&gt;h130_75_118_14_p514 -->
<g id="edge34" class="edge">
<title>h130_75_118_214&#45;&gt;h130_75_118_14_p514</title>
<path fill="none" stroke="black" d="M1137.79,-90.08C1146.89,-84.87 1156.07,-78.35 1163.04,-70.5 1169,-63.81 1173.51,-55.26 1176.86,-47.06"/>
<polygon fill="black" stroke="black" points="1180.12,-48.33 1180.2,-37.73 1173.53,-45.96 1180.12,-48.33"/>
<text xml:space="preserve" text-anchor="middle" x="1177.99" y="-57.2" font-family="Times,serif" font-size="14.00">X</text>
</g>
<!-- h130_75_118_214&#45;&gt;h130_75_118_14_p514 -->
<g id="edge35" class="edge">
<title>h130_75_118_214&#45;&gt;h130_75_118_14_p514</title>
<path fill="none" stroke="black" d="M1158.13,-93.27C1169.52,-88.13 1180.12,-80.84 1187.04,-70.5 1191.53,-63.81 1192.61,-55.45 1192.13,-47.43"/>
<polygon fill="black" stroke="black" points="1195.61,-47.06 1190.73,-37.65 1188.68,-48.05 1195.61,-47.06"/>
<text xml:space="preserve" text-anchor="middle" x="1196.93" y="-57.2" font-family="Times,serif" font-size="14.00">X</text>
</g>
<!-- h130_75_118_214&#45;&gt;h130_75_118_14_p514 -->
<g id="edge36" class="edge">
<title>h130_75_118_214&#45;&gt;h130_75_118_14_p514</title>
<path fill="none" stroke="black" d="M1169.04,-96.26C1183.49,-91.04 1197.1,-82.95 1206.04,-70.5 1211.33,-63.14 1209.92,-54.26 1206.01,-45.96"/>
<polygon fill="black" stroke="black" points="1209.15,-44.39 1201.06,-37.56 1203.13,-47.95 1209.15,-44.39"/>
<text xml:space="preserve" text-anchor="middle" x="1214.36" y="-57.2" font-family="Times,serif" font-size="14.00">X</text>
</g>
<!-- h130_75_118_214&#45;&gt;h130_75_118_14_p514 -->
<g id="edge37" class="edge">
<title>h130_75_118_214&#45;&gt;h130_75_118_14_p514</title>
<path fill="none" stroke="black" d="M1176.3,-99.58C1194.38,-94.42 1211.74,-85.53 1223.04,-70.5 1229.62,-61.75 1225.51,-52.11 1217.96,-43.56"/>
<polygon fill="black" stroke="black" points="1220.61,-41.25 1210.99,-36.81 1215.74,-46.28 1220.61,-41.25"/>
<text xml:space="preserve" text-anchor="middle" x="1231.2" y="-57.2" font-family="Times,serif" font-size="14.00">X</text>
</g>
<!-- h130_75_118_214&#45;&gt;h130_75_118_14_p514 -->
<g id="edge38" class="edge">
<title>h130_75_118_214&#45;&gt;h130_75_118_14_p514</title>
<path fill="none" stroke="black" d="M1169.04,-96.41C1199.53,-90.77 1230.86,-82.3 1240.04,-70.5 1248.17,-60.05 1241.28,-49.82 1229.97,-41.26"/>
<polygon fill="black" stroke="black" points="1232.17,-38.51 1221.9,-35.9 1228.3,-44.35 1232.17,-38.51"/>
<text xml:space="preserve" text-anchor="middle" x="1248.47" y="-57.2" font-family="Times,serif" font-size="14.00">X</text>
</g>
<!-- h130_75_118_214&#45;&gt;h130_75_118_14_p514 -->
<g id="edge39" class="edge">
<title>h130_75_118_214&#45;&gt;h130_75_118_14_p514</title>
<path fill="none" stroke="black" d="M1173.39,-98.03C1208.77,-92.7 1246.24,-84.02 1257.04,-70.5 1266.9,-58.17 1257.26,-47.45 1242.19,-39.03"/>
<polygon fill="black" stroke="black" points="1244.09,-36.06 1233.58,-34.76 1240.98,-42.33 1244.09,-36.06"/>
<text xml:space="preserve" text-anchor="middle" x="1265.91" y="-57.2" font-family="Times,serif" font-size="14.00">X</text>
</g>
<!-- h130_75_118_214&#45;&gt;h130_75_118_14_p514 -->
<g id="edge40" class="edge">
<title>h130_75_118_214&#45;&gt;h130_75_118_14_p514</title>
<path fill="none" stroke="black" d="M1176.41,-99.73C1217.33,-94.84 1262.34,-86.04 1275.04,-70.5 1286.78,-56.15 1274.51,-45.01 1255.65,-36.82"/>
<polygon fill="black" stroke="black" points="1256.94,-33.57 1246.35,-33.23 1254.42,-40.1 1256.94,-33.57"/>
<text xml:space="preserve" text-anchor="middle" x="1284.49" y="-57.2" font-family="Times,serif" font-size="14.00">X</text>
</g>
<!-- h130_75_118_214&#45;&gt;h130_75_118_14_p514 -->
<g id="edge41" class="edge">
<title>h130_75_118_214&#45;&gt;h130_75_118_14_p514</title>
<path fill="none" stroke="black" d="M1179.18,-101.22C1225.57,-96.86 1278.39,-88.08 1293.04,-70.5 1307.12,-53.61 1291.1,-41.88 1267.46,-33.94"/>
<polygon fill="black" stroke="black" points="1268.57,-30.62 1257.98,-31.09 1266.55,-37.32 1268.57,-30.62"/>
<text xml:space="preserve" text-anchor="middle" x="1303.17" y="-57.2" font-family="Times,serif" font-size="14.00">X</text>
</g>
<!-- h130_75_118_214&#45;&gt;h130_75_118_14_p514 -->
<g id="edge42" class="edge">
<title>h130_75_118_214&#45;&gt;h130_75_118_14_p514</title>
<path fill="none" stroke="black" d="M1180.63,-102.71C1232.99,-99.01 1295.17,-90.42 1312.04,-70.5 1328.89,-50.61 1308.06,-38.32 1278.72,-30.75"/>
<polygon fill="black" stroke="black" points="1279.59,-27.36 1269.05,-28.52 1278.01,-34.18 1279.59,-27.36"/>
<text xml:space="preserve" text-anchor="middle" x="1322.93" y="-57.2" font-family="Times,serif" font-size="14.00">X</text>
</g>
<!-- h130_75_118_214&#45;&gt;h130_75_118_14_p514 -->
<g id="edge43" class="edge">
<title>h130_75_118_214&#45;&gt;h130_75_118_14_p514</title>
<path fill="none" stroke="black" d="M1181.7,-104.08C1240.23,-101.16 1312.76,-92.94 1332.04,-70.5 1352.5,-46.7 1324.2,-33.89 1287.15,-27.01"/>
<polygon fill="black" stroke="black" points="1287.89,-23.58 1277.45,-25.39 1286.74,-30.49 1287.89,-23.58"/>
<text xml:space="preserve" text-anchor="middle" x="1343.77" y="-57.2" font-family="Times,serif" font-size="14.00">X</text>
</g>
<!-- h130_75_118_214&#45;&gt;h130_75_118_14_p514 -->
<g id="edge44" class="edge">
<title>h130_75_118_214&#45;&gt;h130_75_118_14_p514</title>
<path fill="none" stroke="black" d="M1182.11,-105.34C1247,-103.31 1331.13,-95.68 1353.04,-70.5 1377.89,-41.95 1339.2,-28.98 1292.73,-23.19"/>
<polygon fill="black" stroke="black" points="1293.26,-19.73 1282.93,-22.1 1292.48,-26.68 1293.26,-19.73"/>
<text xml:space="preserve" text-anchor="middle" x="1365.67" y="-57.2" font-family="Times,serif" font-size="14.00">X</text>
</g>
<!-- h130_75_118_214&#45;&gt;h130_75_118_14_p514 -->
<g id="edge45" class="edge">
<title>h130_75_118_214&#45;&gt;h130_75_118_14_p514</title>
<path fill="none" stroke="black" d="M1178.51,-100.81C1254.69,-95.34 1362.16,-85.14 1375.04,-70.5 1379.89,-64.99 1379.74,-59.64 1375.04,-54 1363.2,-39.78 1326.26,-31.31 1288.06,-26.28"/>
<polygon fill="black" stroke="black" points="1288.59,-22.82 1278.24,-25.08 1287.74,-29.77 1288.59,-22.82"/>
<text xml:space="preserve" text-anchor="middle" x="1383.5" y="-57.2" font-family="Times,serif" font-size="14.00">X</text>
</g>
<!-- h130_75_118_214&#45;&gt;h130_75_118_14_p514 -->
<g id="edge46" class="edge">
<title>h130_75_118_214&#45;&gt;h130_75_118_14_p514</title>
<path fill="none" stroke="black" d="M1179.19,-101.4C1260.29,-96.29 1378.08,-86.25 1392.04,-70.5 1396.91,-65.01 1396.78,-59.6 1392.04,-54 1378.41,-37.87 1334.69,-29.17 1290.92,-24.48"/>
<polygon fill="black" stroke="black" points="1291.31,-21 1281.01,-23.49 1290.61,-27.97 1291.31,-21"/>
<text xml:space="preserve" text-anchor="middle" x="1400.52" y="-57.2" font-family="Times,serif" font-size="14.00">X</text>
</g>
<!-- h130_75_118_214&#45;&gt;h130_75_118_14_p514 -->
<g id="edge47" class="edge">
<title>h130_75_118_214&#45;&gt;h130_75_118_14_p514</title>
<path fill="none" stroke="black" d="M1179.85,-101.94C1265.76,-97.19 1394,-87.36 1409.04,-70.5 1413.93,-65.03 1413.81,-59.57 1409.04,-54 1393.52,-35.86 1342.4,-27.05 1292.91,-22.81"/>
<polygon fill="black" stroke="black" points="1293.48,-19.34 1283.23,-22.04 1292.92,-26.32 1293.48,-19.34"/>
<text xml:space="preserve" text-anchor="middle" x="1417.54" y="-57.2" font-family="Times,serif" font-size="14.00">X</text>
</g>
<!-- h130_75_118_214&#45;&gt;h130_75_118_14_p514 -->
<g id="edge48" class="edge">
<title>h130_75_118_214&#45;&gt;h130_75_118_14_p514</title>
<path fill="none" stroke="black" d="M1180.54,-102.42C1271.16,-98.04 1409.91,-88.47 1426.04,-70.5 1430.94,-65.04 1430.84,-59.55 1426.04,-54 1408.54,-33.77 1349.46,-24.99 1294.19,-21.28"/>
<polygon fill="black" stroke="black" points="1294.54,-17.8 1284.34,-20.68 1294.11,-24.78 1294.54,-17.8"/>
<text xml:space="preserve" text-anchor="middle" x="1434.56" y="-57.2" font-family="Times,serif" font-size="14.00">X</text>
</g>
<!-- h130_75_118_214&#45;&gt;h130_75_118_14_p514 -->
<g id="edge49" class="edge">
<title>h130_75_118_214&#45;&gt;h130_75_118_14_p514</title>
<path fill="none" stroke="black" d="M1180.9,-102.87C1276.13,-98.87 1425.8,-89.61 1443.04,-70.5 1447.96,-65.06 1447.87,-59.52 1443.04,-54 1423.48,-31.61 1355.89,-22.99 1294.8,-19.9"/>
<polygon fill="black" stroke="black" points="1295.14,-16.41 1284.99,-19.45 1294.82,-23.4 1295.14,-16.41"/>
<text xml:space="preserve" text-anchor="middle" x="1451.57" y="-57.2" font-family="Times,serif" font-size="14.00">X</text>
</g>
<!-- h130_75_118_214&#45;&gt;h130_75_118_14_p514 -->
<g id="edge50" class="edge">
<title>h130_75_118_214&#45;&gt;h130_75_118_14_p514</title>
<path fill="none" stroke="black" d="M1180.95,-103.3C1280.68,-99.69 1441.66,-90.77 1460.04,-70.5 1464.97,-65.07 1464.89,-59.5 1460.04,-54 1448.47,-40.86 1361.19,-31.35 1288.01,-25.59"/>
<polygon fill="black" stroke="black" points="1288.61,-22.12 1278.37,-24.85 1288.07,-29.1 1288.61,-22.12"/>
<text xml:space="preserve" text-anchor="middle" x="1468.58" y="-57.2" font-family="Times,serif" font-size="14.00">X</text>
</g>
<!-- h130_75_118_214&#45;&gt;h130_75_118_14_p514 -->
<g id="edge51" class="edge">
<title>h130_75_118_214&#45;&gt;h130_75_118_14_p514</title>
<path fill="none" stroke="black" d="M1181.57,-103.67C1285.75,-100.43 1457.56,-91.89 1477.04,-70.5 1481.98,-65.08 1481.91,-59.49 1477.04,-54 1464.47,-39.83 1368.29,-30.32 1289.7,-24.84"/>
<polygon fill="black" stroke="black" points="1289.96,-21.35 1279.75,-24.16 1289.49,-28.33 1289.96,-21.35"/>
<text xml:space="preserve" text-anchor="middle" x="1485.6" y="-57.2" font-family="Times,serif" font-size="14.00">X</text>
</g>
<!-- h130_75_118_214&#45;&gt;h130_75_118_14_p514 -->
<g id="edge52" class="edge">
<title>h130_75_118_214&#45;&gt;h130_75_118_14_p514</title>
<path fill="none" stroke="black" d="M1181.5,-104.03C1289.98,-101.18 1473.41,-93.06 1494.04,-70.5 1523.56,-38.23 1394.08,-26.18 1293.7,-21.68"/>
<polygon fill="black" stroke="black" points="1293.88,-18.19 1283.74,-21.26 1293.59,-25.18 1293.88,-18.19"/>
<text xml:space="preserve" text-anchor="middle" x="1503.19" y="-57.2" font-family="Times,serif" font-size="14.00">X</text>
</g>
<!-- h130_75_118_214&#45;&gt;h130_75_118_14_p514 -->
<g id="edge53" class="edge">
<title>h130_75_118_214&#45;&gt;h130_75_118_14_p514</title>
<path fill="none" stroke="black" d="M1181.83,-104.37C1294.82,-101.93 1490.21,-94.28 1512.04,-70.5 1543.86,-35.85 1401.26,-24.46 1294.31,-20.74"/>
<polygon fill="black" stroke="black" points="1294.72,-17.26 1284.61,-20.43 1294.49,-24.25 1294.72,-17.26"/>
<text xml:space="preserve" text-anchor="middle" x="1521.44" y="-57.2" font-family="Times,serif" font-size="14.00">X</text>
</g>
<!-- h130_75_118_214&#45;&gt;h130_75_118_14_p514 -->
<g id="edge57" class="edge">
<title>h130_75_118_214&#45;&gt;h130_75_118_14_p514</title>
<path fill="none" stroke="black" d="M1181.93,-104.69C1299.29,-102.65 1506.99,-95.51 1530.04,-70.5 1564.2,-33.44 1408.08,-22.8 1294.68,-19.89"/>
<polygon fill="black" stroke="black" points="1295.1,-16.4 1285.02,-19.66 1294.93,-23.4 1295.1,-16.4"/>
<text xml:space="preserve" text-anchor="middle" x="1539.7" y="-57.2" font-family="Times,serif" font-size="14.00">X</text>
</g>
<!-- h130_104_19_203 -->
<g id="node6" class="node">
<title>h130_104_19_203</title>
<ellipse fill="none" stroke="black" cx="2208.04" cy="-106.5" rx="80.01" ry="18"/>
<text xml:space="preserve" text-anchor="middle" x="2208.04" y="-101.45" font-family="Times,serif" font-size="14.00">h130_104_19_203</text>
</g>
<!-- h130_75_118_14_p1080 -->
<g id="node7" class="node">
<title>h130_75_118_14_p1080</title>
<ellipse fill="none" stroke="black" cx="2125.04" cy="-18" rx="103.04" ry="18"/>
<text xml:space="preserve" text-anchor="middle" x="2125.04" y="-12.95" font-family="Times,serif" font-size="14.00">h130_75_118_14_p1080</text>
</g>
<!-- h130_104_19_203&#45;&gt;h130_75_118_14_p1080 -->
<g id="edge7" class="edge">
<title>h130_104_19_203&#45;&gt;h130_75_118_14_p1080</title>
<path fill="none" stroke="black" d="M2203.72,-88.19C2200.32,-77.39 2194.7,-63.74 2186.04,-54 2181.89,-49.32 2176.95,-45.12 2171.71,-41.38"/>
<polygon fill="black" stroke="black" points="2173.63,-38.45 2163.33,-35.98 2169.84,-44.34 2173.63,-38.45"/>
<text xml:space="preserve" text-anchor="middle" x="2200.99" y="-57.2" font-family="Times,serif" font-size="14.00">X</text>
</g>
<!-- h66_28_31_74 -->
<g id="node8" class="node">
<title>h66_28_31_74</title>
<ellipse fill="none" stroke="black" cx="2026.04" cy="-106.5" rx="66.19" ry="18"/>
<text xml:space="preserve" text-anchor="middle" x="2026.04" y="-101.45" font-family="Times,serif" font-size="14.00">h66_28_31_74</text>
</g>
<!-- h66_28_31_74&#45;&gt;h130_75_118_14_p514 -->
<g id="edge54" class="edge">
<title>h66_28_31_74&#45;&gt;h130_75_118_14_p514</title>
<path fill="none" stroke="black" d="M1965.83,-98.77C1875.37,-88.71 1699.03,-69.31 1549.04,-54 1458.63,-44.77 1355.52,-34.92 1282.17,-28.03"/>
<polygon fill="black" stroke="black" points="1282.91,-24.58 1272.63,-27.13 1282.26,-31.55 1282.91,-24.58"/>
<text xml:space="preserve" text-anchor="middle" x="1711.38" y="-57.2" font-family="Times,serif" font-size="14.00">X</text>
</g>
<!-- h66_28_31_74&#45;&gt;h130_75_118_14_p514 -->
<g id="edge55" class="edge">
<title>h66_28_31_74&#45;&gt;h130_75_118_14_p514</title>
<path fill="none" stroke="black" d="M1973.75,-95.04C1913.01,-83.27 1809.67,-64.45 1720.04,-54 1572.26,-36.78 1400.45,-27.42 1292.23,-22.81"/>
<polygon fill="black" stroke="black" points="1292.64,-19.33 1282.5,-22.41 1292.34,-26.32 1292.64,-19.33"/>
<text xml:space="preserve" text-anchor="middle" x="1834.73" y="-57.2" font-family="Times,serif" font-size="14.00">X</text>
</g>
<!-- h66_28_31_74&#45;&gt;h130_75_118_14_p514 -->
<g id="edge56" class="edge">
<title>h66_28_31_74&#45;&gt;h130_75_118_14_p514</title>
<path fill="none" stroke="black" d="M1986.86,-91.67C1950.38,-79.45 1894.26,-62.33 1844.04,-54 1741.32,-36.96 1452.26,-26.47 1293.24,-21.82"/>
<polygon fill="black" stroke="black" points="1293.63,-18.33 1283.54,-21.54 1293.43,-25.33 1293.63,-18.33"/>
<text xml:space="preserve" text-anchor="middle" x="1919.85" y="-57.2" font-family="Times,serif" font-size="14.00">X</text>
</g>
<!-- h66_28_31_74&#45;&gt;h130_75_118_14_p514 -->
<g id="edge58" class="edge">
<title>h66_28_31_74&#45;&gt;h130_75_118_14_p514</title>
<path fill="none" stroke="black" d="M2002.58,-89.22C1983.67,-77.08 1955.89,-61.36 1929.04,-54 1813.04,-22.2 1472.72,-18.14 1295.38,-18.29"/>
<polygon fill="black" stroke="black" points="1295.44,-14.79 1285.45,-18.3 1295.45,-21.79 1295.44,-14.79"/>
<text xml:space="preserve" text-anchor="middle" x="1972.97" y="-57.2" font-family="Times,serif" font-size="14.00">X</text>
</g>
<!-- h66_28_31_74&#45;&gt;h130_75_118_14_p514 -->
<g id="edge59" class="edge">
<title>h66_28_31_74&#45;&gt;h130_75_118_14_p514</title>
<path fill="none" stroke="black" d="M2016.57,-88.31C2008.95,-76.37 1997.05,-61.32 1982.04,-54 1921.95,-24.69 1499.05,-19.68 1294.86,-18.99"/>
<polygon fill="black" stroke="black" points="1295.05,-15.49 1285.03,-18.96 1295.02,-22.49 1295.05,-15.49"/>
<text xml:space="preserve" text-anchor="middle" x="2007.12" y="-57.2" font-family="Times,serif" font-size="14.00">X</text>
</g>
<!-- h66_28_31_74&#45;&gt;h130_75_118_14_p1080 -->
<g id="edge8" class="edge">
<title>h66_28_31_74&#45;&gt;h130_75_118_14_p1080</title>
<path fill="none" stroke="black" d="M2028.51,-88.38C2030.89,-77.37 2035.49,-63.43 2044.29,-54 2049.74,-48.17 2056.33,-43.25 2063.37,-39.13"/>
<polygon fill="black" stroke="black" points="2064.6,-42.44 2071.83,-34.69 2061.35,-36.24 2064.6,-42.44"/>
<text xml:space="preserve" text-anchor="middle" x="2049.17" y="-57.2" font-family="Times,serif" font-size="14.00">X</text>
</g>
<!-- h66_28_31_74&#45;&gt;h130_75_118_14_p1080 -->
<g id="edge9" class="edge">
<title>h66_28_31_74&#45;&gt;h130_75_118_14_p1080</title>
<path fill="none" stroke="black" d="M2041.58,-88.6C2051.44,-78.21 2064.67,-64.86 2077.29,-54 2081.76,-50.16 2086.62,-46.29 2091.47,-42.59"/>
<polygon fill="black" stroke="black" points="2093.53,-45.42 2099.47,-36.64 2089.35,-39.8 2093.53,-45.42"/>
<text xml:space="preserve" text-anchor="middle" x="2082.17" y="-57.2" font-family="Times,serif" font-size="14.00">X</text>
</g>
<!-- h66_28_31_74&#45;&gt;h130_75_118_14_p1080 -->
<g id="edge10" class="edge">
<title>h66_28_31_74&#45;&gt;h130_75_118_14_p1080</title>
<path fill="none" stroke="black" d="M2058.12,-90.37C2067.98,-84.88 2078.48,-78.14 2087.04,-70.5 2095.12,-63.3 2102.55,-54.13 2108.66,-45.53"/>
<polygon fill="black" stroke="black" points="2111.42,-47.69 2114.11,-37.45 2105.61,-43.78 2111.42,-47.69"/>
<text xml:space="preserve" text-anchor="middle" x="2106.27" y="-57.2" font-family="Times,serif" font-size="14.00">X</text>
</g>
<!-- h66_28_31_74&#45;&gt;h130_75_118_14_p1080 -->
<g id="edge11" class="edge">
<title>h66_28_31_74&#45;&gt;h130_75_118_14_p1080</title>
<path fill="none" stroke="black" d="M2077.72,-94.93C2091.65,-89.72 2105.49,-81.99 2115.04,-70.5 2120.43,-64.03 2123.23,-55.52 2124.61,-47.28"/>
<polygon fill="black" stroke="black" points="2128.07,-47.87 2125.58,-37.57 2121.1,-47.17 2128.07,-47.87"/>
<text xml:space="preserve" text-anchor="middle" x="2127.97" y="-57.2" font-family="Times,serif" font-size="14.00">X</text>
</g>
<!-- h66_28_31_74&#45;&gt;h130_75_118_14_p1080 -->
<g id="edge12" class="edge">
<title>h66_28_31_74&#45;&gt;h130_75_118_14_p1080</title>
<path fill="none" stroke="black" d="M2088.19,-99.98C2106.9,-95.07 2125.51,-86.22 2137.04,-70.5 2142.04,-63.68 2141.89,-55.1 2139.65,-46.91"/>
<polygon fill="black" stroke="black" points="2142.94,-45.7 2136.12,-37.6 2136.39,-48.19 2142.94,-45.7"/>
<text xml:space="preserve" text-anchor="middle" x="2146.01" y="-57.2" font-family="Times,serif" font-size="14.00">X</text>
</g>
<!-- h212_202_184_169 -->
<g id="node9" class="node">
<title>h212_202_184_169</title>
<ellipse fill="none" stroke="black" cx="2391.04" cy="-106.5" rx="84.62" ry="18"/>
<text xml:space="preserve" text-anchor="middle" x="2391.04" y="-101.45" font-family="Times,serif" font-size="14.00">h212_202_184_169</text>
</g>
<!-- h130_75_118_14_p1433 -->
<g id="node10" class="node">
<title>h130_75_118_14_p1433</title>
<ellipse fill="none" stroke="black" cx="2391.04" cy="-18" rx="103.04" ry="18"/>
<text xml:space="preserve" text-anchor="middle" x="2391.04" y="-12.95" font-family="Times,serif" font-size="14.00">h130_75_118_14_p1433</text>
</g>
<!-- h212_202_184_169&#45;&gt;h130_75_118_14_p1433 -->
<g id="edge60" class="edge">
<title>h212_202_184_169&#45;&gt;h130_75_118_14_p1433</title>
<path fill="none" stroke="black" d="M2391.04,-88.41C2391.04,-76.76 2391.04,-61.05 2391.04,-47.52"/>
<polygon fill="black" stroke="black" points="2394.54,-47.86 2391.04,-37.86 2387.54,-47.86 2394.54,-47.86"/>
<text xml:space="preserve" text-anchor="middle" x="2395.92" y="-57.2" font-family="Times,serif" font-size="14.00">X</text>
</g>
</g>
</svg>
