<?xml version="1.0" encoding="UTF-8" standalone="no"?>
<!DOCTYPE svg PUBLIC "-//W3C//DTD SVG 1.1//EN"
 "http://www.w3.org/Graphics/SVG/1.1/DTD/svg11.dtd">
<!-- Generated by graphviz version 14.1.1 (20251213.1925)
 -->
<!-- Title: unix Pages: 1 -->
<svg width="432pt" height="388pt"
 viewBox="0.00 0.00 432.00 388.00" xmlns="http://www.w3.org/2000/svg" xmlns:xlink="http://www.w3.org/1999/xlink">
<g id="graph0" class="graph" transform="scale(0.324635 0.324635) rotate(0) translate(4 1191.5)">
<title>unix</title>
<polygon fill="white" stroke="none" points="-4,4 -4,-1191.5 1326.73,-1191.5 1326.73,4 -4,4"/>
<text xml:space="preserve" text-anchor="middle" x="661.36" y="-43.3" font-family="Helvetica,sans-Serif" font-style="oblique" font-size="36.00">Object Oriented Graphs</text>
<text xml:space="preserve" text-anchor="middle" x="661.36" y="-6.55" font-family="Helvetica,sans-Serif" font-style="oblique" font-size="36.00">Stephen North, 3/19/93</text>
<!-- 5th Edition -->
<g id="node1" class="node">
<title>5th Edition</title>
<polygon fill="#ee8262" stroke="#ee8262" points="800.18,-1165.31 809.83,-1180.71 779.37,-1187.5 710,-1180.24 654.19,-1165.78 658.08,-1154.38 706.78,-1149.1 752.94,-1148.14 779.51,-1152.75 800.18,-1165.31"/>
<text xml:space="preserve" text-anchor="middle" x="738.99" y="-1159.08" font-family="Helvetica-Outline" font-size="14.00">5th Edition</text>
</g>
<!-- 6th Edition -->
<g id="node2" class="node">
<title>6th Edition</title>
<polygon fill="deepskyblue" stroke="deepskyblue" points="720.78,-1098.27 635.08,-1106.26 522.99,-1087.46 548.05,-1068.33 653.03,-1074.06 720.78,-1098.27"/>
<text xml:space="preserve" text-anchor="middle" x="615.99" y="-1081.08" font-family="Helvetica-Outline" font-size="14.00">6th Edition</text>
</g>
<!-- 5th Edition&#45;&gt;6th Edition -->
<g id="edge1" class="edge">
<title>5th Edition&#45;&gt;6th Edition</title>
<path fill="none" stroke="black" d="M714.1,-1148.5C696.92,-1137.89 673.76,-1123.57 654.25,-1111.52"/>
<polygon fill="black" stroke="black" points="656.36,-1108.71 646.01,-1106.43 652.68,-1114.66 656.36,-1108.71"/>
</g>
<!-- PWB 1.0 -->
<g id="node3" class="node">
<title>PWB 1.0</title>
<polygon fill="#eeb422" stroke="#eeb422" points="967.78,-1104.93 929.3,-1104.76 896.42,-1093.99 888.41,-1078.92 910.09,-1068.64 948.77,-1069.18 981.65,-1079.95 989.47,-1094.65 967.78,-1104.93"/>
<text xml:space="preserve" text-anchor="middle" x="938.99" y="-1081.08" font-family="Helvetica-Outline" font-size="14.00">PWB 1.0</text>
</g>
<!-- 5th Edition&#45;&gt;PWB 1.0 -->
<g id="edge2" class="edge">
<title>5th Edition&#45;&gt;PWB 1.0</title>
<path fill="none" stroke="black" d="M772.46,-1151.16C807.48,-1137.85 862.42,-1116.97 899.53,-1102.87"/>
<polygon fill="black" stroke="black" points="900.44,-1106.27 908.54,-1099.45 897.95,-1099.73 900.44,-1106.27"/>
</g>
<!-- LSX -->
<g id="node4" class="node">
<title>LSX</title>
<polygon fill="#eec591" stroke="#eec591" points="868.63,-1001.16 855.43,-1010.89 830.81,-1016.15 811.63,-1015.84 798.7,-1008.02 789.91,-994.29 794.7,-982.42 820.83,-980.51 854.24,-988.97 868.63,-1001.16"/>
<text xml:space="preserve" text-anchor="middle" x="824.99" y="-994" font-family="Helvetica-Outline" font-size="14.00">LSX</text>
</g>
<!-- 6th Edition&#45;&gt;LSX -->
<g id="edge3" class="edge">
<title>6th Edition&#45;&gt;LSX</title>
<path fill="none" stroke="black" d="M655.25,-1074.46C687.29,-1064.61 733.4,-1049.2 771.99,-1031.5 780.18,-1027.74 788.77,-1023.1 796.58,-1018.58"/>
<polygon fill="black" stroke="black" points="798.21,-1021.68 805.02,-1013.56 794.63,-1015.66 798.21,-1021.68"/>
</g>
<!-- 1 BSD -->
<g id="node5" class="node">
<title>1 BSD</title>
<polygon fill="#ffd700" stroke="#ffd700" points="212.47,-1004.75 200.79,-1019.11 159.79,-1017.58 126.47,-1002.66 132.04,-986.95 163.46,-980.32 194.89,-987.27 212.47,-1004.75"/>
<text xml:space="preserve" text-anchor="middle" x="169.99" y="-994" font-family="Helvetica-Outline" font-size="14.00">1 BSD</text>
</g>
<!-- 6th Edition&#45;&gt;1 BSD -->
<g id="edge4" class="edge">
<title>6th Edition&#45;&gt;1 BSD</title>
<path fill="none" stroke="black" d="M538.74,-1075.08C472.04,-1065.28 373.24,-1049.61 287.99,-1031.5 264.99,-1026.61 239.75,-1020.19 218.53,-1014.48"/>
<polygon fill="black" stroke="black" points="219.54,-1011.13 208.97,-1011.89 217.7,-1017.89 219.54,-1011.13"/>
</g>
<!-- Mini Unix -->
<g id="node6" class="node">
<title>Mini Unix</title>
<polygon fill="greenyellow" stroke="greenyellow" points="579.42,-1017.8 471.58,-1016.41 499.18,-981.84 601.78,-983.17 579.42,-1017.8"/>
<text xml:space="preserve" text-anchor="middle" x="537.99" y="-994" font-family="Helvetica-Outline" font-size="14.00">Mini Unix</text>
</g>
<!-- 6th Edition&#45;&gt;Mini Unix -->
<g id="edge5" class="edge">
<title>6th Edition&#45;&gt;Mini Unix</title>
<path fill="none" stroke="black" d="M602.4,-1071.06C591.02,-1058.64 574.52,-1040.65 561.07,-1025.98"/>
<polygon fill="black" stroke="black" points="563.92,-1023.91 554.58,-1018.91 558.76,-1028.64 563.92,-1023.91"/>
</g>
<!-- Wollongong -->
<g id="node7" class="node">
<title>Wollongong</title>
<polygon fill="darkseagreen" stroke="darkseagreen" points="707.24,-1019 627.38,-1007.47 638.19,-985.35 729.05,-985.31 763.08,-1001.9 707.24,-1019"/>
<text xml:space="preserve" text-anchor="middle" x="692.99" y="-994" font-family="Helvetica-Outline" font-size="14.00">Wollongong</text>
</g>
<!-- 6th Edition&#45;&gt;Wollongong -->
<g id="edge6" class="edge">
<title>6th Edition&#45;&gt;Wollongong</title>
<path fill="none" stroke="black" d="M628.02,-1072.58C639.87,-1059.49 658.2,-1039.24 672.37,-1023.58"/>
<polygon fill="black" stroke="black" points="674.62,-1026.31 678.73,-1016.55 669.43,-1021.62 674.62,-1026.31"/>
</g>
<!-- Interdata -->
<g id="node8" class="node">
<title>Interdata</title>
<polygon fill="#1e90ff" stroke="#1e90ff" points="381.15,-1025.15 296.75,-989.77 391.04,-983.77 431.01,-1000.53 381.15,-1025.15"/>
<text xml:space="preserve" text-anchor="middle" x="374.99" y="-994" font-family="Helvetica-Outline" font-size="14.00">Interdata</text>
</g>
<!-- 6th Edition&#45;&gt;Interdata -->
<g id="edge7" class="edge">
<title>6th Edition&#45;&gt;Interdata</title>
<path fill="none" stroke="black" d="M568.08,-1068.97C524.48,-1053.58 460.67,-1031.05 418.5,-1016.16"/>
<polygon fill="black" stroke="black" points="419.76,-1012.9 409.17,-1012.87 417.43,-1019.5 419.76,-1012.9"/>
</g>
<!-- PWB 1.2 -->
<g id="node28" class="node">
<title>PWB 1.2</title>
<polygon fill="cyan" stroke="cyan" points="958.93,-1029.12 914.84,-1025.27 886.74,-994.81 897.98,-968.11 942.3,-972.71 983.14,-994.4 988.98,-1014.21 958.93,-1029.12"/>
<text xml:space="preserve" text-anchor="middle" x="938.99" y="-994" font-family="Helvetica-Outline" font-size="14.00">PWB 1.2</text>
</g>
<!-- PWB 1.0&#45;&gt;PWB 1.2 -->
<g id="edge31" class="edge">
<title>PWB 1.0&#45;&gt;PWB 1.2</title>
<path fill="none" stroke="black" d="M938.99,-1068.66C938.99,-1060.12 938.99,-1049.45 938.99,-1039.11"/>
<polygon fill="black" stroke="black" points="942.49,-1039.22 938.99,-1029.22 935.49,-1039.22 942.49,-1039.22"/>
</g>
<!-- USG 1.0 -->
<g id="node29" class="node">
<title>USG 1.0</title>
<polygon fill="blue" stroke="blue" points="1128.96,-1024.9 1008.75,-993.96 1102.53,-983.85 1151.71,-996.51 1128.96,-1024.9"/>
<text xml:space="preserve" text-anchor="middle" x="1097.99" y="-994" font-family="Helvetica-Outline" font-size="14.00">USG 1.0</text>
</g>
<!-- PWB 1.0&#45;&gt;USG 1.0 -->
<g id="edge32" class="edge">
<title>PWB 1.0&#45;&gt;USG 1.0</title>
<path fill="none" stroke="black" d="M962.45,-1073.32C990.27,-1058.44 1036.71,-1033.59 1067.34,-1017.2"/>
<polygon fill="black" stroke="black" points="1068.96,-1020.3 1076.13,-1012.5 1065.66,-1014.13 1068.96,-1020.3"/>
</g>
<!-- 2 BSD -->
<g id="node19" class="node">
<title>2 BSD</title>
<polygon fill="blanchedalmond" stroke="blanchedalmond" points="127,-568.43 92.58,-567.76 74.31,-554.89 85.92,-539.41 118.63,-532.84 147.86,-540.3 151.61,-556.23 127,-568.43"/>
<text xml:space="preserve" text-anchor="middle" x="113.99" y="-545.61" font-family="Helvetica-Outline" font-size="14.00">2 BSD</text>
</g>
<!-- 1 BSD&#45;&gt;2 BSD -->
<g id="edge19" class="edge">
<title>1 BSD&#45;&gt;2 BSD</title>
<path fill="none" stroke="black" d="M164.05,-979.97C154.06,-946.56 134.99,-874.59 134.99,-812.34 134.99,-812.34 134.99,-812.34 134.99,-718.54 134.99,-669.09 125.71,-612 119.49,-579.26"/>
<polygon fill="black" stroke="black" points="123.01,-578.99 117.65,-569.85 116.14,-580.33 123.01,-578.99"/>
</g>
<!-- Unix/TS 3.0 -->
<g id="node9" class="node">
<title>Unix/TS 3.0</title>
<polygon fill="#eed2ee" stroke="#eed2ee" points="969.13,-734.99 940.94,-746.05 864,-738.15 783.38,-715.91 771.22,-699.24 834.65,-697.89 911.59,-705.8 956.97,-718.32 969.13,-734.99"/>
<text xml:space="preserve" text-anchor="middle" x="878.99" y="-713.74" font-family="Helvetica-Outline" font-size="14.00">Unix/TS 3.0</text>
</g>
<!-- Interdata&#45;&gt;Unix/TS 3.0 -->
<g id="edge8" class="edge">
<title>Interdata&#45;&gt;Unix/TS 3.0</title>
<path fill="none" stroke="black" d="M397.29,-986.26C456.74,-952.85 624,-859.06 763.99,-782.45 789.74,-768.36 818.87,-752.68 841.36,-740.63"/>
<polygon fill="black" stroke="black" points="843.01,-743.72 850.18,-735.91 839.71,-737.55 843.01,-743.72"/>
</g>
<!-- PWB 2.0 -->
<g id="node10" class="node">
<title>PWB 2.0</title>
<polygon fill="#a2cd5a" stroke="#a2cd5a" points="865.81,-920.77 800.01,-924.37 709.95,-903.55 722.16,-887.57 806.2,-888.19 859.79,-900.57 865.81,-920.77"/>
<text xml:space="preserve" text-anchor="middle" x="793.99" y="-898.37" font-family="Helvetica-Outline" font-size="14.00">PWB 2.0</text>
</g>
<!-- Interdata&#45;&gt;PWB 2.0 -->
<g id="edge9" class="edge">
<title>Interdata&#45;&gt;PWB 2.0</title>
<path fill="none" stroke="black" d="M401.95,-987.96C419.17,-981.4 442.11,-973.32 462.99,-968.11 564.66,-942.75 593.52,-954.04 695.99,-932.11 713.51,-928.36 732.55,-923.35 749.15,-918.66"/>
<polygon fill="black" stroke="black" points="750.11,-922.03 758.75,-915.91 748.18,-915.3 750.11,-922.03"/>
</g>
<!-- 7th Edition -->
<g id="node11" class="node">
<title>7th Edition</title>
<polygon fill="chocolate" stroke="chocolate" points="422.25,-911.94 402.5,-923.27 372.25,-927.3 340.56,-920.78 320.49,-906.85 322.77,-892.96 347.47,-885.07 382.69,-884.48 412.48,-889.69 426.42,-899.37 422.25,-911.94"/>
<text xml:space="preserve" text-anchor="middle" x="374.99" y="-898.37" font-family="Helvetica-Outline" font-size="14.00">7th Edition</text>
</g>
<!-- Interdata&#45;&gt;7th Edition -->
<g id="edge10" class="edge">
<title>Interdata&#45;&gt;7th Edition</title>
<path fill="none" stroke="black" d="M374.99,-984.58C374.99,-972.43 374.99,-954.47 374.99,-938.7"/>
<polygon fill="black" stroke="black" points="378.49,-938.72 374.99,-928.72 371.49,-938.72 378.49,-938.72"/>
</g>
<!-- TS 4.0 -->
<g id="node38" class="node">
<title>TS 4.0</title>
<polygon fill="crimson" stroke="crimson" points="1021.84,-572.59 1001.07,-577.36 962.7,-572.21 926.94,-562.25 905.33,-550.08 899.25,-536.48 908.9,-525.46 936.16,-524.35 976.16,-536.7 1011.51,-556.6 1021.84,-572.59"/>
<text xml:space="preserve" text-anchor="middle" x="954.99" y="-545.61" font-family="Helvetica-Outline" font-size="14.00">TS 4.0</text>
</g>
<!-- Unix/TS 3.0&#45;&gt;TS 4.0 -->
<g id="edge44" class="edge">
<title>Unix/TS 3.0&#45;&gt;TS 4.0</title>
<path fill="none" stroke="black" d="M886.14,-702.91C899.21,-674.34 927.08,-613.41 943.06,-578.47"/>
<polygon fill="black" stroke="black" points="946.19,-580.04 947.17,-569.49 939.83,-577.13 946.19,-580.04"/>
</g>
<!-- PWB 2.0&#45;&gt;Unix/TS 3.0 -->
<g id="edge42" class="edge">
<title>PWB 2.0&#45;&gt;Unix/TS 3.0</title>
<path fill="none" stroke="black" d="M785.77,-887.55C774.3,-863.39 756.89,-816.2 775.99,-782.45 787.94,-761.32 810.3,-746.61 831.14,-736.85"/>
<polygon fill="black" stroke="black" points="832.37,-740.14 840.13,-732.93 829.57,-733.72 832.37,-740.14"/>
</g>
<!-- 8th Edition -->
<g id="node12" class="node">
<title>8th Edition</title>
<polygon fill="#00c5cd" stroke="#00c5cd" points="663.28,-474.34 613.24,-459.7 647.71,-430.18 791.71,-472.32 663.28,-474.34"/>
<text xml:space="preserve" text-anchor="middle" x="678.99" y="-453.34" font-family="Helvetica-Outline" font-size="14.00">8th Edition</text>
</g>
<!-- 7th Edition&#45;&gt;8th Edition -->
<g id="edge11" class="edge">
<title>7th Edition&#45;&gt;8th Edition</title>
<path fill="none" stroke="black" d="M418.7,-893.47C488.48,-877.81 617.94,-847.93 624.99,-840.23 661.33,-800.48 643.99,-774.4 643.99,-720.54 643.99,-720.54 643.99,-720.54 643.99,-634.55 643.99,-580.4 660.4,-518.61 670.75,-485.05"/>
<polygon fill="black" stroke="black" points="673.98,-486.44 673.66,-475.85 667.31,-484.33 673.98,-486.44"/>
</g>
<!-- 32V -->
<g id="node13" class="node">
<title>32V</title>
<polygon fill="#4f94cd" stroke="#4f94cd" points="611.52,-816.45 614.29,-833.15 566.68,-830.1 520.05,-812.91 525.04,-797.88 555.46,-791.5 582.87,-797.38 611.52,-816.45"/>
<text xml:space="preserve" text-anchor="middle" x="567.99" y="-805.54" font-family="Helvetica-Outline" font-size="14.00">32V</text>
</g>
<!-- 7th Edition&#45;&gt;32V -->
<g id="edge12" class="edge">
<title>7th Edition&#45;&gt;32V</title>
<path fill="none" stroke="black" d="M407.5,-888.36C435.11,-875.73 475.75,-857 510.99,-840.23 519.15,-836.34 527.93,-832.08 536.1,-828.09"/>
<polygon fill="black" stroke="black" points="537.59,-831.26 545.03,-823.71 534.51,-824.97 537.59,-831.26"/>
</g>
<!-- V7M -->
<g id="node14" class="node">
<title>V7M</title>
<polygon fill="navy" stroke="navy" points="101.97,-725.93 95.79,-736.12 72.5,-739.98 49.74,-739.27 32.87,-733.03 17.51,-719.64 6.18,-702.97 11.97,-692.64 41.41,-695.82 79.92,-710.06 101.97,-725.93"/>
<text xml:space="preserve" text-anchor="middle" x="50.99" y="-713.74" font-family="Helvetica-Outline" font-size="14.00">V7M</text>
</g>
<!-- 7th Edition&#45;&gt;V7M -->
<g id="edge13" class="edge">
<title>7th Edition&#45;&gt;V7M</title>
<path fill="none" stroke="black" d="M322.24,-894.69C278.51,-885.95 215.98,-869.39 167.99,-840.23 128.67,-816.34 93.23,-776.22 71.91,-749.08"/>
<polygon fill="black" stroke="black" points="74.77,-747.06 65.9,-741.27 69.23,-751.33 74.77,-747.06"/>
</g>
<!-- Ultrix&#45;11 -->
<g id="node15" class="node">
<title>Ultrix&#45;11</title>
<polygon fill="#698b69" stroke="#698b69" points="177.38,-358.51 178.99,-369.37 156.91,-378.56 129.56,-383.28 103.58,-381.46 76.55,-372.93 54.98,-360.67 57.1,-350.08 92.07,-345.89 142.73,-349.44 177.38,-358.51"/>
<text xml:space="preserve" text-anchor="middle" x="116.99" y="-359.22" font-family="Helvetica-Outline" font-size="14.00">Ultrix&#45;11</text>
</g>
<!-- 7th Edition&#45;&gt;Ultrix&#45;11 -->
<g id="edge14" class="edge">
<title>7th Edition&#45;&gt;Ultrix&#45;11</title>
<path fill="none" stroke="black" d="M321.54,-898.11C282.18,-891.45 230.55,-876.01 200.99,-840.23 166.68,-798.71 181.99,-774.4 181.99,-720.54 181.99,-720.54 181.99,-720.54 181.99,-550.41 181.99,-491.96 152.58,-428.72 133.33,-393.58"/>
<polygon fill="black" stroke="black" points="136.41,-391.93 128.46,-384.93 130.31,-395.36 136.41,-391.93"/>
</g>
<!-- Xenix -->
<g id="node16" class="node">
<title>Xenix</title>
<polygon fill="coral" stroke="coral" points="302.22,-829.93 270.9,-831.69 234.21,-823.36 213.65,-809.83 215.69,-795.34 239.13,-788.4 275.82,-796.72 304.26,-815.45 302.22,-829.93"/>
<text xml:space="preserve" text-anchor="middle" x="256.99" y="-805.54" font-family="Helvetica-Outline" font-size="14.00">Xenix</text>
</g>
<!-- 7th Edition&#45;&gt;Xenix -->
<g id="edge15" class="edge">
<title>7th Edition&#45;&gt;Xenix</title>
<path fill="none" stroke="black" d="M350.82,-884.57C333.56,-871.28 310.09,-853.21 290.94,-838.47"/>
<polygon fill="black" stroke="black" points="293.19,-835.79 283.13,-832.46 288.92,-841.34 293.19,-835.79"/>
</g>
<!-- UniPlus+ -->
<g id="node17" class="node">
<title>UniPlus+</title>
<polygon fill="#a2cd5a" stroke="#a2cd5a" points="480.01,-825.61 448.64,-836.25 369.43,-822.35 322.26,-800.16 362.91,-792.17 431.5,-796.04 469.16,-806.8 480.01,-825.61"/>
<text xml:space="preserve" text-anchor="middle" x="411.99" y="-805.54" font-family="Helvetica-Outline" font-size="14.00">UniPlus+</text>
</g>
<!-- 7th Edition&#45;&gt;UniPlus+ -->
<g id="edge16" class="edge">
<title>7th Edition&#45;&gt;UniPlus+</title>
<path fill="none" stroke="black" d="M382.65,-884.35C387.95,-871.35 395.07,-853.86 400.98,-839.37"/>
<polygon fill="black" stroke="black" points="404.1,-840.98 404.63,-830.4 397.62,-838.34 404.1,-840.98"/>
</g>
<!-- 9th Edition -->
<g id="node18" class="node">
<title>9th Edition</title>
<polygon fill="#cd5b45" stroke="#cd5b45" points="772.38,-378.95 734.56,-388.81 686.53,-379.43 667.46,-359.2 694.71,-344.67 743.42,-344.88 775.85,-359.19 772.38,-378.95"/>
<text xml:space="preserve" text-anchor="middle" x="724.99" y="-359.22" font-family="Helvetica-Outline" font-size="14.00">9th Edition</text>
</g>
<!-- 8th Edition&#45;&gt;9th Edition -->
<g id="edge18" class="edge">
<title>8th Edition&#45;&gt;9th Edition</title>
<path fill="none" stroke="black" d="M687.21,-441.67C693.59,-428.88 702.61,-410.83 710.23,-395.56"/>
<polygon fill="black" stroke="black" points="713.23,-397.4 714.56,-386.89 706.96,-394.28 713.23,-397.4"/>
</g>
<!-- 3 BSD -->
<g id="node22" class="node">
<title>3 BSD</title>
<polygon fill="lemonchiffon" stroke="lemonchiffon" points="556.93,-715.42 556.38,-726.86 538.49,-735.51 506.91,-737.54 474.93,-732.38 458.68,-722.64 465.6,-712.22 489.85,-704.6 518.99,-702.18 543.11,-706.07 556.93,-715.42"/>
<text xml:space="preserve" text-anchor="middle" x="510.99" y="-713.74" font-family="Helvetica-Outline" font-size="14.00">3 BSD</text>
</g>
<!-- 32V&#45;&gt;3 BSD -->
<g id="edge23" class="edge">
<title>32V&#45;&gt;3 BSD</title>
<path fill="none" stroke="black" d="M555.9,-791.3C547.56,-778.16 536.38,-760.55 527.26,-746.18"/>
<polygon fill="black" stroke="black" points="530.46,-744.7 522.15,-738.13 524.55,-748.45 530.46,-744.7"/>
</g>
<!-- V7M&#45;&gt;Ultrix&#45;11 -->
<g id="edge17" class="edge">
<title>V7M&#45;&gt;Ultrix&#45;11</title>
<path fill="none" stroke="black" d="M50.82,-699.04C50.87,-663.81 52.56,-587.36 64.99,-524.35 74.36,-476.82 93.71,-423.73 105.99,-392.69"/>
<polygon fill="black" stroke="black" points="109.12,-394.29 109.59,-383.71 102.62,-391.68 109.12,-394.29"/>
</g>
<!-- 2.8 BSD -->
<g id="node20" class="node">
<title>2.8 BSD</title>
<polygon fill="#b0e2ff" stroke="#b0e2ff" points="274.94,-476.25 220.87,-460.81 268.54,-439.03 343.59,-460.45 274.94,-476.25"/>
<text xml:space="preserve" text-anchor="middle" x="276.99" y="-453.34" font-family="Helvetica-Outline" font-size="14.00">2.8 BSD</text>
</g>
<!-- 2 BSD&#45;&gt;2.8 BSD -->
<g id="edge20" class="edge">
<title>2 BSD&#45;&gt;2.8 BSD</title>
<path fill="none" stroke="black" d="M137.69,-537.28C166.56,-521.29 215.38,-494.25 246.89,-476.8"/>
<polygon fill="black" stroke="black" points="248.48,-479.93 255.53,-472.02 245.09,-473.8 248.48,-479.93"/>
</g>
<!-- 2.8 BSD&#45;&gt;Ultrix&#45;11 -->
<g id="edge21" class="edge">
<title>2.8 BSD&#45;&gt;Ultrix&#45;11</title>
<path fill="none" stroke="black" d="M254.4,-445.13C228.05,-429.96 184.14,-404.68 153.05,-386.78"/>
<polygon fill="black" stroke="black" points="155.17,-383.97 144.76,-382.01 151.68,-390.03 155.17,-383.97"/>
</g>
<!-- 2.9 BSD -->
<g id="node21" class="node">
<title>2.9 BSD</title>
<polygon fill="#76eec6" stroke="#76eec6" points="249.19,-379.66 215,-351.89 287.22,-336.11 356.54,-392.41 249.19,-379.66"/>
<text xml:space="preserve" text-anchor="middle" x="276.99" y="-359.22" font-family="Helvetica-Outline" font-size="14.00">2.9 BSD</text>
</g>
<!-- 2.8 BSD&#45;&gt;2.9 BSD -->
<g id="edge22" class="edge">
<title>2.8 BSD&#45;&gt;2.9 BSD</title>
<path fill="none" stroke="black" d="M276.99,-441.24C276.99,-428.29 276.99,-410.11 276.99,-394.87"/>
<polygon fill="black" stroke="black" points="280.49,-394.95 276.99,-384.95 273.49,-394.95 280.49,-394.95"/>
</g>
<!-- 4 BSD -->
<g id="node23" class="node">
<title>4 BSD</title>
<polygon fill="#ff7f00" stroke="#ff7f00" points="539.43,-648.07 485.44,-651.89 457.08,-633.13 475.64,-614.47 562.34,-630.2 539.43,-648.07"/>
<text xml:space="preserve" text-anchor="middle" x="503.99" y="-629.75" font-family="Helvetica-Outline" font-size="14.00">4 BSD</text>
</g>
<!-- 3 BSD&#45;&gt;4 BSD -->
<g id="edge24" class="edge">
<title>3 BSD&#45;&gt;4 BSD</title>
<path fill="none" stroke="black" d="M509.64,-702.74C508.66,-691.26 507.31,-675.49 506.18,-662.23"/>
<polygon fill="black" stroke="black" points="509.68,-662.11 505.34,-652.45 502.71,-662.71 509.68,-662.11"/>
</g>
<!-- 4.1 BSD -->
<g id="node24" class="node">
<title>4.1 BSD</title>
<polygon fill="#ffffe0" stroke="#ffffe0" points="509.62,-571.86 436.44,-554.96 461.5,-528.45 556.39,-550.36 509.62,-571.86"/>
<text xml:space="preserve" text-anchor="middle" x="490.99" y="-545.61" font-family="Helvetica-Outline" font-size="14.00">4.1 BSD</text>
</g>
<!-- 4 BSD&#45;&gt;4.1 BSD -->
<g id="edge25" class="edge">
<title>4 BSD&#45;&gt;4.1 BSD</title>
<path fill="none" stroke="black" d="M501.48,-618.72C499.73,-607.65 497.35,-592.59 495.29,-579.63"/>
<polygon fill="black" stroke="black" points="498.79,-579.3 493.77,-569.97 491.87,-580.4 498.79,-579.3"/>
</g>
<!-- 4.1 BSD&#45;&gt;8th Edition -->
<g id="edge28" class="edge">
<title>4.1 BSD&#45;&gt;8th Edition</title>
<path fill="none" stroke="black" d="M512.92,-539.88C545.15,-524.4 605.62,-495.37 644.02,-476.93"/>
<polygon fill="black" stroke="black" points="645.35,-480.17 652.85,-472.68 642.32,-473.86 645.35,-480.17"/>
</g>
<!-- 4.1 BSD&#45;&gt;2.8 BSD -->
<g id="edge27" class="edge">
<title>4.1 BSD&#45;&gt;2.8 BSD</title>
<path fill="none" stroke="black" d="M454.68,-535.1C414.9,-518.31 351.51,-491.57 312.17,-474.98"/>
<polygon fill="black" stroke="black" points="313.72,-471.83 303.15,-471.17 311,-478.28 313.72,-471.83"/>
</g>
<!-- 4.2 BSD -->
<g id="node25" class="node">
<title>4.2 BSD</title>
<polygon fill="#68228b" stroke="#68228b" points="548.22,-482.11 522.79,-486.52 475.29,-480.47 432.15,-470.21 406.7,-458.15 398.37,-444.03 407.18,-431.75 438.07,-429.92 487.55,-443.19 533.55,-464.99 548.22,-482.11"/>
<text xml:space="preserve" text-anchor="middle" x="464.99" y="-453.34" font-family="Helvetica-Outline" font-size="14.00">4.2 BSD</text>
</g>
<!-- 4.1 BSD&#45;&gt;4.2 BSD -->
<g id="edge26" class="edge">
<title>4.1 BSD&#45;&gt;4.2 BSD</title>
<path fill="none" stroke="black" d="M486.22,-533.85C482.75,-521.8 477.95,-505.14 473.79,-490.7"/>
<polygon fill="black" stroke="black" points="477.18,-489.83 471.05,-481.18 470.45,-491.76 477.18,-489.83"/>
</g>
<!-- 4.3 BSD -->
<g id="node26" class="node">
<title>4.3 BSD</title>
<polygon fill="#eee9bf" stroke="#eee9bf" points="642.56,-377.73 621,-389.91 592.94,-392.58 569.23,-384.92 558.87,-369.77 565.67,-352.68 586.97,-340.13 614.78,-337.08 638.59,-344.89 649.26,-360.51 642.56,-377.73"/>
<text xml:space="preserve" text-anchor="middle" x="603.99" y="-359.22" font-family="Helvetica-Outline" font-size="14.00">4.3 BSD</text>
</g>
<!-- 4.2 BSD&#45;&gt;4.3 BSD -->
<g id="edge29" class="edge">
<title>4.2 BSD&#45;&gt;4.3 BSD</title>
<path fill="none" stroke="black" d="M487.94,-442.92C508.43,-429.35 538.91,-409.15 563.49,-392.86"/>
<polygon fill="black" stroke="black" points="565.27,-395.88 571.67,-387.44 561.4,-390.04 565.27,-395.88"/>
</g>
<!-- Ultrix&#45;32 -->
<g id="node27" class="node">
<title>Ultrix&#45;32</title>
<polygon fill="#cd9b1d" stroke="#cd9b1d" points="485.93,-381.82 411.55,-373.38 393.42,-344.06 541.04,-360.81 485.93,-381.82"/>
<text xml:space="preserve" text-anchor="middle" x="457.99" y="-359.22" font-family="Helvetica-Outline" font-size="14.00">Ultrix&#45;32</text>
</g>
<!-- 4.2 BSD&#45;&gt;Ultrix&#45;32 -->
<g id="edge30" class="edge">
<title>4.2 BSD&#45;&gt;Ultrix&#45;32</title>
<path fill="none" stroke="black" d="M463.33,-436.31C462.28,-422.56 460.93,-404.79 459.85,-390.56"/>
<polygon fill="black" stroke="black" points="463.35,-390.37 459.1,-380.66 456.37,-390.9 463.35,-390.37"/>
</g>
<!-- PWB 1.2&#45;&gt;PWB 2.0 -->
<g id="edge33" class="edge">
<title>PWB 1.2&#45;&gt;PWB 2.0</title>
<path fill="none" stroke="black" d="M896.27,-971.22C875.83,-958.02 851.57,-942.35 831.8,-929.59"/>
<polygon fill="black" stroke="black" points="833.78,-926.7 823.48,-924.22 829.99,-932.58 833.78,-926.7"/>
</g>
<!-- CB Unix 1 -->
<g id="node30" class="node">
<title>CB Unix 1</title>
<polygon fill="firebrick" stroke="firebrick" points="1198.85,-912.17 1185.88,-924.53 1150.26,-928 1112.6,-922.17 1084.47,-907.91 1073.01,-890.06 1087.51,-878.18 1128.6,-880.07 1175.69,-894.45 1198.85,-912.17"/>
<text xml:space="preserve" text-anchor="middle" x="1132.99" y="-898.37" font-family="Helvetica-Outline" font-size="14.00">CB Unix 1</text>
</g>
<!-- USG 1.0&#45;&gt;CB Unix 1 -->
<g id="edge34" class="edge">
<title>USG 1.0&#45;&gt;CB Unix 1</title>
<path fill="none" stroke="black" d="M1103.61,-983.76C1108.51,-970.66 1115.76,-951.26 1121.83,-935.02"/>
<polygon fill="black" stroke="black" points="1125.05,-936.4 1125.27,-925.81 1118.49,-933.95 1125.05,-936.4"/>
</g>
<!-- USG 2.0 -->
<g id="node31" class="node">
<title>USG 2.0</title>
<polygon fill="#458b00" stroke="#458b00" points="953.79,-931.21 898.64,-876.23 1005.18,-890.09 1034.34,-919.16 953.79,-931.21"/>
<text xml:space="preserve" text-anchor="middle" x="972.99" y="-898.37" font-family="Helvetica-Outline" font-size="14.00">USG 2.0</text>
</g>
<!-- USG 1.0&#45;&gt;USG 2.0 -->
<g id="edge35" class="edge">
<title>USG 1.0&#45;&gt;USG 2.0</title>
<path fill="none" stroke="black" d="M1080.61,-985.79C1061.89,-971.77 1031.62,-949.09 1007.94,-931.36"/>
<polygon fill="black" stroke="black" points="1010.22,-928.69 1000.12,-925.49 1006.02,-934.29 1010.22,-928.69"/>
</g>
<!-- CB Unix 2 -->
<g id="node32" class="node">
<title>CB Unix 2</title>
<polygon fill="greenyellow" stroke="greenyellow" points="1295.93,-809.79 1304,-823.99 1289.53,-833.37 1244.64,-831.45 1191.61,-820.08 1167.25,-807.14 1185.97,-798.68 1227.24,-795.06 1261.89,-794.78 1281.8,-799.05 1295.93,-809.79"/>
<text xml:space="preserve" text-anchor="middle" x="1244.99" y="-805.54" font-family="Helvetica-Outline" font-size="14.00">CB Unix 2</text>
</g>
<!-- CB Unix 1&#45;&gt;CB Unix 2 -->
<g id="edge36" class="edge">
<title>CB Unix 1&#45;&gt;CB Unix 2</title>
<path fill="none" stroke="black" d="M1152.75,-887.14C1170.61,-872.65 1197.1,-851.18 1217.11,-834.95"/>
<polygon fill="black" stroke="black" points="1219.05,-837.88 1224.62,-828.86 1214.65,-832.44 1219.05,-837.88"/>
</g>
<!-- USG 3.0 -->
<g id="node36" class="node">
<title>USG 3.0</title>
<polygon fill="#eed5b7" stroke="#eed5b7" points="881.1,-829.62 823.57,-813.73 838.44,-782.45 972.83,-819.55 881.1,-829.62"/>
<text xml:space="preserve" text-anchor="middle" x="878.99" y="-805.54" font-family="Helvetica-Outline" font-size="14.00">USG 3.0</text>
</g>
<!-- USG 2.0&#45;&gt;USG 3.0 -->
<g id="edge40" class="edge">
<title>USG 2.0&#45;&gt;USG 3.0</title>
<path fill="none" stroke="black" d="M952.12,-883.01C937.79,-869.16 918.71,-850.72 903.63,-836.15"/>
<polygon fill="black" stroke="black" points="906.43,-833.99 896.81,-829.56 901.57,-839.03 906.43,-833.99"/>
</g>
<!-- CB Unix 3 -->
<g id="node33" class="node">
<title>CB Unix 3</title>
<polygon fill="#8b7d6b" stroke="#8b7d6b" points="1216.75,-717.86 1235.36,-733.5 1225.95,-743.81 1176.01,-741.78 1110.77,-729.37 1075.04,-715.1 1088.61,-705.59 1130.21,-701.4 1167.86,-701.09 1193.31,-705.93 1216.75,-717.86"/>
<text xml:space="preserve" text-anchor="middle" x="1161.99" y="-713.74" font-family="Helvetica-Outline" font-size="14.00">CB Unix 3</text>
</g>
<!-- CB Unix 2&#45;&gt;CB Unix 3 -->
<g id="edge37" class="edge">
<title>CB Unix 2&#45;&gt;CB Unix 3</title>
<path fill="none" stroke="black" d="M1230.53,-794.7C1219.35,-782.6 1203.53,-765.48 1189.9,-750.74"/>
<polygon fill="black" stroke="black" points="1192.57,-748.47 1183.21,-743.51 1187.43,-753.23 1192.57,-748.47"/>
</g>
<!-- Unix/TS++ -->
<g id="node34" class="node">
<title>Unix/TS++</title>
<polygon fill="#eed5d2" stroke="#eed5d2" points="1136.55,-642.09 1102.93,-655.44 1003.97,-646.98 983.43,-629.01 1039.44,-617.58 1093.6,-622.21 1136.55,-642.09"/>
<text xml:space="preserve" text-anchor="middle" x="1059.99" y="-629.75" font-family="Helvetica-Outline" font-size="14.00">Unix/TS++</text>
</g>
<!-- CB Unix 3&#45;&gt;Unix/TS++ -->
<g id="edge38" class="edge">
<title>CB Unix 3&#45;&gt;Unix/TS++</title>
<path fill="none" stroke="black" d="M1140.11,-700.95C1125.72,-689.39 1106.68,-674.09 1090.78,-661.3"/>
<polygon fill="black" stroke="black" points="1093,-658.6 1083.01,-655.06 1088.61,-664.05 1093,-658.6"/>
</g>
<!-- PDP&#45;11 Sys V -->
<g id="node35" class="node">
<title>PDP&#45;11 Sys V</title>
<polygon fill="#98f5ff" stroke="#98f5ff" points="1309.07,-640.27 1284.11,-650.77 1236.98,-654.62 1193.87,-650.91 1168.61,-640.02 1166.63,-625.67 1193.02,-615.48 1243.24,-615.88 1292.36,-626.37 1309.07,-640.27"/>
<text xml:space="preserve" text-anchor="middle" x="1231.99" y="-629.75" font-family="Helvetica-Outline" font-size="14.00">PDP&#45;11 Sys V</text>
</g>
<!-- CB Unix 3&#45;&gt;PDP&#45;11 Sys V -->
<g id="edge39" class="edge">
<title>CB Unix 3&#45;&gt;PDP&#45;11 Sys V</title>
<path fill="none" stroke="black" d="M1175.82,-702.34C1185.66,-690.82 1199.08,-675.1 1210.33,-661.92"/>
<polygon fill="black" stroke="black" points="1212.89,-664.31 1216.72,-654.43 1207.57,-659.76 1212.89,-664.31"/>
</g>
<!-- CB Unix 3&#45;&gt;TS 4.0 -->
<g id="edge46" class="edge">
<title>CB Unix 3&#45;&gt;TS 4.0</title>
<path fill="none" stroke="black" d="M1080.69,-710.73C1043,-702.89 1000.73,-687.34 973.99,-656.64 956.07,-636.06 952.54,-604.33 952.73,-581.29"/>
<polygon fill="black" stroke="black" points="956.23,-581.45 953.09,-571.33 949.23,-581.2 956.23,-581.45"/>
</g>
<!-- Unix/TS++&#45;&gt;TS 4.0 -->
<g id="edge45" class="edge">
<title>Unix/TS++&#45;&gt;TS 4.0</title>
<path fill="none" stroke="black" d="M1038.23,-617.53C1025.28,-607.4 1008.46,-594.25 993.34,-582.42"/>
<polygon fill="black" stroke="black" points="995.9,-579.98 985.87,-576.57 991.59,-585.49 995.9,-579.98"/>
</g>
<!-- USG 3.0&#45;&gt;Unix/TS 3.0 -->
<g id="edge41" class="edge">
<title>USG 3.0&#45;&gt;Unix/TS 3.0</title>
<path fill="none" stroke="black" d="M878.99,-793.45C878.99,-781.62 878.99,-765.48 878.99,-751.38"/>
<polygon fill="black" stroke="black" points="882.49,-751.69 878.99,-741.69 875.49,-751.69 882.49,-751.69"/>
</g>
<!-- Unix/TS 1.0 -->
<g id="node37" class="node">
<title>Unix/TS 1.0</title>
<polygon fill="orangered" stroke="orangered" points="1031.48,-830.86 990.48,-799.28 1115.39,-797.13 1142.6,-818.09 1031.48,-830.86"/>
<text xml:space="preserve" text-anchor="middle" x="1069.99" y="-805.54" font-family="Helvetica-Outline" font-size="14.00">Unix/TS 1.0</text>
</g>
<!-- Unix/TS 1.0&#45;&gt;Unix/TS 3.0 -->
<g id="edge43" class="edge">
<title>Unix/TS 1.0&#45;&gt;Unix/TS 3.0</title>
<path fill="none" stroke="black" d="M1043.83,-798.04C1017.79,-785.8 976.84,-766.55 942.26,-750.29"/>
<polygon fill="black" stroke="black" points="944.14,-747.31 933.6,-746.22 941.16,-753.64 944.14,-747.31"/>
</g>
<!-- System V.0 -->
<g id="node39" class="node">
<title>System V.0</title>
<polygon fill="#ff7f00" stroke="#ff7f00" points="1034.39,-461.13 1012.4,-472.21 963.38,-477.14 909.93,-473.56 877.56,-463.23 881.92,-451.07 920.64,-442.71 975,-441.96 1019.66,-449.2 1034.39,-461.13"/>
<text xml:space="preserve" text-anchor="middle" x="954.99" y="-453.34" font-family="Helvetica-Outline" font-size="14.00">System V.0</text>
</g>
<!-- TS 4.0&#45;&gt;System V.0 -->
<g id="edge47" class="edge">
<title>TS 4.0&#45;&gt;System V.0</title>
<path fill="none" stroke="black" d="M954.99,-529.92C954.99,-517.53 954.99,-501.56 954.99,-488.03"/>
<polygon fill="black" stroke="black" points="958.49,-488.43 954.99,-478.43 951.49,-488.43 958.49,-488.43"/>
</g>
<!-- System V.2 -->
<g id="node40" class="node">
<title>System V.2</title>
<polygon fill="#6e8b3d" stroke="#6e8b3d" points="1046.38,-381.77 979.97,-388.18 851.31,-364.61 863.6,-348.27 967.28,-348.68 1021.4,-358.6 1046.38,-381.77"/>
<text xml:space="preserve" text-anchor="middle" x="954.99" y="-359.22" font-family="Helvetica-Outline" font-size="14.00">System V.2</text>
</g>
<!-- System V.0&#45;&gt;System V.2 -->
<g id="edge48" class="edge">
<title>System V.0&#45;&gt;System V.2</title>
<path fill="none" stroke="black" d="M954.99,-442.09C954.99,-429.19 954.99,-410.73 954.99,-395.23"/>
<polygon fill="black" stroke="black" points="958.49,-395.6 954.99,-385.6 951.49,-395.6 958.49,-395.6"/>
</g>
<!-- System V.3 -->
<g id="node41" class="node">
<title>System V.3</title>
<polygon fill="#cae1ff" stroke="#cae1ff" points="1012.95,-296.48 945.83,-293.68 900.06,-284.97 895.65,-270.11 921.46,-253.5 978.95,-257.46 1029.99,-281.44 1012.95,-296.48"/>
<text xml:space="preserve" text-anchor="middle" x="954.99" y="-271.01" font-family="Helvetica-Outline" font-size="14.00">System V.3</text>
</g>
<!-- System V.2&#45;&gt;System V.3 -->
<g id="edge49" class="edge">
<title>System V.2&#45;&gt;System V.3</title>
<path fill="none" stroke="black" d="M954.99,-348.21C954.99,-336.28 954.99,-319.62 954.99,-305.5"/>
<polygon fill="black" stroke="black" points="958.49,-305.91 954.99,-295.91 951.49,-305.91 958.49,-305.91"/>
</g>
</g>
</svg>
