<?xml version="1.0" encoding="UTF-8" standalone="no"?>
<!DOCTYPE svg PUBLIC "-//W3C//DTD SVG 1.1//EN"
 "http://www.w3.org/Graphics/SVG/1.1/DTD/svg11.dtd">
<!-- Generated by graphviz version 14.1.1 (20251213.1925)
 -->
<!-- Title: G Pages: 1 -->
<svg width="412pt" height="164pt"
 viewBox="0.00 0.00 412.00 164.00" xmlns="http://www.w3.org/2000/svg" xmlns:xlink="http://www.w3.org/1999/xlink">
<g id="graph0" class="graph" transform="scale(1 1) rotate(0) translate(4 160)">
<title>G</title>
<polygon fill="white" stroke="none" points="-4,4 -4,-160 408,-160 408,4 -4,4"/>
<g id="clust1" class="cluster">
<title>clusterA</title>
<polygon fill="none" stroke="black" points="168,-8 168,-148 318,-148 318,-8 168,-8"/>
</g>
<g id="clust2" class="cluster">
<title>clusterC</title>
<polygon fill="none" stroke="black" points="240,-16 240,-140 310,-140 310,-16 240,-16"/>
</g>
<g id="clust3" class="cluster">
<title>clusterB</title>
<polygon fill="none" stroke="black" points="326,-16 326,-140 396,-140 396,-16 326,-16"/>
</g>
<!-- e -->
<g id="node1" class="node">
<title>e</title>
<ellipse fill="none" stroke="black" cx="27" cy="-114" rx="27" ry="18"/>
<text xml:space="preserve" text-anchor="middle" x="27" y="-108.95" font-family="Times,serif" font-size="14.00">e</text>
</g>
<!-- clusterB -->
<g id="node8" class="node">
<title>clusterB</title>
<ellipse fill="none" stroke="black" cx="71" cy="-42" rx="42.76" ry="18"/>
<text xml:space="preserve" text-anchor="middle" x="71" y="-36.95" font-family="Times,serif" font-size="14.00">clusterB</text>
</g>
<!-- e&#45;&#45;clusterB -->
<g id="edge5" class="edge">
<title>e&#45;&#45;clusterB</title>
<path fill="none" stroke="black" d="M36.98,-97.12C43.98,-85.98 53.32,-71.13 60.44,-59.8"/>
</g>
<!-- a -->
<g id="node2" class="node">
<title>a</title>
<ellipse fill="none" stroke="black" cx="203" cy="-114" rx="27" ry="18"/>
<text xml:space="preserve" text-anchor="middle" x="203" y="-108.95" font-family="Times,serif" font-size="14.00">a</text>
</g>
<!-- b -->
<g id="node3" class="node">
<title>b</title>
<ellipse fill="none" stroke="black" cx="203" cy="-42" rx="27" ry="18"/>
<text xml:space="preserve" text-anchor="middle" x="203" y="-36.95" font-family="Times,serif" font-size="14.00">b</text>
</g>
<!-- a&#45;&#45;b -->
<g id="edge1" class="edge">
<title>a&#45;&#45;b</title>
<path fill="none" stroke="black" d="M203,-95.7C203,-84.85 203,-70.92 203,-60.1"/>
</g>
<!-- C -->
<g id="node4" class="node">
<title>C</title>
<ellipse fill="none" stroke="black" cx="275" cy="-114" rx="27" ry="18"/>
<text xml:space="preserve" text-anchor="middle" x="275" y="-108.95" font-family="Times,serif" font-size="14.00">C</text>
</g>
<!-- D -->
<g id="node5" class="node">
<title>D</title>
<ellipse fill="none" stroke="black" cx="275" cy="-42" rx="27" ry="18"/>
<text xml:space="preserve" text-anchor="middle" x="275" y="-36.95" font-family="Times,serif" font-size="14.00">D</text>
</g>
<!-- C&#45;&#45;D -->
<g id="edge2" class="edge">
<title>C&#45;&#45;D</title>
<path fill="none" stroke="black" d="M275,-95.7C275,-84.85 275,-70.92 275,-60.1"/>
</g>
<!-- d -->
<g id="node6" class="node">
<title>d</title>
<ellipse fill="none" stroke="black" cx="361" cy="-114" rx="27" ry="18"/>
<text xml:space="preserve" text-anchor="middle" x="361" y="-108.95" font-family="Times,serif" font-size="14.00">d</text>
</g>
<!-- d&#45;&#45;D -->
<g id="edge4" class="edge">
<title>d&#45;&#45;D</title>
<path fill="none" stroke="black" d="M344.42,-99.5C329.19,-87.11 306.74,-68.84 291.53,-56.46"/>
</g>
<!-- f -->
<g id="node7" class="node">
<title>f</title>
<ellipse fill="none" stroke="black" cx="361" cy="-42" rx="27" ry="18"/>
<text xml:space="preserve" text-anchor="middle" x="361" y="-36.95" font-family="Times,serif" font-size="14.00">f</text>
</g>
<!-- d&#45;&#45;f -->
<g id="edge3" class="edge">
<title>d&#45;&#45;f</title>
<path fill="none" stroke="black" d="M361,-95.7C361,-84.85 361,-70.92 361,-60.1"/>
</g>
<!-- clusterC -->
<g id="node9" class="node">
<title>clusterC</title>
<ellipse fill="none" stroke="black" cx="115" cy="-114" rx="42.76" ry="18"/>
<text xml:space="preserve" text-anchor="middle" x="115" y="-108.95" font-family="Times,serif" font-size="14.00">clusterC</text>
</g>
<!-- clusterC&#45;&#45;clusterB -->
<g id="edge6" class="edge">
<title>clusterC&#45;&#45;clusterB</title>
<path fill="none" stroke="black" d="M104.57,-96.41C97.56,-85.25 88.35,-70.6 81.35,-59.47"/>
</g>
</g>
</svg>
