<?xml version="1.0" encoding="UTF-8" standalone="no"?>
<!DOCTYPE svg PUBLIC "-//W3C//DTD SVG 1.1//EN"
 "http://www.w3.org/Graphics/SVG/1.1/DTD/svg11.dtd">
<!-- Generated by graphviz version 14.1.1 (20251213.1925)
 -->
<!-- Title: G Pages: 1 -->
<svg width="576pt" height="235pt"
 viewBox="0.00 0.00 576.00 235.00" xmlns="http://www.w3.org/2000/svg" xmlns:xlink="http://www.w3.org/1999/xlink">
<g id="graph0" class="graph" transform="scale(0.42921 0.42921) rotate(0) translate(4 544)">
<title>G</title>
<polygon fill="white" stroke="none" points="-4,4 -4,-544 1338,-544 1338,4 -4,4"/>
<!-- S8 -->
<g id="node1" class="node">
<title>S8</title>
<ellipse fill="none" stroke="black" cx="359" cy="-522" rx="27" ry="18"/>
<text xml:space="preserve" text-anchor="middle" x="359" y="-516.95" font-family="Times,serif" font-size="14.00">S8</text>
</g>
<!-- 9 -->
<g id="node11" class="node">
<title>9</title>
<ellipse fill="none" stroke="black" cx="359" cy="-450" rx="27" ry="18"/>
<text xml:space="preserve" text-anchor="middle" x="359" y="-444.95" font-family="Times,serif" font-size="14.00">9</text>
</g>
<!-- S8&#45;&gt;9 -->
<g id="edge1" class="edge">
<title>S8&#45;&gt;9</title>
<path fill="none" stroke="black" d="M359,-503.7C359,-496.41 359,-487.73 359,-479.54"/>
<polygon fill="black" stroke="black" points="362.5,-479.62 359,-469.62 355.5,-479.62 362.5,-479.62"/>
</g>
<!-- S24 -->
<g id="node2" class="node">
<title>S24</title>
<ellipse fill="none" stroke="black" cx="194" cy="-522" rx="27" ry="18"/>
<text xml:space="preserve" text-anchor="middle" x="194" y="-516.95" font-family="Times,serif" font-size="14.00">S24</text>
</g>
<!-- 27 -->
<g id="node12" class="node">
<title>27</title>
<ellipse fill="none" stroke="black" cx="137" cy="-90" rx="27" ry="18"/>
<text xml:space="preserve" text-anchor="middle" x="137" y="-84.95" font-family="Times,serif" font-size="14.00">27</text>
</g>
<!-- S24&#45;&gt;27 -->
<g id="edge2" class="edge">
<title>S24&#45;&gt;27</title>
<path fill="none" stroke="black" d="M189.26,-504.11C182.26,-477.66 170,-424.75 170,-379 170,-379 170,-379 170,-233 170,-192.29 156.97,-146.68 147.29,-118.4"/>
<polygon fill="black" stroke="black" points="150.66,-117.44 144.02,-109.18 144.06,-119.78 150.66,-117.44"/>
</g>
<!-- 25 -->
<g id="node13" class="node">
<title>25</title>
<ellipse fill="none" stroke="black" cx="230" cy="-450" rx="27" ry="18"/>
<text xml:space="preserve" text-anchor="middle" x="230" y="-444.95" font-family="Times,serif" font-size="14.00">25</text>
</g>
<!-- S24&#45;&gt;25 -->
<g id="edge3" class="edge">
<title>S24&#45;&gt;25</title>
<path fill="none" stroke="black" d="M202.35,-504.76C206.58,-496.55 211.81,-486.37 216.58,-477.09"/>
<polygon fill="black" stroke="black" points="219.54,-478.99 221,-468.49 213.32,-475.79 219.54,-478.99"/>
</g>
<!-- S1 -->
<g id="node3" class="node">
<title>S1</title>
<ellipse fill="none" stroke="black" cx="994" cy="-522" rx="27" ry="18"/>
<text xml:space="preserve" text-anchor="middle" x="994" y="-516.95" font-family="Times,serif" font-size="14.00">S1</text>
</g>
<!-- 10 -->
<g id="node14" class="node">
<title>10</title>
<ellipse fill="none" stroke="black" cx="970" cy="-450" rx="27" ry="18"/>
<text xml:space="preserve" text-anchor="middle" x="970" y="-444.95" font-family="Times,serif" font-size="14.00">10</text>
</g>
<!-- S1&#45;&gt;10 -->
<g id="edge4" class="edge">
<title>S1&#45;&gt;10</title>
<path fill="none" stroke="black" d="M988.19,-504.05C985.57,-496.4 982.4,-487.16 979.45,-478.56"/>
<polygon fill="black" stroke="black" points="982.8,-477.55 976.25,-469.22 976.18,-479.82 982.8,-477.55"/>
</g>
<!-- 2 -->
<g id="node15" class="node">
<title>2</title>
<ellipse fill="none" stroke="black" cx="1087" cy="-450" rx="27" ry="18"/>
<text xml:space="preserve" text-anchor="middle" x="1087" y="-444.95" font-family="Times,serif" font-size="14.00">2</text>
</g>
<!-- S1&#45;&gt;2 -->
<g id="edge5" class="edge">
<title>S1&#45;&gt;2</title>
<path fill="none" stroke="black" d="M1011.49,-507.83C1025.39,-497.37 1045.05,-482.58 1060.82,-470.7"/>
<polygon fill="black" stroke="black" points="1062.49,-473.83 1068.38,-465.02 1058.28,-468.24 1062.49,-473.83"/>
</g>
<!-- S35 -->
<g id="node4" class="node">
<title>S35</title>
<ellipse fill="none" stroke="black" cx="486" cy="-522" rx="27" ry="18"/>
<text xml:space="preserve" text-anchor="middle" x="486" y="-516.95" font-family="Times,serif" font-size="14.00">S35</text>
</g>
<!-- 36 -->
<g id="node16" class="node">
<title>36</title>
<ellipse fill="none" stroke="black" cx="450" cy="-450" rx="27" ry="18"/>
<text xml:space="preserve" text-anchor="middle" x="450" y="-444.95" font-family="Times,serif" font-size="14.00">36</text>
</g>
<!-- S35&#45;&gt;36 -->
<g id="edge6" class="edge">
<title>S35&#45;&gt;36</title>
<path fill="none" stroke="black" d="M477.65,-504.76C473.42,-496.55 468.19,-486.37 463.42,-477.09"/>
<polygon fill="black" stroke="black" points="466.68,-475.79 459,-468.49 460.46,-478.99 466.68,-475.79"/>
</g>
<!-- 43 -->
<g id="node17" class="node">
<title>43</title>
<ellipse fill="none" stroke="black" cx="522" cy="-450" rx="27" ry="18"/>
<text xml:space="preserve" text-anchor="middle" x="522" y="-444.95" font-family="Times,serif" font-size="14.00">43</text>
</g>
<!-- S35&#45;&gt;43 -->
<g id="edge7" class="edge">
<title>S35&#45;&gt;43</title>
<path fill="none" stroke="black" d="M494.35,-504.76C498.58,-496.55 503.81,-486.37 508.58,-477.09"/>
<polygon fill="black" stroke="black" points="511.54,-478.99 513,-468.49 505.32,-475.79 511.54,-478.99"/>
</g>
<!-- S30 -->
<g id="node5" class="node">
<title>S30</title>
<ellipse fill="none" stroke="black" cx="1271" cy="-522" rx="27" ry="18"/>
<text xml:space="preserve" text-anchor="middle" x="1271" y="-516.95" font-family="Times,serif" font-size="14.00">S30</text>
</g>
<!-- 31 -->
<g id="node18" class="node">
<title>31</title>
<ellipse fill="none" stroke="black" cx="1252" cy="-234" rx="27" ry="18"/>
<text xml:space="preserve" text-anchor="middle" x="1252" y="-228.95" font-family="Times,serif" font-size="14.00">31</text>
</g>
<!-- S30&#45;&gt;31 -->
<g id="edge8" class="edge">
<title>S30&#45;&gt;31</title>
<path fill="none" stroke="black" d="M1269.84,-503.54C1266.67,-455.76 1257.81,-322.51 1253.9,-263.61"/>
<polygon fill="black" stroke="black" points="1257.4,-263.49 1253.25,-253.74 1250.42,-263.95 1257.4,-263.49"/>
</g>
<!-- 33 -->
<g id="node19" class="node">
<title>33</title>
<ellipse fill="none" stroke="black" cx="1307" cy="-306" rx="27" ry="18"/>
<text xml:space="preserve" text-anchor="middle" x="1307" y="-300.95" font-family="Times,serif" font-size="14.00">33</text>
</g>
<!-- S30&#45;&gt;33 -->
<g id="edge9" class="edge">
<title>S30&#45;&gt;33</title>
<path fill="none" stroke="black" d="M1273.89,-503.85C1280.06,-467.14 1294.61,-380.66 1302.2,-335.53"/>
<polygon fill="black" stroke="black" points="1305.64,-336.17 1303.85,-325.73 1298.74,-335.01 1305.64,-336.17"/>
</g>
<!-- T8 -->
<g id="node6" class="node">
<title>T8</title>
<ellipse fill="none" stroke="black" cx="27" cy="-18" rx="27" ry="18"/>
<text xml:space="preserve" text-anchor="middle" x="27" y="-12.95" font-family="Times,serif" font-size="14.00">T8</text>
</g>
<!-- T24 -->
<g id="node7" class="node">
<title>T24</title>
<ellipse fill="none" stroke="black" cx="228" cy="-18" rx="27" ry="18"/>
<text xml:space="preserve" text-anchor="middle" x="228" y="-12.95" font-family="Times,serif" font-size="14.00">T24</text>
</g>
<!-- T1 -->
<g id="node8" class="node">
<title>T1</title>
<ellipse fill="none" stroke="black" cx="742" cy="-18" rx="27" ry="18"/>
<text xml:space="preserve" text-anchor="middle" x="742" y="-12.95" font-family="Times,serif" font-size="14.00">T1</text>
</g>
<!-- T35 -->
<g id="node9" class="node">
<title>T35</title>
<ellipse fill="none" stroke="black" cx="118" cy="-18" rx="27" ry="18"/>
<text xml:space="preserve" text-anchor="middle" x="118" y="-12.95" font-family="Times,serif" font-size="14.00">T35</text>
</g>
<!-- T30 -->
<g id="node10" class="node">
<title>T30</title>
<ellipse fill="none" stroke="black" cx="1269" cy="-18" rx="27" ry="18"/>
<text xml:space="preserve" text-anchor="middle" x="1269" y="-12.95" font-family="Times,serif" font-size="14.00">T30</text>
</g>
<!-- 9&#45;&gt;T1 -->
<g id="edge10" class="edge">
<title>9&#45;&gt;T1</title>
<path fill="none" stroke="black" d="M355.25,-432.05C349.71,-405.52 340,-352.52 340,-307 340,-307 340,-307 340,-161 340,-84.18 604.27,-38.58 704.27,-24.08"/>
<polygon fill="black" stroke="black" points="704.72,-27.55 714.13,-22.68 703.73,-20.62 704.72,-27.55"/>
</g>
<!-- 42 -->
<g id="node20" class="node">
<title>42</title>
<ellipse fill="none" stroke="black" cx="395" cy="-378" rx="27" ry="18"/>
<text xml:space="preserve" text-anchor="middle" x="395" y="-372.95" font-family="Times,serif" font-size="14.00">42</text>
</g>
<!-- 9&#45;&gt;42 -->
<g id="edge11" class="edge">
<title>9&#45;&gt;42</title>
<path fill="none" stroke="black" d="M367.35,-432.76C371.58,-424.55 376.81,-414.37 381.58,-405.09"/>
<polygon fill="black" stroke="black" points="384.54,-406.99 386,-396.49 378.32,-403.79 384.54,-406.99"/>
</g>
<!-- 27&#45;&gt;T24 -->
<g id="edge12" class="edge">
<title>27&#45;&gt;T24</title>
<path fill="none" stroke="black" d="M154.12,-75.83C167.5,-65.54 186.35,-51.04 201.66,-39.26"/>
<polygon fill="black" stroke="black" points="203.66,-42.14 209.45,-33.27 199.39,-36.59 203.66,-42.14"/>
</g>
<!-- 25&#45;&gt;T1 -->
<g id="edge13" class="edge">
<title>25&#45;&gt;T1</title>
<path fill="none" stroke="black" d="M227.64,-431.67C222.96,-391.63 215.67,-290.46 249,-216 249.28,-215.37 385.39,-72.32 386,-72 440.9,-43.48 623.86,-27.37 703.93,-21.54"/>
<polygon fill="black" stroke="black" points="703.73,-25.06 713.46,-20.86 703.23,-18.08 703.73,-25.06"/>
</g>
<!-- 26 -->
<g id="node21" class="node">
<title>26</title>
<ellipse fill="none" stroke="black" cx="285" cy="-378" rx="27" ry="18"/>
<text xml:space="preserve" text-anchor="middle" x="285" y="-372.95" font-family="Times,serif" font-size="14.00">26</text>
</g>
<!-- 25&#45;&gt;26 -->
<g id="edge14" class="edge">
<title>25&#45;&gt;26</title>
<path fill="none" stroke="black" d="M242.21,-433.46C249.11,-424.67 257.91,-413.48 265.73,-403.53"/>
<polygon fill="black" stroke="black" points="268.47,-405.71 271.89,-395.68 262.96,-401.38 268.47,-405.71"/>
</g>
<!-- 10&#45;&gt;T1 -->
<g id="edge15" class="edge">
<title>10&#45;&gt;T1</title>
<path fill="none" stroke="black" d="M986.21,-435.57C996.63,-425.82 1009.26,-411.64 1015,-396 1020.52,-380.98 1022.49,-374.14 1015,-360 1001.67,-334.84 977.9,-347.63 962,-324 939.42,-290.44 943,-275.45 943,-235 943,-235 943,-235 943,-161 943,-81.29 836.25,-42.34 778.34,-27.08"/>
<polygon fill="black" stroke="black" points="779.48,-23.76 768.92,-24.71 777.77,-30.55 779.48,-23.76"/>
</g>
<!-- 11 -->
<g id="node22" class="node">
<title>11</title>
<ellipse fill="none" stroke="black" cx="687" cy="-378" rx="27" ry="18"/>
<text xml:space="preserve" text-anchor="middle" x="687" y="-372.95" font-family="Times,serif" font-size="14.00">11</text>
</g>
<!-- 10&#45;&gt;11 -->
<g id="edge16" class="edge">
<title>10&#45;&gt;11</title>
<path fill="none" stroke="black" d="M943.51,-445.36C897.7,-438.62 801.1,-422.43 723,-396 721.45,-395.47 719.87,-394.9 718.29,-394.29"/>
<polygon fill="black" stroke="black" points="719.95,-391.19 709.38,-390.49 717.2,-397.63 719.95,-391.19"/>
</g>
<!-- 14 -->
<g id="node23" class="node">
<title>14</title>
<ellipse fill="none" stroke="black" cx="814" cy="-306" rx="27" ry="18"/>
<text xml:space="preserve" text-anchor="middle" x="814" y="-300.95" font-family="Times,serif" font-size="14.00">14</text>
</g>
<!-- 10&#45;&gt;14 -->
<g id="edge17" class="edge">
<title>10&#45;&gt;14</title>
<path fill="none" stroke="black" d="M954.47,-434.87C927.14,-409.99 870.27,-358.22 837.9,-328.76"/>
<polygon fill="black" stroke="black" points="840.34,-326.24 830.58,-322.1 835.62,-331.42 840.34,-326.24"/>
</g>
<!-- 13 -->
<g id="node24" class="node">
<title>13</title>
<ellipse fill="none" stroke="black" cx="831" cy="-378" rx="27" ry="18"/>
<text xml:space="preserve" text-anchor="middle" x="831" y="-372.95" font-family="Times,serif" font-size="14.00">13</text>
</g>
<!-- 10&#45;&gt;13 -->
<g id="edge18" class="edge">
<title>10&#45;&gt;13</title>
<path fill="none" stroke="black" d="M948.89,-438.37C925.79,-426.74 888.54,-407.98 862.1,-394.66"/>
<polygon fill="black" stroke="black" points="863.71,-391.55 853.21,-390.18 860.56,-397.81 863.71,-391.55"/>
</g>
<!-- 12 -->
<g id="node25" class="node">
<title>12</title>
<ellipse fill="none" stroke="black" cx="1070" cy="-306" rx="27" ry="18"/>
<text xml:space="preserve" text-anchor="middle" x="1070" y="-300.95" font-family="Times,serif" font-size="14.00">12</text>
</g>
<!-- 10&#45;&gt;12 -->
<g id="edge19" class="edge">
<title>10&#45;&gt;12</title>
<path fill="none" stroke="black" d="M992.18,-439.46C1009.93,-430.69 1034.06,-416.02 1048,-396 1060.38,-378.21 1065.82,-354.17 1068.19,-335.55"/>
<polygon fill="black" stroke="black" points="1071.66,-336.04 1069.2,-325.73 1064.7,-335.32 1071.66,-336.04"/>
</g>
<!-- 2&#45;&gt;T1 -->
<g id="edge20" class="edge">
<title>2&#45;&gt;T1</title>
<path fill="none" stroke="black" d="M1103.99,-435.74C1115.98,-425.75 1131.84,-411.22 1143,-396 1164.04,-367.31 1170.02,-358.67 1178,-324 1195.96,-245.98 1222.09,-205.64 1171,-144 1120.14,-82.64 874.58,-39.26 779.61,-24.52"/>
<polygon fill="black" stroke="black" points="780.19,-21.07 769.77,-23.01 779.13,-27.98 780.19,-21.07"/>
</g>
<!-- 3 -->
<g id="node26" class="node">
<title>3</title>
<ellipse fill="none" stroke="black" cx="759" cy="-378" rx="27" ry="18"/>
<text xml:space="preserve" text-anchor="middle" x="759" y="-372.95" font-family="Times,serif" font-size="14.00">3</text>
</g>
<!-- 2&#45;&gt;3 -->
<g id="edge21" class="edge">
<title>2&#45;&gt;3</title>
<path fill="none" stroke="black" d="M1061.51,-443.39C1045.59,-439.95 1024.63,-435.54 1006,-432 912.54,-414.23 885.74,-424.58 795,-396 793.39,-395.49 791.77,-394.93 790.14,-394.32"/>
<polygon fill="black" stroke="black" points="791.52,-391.11 780.95,-390.46 788.81,-397.56 791.52,-391.11"/>
</g>
<!-- 16 -->
<g id="node27" class="node">
<title>16</title>
<ellipse fill="none" stroke="black" cx="998" cy="-306" rx="27" ry="18"/>
<text xml:space="preserve" text-anchor="middle" x="998" y="-300.95" font-family="Times,serif" font-size="14.00">16</text>
</g>
<!-- 2&#45;&gt;16 -->
<g id="edge22" class="edge">
<title>2&#45;&gt;16</title>
<path fill="none" stroke="black" d="M1081.54,-432.06C1075.12,-413.47 1063.36,-383.21 1048,-360 1040.52,-348.69 1030.53,-337.56 1021.46,-328.44"/>
<polygon fill="black" stroke="black" points="1024.17,-326.2 1014.56,-321.74 1019.29,-331.22 1024.17,-326.2"/>
</g>
<!-- 17 -->
<g id="node28" class="node">
<title>17</title>
<ellipse fill="none" stroke="black" cx="979" cy="-378" rx="27" ry="18"/>
<text xml:space="preserve" text-anchor="middle" x="979" y="-372.95" font-family="Times,serif" font-size="14.00">17</text>
</g>
<!-- 2&#45;&gt;17 -->
<g id="edge23" class="edge">
<title>2&#45;&gt;17</title>
<path fill="none" stroke="black" d="M1068.19,-436.81C1051.41,-425.93 1026.61,-409.86 1007.41,-397.42"/>
<polygon fill="black" stroke="black" points="1009.52,-394.61 999.23,-392.11 1005.72,-400.49 1009.52,-394.61"/>
</g>
<!-- 18 -->
<g id="node29" class="node">
<title>18</title>
<ellipse fill="none" stroke="black" cx="1142" cy="-306" rx="27" ry="18"/>
<text xml:space="preserve" text-anchor="middle" x="1142" y="-300.95" font-family="Times,serif" font-size="14.00">18</text>
</g>
<!-- 2&#45;&gt;18 -->
<g id="edge24" class="edge">
<title>2&#45;&gt;18</title>
<path fill="none" stroke="black" d="M1100.17,-433.78C1108.22,-423.7 1118.08,-409.82 1124,-396 1132.22,-376.81 1136.75,-353.65 1139.21,-335.77"/>
<polygon fill="black" stroke="black" points="1142.68,-336.2 1140.42,-325.85 1135.74,-335.36 1142.68,-336.2"/>
</g>
<!-- 19 -->
<g id="node30" class="node">
<title>19</title>
<ellipse fill="none" stroke="black" cx="651" cy="-306" rx="27" ry="18"/>
<text xml:space="preserve" text-anchor="middle" x="651" y="-300.95" font-family="Times,serif" font-size="14.00">19</text>
</g>
<!-- 36&#45;&gt;19 -->
<g id="edge25" class="edge">
<title>36&#45;&gt;19</title>
<path fill="none" stroke="black" d="M448.79,-431.57C448.39,-411.7 450.93,-379.44 469,-360 505.99,-320.2 570.96,-309.69 612.44,-307.25"/>
<polygon fill="black" stroke="black" points="612.38,-310.75 622.22,-306.81 612.07,-303.76 612.38,-310.75"/>
</g>
<!-- 38 -->
<g id="node31" class="node">
<title>38</title>
<ellipse fill="none" stroke="black" cx="505" cy="-378" rx="27" ry="18"/>
<text xml:space="preserve" text-anchor="middle" x="505" y="-372.95" font-family="Times,serif" font-size="14.00">38</text>
</g>
<!-- 43&#45;&gt;38 -->
<g id="edge26" class="edge">
<title>43&#45;&gt;38</title>
<path fill="none" stroke="black" d="M517.88,-432.05C516.07,-424.6 513.9,-415.64 511.85,-407.22"/>
<polygon fill="black" stroke="black" points="515.31,-406.64 509.55,-397.75 508.51,-408.29 515.31,-406.64"/>
</g>
<!-- 40 -->
<g id="node32" class="node">
<title>40</title>
<ellipse fill="none" stroke="black" cx="577" cy="-378" rx="27" ry="18"/>
<text xml:space="preserve" text-anchor="middle" x="577" y="-372.95" font-family="Times,serif" font-size="14.00">40</text>
</g>
<!-- 43&#45;&gt;40 -->
<g id="edge27" class="edge">
<title>43&#45;&gt;40</title>
<path fill="none" stroke="black" d="M534.21,-433.46C541.11,-424.67 549.91,-413.48 557.73,-403.53"/>
<polygon fill="black" stroke="black" points="560.47,-405.71 563.89,-395.68 554.96,-401.38 560.47,-405.71"/>
</g>
<!-- 31&#45;&gt;T1 -->
<g id="edge28" class="edge">
<title>31&#45;&gt;T1</title>
<path fill="none" stroke="black" d="M1252.9,-215.67C1253.6,-182.15 1249.85,-108.52 1207,-72 1174.74,-44.5 886.02,-26.61 780.44,-20.94"/>
<polygon fill="black" stroke="black" points="780.76,-17.45 770.59,-20.42 780.39,-24.44 780.76,-17.45"/>
</g>
<!-- 32 -->
<g id="node33" class="node">
<title>32</title>
<ellipse fill="none" stroke="black" cx="1135" cy="-162" rx="27" ry="18"/>
<text xml:space="preserve" text-anchor="middle" x="1135" y="-156.95" font-family="Times,serif" font-size="14.00">32</text>
</g>
<!-- 31&#45;&gt;32 -->
<g id="edge29" class="edge">
<title>31&#45;&gt;32</title>
<path fill="none" stroke="black" d="M1232.42,-221.28C1213.86,-210.18 1185.73,-193.35 1164.46,-180.63"/>
<polygon fill="black" stroke="black" points="1166.32,-177.66 1155.95,-175.53 1162.73,-183.67 1166.32,-177.66"/>
</g>
<!-- 33&#45;&gt;T30 -->
<g id="edge30" class="edge">
<title>33&#45;&gt;T30</title>
<path fill="none" stroke="black" d="M1304.74,-287.97C1298.43,-240.49 1280.6,-106.31 1272.77,-47.36"/>
<polygon fill="black" stroke="black" points="1276.29,-47.26 1271.5,-37.81 1269.35,-48.18 1276.29,-47.26"/>
</g>
<!-- 34 -->
<g id="node34" class="node">
<title>34</title>
<ellipse fill="none" stroke="black" cx="1142" cy="-234" rx="27" ry="18"/>
<text xml:space="preserve" text-anchor="middle" x="1142" y="-228.95" font-family="Times,serif" font-size="14.00">34</text>
</g>
<!-- 33&#45;&gt;34 -->
<g id="edge31" class="edge">
<title>33&#45;&gt;34</title>
<path fill="none" stroke="black" d="M1284.75,-295.56C1256.45,-283.56 1207.37,-262.73 1174.79,-248.91"/>
<polygon fill="black" stroke="black" points="1176.39,-245.79 1165.82,-245.11 1173.66,-252.23 1176.39,-245.79"/>
</g>
<!-- 4 -->
<g id="node35" class="node">
<title>4</title>
<ellipse fill="none" stroke="black" cx="450" cy="-306" rx="27" ry="18"/>
<text xml:space="preserve" text-anchor="middle" x="450" y="-300.95" font-family="Times,serif" font-size="14.00">4</text>
</g>
<!-- 42&#45;&gt;4 -->
<g id="edge32" class="edge">
<title>42&#45;&gt;4</title>
<path fill="none" stroke="black" d="M407.21,-361.46C414.11,-352.67 422.91,-341.48 430.73,-331.53"/>
<polygon fill="black" stroke="black" points="433.47,-333.71 436.89,-323.68 427.96,-329.38 433.47,-333.71"/>
</g>
<!-- 26&#45;&gt;4 -->
<g id="edge33" class="edge">
<title>26&#45;&gt;4</title>
<path fill="none" stroke="black" d="M307.25,-367.56C335.55,-355.56 384.63,-334.73 417.21,-320.91"/>
<polygon fill="black" stroke="black" points="418.34,-324.23 426.18,-317.11 415.61,-317.79 418.34,-324.23"/>
</g>
<!-- 11&#45;&gt;4 -->
<g id="edge34" class="edge">
<title>11&#45;&gt;4</title>
<path fill="none" stroke="black" d="M662.53,-369.77C620.38,-357.32 533.92,-331.79 485.27,-317.42"/>
<polygon fill="black" stroke="black" points="486.37,-314.09 475.79,-314.62 484.39,-320.81 486.37,-314.09"/>
</g>
<!-- 15 -->
<g id="node36" class="node">
<title>15</title>
<ellipse fill="none" stroke="black" cx="742" cy="-162" rx="27" ry="18"/>
<text xml:space="preserve" text-anchor="middle" x="742" y="-156.95" font-family="Times,serif" font-size="14.00">15</text>
</g>
<!-- 14&#45;&gt;15 -->
<g id="edge35" class="edge">
<title>14&#45;&gt;15</title>
<path fill="none" stroke="black" d="M802.86,-289.18C795.85,-278.86 786.85,-264.95 780,-252 769.37,-231.93 759.37,-208.24 752.3,-190.35"/>
<polygon fill="black" stroke="black" points="755.63,-189.25 748.75,-181.2 749.11,-191.79 755.63,-189.25"/>
</g>
<!-- 13&#45;&gt;19 -->
<g id="edge36" class="edge">
<title>13&#45;&gt;19</title>
<path fill="none" stroke="black" d="M809.87,-366.51C805.03,-364.25 799.88,-361.96 795,-360 748.04,-341.16 733.96,-342.84 687,-324 685.48,-323.39 683.93,-322.74 682.37,-322.08"/>
<polygon fill="black" stroke="black" points="684.07,-319.01 673.52,-318.11 681.21,-325.4 684.07,-319.01"/>
</g>
<!-- 29 -->
<g id="node37" class="node">
<title>29</title>
<ellipse fill="none" stroke="black" cx="1054" cy="-162" rx="27" ry="18"/>
<text xml:space="preserve" text-anchor="middle" x="1054" y="-156.95" font-family="Times,serif" font-size="14.00">29</text>
</g>
<!-- 12&#45;&gt;29 -->
<g id="edge37" class="edge">
<title>12&#45;&gt;29</title>
<path fill="none" stroke="black" d="M1068.04,-287.59C1065.34,-263.61 1060.44,-220.14 1057.2,-191.42"/>
<polygon fill="black" stroke="black" points="1060.7,-191.16 1056.1,-181.61 1053.74,-191.94 1060.7,-191.16"/>
</g>
<!-- 3&#45;&gt;4 -->
<g id="edge38" class="edge">
<title>3&#45;&gt;4</title>
<path fill="none" stroke="black" d="M738.04,-366.03C733.19,-363.8 727.99,-361.63 723,-360 641.31,-333.25 541.21,-318.07 487.81,-311.31"/>
<polygon fill="black" stroke="black" points="488.38,-307.85 478.03,-310.1 487.52,-314.8 488.38,-307.85"/>
</g>
<!-- 16&#45;&gt;15 -->
<g id="edge39" class="edge">
<title>16&#45;&gt;15</title>
<path fill="none" stroke="black" d="M988.66,-288.66C976.37,-268.61 952.91,-234.95 924,-216 879.6,-186.89 818.89,-173.43 780.06,-167.44"/>
<polygon fill="black" stroke="black" points="780.64,-163.99 770.25,-166.03 779.65,-170.92 780.64,-163.99"/>
</g>
<!-- 17&#45;&gt;19 -->
<g id="edge40" class="edge">
<title>17&#45;&gt;19</title>
<path fill="none" stroke="black" d="M952.58,-373.11C890.47,-363.82 736.67,-339.93 687,-324 685.4,-323.49 683.77,-322.91 682.14,-322.3"/>
<polygon fill="black" stroke="black" points="683.53,-319.09 672.96,-318.43 680.81,-325.54 683.53,-319.09"/>
</g>
<!-- 18&#45;&gt;29 -->
<g id="edge41" class="edge">
<title>18&#45;&gt;29</title>
<path fill="none" stroke="black" d="M1131.01,-289.42C1123.73,-278.95 1114.07,-264.8 1106,-252 1092.89,-231.22 1078.89,-207.13 1068.72,-189.26"/>
<polygon fill="black" stroke="black" points="1071.79,-187.57 1063.81,-180.59 1065.69,-191.02 1071.79,-187.57"/>
</g>
<!-- 21 -->
<g id="node38" class="node">
<title>21</title>
<ellipse fill="none" stroke="black" cx="285" cy="-234" rx="27" ry="18"/>
<text xml:space="preserve" text-anchor="middle" x="285" y="-228.95" font-family="Times,serif" font-size="14.00">21</text>
</g>
<!-- 19&#45;&gt;21 -->
<g id="edge42" class="edge">
<title>19&#45;&gt;21</title>
<path fill="none" stroke="black" d="M625.26,-300.08C561.48,-287.88 395.89,-256.21 321.79,-242.04"/>
<polygon fill="black" stroke="black" points="322.67,-238.64 312.19,-240.2 321.36,-245.52 322.67,-238.64"/>
</g>
<!-- 20 -->
<g id="node39" class="node">
<title>20</title>
<ellipse fill="none" stroke="black" cx="660" cy="-234" rx="27" ry="18"/>
<text xml:space="preserve" text-anchor="middle" x="660" y="-228.95" font-family="Times,serif" font-size="14.00">20</text>
</g>
<!-- 19&#45;&gt;20 -->
<g id="edge43" class="edge">
<title>19&#45;&gt;20</title>
<path fill="none" stroke="black" d="M653.22,-287.7C654.17,-280.32 655.3,-271.52 656.37,-263.25"/>
<polygon fill="black" stroke="black" points="659.8,-263.97 657.61,-253.61 652.86,-263.08 659.8,-263.97"/>
</g>
<!-- 28 -->
<g id="node40" class="node">
<title>28</title>
<ellipse fill="none" stroke="black" cx="816" cy="-234" rx="27" ry="18"/>
<text xml:space="preserve" text-anchor="middle" x="816" y="-228.95" font-family="Times,serif" font-size="14.00">28</text>
</g>
<!-- 19&#45;&gt;28 -->
<g id="edge44" class="edge">
<title>19&#45;&gt;28</title>
<path fill="none" stroke="black" d="M672.62,-294.57C677.34,-292.36 682.32,-290.06 687,-288 719.18,-273.8 756.37,-258.66 782.53,-248.2"/>
<polygon fill="black" stroke="black" points="783.61,-251.54 791.61,-244.59 781.02,-245.04 783.61,-251.54"/>
</g>
<!-- 38&#45;&gt;4 -->
<g id="edge45" class="edge">
<title>38&#45;&gt;4</title>
<path fill="none" stroke="black" d="M492.79,-361.46C485.89,-352.67 477.09,-341.48 469.27,-331.53"/>
<polygon fill="black" stroke="black" points="472.04,-329.38 463.11,-323.68 466.53,-333.71 472.04,-329.38"/>
</g>
<!-- 40&#45;&gt;19 -->
<g id="edge46" class="edge">
<title>40&#45;&gt;19</title>
<path fill="none" stroke="black" d="M591.98,-362.83C602.24,-353.13 616.06,-340.06 627.74,-329"/>
<polygon fill="black" stroke="black" points="629.83,-331.84 634.69,-322.42 625.02,-326.75 629.83,-331.84"/>
</g>
<!-- 23 -->
<g id="node41" class="node">
<title>23</title>
<ellipse fill="none" stroke="black" cx="247" cy="-90" rx="27" ry="18"/>
<text xml:space="preserve" text-anchor="middle" x="247" y="-84.95" font-family="Times,serif" font-size="14.00">23</text>
</g>
<!-- 32&#45;&gt;23 -->
<g id="edge47" class="edge">
<title>32&#45;&gt;23</title>
<path fill="none" stroke="black" d="M1112.97,-151.18C1105.78,-148.38 1097.67,-145.65 1090,-144 933.13,-110.24 428.4,-95.47 285.2,-91.89"/>
<polygon fill="black" stroke="black" points="285.59,-88.4 275.51,-91.65 285.42,-95.4 285.59,-88.4"/>
</g>
<!-- 34&#45;&gt;29 -->
<g id="edge48" class="edge">
<title>34&#45;&gt;29</title>
<path fill="none" stroke="black" d="M1125.03,-219.5C1112.13,-209.24 1094.16,-194.94 1079.52,-183.3"/>
<polygon fill="black" stroke="black" points="1082.1,-180.88 1072.1,-177.4 1077.75,-186.36 1082.1,-180.88"/>
</g>
<!-- 5 -->
<g id="node42" class="node">
<title>5</title>
<ellipse fill="none" stroke="black" cx="105" cy="-234" rx="27" ry="18"/>
<text xml:space="preserve" text-anchor="middle" x="105" y="-228.95" font-family="Times,serif" font-size="14.00">5</text>
</g>
<!-- 4&#45;&gt;5 -->
<g id="edge49" class="edge">
<title>4&#45;&gt;5</title>
<path fill="none" stroke="black" d="M424.35,-299.8C363.85,-287.52 212.05,-256.72 141.77,-242.46"/>
<polygon fill="black" stroke="black" points="142.8,-239.1 132.3,-240.54 141.41,-245.96 142.8,-239.1"/>
</g>
<!-- 15&#45;&gt;T1 -->
<g id="edge50" class="edge">
<title>15&#45;&gt;T1</title>
<path fill="none" stroke="black" d="M742,-143.59C742,-119.61 742,-76.14 742,-47.42"/>
<polygon fill="black" stroke="black" points="745.5,-47.62 742,-37.62 738.5,-47.62 745.5,-47.62"/>
</g>
<!-- 29&#45;&gt;T30 -->
<g id="edge51" class="edge">
<title>29&#45;&gt;T30</title>
<path fill="none" stroke="black" d="M1072.7,-148.65C1110.51,-123.68 1196.19,-67.09 1240.81,-37.62"/>
<polygon fill="black" stroke="black" points="1242.51,-40.69 1248.92,-32.26 1238.65,-34.85 1242.51,-40.69"/>
</g>
<!-- 22 -->
<g id="node44" class="node">
<title>22</title>
<ellipse fill="none" stroke="black" cx="247" cy="-162" rx="27" ry="18"/>
<text xml:space="preserve" text-anchor="middle" x="247" y="-156.95" font-family="Times,serif" font-size="14.00">22</text>
</g>
<!-- 21&#45;&gt;22 -->
<g id="edge57" class="edge">
<title>21&#45;&gt;22</title>
<path fill="none" stroke="black" d="M276.19,-216.76C271.73,-208.55 266.2,-198.37 261.16,-189.09"/>
<polygon fill="black" stroke="black" points="264.33,-187.6 256.49,-180.48 258.18,-190.94 264.33,-187.6"/>
</g>
<!-- 20&#45;&gt;15 -->
<g id="edge58" class="edge">
<title>20&#45;&gt;15</title>
<path fill="none" stroke="black" d="M676.2,-219.17C687.88,-209.2 703.86,-195.56 717.15,-184.21"/>
<polygon fill="black" stroke="black" points="719.35,-186.94 724.68,-177.78 714.8,-181.61 719.35,-186.94"/>
</g>
<!-- 28&#45;&gt;29 -->
<g id="edge59" class="edge">
<title>28&#45;&gt;29</title>
<path fill="none" stroke="black" d="M837.04,-222.27C841.89,-220.02 847.06,-217.8 852,-216 908.41,-195.48 976.33,-179.34 1017.29,-170.49"/>
<polygon fill="black" stroke="black" points="1017.81,-173.96 1026.87,-168.45 1016.36,-167.11 1017.81,-173.96"/>
</g>
<!-- 23&#45;&gt;T24 -->
<g id="edge52" class="edge">
<title>23&#45;&gt;T24</title>
<path fill="none" stroke="black" d="M242.4,-72.05C240.35,-64.49 237.87,-55.37 235.56,-46.85"/>
<polygon fill="black" stroke="black" points="238.95,-45.98 232.95,-37.25 232.2,-47.82 238.95,-45.98"/>
</g>
<!-- 23&#45;&gt;T1 -->
<g id="edge53" class="edge">
<title>23&#45;&gt;T1</title>
<path fill="none" stroke="black" d="M268.74,-78.67C274.86,-76.14 281.59,-73.67 288,-72 438.29,-32.88 624.12,-22.6 703.32,-19.93"/>
<polygon fill="black" stroke="black" points="703.26,-23.43 713.14,-19.62 703.04,-16.43 703.26,-23.43"/>
</g>
<!-- 5&#45;&gt;T35 -->
<g id="edge54" class="edge">
<title>5&#45;&gt;T35</title>
<path fill="none" stroke="black" d="M102.58,-215.95C98.84,-186.42 92.87,-123.93 101,-72 102.32,-63.56 104.75,-54.64 107.38,-46.56"/>
<polygon fill="black" stroke="black" points="110.62,-47.88 110.61,-37.29 104.01,-45.58 110.62,-47.88"/>
</g>
<!-- 5&#45;&gt;23 -->
<g id="edge55" class="edge">
<title>5&#45;&gt;23</title>
<path fill="none" stroke="black" d="M119.4,-218.6C144.17,-193.83 195.02,-142.98 224.5,-113.5"/>
<polygon fill="black" stroke="black" points="226.9,-116.05 231.49,-106.51 221.95,-111.1 226.9,-116.05"/>
</g>
<!-- 6 -->
<g id="node43" class="node">
<title>6</title>
<ellipse fill="none" stroke="black" cx="27" cy="-162" rx="27" ry="18"/>
<text xml:space="preserve" text-anchor="middle" x="27" y="-156.95" font-family="Times,serif" font-size="14.00">6</text>
</g>
<!-- 5&#45;&gt;6 -->
<g id="edge56" class="edge">
<title>5&#45;&gt;6</title>
<path fill="none" stroke="black" d="M89.59,-219.17C78.55,-209.26 63.47,-195.73 50.88,-184.43"/>
<polygon fill="black" stroke="black" points="53.55,-182.13 43.77,-178.05 48.88,-187.34 53.55,-182.13"/>
</g>
<!-- 7 -->
<g id="node48" class="node">
<title>7</title>
<ellipse fill="none" stroke="black" cx="27" cy="-90" rx="27" ry="18"/>
<text xml:space="preserve" text-anchor="middle" x="27" y="-84.95" font-family="Times,serif" font-size="14.00">7</text>
</g>
<!-- 6&#45;&gt;7 -->
<g id="edge66" class="edge">
<title>6&#45;&gt;7</title>
<path fill="none" stroke="black" d="M27,-143.7C27,-136.41 27,-127.73 27,-119.54"/>
<polygon fill="black" stroke="black" points="30.5,-119.62 27,-109.62 23.5,-119.62 30.5,-119.62"/>
</g>
<!-- 22&#45;&gt;T35 -->
<g id="edge67" class="edge">
<title>22&#45;&gt;T35</title>
<path fill="none" stroke="black" d="M234.93,-145.45C220.67,-127.33 195.98,-96.73 173,-72 163.09,-61.33 151.56,-50.06 141.62,-40.67"/>
<polygon fill="black" stroke="black" points="144.18,-38.27 134.49,-34 139.4,-43.39 144.18,-38.27"/>
</g>
<!-- 22&#45;&gt;23 -->
<g id="edge68" class="edge">
<title>22&#45;&gt;23</title>
<path fill="none" stroke="black" d="M247,-143.7C247,-136.41 247,-127.73 247,-119.54"/>
<polygon fill="black" stroke="black" points="250.5,-119.62 247,-109.62 243.5,-119.62 250.5,-119.62"/>
</g>
<!-- 37 -->
<g id="node45" class="node">
<title>37</title>
<ellipse fill="none" stroke="black" cx="613" cy="-450" rx="27" ry="18"/>
<text xml:space="preserve" text-anchor="middle" x="613" y="-444.95" font-family="Times,serif" font-size="14.00">37</text>
</g>
<!-- 37&#45;&gt;38 -->
<g id="edge60" class="edge">
<title>37&#45;&gt;38</title>
<path fill="none" stroke="black" d="M594.19,-436.81C577.41,-425.93 552.61,-409.86 533.41,-397.42"/>
<polygon fill="black" stroke="black" points="535.52,-394.61 525.23,-392.11 531.72,-400.49 535.52,-394.61"/>
</g>
<!-- 37&#45;&gt;40 -->
<g id="edge61" class="edge">
<title>37&#45;&gt;40</title>
<path fill="none" stroke="black" d="M604.65,-432.76C600.42,-424.55 595.19,-414.37 590.42,-405.09"/>
<polygon fill="black" stroke="black" points="593.68,-403.79 586,-396.49 587.46,-406.99 593.68,-403.79"/>
</g>
<!-- 39 -->
<g id="node46" class="node">
<title>39</title>
<ellipse fill="none" stroke="black" cx="723" cy="-306" rx="27" ry="18"/>
<text xml:space="preserve" text-anchor="middle" x="723" y="-300.95" font-family="Times,serif" font-size="14.00">39</text>
</g>
<!-- 37&#45;&gt;39 -->
<g id="edge62" class="edge">
<title>37&#45;&gt;39</title>
<path fill="none" stroke="black" d="M617.37,-431.84C622.85,-412.79 633.68,-381.86 651,-360 662.43,-345.57 678.73,-333.13 692.93,-323.94"/>
<polygon fill="black" stroke="black" points="694.39,-327.15 701.05,-318.9 690.71,-321.2 694.39,-327.15"/>
</g>
<!-- 41 -->
<g id="node47" class="node">
<title>41</title>
<ellipse fill="none" stroke="black" cx="888" cy="-234" rx="27" ry="18"/>
<text xml:space="preserve" text-anchor="middle" x="888" y="-228.95" font-family="Times,serif" font-size="14.00">41</text>
</g>
<!-- 37&#45;&gt;41 -->
<g id="edge63" class="edge">
<title>37&#45;&gt;41</title>
<path fill="none" stroke="black" d="M639.75,-447.24C698.57,-442.8 836.38,-429.04 867,-396 900.22,-360.15 898.07,-299 893.23,-263.27"/>
<polygon fill="black" stroke="black" points="896.74,-263.05 891.76,-253.7 889.82,-264.11 896.74,-263.05"/>
</g>
<!-- 39&#45;&gt;15 -->
<g id="edge64" class="edge">
<title>39&#45;&gt;15</title>
<path fill="none" stroke="black" d="M725.33,-287.59C728.54,-263.61 734.35,-220.14 738.2,-191.42"/>
<polygon fill="black" stroke="black" points="741.65,-191.99 739.51,-181.61 734.71,-191.06 741.65,-191.99"/>
</g>
<!-- 41&#45;&gt;29 -->
<g id="edge65" class="edge">
<title>41&#45;&gt;29</title>
<path fill="none" stroke="black" d="M910.39,-223.56C938.85,-211.56 988.23,-190.73 1021.01,-176.91"/>
<polygon fill="black" stroke="black" points="1022.19,-180.21 1030.04,-173.1 1019.47,-173.76 1022.19,-180.21"/>
</g>
<!-- 7&#45;&gt;T8 -->
<g id="edge69" class="edge">
<title>7&#45;&gt;T8</title>
<path fill="none" stroke="black" d="M27,-71.7C27,-64.41 27,-55.73 27,-47.54"/>
<polygon fill="black" stroke="black" points="30.5,-47.62 27,-37.62 23.5,-47.62 30.5,-47.62"/>
</g>
</g>
</svg>
