<?xml version="1.0" encoding="UTF-8" standalone="no"?>
<!DOCTYPE svg PUBLIC "-//W3C//DTD SVG 1.1//EN"
 "http://www.w3.org/Graphics/SVG/1.1/DTD/svg11.dtd">
<!-- Generated by graphviz version 14.1.1 (20251213.1925)
 -->
<!-- Title: finite_state_machine Pages: 1 -->
<svg width="764pt" height="354pt"
 viewBox="0.00 0.00 764.00 354.00" xmlns="http://www.w3.org/2000/svg" xmlns:xlink="http://www.w3.org/1999/xlink">
<g id="graph0" class="graph" transform="scale(1 1) rotate(0) translate(4 349.81)">
<title>finite_state_machine</title>
<polygon fill="white" stroke="none" points="-4,4 -4,-349.81 759.58,-349.81 759.58,4 -4,4"/>
<!-- LR_0 -->
<g id="node1" class="node">
<title>LR_0</title>
<ellipse fill="none" stroke="black" cx="39.9" cy="-88.9" rx="35.9" ry="35.9"/>
<ellipse fill="none" stroke="black" cx="39.9" cy="-88.9" rx="39.9" ry="39.9"/>
<text xml:space="preserve" text-anchor="middle" x="39.9" y="-83.85" font-family="Times,serif" font-size="14.00">LR_0</text>
</g>
<!-- LR_2 -->
<g id="node2" class="node">
<title>LR_2</title>
<ellipse fill="none" stroke="black" cx="180.71" cy="-159.9" rx="31.9" ry="31.9"/>
<text xml:space="preserve" text-anchor="middle" x="180.71" y="-154.85" font-family="Times,serif" font-size="14.00">LR_2</text>
</g>
<!-- LR_0&#45;&gt;LR_2 -->
<g id="edge1" class="edge">
<title>LR_0&#45;&gt;LR_2</title>
<path fill="none" stroke="black" d="M75.93,-106.82C95.9,-117.03 120.95,-129.85 141.44,-140.33"/>
<polygon fill="black" stroke="black" points="139.84,-143.44 150.33,-144.88 143.03,-137.21 139.84,-143.44"/>
<text xml:space="preserve" text-anchor="middle" x="114.31" y="-136.05" font-family="Times,serif" font-size="14.00">SS(B)</text>
</g>
<!-- LR_1 -->
<g id="node3" class="node">
<title>LR_1</title>
<ellipse fill="none" stroke="black" cx="180.71" cy="-47.9" rx="31.9" ry="31.9"/>
<text xml:space="preserve" text-anchor="middle" x="180.71" y="-42.85" font-family="Times,serif" font-size="14.00">LR_1</text>
</g>
<!-- LR_0&#45;&gt;LR_1 -->
<g id="edge2" class="edge">
<title>LR_0&#45;&gt;LR_1</title>
<path fill="none" stroke="black" d="M78.47,-77.81C97.12,-72.3 119.7,-65.63 138.8,-59.99"/>
<polygon fill="black" stroke="black" points="139.53,-63.42 148.13,-57.23 137.55,-56.71 139.53,-63.42"/>
<text xml:space="preserve" text-anchor="middle" x="114.31" y="-75.28" font-family="Times,serif" font-size="14.00">SS(S)</text>
</g>
<!-- LR_4 -->
<g id="node5" class="node">
<title>LR_4</title>
<ellipse fill="none" stroke="black" cx="331.26" cy="-305.9" rx="35.9" ry="35.9"/>
<ellipse fill="none" stroke="black" cx="331.26" cy="-305.9" rx="39.9" ry="39.9"/>
<text xml:space="preserve" text-anchor="middle" x="331.26" y="-300.85" font-family="Times,serif" font-size="14.00">LR_4</text>
</g>
<!-- LR_2&#45;&gt;LR_4 -->
<g id="edge5" class="edge">
<title>LR_2&#45;&gt;LR_4</title>
<path fill="none" stroke="black" d="M204.27,-182.08C228.13,-205.53 266.13,-242.87 294.16,-270.42"/>
<polygon fill="black" stroke="black" points="291.49,-272.7 301.07,-277.21 296.39,-267.71 291.49,-272.7"/>
<text xml:space="preserve" text-anchor="middle" x="251.99" y="-249.18" font-family="Times,serif" font-size="14.00">S(A)</text>
</g>
<!-- LR_6 -->
<g id="node7" class="node">
<title>LR_6</title>
<ellipse fill="none" stroke="black" cx="331.26" cy="-181.9" rx="31.9" ry="31.9"/>
<text xml:space="preserve" text-anchor="middle" x="331.26" y="-176.85" font-family="Times,serif" font-size="14.00">LR_6</text>
</g>
<!-- LR_2&#45;&gt;LR_6 -->
<g id="edge6" class="edge">
<title>LR_2&#45;&gt;LR_6</title>
<path fill="none" stroke="black" d="M212.49,-164.46C234.33,-167.7 263.91,-172.08 287.96,-175.64"/>
<polygon fill="black" stroke="black" points="287.37,-179.09 297.77,-177.09 288.39,-172.16 287.37,-179.09"/>
<text xml:space="preserve" text-anchor="middle" x="251.99" y="-176.07" font-family="Times,serif" font-size="14.00">SS(b)</text>
</g>
<!-- LR_5 -->
<g id="node8" class="node">
<title>LR_5</title>
<ellipse fill="none" stroke="black" cx="461.57" cy="-115.9" rx="31.9" ry="31.9"/>
<text xml:space="preserve" text-anchor="middle" x="461.57" y="-110.85" font-family="Times,serif" font-size="14.00">LR_5</text>
</g>
<!-- LR_2&#45;&gt;LR_5 -->
<g id="edge7" class="edge">
<title>LR_2&#45;&gt;LR_5</title>
<path fill="none" stroke="black" d="M210.49,-148.28C232.3,-140.04 263.22,-129.57 291.36,-124.4 333.93,-116.58 383.47,-114.95 417.9,-114.97"/>
<polygon fill="black" stroke="black" points="417.88,-118.47 427.9,-115.03 417.92,-111.47 417.88,-118.47"/>
<text xml:space="preserve" text-anchor="middle" x="331.26" y="-127.6" font-family="Times,serif" font-size="14.00">SS(a)</text>
</g>
<!-- LR_3 -->
<g id="node4" class="node">
<title>LR_3</title>
<ellipse fill="none" stroke="black" cx="331.26" cy="-39.9" rx="35.9" ry="35.9"/>
<ellipse fill="none" stroke="black" cx="331.26" cy="-39.9" rx="39.9" ry="39.9"/>
<text xml:space="preserve" text-anchor="middle" x="331.26" y="-34.85" font-family="Times,serif" font-size="14.00">LR_3</text>
</g>
<!-- LR_1&#45;&gt;LR_3 -->
<g id="edge8" class="edge">
<title>LR_1&#45;&gt;LR_3</title>
<path fill="none" stroke="black" d="M212.85,-46.23C232.2,-45.18 257.51,-43.82 279.68,-42.63"/>
<polygon fill="black" stroke="black" points="279.63,-46.13 289.43,-42.1 279.26,-39.14 279.63,-46.13"/>
<text xml:space="preserve" text-anchor="middle" x="251.99" y="-48.29" font-family="Times,serif" font-size="14.00">S($end)</text>
</g>
<!-- LR_8 -->
<g id="node6" class="node">
<title>LR_8</title>
<ellipse fill="none" stroke="black" cx="715.68" cy="-156.9" rx="35.9" ry="35.9"/>
<ellipse fill="none" stroke="black" cx="715.68" cy="-156.9" rx="39.9" ry="39.9"/>
<text xml:space="preserve" text-anchor="middle" x="715.68" y="-151.85" font-family="Times,serif" font-size="14.00">LR_8</text>
</g>
<!-- LR_8&#45;&gt;LR_6 -->
<g id="edge3" class="edge">
<title>LR_8&#45;&gt;LR_6</title>
<path fill="none" stroke="black" d="M676.13,-164.66C632.15,-173.07 557.98,-185.97 493.47,-190.9 465.2,-193.06 457.99,-192.21 429.67,-190.9 411.61,-190.07 391.73,-188.37 374.67,-186.68"/>
<polygon fill="black" stroke="black" points="375.17,-183.21 364.86,-185.67 374.45,-190.17 375.17,-183.21"/>
<text xml:space="preserve" text-anchor="middle" x="523.1" y="-192.5" font-family="Times,serif" font-size="14.00">S(b)</text>
</g>
<!-- LR_8&#45;&gt;LR_5 -->
<g id="edge4" class="edge">
<title>LR_8&#45;&gt;LR_5</title>
<path fill="none" stroke="black" d="M676.05,-151.12C635.14,-144.93 568.68,-134.67 511.47,-124.9 509.18,-124.51 506.83,-124.1 504.45,-123.68"/>
<polygon fill="black" stroke="black" points="505.28,-120.28 494.82,-121.96 504.05,-127.17 505.28,-120.28"/>
<text xml:space="preserve" text-anchor="middle" x="584.63" y="-145.1" font-family="Times,serif" font-size="14.00">S(a)</text>
</g>
<!-- LR_6&#45;&gt;LR_6 -->
<g id="edge9" class="edge">
<title>LR_6&#45;&gt;LR_6</title>
<path fill="none" stroke="black" d="M318.35,-211.12C317.77,-222.42 322.08,-231.81 331.26,-231.81 337.15,-231.81 341.03,-227.95 342.91,-222.21"/>
<polygon fill="black" stroke="black" points="346.35,-222.96 344.01,-212.62 339.39,-222.16 346.35,-222.96"/>
<text xml:space="preserve" text-anchor="middle" x="331.26" y="-235.01" font-family="Times,serif" font-size="14.00">S(b)</text>
</g>
<!-- LR_6&#45;&gt;LR_5 -->
<g id="edge10" class="edge">
<title>LR_6&#45;&gt;LR_5</title>
<path fill="none" stroke="black" d="M360.1,-167.58C378.43,-158.15 402.65,-145.7 422.72,-135.37"/>
<polygon fill="black" stroke="black" points="424.15,-138.57 431.44,-130.89 420.94,-132.35 424.15,-138.57"/>
<text xml:space="preserve" text-anchor="middle" x="400.42" y="-154.08" font-family="Times,serif" font-size="14.00">S(a)</text>
</g>
<!-- LR_5&#45;&gt;LR_5 -->
<g id="edge11" class="edge">
<title>LR_5&#45;&gt;LR_5</title>
<path fill="none" stroke="black" d="M450.11,-146.11C449.87,-156.96 453.69,-165.81 461.57,-165.81 466.37,-165.81 469.67,-162.52 471.45,-157.5"/>
<polygon fill="black" stroke="black" points="474.92,-158 472.82,-147.61 467.98,-157.04 474.92,-158"/>
<text xml:space="preserve" text-anchor="middle" x="461.57" y="-169.01" font-family="Times,serif" font-size="14.00">S(a)</text>
</g>
<!-- LR_7 -->
<g id="node9" class="node">
<title>LR_7</title>
<ellipse fill="none" stroke="black" cx="584.63" cy="-88.9" rx="31.9" ry="31.9"/>
<text xml:space="preserve" text-anchor="middle" x="584.63" y="-83.85" font-family="Times,serif" font-size="14.00">LR_7</text>
</g>
<!-- LR_5&#45;&gt;LR_7 -->
<g id="edge12" class="edge">
<title>LR_5&#45;&gt;LR_7</title>
<path fill="none" stroke="black" d="M493.12,-109.09C508.03,-105.76 526.19,-101.71 542.31,-98.12"/>
<polygon fill="black" stroke="black" points="542.61,-101.64 551.61,-96.04 541.09,-94.8 542.61,-101.64"/>
<text xml:space="preserve" text-anchor="middle" x="523.1" y="-108.02" font-family="Times,serif" font-size="14.00">S(b)</text>
</g>
<!-- LR_7&#45;&gt;LR_8 -->
<g id="edge13" class="edge">
<title>LR_7&#45;&gt;LR_8</title>
<path fill="none" stroke="black" d="M613.42,-103.24C626.84,-110.2 643.17,-118.69 657.78,-126.4 661.85,-128.55 666.08,-130.8 670.31,-133.05"/>
<polygon fill="black" stroke="black" points="668.31,-135.95 678.78,-137.57 671.61,-129.77 668.31,-135.95"/>
<text xml:space="preserve" text-anchor="middle" x="646.15" y="-129.6" font-family="Times,serif" font-size="14.00">S(b)</text>
</g>
<!-- LR_7&#45;&gt;LR_5 -->
<g id="edge14" class="edge">
<title>LR_7&#45;&gt;LR_5</title>
<path fill="none" stroke="black" d="M553.92,-79.11C540.67,-76.23 525.02,-74.9 511.47,-79.4 505.57,-81.36 499.79,-84.35 494.41,-87.78"/>
<polygon fill="black" stroke="black" points="492.55,-84.81 486.41,-93.45 496.6,-90.52 492.55,-84.81"/>
<text xml:space="preserve" text-anchor="middle" x="523.1" y="-82.6" font-family="Times,serif" font-size="14.00">S(a)</text>
</g>
</g>
</svg>
