<?xml version="1.0" encoding="UTF-8" standalone="no"?>
<!DOCTYPE svg PUBLIC "-//W3C//DTD SVG 1.1//EN"
 "http://www.w3.org/Graphics/SVG/1.1/DTD/svg11.dtd">
<!-- Generated by graphviz version 14.1.1 (20251213.1925)
 -->
<!-- Title: G Pages: 1 -->
<svg width="921pt" height="272pt"
 viewBox="0.00 0.00 921.00 272.00" xmlns="http://www.w3.org/2000/svg" xmlns:xlink="http://www.w3.org/1999/xlink">
<g id="graph0" class="graph" transform="scale(1 1) rotate(0) translate(4 268.38)">
<title>G</title>
<polygon fill="blue" stroke="none" points="-4,4 -4,-268.38 917,-268.38 917,4 -4,4"/>
<g id="clust1" class="cluster">
<title>cluster_1</title>
<polygon fill="none" stroke="black" points="49,-140.97 49,-256.38 865,-256.38 865,-140.97 49,-140.97"/>
<text xml:space="preserve" text-anchor="middle" x="457" y="-239.08" font-family="Times,serif" font-size="14.00" fill="white">Linear Angle Variations (white to black gradient)</text>
</g>
<g id="clust2" class="cluster">
<title>cluster_2</title>
<polygon fill="none" stroke="black" points="8,-8 8,-132.97 905,-132.97 905,-8 8,-8"/>
<text xml:space="preserve" text-anchor="middle" x="456.5" y="-115.67" font-family="Times,serif" font-size="14.00" fill="white">Radial Angle Variations (white to black gradient)</text>
</g>
<!-- n9 -->
<g id="node1" class="node">
<title>n9</title>
<ellipse fill="#000000" stroke="black" cx="94" cy="-186.43" rx="37.46" ry="37.46"/>
<text xml:space="preserve" text-anchor="middle" x="94" y="-181.38" font-family="Times,serif" font-size="14.00">n8:360</text>
</g>
<!-- n8 -->
<g id="node2" class="node">
<title>n8</title>
<ellipse fill="#000000" stroke="black" cx="187" cy="-186.43" rx="37.46" ry="37.46"/>
<text xml:space="preserve" text-anchor="middle" x="187" y="-181.38" font-family="Times,serif" font-size="14.00">n8:315</text>
</g>
<!-- n7 -->
<g id="node3" class="node">
<title>n7</title>
<ellipse fill="#000000" stroke="black" cx="280" cy="-186.43" rx="37.46" ry="37.46"/>
<text xml:space="preserve" text-anchor="middle" x="280" y="-181.38" font-family="Times,serif" font-size="14.00">n7:270</text>
</g>
<!-- n6 -->
<g id="node4" class="node">
<title>n6</title>
<ellipse fill="#000000" stroke="black" cx="373" cy="-186.43" rx="37.46" ry="37.46"/>
<text xml:space="preserve" text-anchor="middle" x="373" y="-181.38" font-family="Times,serif" font-size="14.00">n6:225</text>
</g>
<!-- n5 -->
<g id="node5" class="node">
<title>n5</title>
<ellipse fill="#000000" stroke="black" cx="466" cy="-186.43" rx="37.46" ry="37.46"/>
<text xml:space="preserve" text-anchor="middle" x="466" y="-181.38" font-family="Times,serif" font-size="14.00">n5:180</text>
</g>
<!-- n14 -->
<g id="node14" class="node">
<title>n14</title>
<ellipse fill="none" stroke="black" cx="466" cy="-58.23" rx="42.23" ry="42.23"/>
<text xml:space="preserve" text-anchor="middle" x="466" y="-53.18" font-family="Times,serif" font-size="14.00">n14:180</text>
</g>
<!-- n5&#45;&gt;n14 -->
<g id="edge1" class="edge">
<title>n5&#45;&gt;n14</title>
<path fill="none" stroke="black" d="M466,-148.59C466,-137.23 466,-124.49 466,-112.27"/>
<polygon fill="black" stroke="black" points="469.5,-112.29 466,-102.29 462.5,-112.29 469.5,-112.29"/>
</g>
<!-- n4 -->
<g id="node6" class="node">
<title>n4</title>
<ellipse fill="#000000" stroke="black" cx="559" cy="-186.43" rx="37.46" ry="37.46"/>
<text xml:space="preserve" text-anchor="middle" x="559" y="-181.38" font-family="Times,serif" font-size="14.00">n4:135</text>
</g>
<!-- n3 -->
<g id="node7" class="node">
<title>n3</title>
<ellipse fill="#000000" stroke="black" cx="650" cy="-186.43" rx="35.07" ry="35.07"/>
<text xml:space="preserve" text-anchor="middle" x="650" y="-181.38" font-family="Times,serif" font-size="14.00">n3:90 </text>
</g>
<!-- n2 -->
<g id="node8" class="node">
<title>n2</title>
<ellipse fill="#000000" stroke="black" cx="738" cy="-186.43" rx="35.07" ry="35.07"/>
<text xml:space="preserve" text-anchor="middle" x="738" y="-181.38" font-family="Times,serif" font-size="14.00">n2:45 </text>
</g>
<!-- n1 -->
<g id="node9" class="node">
<title>n1</title>
<ellipse fill="#000000" stroke="black" cx="824" cy="-186.43" rx="32.68" ry="32.68"/>
<text xml:space="preserve" text-anchor="middle" x="824" y="-181.38" font-family="Times,serif" font-size="14.00">n1:0 &#160;</text>
</g>
<!-- n18 -->
<g id="node10" class="node">
<title>n18</title>
<ellipse fill="none" stroke="black" cx="58" cy="-58.23" rx="42.23" ry="42.23"/>
<text xml:space="preserve" text-anchor="middle" x="58" y="-53.18" font-family="Times,serif" font-size="14.00">n17:360</text>
</g>
<!-- n17 -->
<g id="node11" class="node">
<title>n17</title>
<ellipse fill="none" stroke="black" cx="160" cy="-58.23" rx="42.23" ry="42.23"/>
<text xml:space="preserve" text-anchor="middle" x="160" y="-53.18" font-family="Times,serif" font-size="14.00">n17:315</text>
</g>
<!-- n16 -->
<g id="node12" class="node">
<title>n16</title>
<ellipse fill="none" stroke="black" cx="262" cy="-58.23" rx="42.23" ry="42.23"/>
<text xml:space="preserve" text-anchor="middle" x="262" y="-53.18" font-family="Times,serif" font-size="14.00">n16:270</text>
</g>
<!-- n15 -->
<g id="node13" class="node">
<title>n15</title>
<ellipse fill="none" stroke="black" cx="364" cy="-58.23" rx="42.23" ry="42.23"/>
<text xml:space="preserve" text-anchor="middle" x="364" y="-53.18" font-family="Times,serif" font-size="14.00">n15:225</text>
</g>
<!-- n13 -->
<g id="node15" class="node">
<title>n13</title>
<ellipse fill="none" stroke="black" cx="568" cy="-58.23" rx="42.23" ry="42.23"/>
<text xml:space="preserve" text-anchor="middle" x="568" y="-53.18" font-family="Times,serif" font-size="14.00">n13:135</text>
</g>
<!-- n12 -->
<g id="node16" class="node">
<title>n12</title>
<ellipse fill="none" stroke="black" cx="668" cy="-58.23" rx="39.85" ry="39.85"/>
<text xml:space="preserve" text-anchor="middle" x="668" y="-53.18" font-family="Times,serif" font-size="14.00">n12:90 </text>
</g>
<!-- n11 -->
<g id="node17" class="node">
<title>n11</title>
<ellipse fill="none" stroke="black" cx="765" cy="-58.23" rx="39.5" ry="39.5"/>
<text xml:space="preserve" text-anchor="middle" x="765" y="-53.18" font-family="Times,serif" font-size="14.00">n11:45 </text>
</g>
<!-- n10 -->
<g id="node18" class="node">
<title>n10</title>
<ellipse fill="none" stroke="black" cx="860" cy="-58.23" rx="37.46" ry="37.46"/>
<text xml:space="preserve" text-anchor="middle" x="860" y="-53.18" font-family="Times,serif" font-size="14.00">n10:0 &#160;</text>
</g>
</g>
</svg>
