<?xml version="1.0" encoding="UTF-8" standalone="no"?>
<!DOCTYPE svg PUBLIC "-//W3C//DTD SVG 1.1//EN"
 "http://www.w3.org/Graphics/SVG/1.1/DTD/svg11.dtd">
<!-- Generated by graphviz version 14.1.1 (20251213.1925)
 -->
<!-- Title: G Pages: 1 -->
<svg width="662pt" height="677pt"
 viewBox="0.00 0.00 662.00 677.00" xmlns="http://www.w3.org/2000/svg" xmlns:xlink="http://www.w3.org/1999/xlink">
<g id="graph0" class="graph" transform="scale(1 1) rotate(0) translate(4 672.5)">
<title>G</title>
<polygon fill="#000000" stroke="none" points="-4,4 -4,-672.5 658,-672.5 658,4 -4,4"/>
<g id="clust1" class="cluster">
<title>cluster1</title>
<polygon fill="#000000" stroke="black" points="8,-8 8,-660.5 646,-660.5 646,-8 8,-8"/>
</g>
<!-- a0 -->
<g id="node1" class="node">
<title>a0</title>
<ellipse fill="#000000" stroke="black" cx="327" cy="-334.25" rx="311" ry="318.25"/>
<polygon fill="#000000" stroke="none" points="24,-20 24,-648.5 630,-648.5 630,-20 24,-20"/>
<polygon fill="yellow" stroke="none" points="44,-572 44,-628.5 98,-628.5 98,-572 44,-572"/>
<polygon fill="none" stroke="black" stroke-width="10" points="49,-577 49,-623.5 93,-623.5 93,-577 49,-577"/>
<text xml:space="preserve" text-anchor="start" x="64" y="-595.2" font-family="Times,serif" font-size="14.00">00</text>
<polygon fill="#000000" stroke="none" points="108,-572 108,-628.5 162,-628.5 162,-572 108,-572"/>
<polygon fill="none" stroke="black" stroke-width="10" points="113,-577 113,-623.5 157,-623.5 157,-577 113,-577"/>
<text xml:space="preserve" text-anchor="start" x="128" y="-595.2" font-family="Times,serif" font-size="14.00">01</text>
<polygon fill="green" stroke="none" points="172,-572 172,-628.5 226,-628.5 226,-572 172,-572"/>
<polygon fill="none" stroke="black" stroke-width="10" points="177,-577 177,-623.5 221,-623.5 221,-577 177,-577"/>
<text xml:space="preserve" text-anchor="start" x="192" y="-595.2" font-family="Times,serif" font-size="14.00">02</text>
<polygon fill="#000000" stroke="none" points="236,-572 236,-628.5 290,-628.5 290,-572 236,-572"/>
<polygon fill="none" stroke="black" stroke-width="10" points="241,-577 241,-623.5 285,-623.5 285,-577 241,-577"/>
<text xml:space="preserve" text-anchor="start" x="256" y="-595.2" font-family="Times,serif" font-size="14.00">03</text>
<polygon fill="blue" stroke="none" points="300,-572 300,-628.5 354,-628.5 354,-572 300,-572"/>
<polygon fill="none" stroke="black" stroke-width="10" points="305,-577 305,-623.5 349,-623.5 349,-577 305,-577"/>
<text xml:space="preserve" text-anchor="start" x="320" y="-595.2" font-family="Times,serif" font-size="14.00">04</text>
<polygon fill="#000000" stroke="none" points="364,-572 364,-628.5 418,-628.5 418,-572 364,-572"/>
<polygon fill="none" stroke="black" stroke-width="10" points="369,-577 369,-623.5 413,-623.5 413,-577 369,-577"/>
<text xml:space="preserve" text-anchor="start" x="384" y="-595.2" font-family="Times,serif" font-size="14.00">05</text>
<polygon fill="purple" stroke="none" points="428,-572 428,-628.5 482,-628.5 482,-572 428,-572"/>
<polygon fill="none" stroke="black" stroke-width="10" points="433,-577 433,-623.5 477,-623.5 477,-577 433,-577"/>
<text xml:space="preserve" text-anchor="start" x="448" y="-595.2" font-family="Times,serif" font-size="14.00">06</text>
<polygon fill="#000000" stroke="none" points="492,-572 492,-628.5 546,-628.5 546,-572 492,-572"/>
<polygon fill="none" stroke="black" stroke-width="10" points="497,-577 497,-623.5 541,-623.5 541,-577 497,-577"/>
<text xml:space="preserve" text-anchor="start" x="512" y="-595.2" font-family="Times,serif" font-size="14.00">07</text>
<polygon fill="#000000" stroke="none" points="556,-572 556,-628.5 610,-628.5 610,-572 556,-572"/>
<polygon fill="none" stroke="black" stroke-width="10" points="561,-577 561,-623.5 605,-623.5 605,-577 561,-577"/>
<text xml:space="preserve" text-anchor="start" x="576" y="-595.2" font-family="Times,serif" font-size="14.00">08</text>
<polygon fill="#000000" stroke="none" points="44,-505.5 44,-562 98,-562 98,-505.5 44,-505.5"/>
<polygon fill="none" stroke="black" stroke-width="10" points="49,-510.5 49,-557 93,-557 93,-510.5 49,-510.5"/>
<text xml:space="preserve" text-anchor="start" x="64.25" y="-528.7" font-family="Times,serif" font-size="14.00">10</text>
<polygon fill="#000000" stroke="none" points="108,-505.5 108,-562 162,-562 162,-505.5 108,-505.5"/>
<polygon fill="none" stroke="black" stroke-width="10" points="113,-510.5 113,-557 157,-557 157,-510.5 113,-510.5"/>
<text xml:space="preserve" text-anchor="start" x="128.25" y="-528.7" font-family="Times,serif" font-size="14.00">11</text>
<polygon fill="#000000" stroke="none" points="172,-505.5 172,-562 226,-562 226,-505.5 172,-505.5"/>
<polygon fill="none" stroke="black" stroke-width="10" points="177,-510.5 177,-557 221,-557 221,-510.5 177,-510.5"/>
<text xml:space="preserve" text-anchor="start" x="192.25" y="-528.7" font-family="Times,serif" font-size="14.00">12</text>
<polygon fill="#000000" stroke="none" points="236,-505.5 236,-562 290,-562 290,-505.5 236,-505.5"/>
<polygon fill="none" stroke="black" stroke-width="10" points="241,-510.5 241,-557 285,-557 285,-510.5 241,-510.5"/>
<text xml:space="preserve" text-anchor="start" x="256.25" y="-528.7" font-family="Times,serif" font-size="14.00">13</text>
<polygon fill="#000000" stroke="none" points="300,-505.5 300,-562 354,-562 354,-505.5 300,-505.5"/>
<polygon fill="none" stroke="black" stroke-width="10" points="305,-510.5 305,-557 349,-557 349,-510.5 305,-510.5"/>
<text xml:space="preserve" text-anchor="start" x="320.25" y="-528.7" font-family="Times,serif" font-size="14.00">14</text>
<polygon fill="#000000" stroke="none" points="364,-505.5 364,-562 418,-562 418,-505.5 364,-505.5"/>
<polygon fill="none" stroke="black" stroke-width="10" points="369,-510.5 369,-557 413,-557 413,-510.5 369,-510.5"/>
<text xml:space="preserve" text-anchor="start" x="384.25" y="-528.7" font-family="Times,serif" font-size="14.00">15</text>
<polygon fill="#000000" stroke="none" points="428,-505.5 428,-562 482,-562 482,-505.5 428,-505.5"/>
<polygon fill="none" stroke="black" stroke-width="10" points="433,-510.5 433,-557 477,-557 477,-510.5 433,-510.5"/>
<text xml:space="preserve" text-anchor="start" x="448.25" y="-528.7" font-family="Times,serif" font-size="14.00">16</text>
<polygon fill="#000000" stroke="none" points="492,-505.5 492,-562 546,-562 546,-505.5 492,-505.5"/>
<polygon fill="none" stroke="black" stroke-width="10" points="497,-510.5 497,-557 541,-557 541,-510.5 497,-510.5"/>
<text xml:space="preserve" text-anchor="start" x="512.25" y="-528.7" font-family="Times,serif" font-size="14.00">17</text>
<polygon fill="#000000" stroke="none" points="556,-505.5 556,-562 610,-562 610,-505.5 556,-505.5"/>
<polygon fill="none" stroke="black" stroke-width="10" points="561,-510.5 561,-557 605,-557 605,-510.5 561,-510.5"/>
<text xml:space="preserve" text-anchor="start" x="576.25" y="-528.7" font-family="Times,serif" font-size="14.00">18</text>
<polygon fill="gold" stroke="none" points="44,-439 44,-495.5 98,-495.5 98,-439 44,-439"/>
<polygon fill="none" stroke="black" stroke-width="10" points="49,-444 49,-490.5 93,-490.5 93,-444 49,-444"/>
<text xml:space="preserve" text-anchor="start" x="64.25" y="-462.2" font-family="Times,serif" font-size="14.00">20</text>
<polygon fill="#000000" stroke="none" points="108,-439 108,-495.5 162,-495.5 162,-439 108,-439"/>
<polygon fill="none" stroke="black" stroke-width="10" points="113,-444 113,-490.5 157,-490.5 157,-444 113,-444"/>
<text xml:space="preserve" text-anchor="start" x="128.25" y="-462.2" font-family="Times,serif" font-size="14.00">21</text>
<polygon fill="#000000" stroke="none" points="172,-439 172,-495.5 226,-495.5 226,-439 172,-439"/>
<polygon fill="none" stroke="black" stroke-width="10" points="177,-444 177,-490.5 221,-490.5 221,-444 177,-444"/>
<text xml:space="preserve" text-anchor="start" x="192.25" y="-462.2" font-family="Times,serif" font-size="14.00">22</text>
<polygon fill="#000000" stroke="none" points="236,-439 236,-495.5 290,-495.5 290,-439 236,-439"/>
<polygon fill="none" stroke="black" stroke-width="10" points="241,-444 241,-490.5 285,-490.5 285,-444 241,-444"/>
<text xml:space="preserve" text-anchor="start" x="256.25" y="-462.2" font-family="Times,serif" font-size="14.00">23</text>
<polygon fill="#000000" stroke="none" points="300,-439 300,-495.5 354,-495.5 354,-439 300,-439"/>
<polygon fill="none" stroke="black" stroke-width="10" points="305,-444 305,-490.5 349,-490.5 349,-444 305,-444"/>
<text xml:space="preserve" text-anchor="start" x="320.25" y="-462.2" font-family="Times,serif" font-size="14.00">24</text>
<polygon fill="#000000" stroke="none" points="364,-439 364,-495.5 418,-495.5 418,-439 364,-439"/>
<polygon fill="none" stroke="black" stroke-width="10" points="369,-444 369,-490.5 413,-490.5 413,-444 369,-444"/>
<text xml:space="preserve" text-anchor="start" x="384.25" y="-462.2" font-family="Times,serif" font-size="14.00">25</text>
<polygon fill="#000000" stroke="none" points="428,-439 428,-495.5 482,-495.5 482,-439 428,-439"/>
<polygon fill="none" stroke="black" stroke-width="10" points="433,-444 433,-490.5 477,-490.5 477,-444 433,-444"/>
<text xml:space="preserve" text-anchor="start" x="448.25" y="-462.2" font-family="Times,serif" font-size="14.00">26</text>
<polygon fill="#000000" stroke="none" points="492,-439 492,-495.5 546,-495.5 546,-439 492,-439"/>
<polygon fill="none" stroke="black" stroke-width="10" points="497,-444 497,-490.5 541,-490.5 541,-444 497,-444"/>
<text xml:space="preserve" text-anchor="start" x="512.25" y="-462.2" font-family="Times,serif" font-size="14.00">27</text>
<polygon fill="#000000" stroke="none" points="556,-439 556,-495.5 610,-495.5 610,-439 556,-439"/>
<polygon fill="none" stroke="black" stroke-width="10" points="561,-444 561,-490.5 605,-490.5 605,-444 561,-444"/>
<text xml:space="preserve" text-anchor="start" x="576.25" y="-462.2" font-family="Times,serif" font-size="14.00">28</text>
<polygon fill="#000000" stroke="none" points="44,-372.5 44,-429 98,-429 98,-372.5 44,-372.5"/>
<polygon fill="none" stroke="black" stroke-width="10" points="49,-377.5 49,-424 93,-424 93,-377.5 49,-377.5"/>
<text xml:space="preserve" text-anchor="start" x="64.25" y="-395.7" font-family="Times,serif" font-size="14.00">30</text>
<polygon fill="#000000" stroke="none" points="108,-372.5 108,-429 162,-429 162,-372.5 108,-372.5"/>
<polygon fill="none" stroke="black" stroke-width="10" points="113,-377.5 113,-424 157,-424 157,-377.5 113,-377.5"/>
<text xml:space="preserve" text-anchor="start" x="128.25" y="-395.7" font-family="Times,serif" font-size="14.00">31</text>
<polygon fill="#000000" stroke="none" points="172,-372.5 172,-429 226,-429 226,-372.5 172,-372.5"/>
<polygon fill="none" stroke="black" stroke-width="10" points="177,-377.5 177,-424 221,-424 221,-377.5 177,-377.5"/>
<text xml:space="preserve" text-anchor="start" x="192.25" y="-395.7" font-family="Times,serif" font-size="14.00">32</text>
<polygon fill="#000000" stroke="none" points="236,-372.5 236,-429 290,-429 290,-372.5 236,-372.5"/>
<polygon fill="none" stroke="black" stroke-width="10" points="241,-377.5 241,-424 285,-424 285,-377.5 241,-377.5"/>
<text xml:space="preserve" text-anchor="start" x="256.25" y="-395.7" font-family="Times,serif" font-size="14.00">33</text>
<polygon fill="#000000" stroke="none" points="300,-372.5 300,-429 354,-429 354,-372.5 300,-372.5"/>
<polygon fill="none" stroke="black" stroke-width="10" points="305,-377.5 305,-424 349,-424 349,-377.5 305,-377.5"/>
<text xml:space="preserve" text-anchor="start" x="320.25" y="-395.7" font-family="Times,serif" font-size="14.00">34</text>
<polygon fill="#000000" stroke="none" points="364,-372.5 364,-429 418,-429 418,-372.5 364,-372.5"/>
<polygon fill="none" stroke="black" stroke-width="10" points="369,-377.5 369,-424 413,-424 413,-377.5 369,-377.5"/>
<text xml:space="preserve" text-anchor="start" x="384.25" y="-395.7" font-family="Times,serif" font-size="14.00">35</text>
<polygon fill="#000000" stroke="none" points="428,-372.5 428,-429 482,-429 482,-372.5 428,-372.5"/>
<polygon fill="none" stroke="black" stroke-width="10" points="433,-377.5 433,-424 477,-424 477,-377.5 433,-377.5"/>
<text xml:space="preserve" text-anchor="start" x="448.25" y="-395.7" font-family="Times,serif" font-size="14.00">36</text>
<polygon fill="#000000" stroke="none" points="492,-372.5 492,-429 546,-429 546,-372.5 492,-372.5"/>
<polygon fill="none" stroke="black" stroke-width="10" points="497,-377.5 497,-424 541,-424 541,-377.5 497,-377.5"/>
<text xml:space="preserve" text-anchor="start" x="512.25" y="-395.7" font-family="Times,serif" font-size="14.00">37</text>
<polygon fill="#000000" stroke="none" points="556,-372.5 556,-429 610,-429 610,-372.5 556,-372.5"/>
<polygon fill="none" stroke="black" stroke-width="10" points="561,-377.5 561,-424 605,-424 605,-377.5 561,-377.5"/>
<text xml:space="preserve" text-anchor="start" x="576.25" y="-395.7" font-family="Times,serif" font-size="14.00">38</text>
<polygon fill="orange" stroke="none" points="44,-306 44,-362.5 98,-362.5 98,-306 44,-306"/>
<polygon fill="none" stroke="black" stroke-width="10" points="49,-311 49,-357.5 93,-357.5 93,-311 49,-311"/>
<text xml:space="preserve" text-anchor="start" x="64.25" y="-329.2" font-family="Times,serif" font-size="14.00">40</text>
<polygon fill="#000000" stroke="none" points="108,-306 108,-362.5 162,-362.5 162,-306 108,-306"/>
<polygon fill="none" stroke="black" stroke-width="10" points="113,-311 113,-357.5 157,-357.5 157,-311 113,-311"/>
<text xml:space="preserve" text-anchor="start" x="128.25" y="-329.2" font-family="Times,serif" font-size="14.00">41</text>
<polygon fill="#000000" stroke="none" points="172,-306 172,-362.5 226,-362.5 226,-306 172,-306"/>
<polygon fill="none" stroke="black" stroke-width="10" points="177,-311 177,-357.5 221,-357.5 221,-311 177,-311"/>
<text xml:space="preserve" text-anchor="start" x="192.25" y="-329.2" font-family="Times,serif" font-size="14.00">42</text>
<polygon fill="#000000" stroke="none" points="236,-306 236,-362.5 290,-362.5 290,-306 236,-306"/>
<polygon fill="none" stroke="black" stroke-width="10" points="241,-311 241,-357.5 285,-357.5 285,-311 241,-311"/>
<text xml:space="preserve" text-anchor="start" x="256.25" y="-329.2" font-family="Times,serif" font-size="14.00">43</text>
<polygon fill="#000000" stroke="none" points="300,-306 300,-362.5 354,-362.5 354,-306 300,-306"/>
<polygon fill="none" stroke="black" stroke-width="10" points="305,-311 305,-357.5 349,-357.5 349,-311 305,-311"/>
<text xml:space="preserve" text-anchor="start" x="320.25" y="-329.2" font-family="Times,serif" font-size="14.00">44</text>
<polygon fill="#000000" stroke="none" points="364,-306 364,-362.5 418,-362.5 418,-306 364,-306"/>
<polygon fill="none" stroke="black" stroke-width="10" points="369,-311 369,-357.5 413,-357.5 413,-311 369,-311"/>
<text xml:space="preserve" text-anchor="start" x="384.25" y="-329.2" font-family="Times,serif" font-size="14.00">45</text>
<polygon fill="#000000" stroke="none" points="428,-306 428,-362.5 482,-362.5 482,-306 428,-306"/>
<polygon fill="none" stroke="black" stroke-width="10" points="433,-311 433,-357.5 477,-357.5 477,-311 433,-311"/>
<text xml:space="preserve" text-anchor="start" x="448.25" y="-329.2" font-family="Times,serif" font-size="14.00">46</text>
<polygon fill="#000000" stroke="none" points="492,-306 492,-362.5 546,-362.5 546,-306 492,-306"/>
<polygon fill="none" stroke="black" stroke-width="10" points="497,-311 497,-357.5 541,-357.5 541,-311 497,-311"/>
<text xml:space="preserve" text-anchor="start" x="512.25" y="-329.2" font-family="Times,serif" font-size="14.00">47</text>
<polygon fill="#000000" stroke="none" points="556,-306 556,-362.5 610,-362.5 610,-306 556,-306"/>
<polygon fill="none" stroke="black" stroke-width="10" points="561,-311 561,-357.5 605,-357.5 605,-311 561,-311"/>
<text xml:space="preserve" text-anchor="start" x="576.25" y="-329.2" font-family="Times,serif" font-size="14.00">48</text>
<polygon fill="#000000" stroke="none" points="44,-239.5 44,-296 98,-296 98,-239.5 44,-239.5"/>
<polygon fill="none" stroke="black" stroke-width="10" points="49,-244.5 49,-291 93,-291 93,-244.5 49,-244.5"/>
<text xml:space="preserve" text-anchor="start" x="64.25" y="-262.7" font-family="Times,serif" font-size="14.00">50</text>
<polygon fill="#000000" stroke="none" points="108,-239.5 108,-296 162,-296 162,-239.5 108,-239.5"/>
<polygon fill="none" stroke="black" stroke-width="10" points="113,-244.5 113,-291 157,-291 157,-244.5 113,-244.5"/>
<text xml:space="preserve" text-anchor="start" x="128" y="-262.7" font-family="Times,serif" font-size="14.00">51</text>
<polygon fill="#000000" stroke="none" points="172,-239.5 172,-296 226,-296 226,-239.5 172,-239.5"/>
<polygon fill="none" stroke="black" stroke-width="10" points="177,-244.5 177,-291 221,-291 221,-244.5 177,-244.5"/>
<text xml:space="preserve" text-anchor="start" x="192" y="-262.7" font-family="Times,serif" font-size="14.00">52</text>
<polygon fill="#000000" stroke="none" points="236,-239.5 236,-296 290,-296 290,-239.5 236,-239.5"/>
<polygon fill="none" stroke="black" stroke-width="10" points="241,-244.5 241,-291 285,-291 285,-244.5 241,-244.5"/>
<text xml:space="preserve" text-anchor="start" x="256" y="-262.7" font-family="Times,serif" font-size="14.00">53</text>
<polygon fill="#000000" stroke="none" points="300,-239.5 300,-296 354,-296 354,-239.5 300,-239.5"/>
<polygon fill="none" stroke="black" stroke-width="10" points="305,-244.5 305,-291 349,-291 349,-244.5 305,-244.5"/>
<text xml:space="preserve" text-anchor="start" x="320" y="-262.7" font-family="Times,serif" font-size="14.00">54</text>
<polygon fill="#000000" stroke="none" points="364,-239.5 364,-296 418,-296 418,-239.5 364,-239.5"/>
<polygon fill="none" stroke="black" stroke-width="10" points="369,-244.5 369,-291 413,-291 413,-244.5 369,-244.5"/>
<text xml:space="preserve" text-anchor="start" x="384" y="-262.7" font-family="Times,serif" font-size="14.00">55</text>
<polygon fill="#000000" stroke="none" points="428,-239.5 428,-296 482,-296 482,-239.5 428,-239.5"/>
<polygon fill="none" stroke="black" stroke-width="10" points="433,-244.5 433,-291 477,-291 477,-244.5 433,-244.5"/>
<text xml:space="preserve" text-anchor="start" x="448" y="-262.7" font-family="Times,serif" font-size="14.00">56</text>
<polygon fill="#000000" stroke="none" points="492,-239.5 492,-296 546,-296 546,-239.5 492,-239.5"/>
<polygon fill="none" stroke="black" stroke-width="10" points="497,-244.5 497,-291 541,-291 541,-244.5 497,-244.5"/>
<text xml:space="preserve" text-anchor="start" x="512" y="-262.7" font-family="Times,serif" font-size="14.00">57</text>
<polygon fill="#000000" stroke="none" points="556,-239.5 556,-296 610,-296 610,-239.5 556,-239.5"/>
<polygon fill="none" stroke="black" stroke-width="10" points="561,-244.5 561,-291 605,-291 605,-244.5 561,-244.5"/>
<text xml:space="preserve" text-anchor="start" x="576" y="-262.7" font-family="Times,serif" font-size="14.00">58</text>
<polygon fill="red" stroke="none" points="44,-173 44,-229.5 98,-229.5 98,-173 44,-173"/>
<polygon fill="none" stroke="black" stroke-width="10" points="49,-178 49,-224.5 93,-224.5 93,-178 49,-178"/>
<text xml:space="preserve" text-anchor="start" x="64" y="-196.2" font-family="Times,serif" font-size="14.00">60</text>
<polygon fill="#000000" stroke="none" points="108,-173 108,-229.5 162,-229.5 162,-173 108,-173"/>
<polygon fill="none" stroke="black" stroke-width="10" points="113,-178 113,-224.5 157,-224.5 157,-178 113,-178"/>
<text xml:space="preserve" text-anchor="start" x="128" y="-196.2" font-family="Times,serif" font-size="14.00">61</text>
<polygon fill="#000000" stroke="none" points="172,-173 172,-229.5 226,-229.5 226,-173 172,-173"/>
<polygon fill="none" stroke="black" stroke-width="10" points="177,-178 177,-224.5 221,-224.5 221,-178 177,-178"/>
<text xml:space="preserve" text-anchor="start" x="192" y="-196.2" font-family="Times,serif" font-size="14.00">62</text>
<polygon fill="#000000" stroke="none" points="236,-173 236,-229.5 290,-229.5 290,-173 236,-173"/>
<polygon fill="none" stroke="black" stroke-width="10" points="241,-178 241,-224.5 285,-224.5 285,-178 241,-178"/>
<text xml:space="preserve" text-anchor="start" x="256" y="-196.2" font-family="Times,serif" font-size="14.00">63</text>
<polygon fill="#000000" stroke="none" points="300,-173 300,-229.5 354,-229.5 354,-173 300,-173"/>
<polygon fill="none" stroke="black" stroke-width="10" points="305,-178 305,-224.5 349,-224.5 349,-178 305,-178"/>
<text xml:space="preserve" text-anchor="start" x="320" y="-196.2" font-family="Times,serif" font-size="14.00">64</text>
<polygon fill="#000000" stroke="none" points="364,-173 364,-229.5 418,-229.5 418,-173 364,-173"/>
<polygon fill="none" stroke="black" stroke-width="10" points="369,-178 369,-224.5 413,-224.5 413,-178 369,-178"/>
<text xml:space="preserve" text-anchor="start" x="384" y="-196.2" font-family="Times,serif" font-size="14.00">65</text>
<polygon fill="#000000" stroke="none" points="428,-173 428,-229.5 482,-229.5 482,-173 428,-173"/>
<polygon fill="none" stroke="black" stroke-width="10" points="433,-178 433,-224.5 477,-224.5 477,-178 433,-178"/>
<text xml:space="preserve" text-anchor="start" x="448" y="-196.2" font-family="Times,serif" font-size="14.00">66</text>
<polygon fill="#000000" stroke="none" points="492,-173 492,-229.5 546,-229.5 546,-173 492,-173"/>
<polygon fill="none" stroke="black" stroke-width="10" points="497,-178 497,-224.5 541,-224.5 541,-178 497,-178"/>
<text xml:space="preserve" text-anchor="start" x="512" y="-196.2" font-family="Times,serif" font-size="14.00">67</text>
<polygon fill="#000000" stroke="none" points="556,-173 556,-229.5 610,-229.5 610,-173 556,-173"/>
<polygon fill="none" stroke="black" stroke-width="10" points="561,-178 561,-224.5 605,-224.5 605,-178 561,-178"/>
<text xml:space="preserve" text-anchor="start" x="576" y="-196.2" font-family="Times,serif" font-size="14.00">68</text>
<polygon fill="#000000" stroke="none" points="44,-106.5 44,-163 98,-163 98,-106.5 44,-106.5"/>
<polygon fill="none" stroke="black" stroke-width="10" points="49,-111.5 49,-158 93,-158 93,-111.5 49,-111.5"/>
<text xml:space="preserve" text-anchor="start" x="64" y="-129.7" font-family="Times,serif" font-size="14.00">70</text>
<polygon fill="#000000" stroke="none" points="108,-106.5 108,-163 162,-163 162,-106.5 108,-106.5"/>
<polygon fill="none" stroke="black" stroke-width="10" points="113,-111.5 113,-158 157,-158 157,-111.5 113,-111.5"/>
<text xml:space="preserve" text-anchor="start" x="128" y="-129.7" font-family="Times,serif" font-size="14.00">71</text>
<polygon fill="#000000" stroke="none" points="172,-106.5 172,-163 226,-163 226,-106.5 172,-106.5"/>
<polygon fill="none" stroke="black" stroke-width="10" points="177,-111.5 177,-158 221,-158 221,-111.5 177,-111.5"/>
<text xml:space="preserve" text-anchor="start" x="192" y="-129.7" font-family="Times,serif" font-size="14.00">72</text>
<polygon fill="#000000" stroke="none" points="236,-106.5 236,-163 290,-163 290,-106.5 236,-106.5"/>
<polygon fill="none" stroke="black" stroke-width="10" points="241,-111.5 241,-158 285,-158 285,-111.5 241,-111.5"/>
<text xml:space="preserve" text-anchor="start" x="256" y="-129.7" font-family="Times,serif" font-size="14.00">73</text>
<polygon fill="#000000" stroke="none" points="300,-106.5 300,-163 354,-163 354,-106.5 300,-106.5"/>
<polygon fill="none" stroke="black" stroke-width="10" points="305,-111.5 305,-158 349,-158 349,-111.5 305,-111.5"/>
<text xml:space="preserve" text-anchor="start" x="320" y="-129.7" font-family="Times,serif" font-size="14.00">74</text>
<polygon fill="#000000" stroke="none" points="364,-106.5 364,-163 418,-163 418,-106.5 364,-106.5"/>
<polygon fill="none" stroke="black" stroke-width="10" points="369,-111.5 369,-158 413,-158 413,-111.5 369,-111.5"/>
<text xml:space="preserve" text-anchor="start" x="384" y="-129.7" font-family="Times,serif" font-size="14.00">75</text>
<polygon fill="#000000" stroke="none" points="428,-106.5 428,-163 482,-163 482,-106.5 428,-106.5"/>
<polygon fill="none" stroke="black" stroke-width="10" points="433,-111.5 433,-158 477,-158 477,-111.5 433,-111.5"/>
<text xml:space="preserve" text-anchor="start" x="448" y="-129.7" font-family="Times,serif" font-size="14.00">76</text>
<polygon fill="#000000" stroke="none" points="492,-106.5 492,-163 546,-163 546,-106.5 492,-106.5"/>
<polygon fill="none" stroke="black" stroke-width="10" points="497,-111.5 497,-158 541,-158 541,-111.5 497,-111.5"/>
<text xml:space="preserve" text-anchor="start" x="512" y="-129.7" font-family="Times,serif" font-size="14.00">77</text>
<polygon fill="#000000" stroke="none" points="556,-106.5 556,-163 610,-163 610,-106.5 556,-106.5"/>
<polygon fill="none" stroke="black" stroke-width="10" points="561,-111.5 561,-158 605,-158 605,-111.5 561,-111.5"/>
<text xml:space="preserve" text-anchor="start" x="576" y="-129.7" font-family="Times,serif" font-size="14.00">78</text>
<polygon fill="#000000" stroke="none" points="44,-40 44,-96.5 98,-96.5 98,-40 44,-40"/>
<polygon fill="none" stroke="black" stroke-width="10" points="49,-45 49,-91.5 93,-91.5 93,-45 49,-45"/>
<text xml:space="preserve" text-anchor="start" x="64" y="-63.2" font-family="Times,serif" font-size="14.00">80</text>
<polygon fill="#000000" stroke="none" points="108,-40 108,-96.5 162,-96.5 162,-40 108,-40"/>
<polygon fill="none" stroke="black" stroke-width="10" points="113,-45 113,-91.5 157,-91.5 157,-45 113,-45"/>
<text xml:space="preserve" text-anchor="start" x="128" y="-63.2" font-family="Times,serif" font-size="14.00">81</text>
<polygon fill="#000000" stroke="none" points="172,-40 172,-96.5 226,-96.5 226,-40 172,-40"/>
<polygon fill="none" stroke="black" stroke-width="10" points="177,-45 177,-91.5 221,-91.5 221,-45 177,-45"/>
<text xml:space="preserve" text-anchor="start" x="192" y="-63.2" font-family="Times,serif" font-size="14.00">82</text>
<polygon fill="#000000" stroke="none" points="236,-40 236,-96.5 290,-96.5 290,-40 236,-40"/>
<polygon fill="none" stroke="black" stroke-width="10" points="241,-45 241,-91.5 285,-91.5 285,-45 241,-45"/>
<text xml:space="preserve" text-anchor="start" x="256" y="-63.2" font-family="Times,serif" font-size="14.00">83</text>
<polygon fill="#000000" stroke="none" points="300,-40 300,-96.5 354,-96.5 354,-40 300,-40"/>
<polygon fill="none" stroke="black" stroke-width="10" points="305,-45 305,-91.5 349,-91.5 349,-45 305,-45"/>
<text xml:space="preserve" text-anchor="start" x="320" y="-63.2" font-family="Times,serif" font-size="14.00">84</text>
<polygon fill="#000000" stroke="none" points="364,-40 364,-96.5 418,-96.5 418,-40 364,-40"/>
<polygon fill="none" stroke="black" stroke-width="10" points="369,-45 369,-91.5 413,-91.5 413,-45 369,-45"/>
<text xml:space="preserve" text-anchor="start" x="384" y="-63.2" font-family="Times,serif" font-size="14.00">85</text>
<polygon fill="#000000" stroke="none" points="428,-40 428,-96.5 482,-96.5 482,-40 428,-40"/>
<polygon fill="none" stroke="black" stroke-width="10" points="433,-45 433,-91.5 477,-91.5 477,-45 433,-45"/>
<text xml:space="preserve" text-anchor="start" x="448" y="-63.2" font-family="Times,serif" font-size="14.00">86</text>
<polygon fill="#000000" stroke="none" points="492,-40 492,-96.5 546,-96.5 546,-40 492,-40"/>
<polygon fill="none" stroke="black" stroke-width="10" points="497,-45 497,-91.5 541,-91.5 541,-45 497,-45"/>
<text xml:space="preserve" text-anchor="start" x="512" y="-63.2" font-family="Times,serif" font-size="14.00">87</text>
<polygon fill="#000000" stroke="none" points="556,-40 556,-96.5 610,-96.5 610,-40 556,-40"/>
<polygon fill="none" stroke="black" stroke-width="10" points="561,-45 561,-91.5 605,-91.5 605,-45 561,-45"/>
<text xml:space="preserve" text-anchor="start" x="576" y="-63.2" font-family="Times,serif" font-size="14.00">88</text>
<polygon fill="none" stroke="black" stroke-width="10" points="29,-25 29,-643.5 625,-643.5 625,-25 29,-25"/>
</g>
</g>
</svg>
