<?xml version="1.0" encoding="UTF-8" standalone="no"?>
<!DOCTYPE svg PUBLIC "-//W3C//DTD SVG 1.1//EN"
 "http://www.w3.org/Graphics/SVG/1.1/DTD/svg11.dtd">
<!-- Generated by graphviz version 14.1.1 (20251213.1925)
 -->
<!-- Title: G Pages: 1 -->
<svg width="316pt" height="215pt"
 viewBox="0.00 0.00 316.00 215.00" xmlns="http://www.w3.org/2000/svg" xmlns:xlink="http://www.w3.org/1999/xlink">
<g id="graph0" class="graph" transform="scale(1 1) rotate(0) translate(4 211.25)">
<title>G</title>
<polygon fill="white" stroke="none" points="-4,4 -4,-211.25 311.75,-211.25 311.75,4 -4,4"/>
<!-- node0 -->
<g id="node1" class="node">
<title>node0</title>
<polygon fill="none" stroke="black" points="0,-0.5 0,-198.5 19.75,-198.5 19.75,-0.5 0,-0.5"/>
<text xml:space="preserve" text-anchor="middle" x="9.88" y="-181.2" font-family="Times,serif" font-size="14.00"> </text>
<polyline fill="none" stroke="black" points="0,-174 19.75,-174"/>
<text xml:space="preserve" text-anchor="middle" x="9.88" y="-156.7" font-family="Times,serif" font-size="14.00"> </text>
<polyline fill="none" stroke="black" points="0,-149.5 19.75,-149.5"/>
<text xml:space="preserve" text-anchor="middle" x="9.88" y="-132.2" font-family="Times,serif" font-size="14.00"> </text>
<polyline fill="none" stroke="black" points="0,-125 19.75,-125"/>
<text xml:space="preserve" text-anchor="middle" x="9.88" y="-107.2" font-family="Times,serif" font-size="14.00"> </text>
<polyline fill="none" stroke="black" points="0,-99.5 19.75,-99.5"/>
<text xml:space="preserve" text-anchor="middle" x="9.88" y="-82.2" font-family="Times,serif" font-size="14.00"> </text>
<polyline fill="none" stroke="black" points="0,-75 19.75,-75"/>
<text xml:space="preserve" text-anchor="middle" x="9.88" y="-57.7" font-family="Times,serif" font-size="14.00"> </text>
<polyline fill="none" stroke="black" points="0,-50.5 19.75,-50.5"/>
<text xml:space="preserve" text-anchor="middle" x="9.88" y="-33.2" font-family="Times,serif" font-size="14.00"> </text>
<polyline fill="none" stroke="black" points="0,-26 19.75,-26"/>
<text xml:space="preserve" text-anchor="middle" x="9.88" y="-8.2" font-family="Times,serif" font-size="14.00"> </text>
</g>
<!-- node1 -->
<g id="node2" class="node">
<title>node1</title>
<polygon fill="none" stroke="black" points="55.75,-180.25 55.75,-206.75 163.75,-206.75 163.75,-180.25 55.75,-180.25"/>
<text xml:space="preserve" text-anchor="middle" x="76.38" y="-188.45" font-family="Times,serif" font-size="14.00">n14</text>
<polyline fill="none" stroke="black" points="97,-180.25 97,-206.75"/>
<text xml:space="preserve" text-anchor="middle" x="117.63" y="-188.45" font-family="Times,serif" font-size="14.00">719</text>
<polyline fill="none" stroke="black" points="138.25,-180.25 138.25,-206.75"/>
<text xml:space="preserve" text-anchor="middle" x="150.63" y="-188.45" font-family="Times,serif" font-size="14.00"> </text>
</g>
<!-- node0&#45;&gt;node1 -->
<g id="edge1" class="edge">
<title>node0:f0&#45;&gt;node1:n</title>
<path fill="none" stroke="black" d="M19.75,-186.25C31.48,-186.25 36.52,-190 44.48,-192.1"/>
<polygon fill="black" stroke="black" points="43.89,-195.56 54.25,-193.31 44.76,-188.61 43.89,-195.56"/>
</g>
<!-- node2 -->
<g id="node3" class="node">
<title>node2</title>
<polygon fill="none" stroke="black" points="55.75,-148.25 55.75,-174.75 163.75,-174.75 163.75,-148.25 55.75,-148.25"/>
<text xml:space="preserve" text-anchor="middle" x="73.63" y="-156.45" font-family="Times,serif" font-size="14.00">a1</text>
<polyline fill="none" stroke="black" points="91.5,-148.25 91.5,-174.75"/>
<text xml:space="preserve" text-anchor="middle" x="113.63" y="-156.45" font-family="Times,serif" font-size="14.00">805</text>
<polyline fill="none" stroke="black" points="135.75,-148.25 135.75,-174.75"/>
<text xml:space="preserve" text-anchor="middle" x="149.63" y="-156.45" font-family="Times,serif" font-size="14.00"> </text>
</g>
<!-- node0&#45;&gt;node2 -->
<g id="edge2" class="edge">
<title>node0:f1&#45;&gt;node2:n</title>
<path fill="none" stroke="black" d="M19.75,-161.75C31.13,-161.75 36.44,-161.62 44.3,-161.55"/>
<polygon fill="black" stroke="black" points="44.25,-165.05 54.24,-161.51 44.22,-158.05 44.25,-165.05"/>
</g>
<!-- node3 -->
<g id="node4" class="node">
<title>node3</title>
<polygon fill="none" stroke="black" points="55.75,-116.25 55.75,-142.75 163.75,-142.75 163.75,-116.25 55.75,-116.25"/>
<text xml:space="preserve" text-anchor="middle" x="73" y="-124.45" font-family="Times,serif" font-size="14.00">i9</text>
<polyline fill="none" stroke="black" points="90.25,-116.25 90.25,-142.75"/>
<text xml:space="preserve" text-anchor="middle" x="112.88" y="-124.45" font-family="Times,serif" font-size="14.00">718</text>
<polyline fill="none" stroke="black" points="135.5,-116.25 135.5,-142.75"/>
<text xml:space="preserve" text-anchor="middle" x="149.38" y="-124.45" font-family="Times,serif" font-size="14.00"> </text>
</g>
<!-- node0&#45;&gt;node3 -->
<g id="edge3" class="edge">
<title>node0:f2&#45;&gt;node3:n</title>
<path fill="none" stroke="black" d="M19.75,-137.25C31.51,-137.25 36.51,-133.25 44.47,-130.99"/>
<polygon fill="black" stroke="black" points="44.8,-134.48 54.25,-129.7 43.88,-127.54 44.8,-134.48"/>
</g>
<!-- node4 -->
<g id="node5" class="node">
<title>node4</title>
<polygon fill="none" stroke="black" points="55.75,-54.25 55.75,-80.75 163.75,-80.75 163.75,-54.25 55.75,-54.25"/>
<text xml:space="preserve" text-anchor="middle" x="73.63" y="-62.45" font-family="Times,serif" font-size="14.00">e5</text>
<polyline fill="none" stroke="black" points="91.5,-54.25 91.5,-80.75"/>
<text xml:space="preserve" text-anchor="middle" x="113.63" y="-62.45" font-family="Times,serif" font-size="14.00">989</text>
<polyline fill="none" stroke="black" points="135.75,-54.25 135.75,-80.75"/>
<text xml:space="preserve" text-anchor="middle" x="149.63" y="-62.45" font-family="Times,serif" font-size="14.00"> </text>
</g>
<!-- node0&#45;&gt;node4 -->
<g id="edge4" class="edge">
<title>node0:f5&#45;&gt;node4:n</title>
<path fill="none" stroke="black" d="M19.75,-62.75C31.35,-62.75 36.54,-65.2 44.53,-66.58"/>
<polygon fill="black" stroke="black" points="43.99,-70.05 54.24,-67.38 44.56,-63.08 43.99,-70.05"/>
</g>
<!-- node5 -->
<g id="node6" class="node">
<title>node5</title>
<polygon fill="none" stroke="black" points="55.75,-22.25 55.75,-48.75 163.75,-48.75 163.75,-22.25 55.75,-22.25"/>
<text xml:space="preserve" text-anchor="middle" x="75.38" y="-30.45" font-family="Times,serif" font-size="14.00">t20</text>
<polyline fill="none" stroke="black" points="95,-22.25 95,-48.75"/>
<text xml:space="preserve" text-anchor="middle" x="116.13" y="-30.45" font-family="Times,serif" font-size="14.00">959</text>
<polyline fill="none" stroke="black" points="137.25,-22.25 137.25,-48.75"/>
<text xml:space="preserve" text-anchor="middle" x="150.13" y="-30.45" font-family="Times,serif" font-size="14.00"> </text>
</g>
<!-- node0&#45;&gt;node5 -->
<g id="edge5" class="edge">
<title>node0:f6&#45;&gt;node5:n</title>
<path fill="none" stroke="black" d="M19.75,-38.25C31.16,-38.25 36.43,-36.86 44.29,-36.06"/>
<polygon fill="black" stroke="black" points="44.42,-39.55 54.24,-35.57 44.08,-32.56 44.42,-39.55"/>
</g>
<!-- node6 -->
<g id="node7" class="node">
<title>node6</title>
<polygon fill="none" stroke="black" points="199.75,-148.25 199.75,-174.75 307.75,-174.75 307.75,-148.25 199.75,-148.25"/>
<text xml:space="preserve" text-anchor="middle" x="220.38" y="-156.45" font-family="Times,serif" font-size="14.00">o15</text>
<polyline fill="none" stroke="black" points="241,-148.25 241,-174.75"/>
<text xml:space="preserve" text-anchor="middle" x="261.63" y="-156.45" font-family="Times,serif" font-size="14.00">794</text>
<polyline fill="none" stroke="black" points="282.25,-148.25 282.25,-174.75"/>
<text xml:space="preserve" text-anchor="middle" x="294.63" y="-156.45" font-family="Times,serif" font-size="14.00"> </text>
</g>
<!-- node2&#45;&gt;node6 -->
<g id="edge6" class="edge">
<title>node2:p&#45;&gt;node6:n</title>
<path fill="none" stroke="black" d="M163.75,-161.5C175.13,-161.5 180.44,-161.5 188.3,-161.5"/>
<polygon fill="black" stroke="black" points="188.24,-165 198.24,-161.5 188.24,-158 188.24,-165"/>
</g>
<!-- node7 -->
<g id="node8" class="node">
<title>node7</title>
<polygon fill="none" stroke="black" points="199.75,-54.25 199.75,-80.75 307.75,-80.75 307.75,-54.25 199.75,-54.25"/>
<text xml:space="preserve" text-anchor="middle" x="219.63" y="-62.45" font-family="Times,serif" font-size="14.00">s19</text>
<polyline fill="none" stroke="black" points="239.5,-54.25 239.5,-80.75"/>
<text xml:space="preserve" text-anchor="middle" x="260.63" y="-62.45" font-family="Times,serif" font-size="14.00">659</text>
<polyline fill="none" stroke="black" points="281.75,-54.25 281.75,-80.75"/>
<text xml:space="preserve" text-anchor="middle" x="294.63" y="-62.45" font-family="Times,serif" font-size="14.00"> </text>
</g>
<!-- node4&#45;&gt;node7 -->
<g id="edge7" class="edge">
<title>node4:p&#45;&gt;node7:n</title>
<path fill="none" stroke="black" d="M163.75,-67.5C175.13,-67.5 180.44,-67.5 188.3,-67.5"/>
<polygon fill="black" stroke="black" points="188.24,-71 198.24,-67.5 188.24,-64 188.24,-71"/>
</g>
</g>
</svg>
