<?xml version="1.0" encoding="UTF-8" standalone="no"?>
<!DOCTYPE svg PUBLIC "-//W3C//DTD SVG 1.1//EN"
 "http://www.w3.org/Graphics/SVG/1.1/DTD/svg11.dtd">
<!-- Generated by graphviz version 14.1.1 (20251213.1925)
 -->
<!-- Title: Honda&#45;Tokoro Pages: 1 -->
<svg width="568pt" height="254pt"
 viewBox="0.00 0.00 568.00 254.00" xmlns="http://www.w3.org/2000/svg" xmlns:xlink="http://www.w3.org/1999/xlink">
<g id="graph0" class="graph" transform="scale(1 1) rotate(0) translate(4 249.75)">
<title>Honda&#45;Tokoro</title>
<polygon fill="white" stroke="none" points="-4,4 -4,-249.75 563.82,-249.75 563.82,4 -4,4"/>
<!-- n000 -->
<g id="node1" class="node">
<title>n000</title>
<ellipse fill="none" stroke="black" cx="545.32" cy="-140.61" rx="14.5" ry="13.61"/>
<text xml:space="preserve" text-anchor="middle" x="545.32" y="-136.74" font-family="Times,serif" font-size="10.00">z</text>
</g>
<!-- n001 -->
<g id="node2" class="node">
<title>n001</title>
<ellipse fill="none" stroke="black" cx="500.21" cy="-185.61" rx="16.62" ry="13.61"/>
<text xml:space="preserve" text-anchor="middle" x="500.21" y="-181.74" font-family="Times,serif" font-size="10.00">m</text>
</g>
<!-- n001&#45;&gt;n000 -->
<g id="edge1" class="edge">
<title>n001&#45;&gt;n000</title>
<path fill="none" stroke="black" d="M511.21,-175.17C518.37,-167.7 527.95,-157.7 534.97,-150.38"/>
<text xml:space="preserve" text-anchor="middle" x="533.06" y="-155.42" font-family="Times,serif" font-size="8.00">:s:</text>
</g>
<!-- n002 -->
<g id="node3" class="node">
<title>n002</title>
<ellipse fill="none" stroke="black" cx="406.8" cy="-224.61" rx="18.74" ry="13.61"/>
<text xml:space="preserve" text-anchor="middle" x="406.8" y="-220.74" font-family="Times,serif" font-size="10.00">p1</text>
</g>
<!-- n002&#45;&gt;n001 -->
<g id="edge2" class="edge">
<title>n002&#45;&gt;n001</title>
<path fill="none" stroke="black" d="M423.48,-217.99C436.09,-212.55 454.17,-204.49 469.59,-196.61 475.97,-193.35 483.59,-188.61 483.59,-188.61"/>
<text xml:space="preserve" text-anchor="middle" x="479.81" y="-192.93" font-family="Times,serif" font-size="8.00">:r:</text>
</g>
<!-- n003 -->
<g id="node4" class="node">
<title>n003</title>
<ellipse fill="none" stroke="black" cx="359.04" cy="-226.61" rx="15.03" ry="13.61"/>
<text xml:space="preserve" text-anchor="middle" x="359.04" y="-222.74" font-family="Times,serif" font-size="10.00">b</text>
</g>
<!-- n003&#45;&gt;n002 -->
<g id="edge3" class="edge">
<title>n003&#45;&gt;n002</title>
<path fill="none" stroke="black" d="M371.41,-218.3C379.19,-215.59 388.22,-214.68 388.77,-218.25"/>
<text xml:space="preserve" text-anchor="middle" x="382.33" y="-210.78" font-family="Times,serif" font-size="8.00">:s:</text>
</g>
<!-- n003&#45;&gt;n002 -->
<g id="edge6" class="edge">
<title>n003&#45;&gt;n002</title>
<path fill="none" stroke="black" d="M374.42,-227.86C381.61,-225.86 388.8,-222.11 388.8,-218.61"/>
</g>
<!-- n004 -->
<g id="node5" class="node">
<title>n004</title>
<ellipse fill="none" stroke="black" cx="311.27" cy="-226.61" rx="18.74" ry="13.61"/>
<text xml:space="preserve" text-anchor="middle" x="311.27" y="-222.74" font-family="Times,serif" font-size="10.00">x1</text>
</g>
<!-- n004&#45;&gt;n003 -->
<g id="edge4" class="edge">
<title>n004&#45;&gt;n003</title>
<path fill="none" stroke="black" d="M330.36,-226.61C334.76,-226.61 339.4,-226.61 343.6,-226.61"/>
</g>
<!-- n022 -->
<g id="node6" class="node">
<title>n022</title>
<polygon fill="none" stroke="black" stroke-dasharray="5,2" points="36,-189.21 0,-189.21 0,-164.01 36,-164.01 36,-189.21"/>
<text xml:space="preserve" text-anchor="middle" x="18" y="-172.74" font-family="Times,serif" font-size="10.00">[P]</text>
</g>
<!-- n022&#45;&gt;n004 -->
<g id="edge5" class="edge">
<title>n022&#45;&gt;n004</title>
<path fill="none" stroke="black" d="M22.52,-189.66C26.78,-202.87 35.28,-222.83 50,-233.61 68.8,-247.39 78.28,-241.38 101.48,-243.61 172.25,-250.42 256.7,-236.92 292.66,-230.15"/>
<text xml:space="preserve" text-anchor="middle" x="286.55" y="-232.6" font-family="Times,serif" font-size="8.00">:s/r:</text>
</g>
<!-- n008 -->
<g id="node10" class="node">
<title>n008</title>
<ellipse fill="none" stroke="black" cx="120.21" cy="-222.61" rx="18.74" ry="13.61"/>
<text xml:space="preserve" text-anchor="middle" x="120.21" y="-218.74" font-family="Times,serif" font-size="10.00">x2</text>
</g>
<!-- n022&#45;&gt;n008 -->
<g id="edge12" class="edge">
<title>n022&#45;&gt;n008</title>
<path fill="none" stroke="black" d="M24.6,-189.32C29.69,-199.18 38.21,-212.22 50,-218.61 65.88,-227.21 86.91,-227.11 101.61,-225.54"/>
<text xml:space="preserve" text-anchor="middle" x="95.07" y="-227.43" font-family="Times,serif" font-size="8.00">:s/r:</text>
</g>
<!-- n009 -->
<g id="node11" class="node">
<title>n009</title>
<ellipse fill="none" stroke="black" cx="68.74" cy="-197.61" rx="18.74" ry="13.61"/>
<text xml:space="preserve" text-anchor="middle" x="68.74" y="-193.74" font-family="Times,serif" font-size="10.00">b2</text>
</g>
<!-- n022&#45;&gt;n009 -->
<g id="edge15" class="edge">
<title>n022&#45;&gt;n009</title>
<path fill="none" stroke="black" d="M36.32,-179.03C42.67,-181.39 49.71,-184.57 55.52,-187.73"/>
</g>
<!-- n022&#45;&gt;n009 -->
<g id="edge16" class="edge">
<title>n022&#45;&gt;n009</title>
<path fill="none" stroke="black" d="M36.32,-189.12C40.81,-191.32 45.64,-193.41 50.14,-195.1"/>
</g>
<!-- n010 -->
<g id="node12" class="node">
<title>n010</title>
<ellipse fill="none" stroke="black" cx="68.74" cy="-156.61" rx="18.74" ry="13.61"/>
<text xml:space="preserve" text-anchor="middle" x="68.74" y="-152.74" font-family="Times,serif" font-size="10.00">b2</text>
</g>
<!-- n022&#45;&gt;n010 -->
<g id="edge18" class="edge">
<title>n022&#45;&gt;n010</title>
<path fill="none" stroke="black" d="M36.32,-164.45C40.7,-162.4 45.41,-160.46 49.81,-158.88"/>
</g>
<!-- n022&#45;&gt;n010 -->
<g id="edge19" class="edge">
<title>n022&#45;&gt;n010</title>
<path fill="none" stroke="black" d="M36.32,-174.55C42.56,-172.36 49.47,-169.39 55.22,-166.4"/>
</g>
<!-- n005 -->
<g id="node7" class="node">
<title>n005</title>
<ellipse fill="none" stroke="black" cx="359.04" cy="-185.61" rx="15.03" ry="13.61"/>
<text xml:space="preserve" text-anchor="middle" x="359.04" y="-181.74" font-family="Times,serif" font-size="10.00">b</text>
</g>
<!-- n005&#45;&gt;n001 -->
<g id="edge8" class="edge">
<title>n005&#45;&gt;n001</title>
<path fill="none" stroke="black" d="M374.21,-185.96C406.66,-186.74 483.59,-188.61 483.59,-188.61"/>
</g>
<!-- n005&#45;&gt;n002 -->
<g id="edge7" class="edge">
<title>n005&#45;&gt;n002</title>
<path fill="none" stroke="black" d="M369.14,-196.05C377.57,-205.72 388.8,-218.61 388.8,-218.61"/>
<text xml:space="preserve" text-anchor="middle" x="381.23" y="-213.29" font-family="Times,serif" font-size="8.00">:u:</text>
</g>
<!-- n006 -->
<g id="node8" class="node">
<title>n006</title>
<ellipse fill="none" stroke="black" cx="215.74" cy="-186.61" rx="18.74" ry="13.61"/>
<text xml:space="preserve" text-anchor="middle" x="215.74" y="-182.74" font-family="Times,serif" font-size="10.00">p2</text>
</g>
<!-- n006&#45;&gt;n005 -->
<g id="edge9" class="edge">
<title>n006&#45;&gt;n005</title>
<path fill="none" stroke="black" d="M234.93,-186.48C263.4,-186.28 317.91,-185.9 343.76,-185.71"/>
</g>
<!-- n007 -->
<g id="node9" class="node">
<title>n007</title>
<ellipse fill="none" stroke="black" cx="167.98" cy="-222.61" rx="15.03" ry="13.61"/>
<text xml:space="preserve" text-anchor="middle" x="167.98" y="-218.74" font-family="Times,serif" font-size="10.00">b</text>
</g>
<!-- n007&#45;&gt;n006 -->
<g id="edge10" class="edge">
<title>n007&#45;&gt;n006</title>
<path fill="none" stroke="black" d="M175.19,-210.45C182.6,-199.62 194.18,-186.55 195.6,-188.93"/>
<text xml:space="preserve" text-anchor="middle" x="187.71" y="-187.53" font-family="Times,serif" font-size="8.00">:s:</text>
</g>
<!-- n007&#45;&gt;n006 -->
<g id="edge13" class="edge">
<title>n007&#45;&gt;n006</title>
<path fill="none" stroke="black" d="M180.17,-214C187.51,-205.38 195.74,-193.49 195.74,-189.61"/>
<text xml:space="preserve" text-anchor="middle" x="198.52" y="-194.39" font-family="Times,serif" font-size="8.00">:u:</text>
</g>
<!-- n008&#45;&gt;n007 -->
<g id="edge11" class="edge">
<title>n008&#45;&gt;n007</title>
<path fill="none" stroke="black" d="M139.3,-222.61C143.7,-222.61 148.34,-222.61 152.55,-222.61"/>
</g>
<!-- n009&#45;&gt;n006 -->
<g id="edge14" class="edge">
<title>n009&#45;&gt;n006</title>
<path fill="none" stroke="black" d="M87.79,-196.47C122.63,-194.25 195.74,-189.61 195.74,-189.61"/>
</g>
<!-- n010&#45;&gt;n006 -->
<g id="edge17" class="edge">
<title>n010&#45;&gt;n006</title>
<path fill="none" stroke="black" d="M86.73,-161.06C121.13,-170.07 195.74,-189.61 195.74,-189.61"/>
</g>
<!-- n011 -->
<g id="node13" class="node">
<title>n011</title>
<ellipse fill="none" stroke="black" cx="500.21" cy="-107.61" rx="15.03" ry="13.61"/>
<text xml:space="preserve" text-anchor="middle" x="500.21" y="-103.74" font-family="Times,serif" font-size="10.00">n</text>
</g>
<!-- n011&#45;&gt;n000 -->
<g id="edge20" class="edge">
<title>n011&#45;&gt;n000</title>
<path fill="none" stroke="black" d="M512.09,-115.94C518.67,-120.98 527.04,-127.38 533.59,-132.4"/>
<text xml:space="preserve" text-anchor="middle" x="525.66" y="-128.64" font-family="Times,serif" font-size="8.00">:r:</text>
</g>
<!-- n012 -->
<g id="node14" class="node">
<title>n012</title>
<ellipse fill="none" stroke="black" cx="454.57" cy="-107.61" rx="15.03" ry="13.61"/>
<text xml:space="preserve" text-anchor="middle" x="454.57" y="-103.74" font-family="Times,serif" font-size="10.00">b</text>
</g>
<!-- n012&#45;&gt;n011 -->
<g id="edge21" class="edge">
<title>n012&#45;&gt;n011</title>
<path fill="none" stroke="black" d="M468.88,-102.37C476.36,-102.2 484.21,-103.95 484.21,-107.61"/>
<text xml:space="preserve" text-anchor="middle" x="478.82" y="-98.97" font-family="Times,serif" font-size="8.00">:s:</text>
</g>
<!-- n012&#45;&gt;n011 -->
<g id="edge29" class="edge">
<title>n012&#45;&gt;n011</title>
<path fill="none" stroke="black" d="M468.88,-112.85C476.36,-113.02 484.21,-111.28 484.21,-107.61"/>
</g>
<!-- n013 -->
<g id="node15" class="node">
<title>n013</title>
<ellipse fill="none" stroke="black" cx="406.8" cy="-107.61" rx="18.21" ry="13.61"/>
<text xml:space="preserve" text-anchor="middle" x="406.8" y="-103.74" font-family="Times,serif" font-size="10.00">c1</text>
</g>
<!-- n013&#45;&gt;n012 -->
<g id="edge22" class="edge">
<title>n013&#45;&gt;n012</title>
<path fill="none" stroke="black" d="M425.36,-107.61C429.9,-107.61 434.73,-107.61 439.09,-107.61"/>
</g>
<!-- n014 -->
<g id="node16" class="node">
<title>n014</title>
<ellipse fill="none" stroke="black" cx="359.04" cy="-107.61" rx="15.03" ry="13.61"/>
<text xml:space="preserve" text-anchor="middle" x="359.04" y="-103.74" font-family="Times,serif" font-size="10.00">b</text>
</g>
<!-- n014&#45;&gt;n011 -->
<g id="edge28" class="edge">
<title>n014&#45;&gt;n011</title>
<path fill="none" stroke="black" d="M370.01,-117.58C374.99,-121.86 381.37,-126.38 388.06,-128.61 422.44,-140.06 437.47,-145.39 469.59,-128.61 479.67,-123.35 484.21,-107.61 484.21,-107.61"/>
<text xml:space="preserve" text-anchor="middle" x="485.99" y="-112.68" font-family="Times,serif" font-size="8.00">:u:</text>
</g>
<!-- n014&#45;&gt;n013 -->
<g id="edge23" class="edge">
<title>n014&#45;&gt;n013</title>
<path fill="none" stroke="black" d="M374.52,-107.61C378.92,-107.61 383.8,-107.61 388.37,-107.61"/>
<text xml:space="preserve" text-anchor="middle" x="381.44" y="-108.89" font-family="Times,serif" font-size="8.00">:r:</text>
</g>
<!-- n015 -->
<g id="node17" class="node">
<title>n015</title>
<ellipse fill="none" stroke="black" cx="311.27" cy="-107.61" rx="18.74" ry="13.61"/>
<text xml:space="preserve" text-anchor="middle" x="311.27" y="-103.74" font-family="Times,serif" font-size="10.00">y1</text>
</g>
<!-- n015&#45;&gt;n014 -->
<g id="edge24" class="edge">
<title>n015&#45;&gt;n014</title>
<path fill="none" stroke="black" d="M330.36,-107.61C334.76,-107.61 339.4,-107.61 343.6,-107.61"/>
</g>
<!-- n023 -->
<g id="node18" class="node">
<title>n023</title>
<polygon fill="none" stroke="black" stroke-dasharray="5,2" points="36,-47.21 0,-47.21 0,-22.01 36,-22.01 36,-47.21"/>
<text xml:space="preserve" text-anchor="middle" x="18" y="-30.74" font-family="Times,serif" font-size="10.00">[Q]</text>
</g>
<!-- n023&#45;&gt;n015 -->
<g id="edge25" class="edge">
<title>n023&#45;&gt;n015</title>
<path fill="none" stroke="black" d="M22.74,-47.64C27.11,-60.31 35.62,-79 50,-88.61 127.41,-140.34 248.26,-121.26 292.92,-111.72"/>
<text xml:space="preserve" text-anchor="middle" x="286.9" y="-114.26" font-family="Times,serif" font-size="8.00">:s/r:</text>
</g>
<!-- n019 -->
<g id="node22" class="node">
<title>n019</title>
<ellipse fill="none" stroke="black" cx="120.21" cy="-54.61" rx="18.74" ry="13.61"/>
<text xml:space="preserve" text-anchor="middle" x="120.21" y="-50.74" font-family="Times,serif" font-size="10.00">y2</text>
</g>
<!-- n023&#45;&gt;n019 -->
<g id="edge34" class="edge">
<title>n023&#45;&gt;n019</title>
<path fill="none" stroke="black" d="M24.79,-47.6C29.89,-57.29 38.34,-69.81 50,-75.61 64.91,-83.03 71.53,-80.41 87.48,-75.61 94.69,-73.44 101.77,-69.04 107.41,-64.82"/>
<text xml:space="preserve" text-anchor="middle" x="104.18" y="-69.42" font-family="Times,serif" font-size="8.00">:s/r:</text>
</g>
<!-- n020 -->
<g id="node23" class="node">
<title>n020</title>
<ellipse fill="none" stroke="black" cx="68.74" cy="-54.61" rx="18.74" ry="13.61"/>
<text xml:space="preserve" text-anchor="middle" x="68.74" y="-50.74" font-family="Times,serif" font-size="10.00">b2</text>
</g>
<!-- n023&#45;&gt;n020 -->
<g id="edge36" class="edge">
<title>n023&#45;&gt;n020</title>
<path fill="none" stroke="black" d="M36.32,-36.67C42.56,-38.87 49.47,-41.83 55.22,-44.82"/>
</g>
<!-- n023&#45;&gt;n020 -->
<g id="edge37" class="edge">
<title>n023&#45;&gt;n020</title>
<path fill="none" stroke="black" d="M36.32,-46.77C40.7,-48.82 45.41,-50.76 49.81,-52.34"/>
</g>
<!-- n021 -->
<g id="node24" class="node">
<title>n021</title>
<ellipse fill="none" stroke="black" cx="68.74" cy="-13.61" rx="18.74" ry="13.61"/>
<text xml:space="preserve" text-anchor="middle" x="68.74" y="-9.74" font-family="Times,serif" font-size="10.00">b2</text>
</g>
<!-- n023&#45;&gt;n021 -->
<g id="edge39" class="edge">
<title>n023&#45;&gt;n021</title>
<path fill="none" stroke="black" d="M36.32,-22.1C40.81,-19.9 45.64,-17.82 50.14,-16.13"/>
</g>
<!-- n023&#45;&gt;n021 -->
<g id="edge40" class="edge">
<title>n023&#45;&gt;n021</title>
<path fill="none" stroke="black" d="M36.32,-32.2C42.67,-29.83 49.71,-26.65 55.52,-23.5"/>
</g>
<!-- n016 -->
<g id="node19" class="node">
<title>n016</title>
<ellipse fill="none" stroke="black" cx="263.51" cy="-71.61" rx="15.03" ry="13.61"/>
<text xml:space="preserve" text-anchor="middle" x="263.51" y="-67.74" font-family="Times,serif" font-size="10.00">b</text>
</g>
<!-- n016&#45;&gt;n011 -->
<g id="edge30" class="edge">
<title>n016&#45;&gt;n011</title>
<path fill="none" stroke="black" d="M278.77,-71.61C297.11,-71.61 329.95,-71.61 358.04,-71.61 358.04,-71.61 358.04,-71.61 407.8,-71.61 436.06,-71.61 446.09,-70.91 469.59,-86.61 478.75,-92.73 484.21,-106.61 484.21,-106.61"/>
</g>
<!-- n016&#45;&gt;n015 -->
<g id="edge26" class="edge">
<title>n016&#45;&gt;n015</title>
<path fill="none" stroke="black" d="M274.58,-81.09C283.22,-89.21 294.27,-99.61 294.27,-99.61"/>
<text xml:space="preserve" text-anchor="middle" x="286.49" y="-95.05" font-family="Times,serif" font-size="8.00">:u:</text>
</g>
<!-- n018 -->
<g id="node20" class="node">
<title>n018</title>
<ellipse fill="none" stroke="black" cx="167.98" cy="-71.61" rx="15.03" ry="13.61"/>
<text xml:space="preserve" text-anchor="middle" x="167.98" y="-67.74" font-family="Times,serif" font-size="10.00">b</text>
</g>
<!-- n018&#45;&gt;n015 -->
<g id="edge27" class="edge">
<title>n018&#45;&gt;n015</title>
<path fill="none" stroke="black" d="M179.03,-81.37C184.02,-85.6 190.4,-90.14 197.01,-92.61 237.61,-107.78 294.27,-99.61 294.27,-99.61"/>
</g>
<!-- n017 -->
<g id="node21" class="node">
<title>n017</title>
<ellipse fill="none" stroke="black" cx="215.74" cy="-71.61" rx="18.21" ry="13.61"/>
<text xml:space="preserve" text-anchor="middle" x="215.74" y="-67.74" font-family="Times,serif" font-size="10.00">c2</text>
</g>
<!-- n018&#45;&gt;n017 -->
<g id="edge32" class="edge">
<title>n018&#45;&gt;n017</title>
<path fill="none" stroke="black" d="M183.46,-71.61C187.86,-71.61 192.74,-71.61 197.31,-71.61"/>
<text xml:space="preserve" text-anchor="middle" x="190.38" y="-72.89" font-family="Times,serif" font-size="8.00">:r:</text>
</g>
<!-- n017&#45;&gt;n016 -->
<g id="edge31" class="edge">
<title>n017&#45;&gt;n016</title>
<path fill="none" stroke="black" d="M234.31,-71.61C238.84,-71.61 243.68,-71.61 248.04,-71.61"/>
</g>
<!-- n019&#45;&gt;n018 -->
<g id="edge33" class="edge">
<title>n019&#45;&gt;n018</title>
<path fill="none" stroke="black" d="M137.48,-60.65C142.72,-62.6 148.47,-64.74 153.49,-66.6"/>
</g>
<!-- n020&#45;&gt;n019 -->
<g id="edge35" class="edge">
<title>n020&#45;&gt;n019</title>
<path fill="none" stroke="black" d="M87.12,-51.4C94.84,-49.97 102.21,-48.61 102.21,-48.61"/>
<text xml:space="preserve" text-anchor="middle" x="96.13" y="-51.08" font-family="Times,serif" font-size="8.00">:u:</text>
</g>
<!-- n021&#45;&gt;n019 -->
<g id="edge38" class="edge">
<title>n021&#45;&gt;n019</title>
<path fill="none" stroke="black" d="M80.01,-24.69C89.53,-34.94 102.21,-48.61 102.21,-48.61"/>
</g>
</g>
</svg>
