<?xml version="1.0" encoding="UTF-8" standalone="no"?>
<!DOCTYPE svg PUBLIC "-//W3C//DTD SVG 1.1//EN"
 "http://www.w3.org/Graphics/SVG/1.1/DTD/svg11.dtd">
<!-- Generated by graphviz version 14.1.1 (20251213.1925)
 -->
<!-- Title: G Pages: 1 -->
<svg width="931pt" height="243pt"
 viewBox="0.00 0.00 931.00 243.00" xmlns="http://www.w3.org/2000/svg" xmlns:xlink="http://www.w3.org/1999/xlink">
<g id="graph0" class="graph" transform="scale(1 1) rotate(0) translate(4 238.5)">
<title>G</title>
<polygon fill="white" stroke="none" points="-4,4 -4,-238.5 926.82,-238.5 926.82,4 -4,4"/>
<!-- a -->
<g id="node1" class="node">
<title>a</title>
<polygon fill="lightblue" stroke="none" points="41.21,-144.5 41.21,-169.75 93.87,-169.75 93.87,-144.5 41.21,-144.5"/>
<polygon fill="none" stroke="black" points="41.21,-144.5 41.21,-169.75 93.87,-169.75 93.87,-144.5 41.21,-144.5"/>
<text xml:space="preserve" text-anchor="start" x="44.21" y="-152.07" font-family="Times,serif" font-size="14.00">qualifier</text>
</g>
<!-- b -->
<g id="node2" class="node">
<title>b</title>
<g id="a_node2"><a xlink:href="http://www.graphviz.org/content/node-shapes" xlink:title="&lt;
&lt;TABLE BGCOLOR=&quot;bisque&quot; href=&quot;http://www.graphviz.org/content/node&#45;shapes#html&quot;&gt;
  &lt;TR&gt;&lt;TD COLSPAN=&quot;3&quot; BGCOLOR=&quot;bisque&quot; href=&quot;http://go/wiki/Elephant&quot;&gt;elephant&lt;/TD&gt; 
      &lt;TD ROWSPAN=&quot;2&quot; BGCOLOR=&quot;chartreuse&quot; 
          VALIGN=&quot;bottom&quot; ALIGN=&quot;right&quot;&gt;two&lt;/TD&gt; &lt;/TR&gt;
  &lt;TR&gt;&lt;TD COLSPAN=&quot;2&quot; ROWSPAN=&quot;2&quot;&gt;
        &lt;TABLE BGCOLOR=&quot;grey&quot; href=&quot;http://go/wiki/Grey&quot;&gt;
          &lt;TR&gt; &lt;TD href=&quot;http://go/wiki/Sweet_corn&quot;&gt;corn&lt;/TD&gt; &lt;/TR&gt; 
          &lt;TR&gt; &lt;TD BGCOLOR=&quot;yellow&quot;&gt;c&lt;/TD&gt; &lt;/TR&gt; 
          &lt;TR&gt; &lt;TD href=&quot;http://go/wiki/F&quot;&gt;f&lt;/TD&gt; &lt;/TR&gt; 
        &lt;/TABLE&gt; &lt;/TD&gt;
      &lt;TD BGCOLOR=&quot;white&quot;&gt;penguin&lt;/TD&gt; 
  &lt;/TR&gt; 
  &lt;TR&gt; &lt;TD COLSPAN=&quot;2&quot; BORDER=&quot;4&quot; ALIGN=&quot;right&quot; PORT=&quot;there&quot;&gt;4&lt;/TD&gt; &lt;/TR&gt;
&lt;/TABLE&gt;&gt;">
<ellipse fill="lightgrey" stroke="black" cx="684.25" cy="-173.5" rx="73.11" ry="61"/>
<polygon fill="#000000" stroke="none" points="619.13,-116.5 619.13,-230.5 749.36,-230.5 749.36,-116.5 619.13,-116.5"/>
<polygon fill="#000000" stroke="none" points="622.13,-205 622.13,-227.5 718.11,-227.5 718.11,-205 622.13,-205"/>
<polygon fill="none" stroke="black" points="622.13,-205 622.13,-227.5 718.11,-227.5 718.11,-205 622.13,-205"/>
<text xml:space="preserve" text-anchor="start" x="646.41" y="-211.2" font-family="Times,serif" font-size="14.00">elephant</text>
<polygon fill="#000000" stroke="none" points="720.11,-162.25 720.11,-227.5 746.36,-227.5 746.36,-162.25 720.11,-162.25"/>
<polygon fill="none" stroke="black" points="720.11,-162.25 720.11,-227.5 746.36,-227.5 746.36,-162.25 720.11,-162.25"/>
<text xml:space="preserve" text-anchor="start" x="723.11" y="-168.45" font-family="Times,serif" font-size="14.00">two</text>
<polygon fill="none" stroke="black" points="622.13,-119.5 622.13,-203 665.01,-203 665.01,-119.5 622.13,-119.5"/>
<polygon fill="grey" stroke="none" points="625.13,-122.5 625.13,-200 662.01,-200 662.01,-122.5 625.13,-122.5"/>
<polygon fill="none" stroke="black" points="628.13,-174.5 628.13,-197 659.01,-197 659.01,-174.5 628.13,-174.5"/>
<text xml:space="preserve" text-anchor="start" x="631.13" y="-180.7" font-family="Times,serif" font-size="14.00">corn</text>
<polygon fill="yellow" stroke="none" points="628.13,-150 628.13,-172.5 659.01,-172.5 659.01,-150 628.13,-150"/>
<polygon fill="none" stroke="black" points="628.13,-150 628.13,-172.5 659.01,-172.5 659.01,-150 628.13,-150"/>
<text xml:space="preserve" text-anchor="start" x="640.57" y="-156.2" font-family="Times,serif" font-size="14.00">c</text>
<polygon fill="none" stroke="black" points="628.13,-125.5 628.13,-148 659.01,-148 659.01,-125.5 628.13,-125.5"/>
<text xml:space="preserve" text-anchor="start" x="641.32" y="-131.7" font-family="Times,serif" font-size="14.00">f</text>
<polygon fill="none" stroke="black" points="625.13,-122.5 625.13,-200 662.01,-200 662.01,-122.5 625.13,-122.5"/>
<polygon fill="white" stroke="none" points="667.01,-162.25 667.01,-203 718.11,-203 718.11,-162.25 667.01,-162.25"/>
<polygon fill="none" stroke="black" points="667.01,-162.25 667.01,-203 718.11,-203 718.11,-162.25 667.01,-162.25"/>
<text xml:space="preserve" text-anchor="start" x="670.01" y="-177.57" font-family="Times,serif" font-size="14.00">penguin</text>
<polygon fill="none" stroke="black" points="667.01,-119.5 667.01,-160.25 746.36,-160.25 746.36,-119.5 667.01,-119.5"/>
<text xml:space="preserve" text-anchor="start" x="736.61" y="-134.82" font-family="Times,serif" font-size="14.00">4</text>
<polygon fill="none" stroke="black" points="619.13,-116.5 619.13,-230.5 749.36,-230.5 749.36,-116.5 619.13,-116.5"/>
</a>
</g>
</g>
<!-- a&#45;&gt;b -->
<g id="edge1" class="edge">
<title>a:here&#45;&gt;b:there</title>
<path fill="none" stroke="black" d="M114.66,-155.11C316.38,-154.7 551.56,-144.76 655.53,-139.88"/>
<polygon fill="black" stroke="black" points="114.77,-155.11 108.77,-159.12 102.77,-155.12 108.77,-151.12 114.77,-155.11"/>
<polygon fill="black" stroke="black" points="655.62,-143.38 665.45,-139.41 655.29,-136.38 655.62,-143.38"/>
</g>
<!-- c -->
<g id="node3" class="node">
<title>c</title>
<text xml:space="preserve" text-anchor="middle" x="684.25" y="-54.45" font-family="Times,serif" font-size="14.00">&lt;long line 1&lt;BR/&gt;line 2&lt;BR ALIGN=&quot;LEFT&quot;/&gt;line 3&lt;BR ALIGN=&quot;RIGHT&quot;/&gt;&gt;</text>
</g>
<!-- c&#45;&gt;b -->
<g id="edge2" class="edge">
<title>c&#45;&gt;b</title>
<path fill="none" stroke="black" d="M684.25,-77.31C684.25,-85.14 684.25,-92.96 684.25,-100.79"/>
<polygon fill="black" stroke="black" points="680.75,-100.74 684.25,-110.74 687.75,-100.74 680.75,-100.74"/>
</g>
<!-- d -->
<g id="node4" class="node">
<title>d</title>
<polygon fill="none" stroke="black" points="50.93,-49 19.88,-12.25 81.98,-12.25 50.93,-49"/>
<text xml:space="preserve" text-anchor="middle" x="50.93" y="-19.45" font-family="Times,serif" font-size="14.00">d</text>
</g>
<!-- d&#45;&gt;c -->
<g id="edge3" class="edge">
<title>d&#45;&gt;c</title>
<path fill="none" stroke="black" d="M72.33,-24.08C128.85,-23.08 292.26,-21.22 427.67,-30 463.62,-32.33 502.29,-36.12 538.39,-40.22"/>
<polygon fill="black" stroke="black" points="537.67,-43.66 548,-41.33 538.47,-36.71 537.67,-43.66"/>
<text xml:space="preserve" text-anchor="middle" x="273.77" y="-132.2" font-family="Times,serif" font-size="14.00">&lt;</text>
<text xml:space="preserve" text-anchor="middle" x="273.77" y="-115.7" font-family="Times,serif" font-size="14.00">&lt;TABLE&gt;</text>
<text xml:space="preserve" text-anchor="middle" x="273.77" y="-99.2" font-family="Times,serif" font-size="14.00"> &#160;&lt;TR&gt;&lt;TD BGCOLOR=&quot;red&quot; WIDTH=&quot;10&quot;&gt; &lt;/TD&gt;</text>
<text xml:space="preserve" text-anchor="middle" x="273.77" y="-82.7" font-family="Times,serif" font-size="14.00"> &#160;&#160;&#160;&#160;&#160;&lt;TD&gt;Edge labels&lt;BR/&gt;also&lt;/TD&gt;</text>
<text xml:space="preserve" text-anchor="middle" x="273.77" y="-66.2" font-family="Times,serif" font-size="14.00"> &#160;&#160;&#160;&#160;&#160;&lt;TD BGCOLOR=&quot;blue&quot; WIDTH=&quot;10&quot;&gt; &lt;/TD&gt;</text>
<text xml:space="preserve" text-anchor="middle" x="273.77" y="-49.7" font-family="Times,serif" font-size="14.00"> &#160;&lt;/TR&gt;</text>
<text xml:space="preserve" text-anchor="middle" x="273.77" y="-33.2" font-family="Times,serif" font-size="14.00">&lt;/TABLE&gt;&gt;</text>
</g>
</g>
</svg>
