<?xml version="1.0" encoding="UTF-8" standalone="no"?>
<!DOCTYPE svg PUBLIC "-//W3C//DTD SVG 1.1//EN"
 "http://www.w3.org/Graphics/SVG/1.1/DTD/svg11.dtd">
<!-- Generated by graphviz version 14.1.1 (20251213.1925)
 -->
<!-- Title: G Pages: 1 -->
<svg width="134pt" height="116pt"
 viewBox="0.00 0.00 134.00 116.00" xmlns="http://www.w3.org/2000/svg" xmlns:xlink="http://www.w3.org/1999/xlink">
<g id="graph0" class="graph" transform="scale(1 1) rotate(0) translate(4 112)">
<title>G</title>
<polygon fill="white" stroke="none" points="-4,4 -4,-112 130,-112 130,4 -4,4"/>
<!-- 1 -->
<g id="node1" class="node">
<title>1</title>
<ellipse fill="none" stroke="black" cx="27" cy="-90" rx="27" ry="18"/>
<text xml:space="preserve" text-anchor="middle" x="27" y="-84.95" font-family="Times,serif" font-size="14.00">1</text>
</g>
<!-- 2 -->
<g id="node2" class="node">
<title>2</title>
<ellipse fill="none" stroke="black" cx="27" cy="-18" rx="27" ry="18"/>
<text xml:space="preserve" text-anchor="middle" x="27" y="-12.95" font-family="Times,serif" font-size="14.00">2</text>
</g>
<!-- 1&#45;&gt;2 -->
<g id="edge1" class="edge">
<title>1&#45;&gt;2</title>
<path fill="none" stroke="black" d="M27,-71.7C27,-64.41 27,-55.73 27,-47.54"/>
<polygon fill="black" stroke="black" points="30.5,-47.62 27,-37.62 23.5,-47.62 30.5,-47.62"/>
</g>
<!-- 3 -->
<g id="node3" class="node">
<title>3</title>
<ellipse fill="none" stroke="black" cx="99" cy="-18" rx="27" ry="18"/>
<text xml:space="preserve" text-anchor="middle" x="99" y="-12.95" font-family="Times,serif" font-size="14.00">3</text>
</g>
<!-- 1&#45;&gt;3 -->
<g id="edge2" class="edge">
<title>1&#45;&gt;3</title>
<path fill="none" stroke="black" d="M41.92,-74.5C51.77,-64.92 64.86,-52.19 76.03,-41.34"/>
<polygon fill="black" stroke="black" points="78.29,-44.02 83.02,-34.54 73.41,-39 78.29,-44.02"/>
</g>
<!-- 4 -->
<g id="node4" class="node">
<title>4</title>
<ellipse fill="none" stroke="black" cx="99" cy="-90" rx="27" ry="18"/>
<text xml:space="preserve" text-anchor="middle" x="99" y="-84.95" font-family="Times,serif" font-size="14.00">4</text>
</g>
<!-- 4&#45;&gt;3 -->
<g id="edge3" class="edge">
<title>4&#45;&gt;3</title>
<path fill="none" stroke="black" d="M99,-71.7C99,-64.41 99,-55.73 99,-47.54"/>
<polygon fill="black" stroke="black" points="102.5,-47.62 99,-37.62 95.5,-47.62 102.5,-47.62"/>
</g>
</g>
</svg>
