<?xml version="1.0" encoding="UTF-8" standalone="no"?>
<!DOCTYPE svg PUBLIC "-//W3C//DTD SVG 1.1//EN"
 "http://www.w3.org/Graphics/SVG/1.1/DTD/svg11.dtd">
<!-- Generated by graphviz version 14.1.1 (20251213.1925)
 -->
<!-- Title: G Pages: 1 -->
<svg width="712pt" height="232pt"
 viewBox="0.00 0.00 712.00 232.00" xmlns="http://www.w3.org/2000/svg" xmlns:xlink="http://www.w3.org/1999/xlink">
<g id="graph0" class="graph" transform="scale(1 1) rotate(0) translate(4 228.5)">
<title>G</title>
<polygon fill="white" stroke="none" points="-4,4 -4,-228.5 707.88,-228.5 707.88,4 -4,4"/>
<!-- TOP -->
<g id="node1" class="node">
<title>TOP</title>
<polygon fill="none" stroke="black" points="408,-224.5 354,-224.5 354,-188.5 408,-188.5 408,-224.5"/>
<text xml:space="preserve" text-anchor="middle" x="381" y="-201.44" font-family="Times,serif" font-size="14.00">TOP</text>
</g>
<!-- a -->
<g id="node2" class="node">
<title>a</title>
<polygon fill="none" stroke="black" points="108,-133.25 54,-133.25 54,-97.25 108,-97.25 108,-133.25"/>
<text xml:space="preserve" text-anchor="middle" x="81" y="-110.2" font-family="Times,serif" font-size="14.00">a</text>
</g>
<!-- TOP&#45;&gt;a -->
<g id="edge1" class="edge">
<title>TOP&#45;&gt;a</title>
<path fill="none" stroke="black" d="M353.79,-205.16C303.89,-203.48 195.63,-194.79 117,-152.5 111.76,-149.68 106.8,-145.85 102.33,-141.74"/>
<polygon fill="black" stroke="black" points="104.95,-139.42 95.45,-134.74 99.96,-144.32 104.95,-139.42"/>
</g>
<!-- b -->
<g id="node3" class="node">
<title>b</title>
<polygon fill="none" stroke="black" points="574.12,-78.5 574.12,-152 703.88,-152 703.88,-78.5 574.12,-78.5"/>
<text xml:space="preserve" text-anchor="middle" x="591.12" y="-110.2" font-family="Times,serif" font-size="14.00">left</text>
<polyline fill="none" stroke="black" points="608.12,-78.5 608.12,-152"/>
<text xml:space="preserve" text-anchor="middle" x="635.25" y="-134.69" font-family="Times,serif" font-size="14.00">up</text>
<polyline fill="none" stroke="black" points="608.12,-127.5 662.38,-127.5"/>
<text xml:space="preserve" text-anchor="middle" x="635.25" y="-110.2" font-family="Times,serif" font-size="14.00">middle</text>
<polyline fill="none" stroke="black" points="608.12,-103 662.38,-103"/>
<text xml:space="preserve" text-anchor="middle" x="635.25" y="-85.7" font-family="Times,serif" font-size="14.00">down</text>
<polyline fill="none" stroke="black" points="662.38,-78.5 662.38,-152"/>
<text xml:space="preserve" text-anchor="middle" x="683.12" y="-110.2" font-family="Times,serif" font-size="14.00">right</text>
</g>
<!-- TOP&#45;&gt;b -->
<g id="edge2" class="edge">
<title>TOP&#45;&gt;b</title>
<path fill="none" stroke="black" d="M408.3,-199.22C442.61,-191 503.33,-175.33 563.15,-153"/>
<polygon fill="black" stroke="black" points="564.39,-156.27 572.49,-149.44 561.9,-149.72 564.39,-156.27"/>
</g>
<!-- c -->
<g id="node4" class="node">
<title>c</title>
<polygon fill="none" stroke="black" points="484,-133.25 430,-133.25 430,-97.25 484,-97.25 484,-133.25"/>
<text xml:space="preserve" text-anchor="middle" x="457" y="-110.2" font-family="Times,serif" font-size="14.00">c</text>
</g>
<!-- TOP&#45;&gt;c -->
<g id="edge3" class="edge">
<title>TOP&#45;&gt;c</title>
<path fill="none" stroke="black" d="M395.65,-188.29C406.73,-175.28 422.12,-157.21 434.71,-142.42"/>
<polygon fill="black" stroke="black" points="437.33,-144.74 441.15,-134.86 432,-140.2 437.33,-144.74"/>
</g>
<!-- d -->
<g id="node5" class="node">
<title>d</title>
<polygon fill="none" stroke="black" points="206.24,-95.75 206.24,-134.75 241.69,-134.75 241.69,-95.75 206.24,-95.75"/>
<text xml:space="preserve" text-anchor="start" x="207.24" y="-110.2" font-family="Times,serif" font-size="14.00">LEFT</text>
<polygon fill="none" stroke="black" points="241.69,-95.75 241.69,-134.75 298.12,-134.75 298.12,-95.75 241.69,-95.75"/>
<text xml:space="preserve" text-anchor="start" x="242.69" y="-110.2" font-family="Times,serif" font-size="14.00">MIDDLE</text>
<polygon fill="none" stroke="black" points="298.12,-95.75 298.12,-134.75 403.76,-134.75 403.76,-95.75 298.12,-95.75"/>
<polygon fill="none" stroke="black" points="299.12,-115.25 299.12,-133.75 402.76,-133.75 402.76,-115.25 299.12,-115.25"/>
<text xml:space="preserve" text-anchor="start" x="316.45" y="-119.45" font-family="Times,serif" font-size="14.00">RIGHTTOP</text>
<polygon fill="none" stroke="black" points="299.12,-96.75 299.12,-115.25 402.76,-115.25 402.76,-96.75 299.12,-96.75"/>
<text xml:space="preserve" text-anchor="start" x="300.12" y="-100.95" font-family="Times,serif" font-size="14.00">RIGHTBOTTOM</text>
</g>
<!-- TOP&#45;&gt;d -->
<g id="edge4" class="edge">
<title>TOP&#45;&gt;d</title>
<path fill="none" stroke="black" d="M366.35,-188.29C356.44,-176.65 343.07,-160.96 331.35,-147.19"/>
<polygon fill="black" stroke="black" points="334.06,-144.98 324.91,-139.63 328.73,-149.51 334.06,-144.98"/>
</g>
<!-- e -->
<g id="node6" class="node">
<title>e</title>
<polygon fill="none" stroke="black" points="556,-133.25 502,-133.25 502,-97.25 556,-97.25 556,-133.25"/>
<text xml:space="preserve" text-anchor="middle" x="529" y="-110.2" font-family="Times,serif" font-size="14.00">e</text>
</g>
<!-- TOP&#45;&gt;e -->
<g id="edge5" class="edge">
<title>TOP&#45;&gt;e</title>
<path fill="none" stroke="black" d="M408.22,-195.71C431.82,-186.52 466.3,-171.37 493,-152.5 497.56,-149.27 502.05,-145.44 506.24,-141.5"/>
<polygon fill="black" stroke="black" points="508.66,-144.03 513.24,-134.48 503.7,-139.08 508.66,-144.03"/>
</g>
<!-- f -->
<g id="node7" class="node">
<title>f</title>
<polygon fill="none" stroke="black" points="180,-133.25 126,-133.25 126,-97.25 180,-97.25 180,-133.25"/>
<text xml:space="preserve" text-anchor="middle" x="153" y="-110.2" font-family="Times,serif" font-size="14.00">f</text>
</g>
<!-- TOP&#45;&gt;f -->
<g id="edge6" class="edge">
<title>TOP&#45;&gt;f</title>
<path fill="none" stroke="black" d="M353.52,-202.43C314.61,-197.13 242.29,-183.65 189,-152.5 183.96,-149.55 179.13,-145.72 174.74,-141.66"/>
<polygon fill="black" stroke="black" points="177.48,-139.45 167.96,-134.81 172.51,-144.38 177.48,-139.45"/>
</g>
<!-- a&#45;&gt;b -->
<g id="edge17" class="edge">
<title>a:s&#45;&gt;b:down:se</title>
<path fill="none" stroke="black" d="M81,-96.75C81,-2.77 679.36,-2.16 641.93,-81.73"/>
<polygon fill="black" stroke="black" points="639.29,-79.41 636.15,-89.53 644.92,-83.58 639.29,-79.41"/>
</g>
<!-- a&#45;&gt;d -->
<g id="edge16" class="edge">
<title>a:ne&#45;&gt;d:inner:n</title>
<path fill="none" stroke="black" d="M99.5,-133.75C161.33,-195.57 293.03,-227.32 304.24,-149.85"/>
<polygon fill="black" stroke="black" points="307.7,-150.47 304.9,-140.25 300.72,-149.99 307.7,-150.47"/>
</g>
<!-- a&#45;&gt;f -->
<g id="edge14" class="edge">
<title>a:w&#45;&gt;f:e</title>
<path fill="none" stroke="black" d="M53.5,-115.25C13.48,-115.25 122.42,-115.25 169.1,-115.25"/>
<polygon fill="black" stroke="black" points="168.99,-118.75 178.99,-115.25 168.99,-111.75 168.99,-118.75"/>
</g>
<!-- BOTTOM -->
<g id="node8" class="node">
<title>BOTTOM</title>
<polygon fill="none" stroke="black" points="418.43,-42 343.57,-42 343.57,-6 418.43,-6 418.43,-42"/>
<text xml:space="preserve" text-anchor="middle" x="381" y="-18.95" font-family="Times,serif" font-size="14.00">BOTTOM</text>
</g>
<!-- a&#45;&gt;BOTTOM -->
<g id="edge7" class="edge">
<title>a&#45;&gt;BOTTOM</title>
<path fill="none" stroke="black" d="M94.39,-96.83C100.55,-89.96 108.41,-82.62 117,-78 185.61,-41.09 276.76,-29.77 332.04,-26.37"/>
<polygon fill="black" stroke="black" points="331.96,-29.88 341.76,-25.84 331.58,-22.89 331.96,-29.88"/>
</g>
<!-- B -->
<g id="node10" class="node">
<title>B</title>
<polygon fill="none" stroke="black" points="54,-42 0,-42 0,-6 54,-6 54,-42"/>
<text xml:space="preserve" text-anchor="middle" x="27" y="-18.95" font-family="Times,serif" font-size="14.00">B</text>
</g>
<!-- a&#45;&gt;B -->
<g id="edge18" class="edge">
<title>a:w&#45;&gt;B:e</title>
<path fill="none" stroke="black" d="M52.5,-115.25C17.63,-115.25 74.88,-47.85 65.91,-28.9"/>
<polygon fill="black" stroke="black" points="67.41,-25.74 56.87,-24.64 64.42,-32.07 67.41,-25.74"/>
</g>
<!-- b&#45;&gt;BOTTOM -->
<g id="edge8" class="edge">
<title>b&#45;&gt;BOTTOM</title>
<path fill="none" stroke="black" d="M573.91,-81.59C570.91,-80.33 567.94,-79.13 565,-78 520.16,-60.71 467.3,-46.05 429.77,-36.56"/>
<polygon fill="black" stroke="black" points="430.65,-33.17 420.1,-34.15 428.96,-39.96 430.65,-33.17"/>
</g>
<!-- c&#45;&gt;BOTTOM -->
<g id="edge9" class="edge">
<title>c&#45;&gt;BOTTOM</title>
<path fill="none" stroke="black" d="M442.35,-97.04C431.27,-84.03 415.88,-65.96 403.29,-51.17"/>
<polygon fill="black" stroke="black" points="406,-48.95 396.85,-43.61 400.67,-53.49 406,-48.95"/>
</g>
<!-- d&#45;&gt;BOTTOM -->
<g id="edge10" class="edge">
<title>d&#45;&gt;BOTTOM</title>
<path fill="none" stroke="black" d="M323.79,-92.18C334.43,-79.68 347.8,-63.98 358.94,-50.9"/>
<polygon fill="black" stroke="black" points="361.44,-53.37 365.25,-43.49 356.11,-48.83 361.44,-53.37"/>
</g>
<!-- e&#45;&gt;BOTTOM -->
<g id="edge11" class="edge">
<title>e&#45;&gt;BOTTOM</title>
<path fill="none" stroke="black" d="M514.31,-97.08C508.17,-90.57 500.68,-83.42 493,-78 473.48,-64.19 449.8,-52.39 429.25,-43.44"/>
<polygon fill="black" stroke="black" points="430.8,-40.3 420.23,-39.62 428.07,-46.75 430.8,-40.3"/>
</g>
<!-- f&#45;&gt;d -->
<g id="edge15" class="edge">
<title>f:n&#45;&gt;d:htmlleft</title>
<path fill="none" stroke="black" d="M153,-133.75C153,-151.82 169.28,-127.01 187.26,-118.17"/>
<polygon fill="black" stroke="black" points="188.02,-121.59 196.78,-115.63 186.22,-114.82 188.02,-121.59"/>
</g>
<!-- f&#45;&gt;BOTTOM -->
<g id="edge12" class="edge">
<title>f&#45;&gt;BOTTOM</title>
<path fill="none" stroke="black" d="M166.89,-96.75C173.03,-90.04 180.73,-82.83 189,-78 233.65,-51.89 291.68,-38.19 332.2,-31.32"/>
<polygon fill="black" stroke="black" points="332.59,-34.8 341.91,-29.76 331.48,-27.89 332.59,-34.8"/>
</g>
<!-- A -->
<g id="node9" class="node">
<title>A</title>
<polygon fill="none" stroke="black" points="108,-224.5 54,-224.5 54,-188.5 108,-188.5 108,-224.5"/>
<text xml:space="preserve" text-anchor="middle" x="81" y="-201.44" font-family="Times,serif" font-size="14.00">A</text>
</g>
<!-- A&#45;&gt;a -->
<g id="edge13" class="edge">
<title>A:s&#45;&gt;a:n</title>
<path fill="none" stroke="black" d="M81,-188.5C81,-168.9 81,-161.36 81,-146.1"/>
<polygon fill="black" stroke="black" points="84.5,-146.26 81,-136.26 77.5,-146.26 84.5,-146.26"/>
</g>
<!-- D -->
<g id="node11" class="node">
<title>D</title>
<polygon fill="none" stroke="black" points="618,-224.5 564,-224.5 564,-188.5 618,-188.5 618,-224.5"/>
<text xml:space="preserve" text-anchor="middle" x="591" y="-201.44" font-family="Times,serif" font-size="14.00">D</text>
</g>
<!-- D&#45;&gt;b -->
<g id="edge19" class="edge">
<title>D&#45;&gt;b:left</title>
<path fill="none" stroke="black" d="M591.06,-188.31C591.08,-181.1 591.11,-172.38 591.12,-163.72"/>
<polygon fill="black" stroke="black" points="594.62,-164.01 591.12,-154.01 587.62,-164.01 594.62,-164.01"/>
</g>
<!-- C -->
<g id="node12" class="node">
<title>C</title>
<polygon fill="none" stroke="black" points="690,-224.5 636,-224.5 636,-188.5 690,-188.5 690,-224.5"/>
<text xml:space="preserve" text-anchor="middle" x="663" y="-201.44" font-family="Times,serif" font-size="14.00">C</text>
</g>
<!-- C&#45;&gt;b -->
<g id="edge20" class="edge">
<title>C&#45;&gt;b:middle:e</title>
<path fill="none" stroke="black" d="M661.23,-188.09C658.78,-167.81 653.6,-135.32 644.4,-121.65"/>
<polygon fill="black" stroke="black" points="646.69,-118.98 636.49,-116.11 642.68,-124.71 646.69,-118.98"/>
</g>
</g>
</svg>
