<?xml version="1.0" encoding="UTF-8" standalone="no"?>
<!DOCTYPE svg PUBLIC "-//W3C//DTD SVG 1.1//EN"
 "http://www.w3.org/Graphics/SVG/1.1/DTD/svg11.dtd">
<!-- Generated by graphviz version 14.1.1 (20251213.1925)
 -->
<!-- Title: port_label Pages: 1 -->
<svg width="206pt" height="116pt"
 viewBox="0.00 0.00 206.00 116.00" xmlns="http://www.w3.org/2000/svg" xmlns:xlink="http://www.w3.org/1999/xlink">
<g id="graph0" class="graph" transform="scale(1 1) rotate(0) translate(4 112)">
<title>port_label</title>
<polygon fill="white" stroke="none" points="-4,4 -4,-112 202,-112 202,4 -4,4"/>
<!-- a -->
<g id="node1" class="node">
<title>a</title>
<polygon fill="none" stroke="black" points="54,-108 0,-108 0,-72 54,-72 54,-108"/>
<text xml:space="preserve" text-anchor="middle" x="27" y="-84.95" font-family="Times,serif" font-size="14.00">a</text>
</g>
<!-- b -->
<g id="node2" class="node">
<title>b</title>
<polygon fill="none" stroke="black" points="54,-36 0,-36 0,0 54,0 54,-36"/>
<text xml:space="preserve" text-anchor="middle" x="27" y="-12.95" font-family="Times,serif" font-size="14.00">b</text>
</g>
<!-- a&#45;&gt;b -->
<g id="edge1" class="edge">
<title>a&#45;&gt;b</title>
<path fill="none" stroke="black" d="M27,-71.7C27,-64.41 27,-55.73 27,-47.54"/>
<polygon fill="black" stroke="black" points="30.5,-47.62 27,-37.62 23.5,-47.62 30.5,-47.62"/>
<text xml:space="preserve" text-anchor="middle" x="20" y="-43.18" font-family="Times,serif" font-size="14.00">H1</text>
<text xml:space="preserve" text-anchor="middle" x="34" y="-54.52" font-family="Times,serif" font-size="14.00">T1</text>
</g>
<!-- c -->
<g id="node3" class="node">
<title>c</title>
<polygon fill="none" stroke="black" points="126,-108 72,-108 72,-72 126,-72 126,-108"/>
<text xml:space="preserve" text-anchor="middle" x="99" y="-84.95" font-family="Times,serif" font-size="14.00">c</text>
</g>
<!-- d -->
<g id="node4" class="node">
<title>d</title>
<polygon fill="none" stroke="black" points="126,-36 72,-36 72,0 126,0 126,-36"/>
<text xml:space="preserve" text-anchor="middle" x="99" y="-12.95" font-family="Times,serif" font-size="14.00">d</text>
</g>
<!-- c&#45;&gt;d -->
<g id="edge2" class="edge">
<title>c&#45;&gt;d</title>
<path fill="none" stroke="black" d="M99,-71.7C99,-64.41 99,-55.73 99,-47.54"/>
<polygon fill="black" stroke="black" points="102.5,-47.62 99,-37.62 95.5,-47.62 102.5,-47.62"/>
<text xml:space="preserve" text-anchor="middle" x="106.07" y="-38.13" font-family="Times,serif" font-size="14.00">H2</text>
<text xml:space="preserve" text-anchor="middle" x="91.93" y="-59.58" font-family="Times,serif" font-size="14.00">T2</text>
</g>
<!-- e -->
<g id="node5" class="node">
<title>e</title>
<polygon fill="none" stroke="black" points="198,-108 144,-108 144,-72 198,-72 198,-108"/>
<text xml:space="preserve" text-anchor="middle" x="171" y="-84.95" font-family="Times,serif" font-size="14.00">e</text>
</g>
<!-- f -->
<g id="node6" class="node">
<title>f</title>
<polygon fill="none" stroke="black" points="198,-36 144,-36 144,0 198,0 198,-36"/>
<text xml:space="preserve" text-anchor="middle" x="171" y="-12.95" font-family="Times,serif" font-size="14.00">f</text>
</g>
<!-- e&#45;&gt;f -->
<g id="edge3" class="edge">
<title>e&#45;&gt;f</title>
<path fill="none" stroke="black" d="M171,-71.7C171,-64.41 171,-55.73 171,-47.54"/>
<polygon fill="black" stroke="black" points="174.5,-47.62 171,-37.62 167.5,-47.62 174.5,-47.62"/>
<text xml:space="preserve" text-anchor="middle" x="174.38" y="-38.3" font-family="Times,serif" font-size="14.00">H3</text>
<text xml:space="preserve" text-anchor="middle" x="167.62" y="-59.4" font-family="Times,serif" font-size="14.00">T3</text>
</g>
</g>
</svg>
