<?xml version="1.0" encoding="UTF-8" standalone="no"?>
<!DOCTYPE svg PUBLIC "-//W3C//DTD SVG 1.1//EN"
 "http://www.w3.org/Graphics/SVG/1.1/DTD/svg11.dtd">
<!-- Generated by graphviz version 14.1.1 (20251213.1925)
 -->
<!-- Pages: 1 -->
<svg width="188pt" height="116pt"
 viewBox="0.00 0.00 188.00 116.00" xmlns="http://www.w3.org/2000/svg" xmlns:xlink="http://www.w3.org/1999/xlink">
<g id="graph0" class="graph" transform="scale(1 1) rotate(0) translate(4 112)">
<polygon fill="white" stroke="none" points="-4,4 -4,-112 184,-112 184,4 -4,4"/>
<!-- x -->
<g id="node1" class="node">
<title>x</title>
<ellipse fill="none" stroke="black" cx="27" cy="-90" rx="27" ry="18"/>
<text xml:space="preserve" text-anchor="middle" x="27" y="-84.95" font-family="Times,serif" font-size="14.00">x</text>
</g>
<!-- y -->
<g id="node2" class="node">
<title>y</title>
<ellipse fill="none" stroke="black" cx="90" cy="-18" rx="27" ry="18"/>
<text xml:space="preserve" text-anchor="middle" x="90" y="-12.95" font-family="Times,serif" font-size="14.00">y</text>
</g>
<!-- x&#45;&gt;y -->
<g id="edge1" class="edge">
<title>x&#45;&gt;y</title>
<polyline fill="none" stroke="black" points="27,-71.83 27,-50.5 27,-26"/>
<polyline fill="none" stroke="black" points="35,-18 51.04,-18"/>
<polyline fill="none" stroke="black" points="27,-26 27,-25.48 27.05,-24.95 27.15,-24.44 27.26,-23.93 27.41,-23.42 27.61,-22.94 27.81,-22.45 28.06,-21.99 28.35,-21.56 28.64,-21.12 28.97,-20.71 29.34,-20.34 29.71,-19.97 30.12,-19.64 30.56,-19.35 30.99,-19.06 31.45,-18.81 31.94,-18.61 32.42,-18.41 32.93,-18.26 33.44,-18.15 33.95,-18.05 34.48,-18 35,-18"/>
<polygon fill="black" stroke="black" points="51.04,-21.5 61.04,-18 51.04,-14.5 51.04,-21.5"/>
</g>
<!-- z -->
<g id="node3" class="node">
<title>z</title>
<ellipse fill="none" stroke="black" cx="153" cy="-90" rx="27" ry="18"/>
<text xml:space="preserve" text-anchor="middle" x="153" y="-84.95" font-family="Times,serif" font-size="14.00">z</text>
</g>
<!-- z&#45;&gt;y -->
<g id="edge2" class="edge">
<title>z&#45;&gt;y</title>
<path fill="none" stroke="black" d="M125.55,-90C108.57,-90 90,-90 90,-90 90,-90 90,-47.68 90,-47.68"/>
<polygon fill="black" stroke="black" points="93.5,-47.68 90,-37.68 86.5,-47.68 93.5,-47.68"/>
</g>
</g>
</svg>
