<?xml version="1.0" encoding="UTF-8" standalone="no"?>
<!DOCTYPE svg PUBLIC "-//W3C//DTD SVG 1.1//EN"
 "http://www.w3.org/Graphics/SVG/1.1/DTD/svg11.dtd">
<!-- Generated by graphviz version 14.1.1 (20251213.1925)
 -->
<!-- Title: G Pages: 1 -->
<svg width="361pt" height="1542pt"
 viewBox="0.00 0.00 361.00 1542.00" xmlns="http://www.w3.org/2000/svg" xmlns:xlink="http://www.w3.org/1999/xlink">
<g id="graph0" class="graph" transform="scale(1 1) rotate(0) translate(4 1538.19)">
<title>G</title>
<polygon fill="white" stroke="none" points="-4,4 -4,-1538.19 356.75,-1538.19 356.75,4 -4,4"/>
<text xml:space="preserve" text-anchor="middle" x="176.38" y="-7.2" font-family="Times,serif" font-size="14.00">SelfRight</text>
<!-- node23 -->
<g id="node1" class="node">
<title>node23</title>
<polygon fill="none" stroke="black" points="55.75,-1527.34 0,-1527.34 0,-1491.34 55.75,-1491.34 55.75,-1527.34"/>
<text xml:space="preserve" text-anchor="middle" x="27.88" y="-1504.29" font-family="Times,serif" font-size="14.00">node23</text>
</g>
<!-- node23&#45;&gt;node23 -->
<g id="edge1" class="edge">
<title>node23:n&#45;&gt;node23:ne</title>
<path fill="none" stroke="black" d="M27.88,-1527.34C43.17,-1531.91 73.75,-1531.91 73.75,-1527.34 73.75,-1524.99 70.56,-1523.85 66.65,-1523.93"/>
<polygon fill="black" stroke="black" points="65.69,-1520.56 57.19,-1526.89 67.78,-1527.24 65.69,-1520.56"/>
<text xml:space="preserve" text-anchor="middle" x="136.75" y="-1504.29" font-family="Times,serif" font-size="14.00">tailport=n headport=ne</text>
</g>
<!-- node23&#45;&gt;node23 -->
<g id="edge2" class="edge">
<title>node23:n&#45;&gt;node23:ne</title>
<path fill="none" stroke="black" d="M27.88,-1527.34C49.17,-1536.47 199.75,-1536.47 199.75,-1527.34 199.75,-1519.47 101.38,-1518.39 66.76,-1524.11"/>
<polygon fill="black" stroke="black" points="65.81,-1520.74 57.2,-1526.92 67.78,-1527.46 65.81,-1520.74"/>
<text xml:space="preserve" text-anchor="middle" x="262.75" y="-1504.29" font-family="Times,serif" font-size="14.00">tailport=n headport=ne</text>
</g>
<!-- node24 -->
<g id="node2" class="node">
<title>node24</title>
<polygon fill="none" stroke="black" points="55.75,-1454.34 0,-1454.34 0,-1418.34 55.75,-1418.34 55.75,-1454.34"/>
<text xml:space="preserve" text-anchor="middle" x="27.88" y="-1431.29" font-family="Times,serif" font-size="14.00">node24</text>
</g>
<!-- node23&#45;&gt;node24 -->
<g id="edge3" class="edge">
<title>node23&#45;&gt;node24</title>
<path fill="none" stroke="black" d="M27.88,-1491.16C27.88,-1483.57 27.88,-1474.45 27.88,-1465.88"/>
<polygon fill="black" stroke="black" points="31.38,-1465.89 27.88,-1455.89 24.38,-1465.89 31.38,-1465.89"/>
</g>
<!-- node24&#45;&gt;node24 -->
<g id="edge4" class="edge">
<title>node24:n&#45;&gt;node24:e</title>
<path fill="none" stroke="black" d="M27.88,-1454.34C43.17,-1458.91 73.75,-1458.91 73.75,-1445.34 73.75,-1438.56 70.75,-1435.17 67,-1434.05"/>
<polygon fill="black" stroke="black" points="66.33,-1430.61 57.23,-1436.04 67.73,-1437.47 66.33,-1430.61"/>
<text xml:space="preserve" text-anchor="middle" x="133.38" y="-1431.29" font-family="Times,serif" font-size="14.00">tailport=n headport=e</text>
</g>
<!-- node24&#45;&gt;node24 -->
<g id="edge5" class="edge">
<title>node24:n&#45;&gt;node24:e</title>
<path fill="none" stroke="black" d="M27.88,-1454.34C49.17,-1463.47 193,-1463.47 193,-1445.34 193,-1429.7 99.66,-1427.56 66.41,-1433.14"/>
<polygon fill="black" stroke="black" points="65.77,-1429.68 57.2,-1435.91 67.78,-1436.38 65.77,-1429.68"/>
<text xml:space="preserve" text-anchor="middle" x="252.62" y="-1431.29" font-family="Times,serif" font-size="14.00">tailport=n headport=e</text>
</g>
<!-- node25 -->
<g id="node3" class="node">
<title>node25</title>
<polygon fill="none" stroke="black" points="55.75,-1381.34 0,-1381.34 0,-1345.34 55.75,-1345.34 55.75,-1381.34"/>
<text xml:space="preserve" text-anchor="middle" x="27.88" y="-1358.29" font-family="Times,serif" font-size="14.00">node25</text>
</g>
<!-- node24&#45;&gt;node25 -->
<g id="edge6" class="edge">
<title>node24&#45;&gt;node25</title>
<path fill="none" stroke="black" d="M27.88,-1418.16C27.88,-1410.57 27.88,-1401.45 27.88,-1392.88"/>
<polygon fill="black" stroke="black" points="31.38,-1392.89 27.88,-1382.89 24.38,-1392.89 31.38,-1392.89"/>
</g>
<!-- node25&#45;&gt;node25 -->
<g id="edge7" class="edge">
<title>node25:n&#45;&gt;node25:se</title>
<path fill="none" stroke="black" d="M27.88,-1381.34C43.17,-1385.91 73.75,-1385.91 73.75,-1363.34 73.75,-1352.06 70.75,-1346.42 67,-1344.17"/>
<polygon fill="black" stroke="black" points="66.84,-1340.67 57.26,-1345.19 67.56,-1347.63 66.84,-1340.67"/>
<text xml:space="preserve" text-anchor="middle" x="136" y="-1358.29" font-family="Times,serif" font-size="14.00">tailport=n headport=se</text>
</g>
<!-- node25&#45;&gt;node25 -->
<g id="edge8" class="edge">
<title>node25:n&#45;&gt;node25:se</title>
<path fill="none" stroke="black" d="M27.88,-1381.34C49.17,-1390.47 198.25,-1390.47 198.25,-1363.34 198.25,-1339.93 100.99,-1336.73 66.68,-1342.16"/>
<polygon fill="black" stroke="black" points="65.82,-1338.76 57.2,-1344.92 67.78,-1345.48 65.82,-1338.76"/>
<text xml:space="preserve" text-anchor="middle" x="260.5" y="-1358.29" font-family="Times,serif" font-size="14.00">tailport=n headport=se</text>
</g>
<!-- node26 -->
<g id="node4" class="node">
<title>node26</title>
<polygon fill="none" stroke="black" points="55.75,-1308.34 0,-1308.34 0,-1272.34 55.75,-1272.34 55.75,-1308.34"/>
<text xml:space="preserve" text-anchor="middle" x="27.88" y="-1285.29" font-family="Times,serif" font-size="14.00">node26</text>
</g>
<!-- node25&#45;&gt;node26 -->
<g id="edge9" class="edge">
<title>node25&#45;&gt;node26</title>
<path fill="none" stroke="black" d="M27.88,-1345.16C27.88,-1337.57 27.88,-1328.45 27.88,-1319.88"/>
<polygon fill="black" stroke="black" points="31.38,-1319.89 27.88,-1309.89 24.38,-1319.89 31.38,-1319.89"/>
</g>
<!-- node26&#45;&gt;node26 -->
<g id="edge10" class="edge">
<title>node26:n&#45;&gt;node26:s</title>
<path fill="none" stroke="black" d="M27.88,-1308.34C43.17,-1312.91 73.75,-1312.91 73.75,-1290.34 73.75,-1272.54 54.71,-1268.79 39.16,-1270.23"/>
<polygon fill="black" stroke="black" points="38.55,-1266.79 29.36,-1272.07 39.84,-1273.67 38.55,-1266.79"/>
<text xml:space="preserve" text-anchor="middle" x="133" y="-1285.29" font-family="Times,serif" font-size="14.00">tailport=n headport=s</text>
</g>
<!-- node26&#45;&gt;node26 -->
<g id="edge11" class="edge">
<title>node26:n&#45;&gt;node26:s</title>
<path fill="none" stroke="black" d="M27.88,-1308.34C49.17,-1317.47 192.25,-1317.47 192.25,-1290.34 192.25,-1266.19 78.75,-1263.54 38.89,-1269.7"/>
<polygon fill="black" stroke="black" points="38.25,-1266.25 29.35,-1271.99 39.89,-1273.06 38.25,-1266.25"/>
<text xml:space="preserve" text-anchor="middle" x="251.5" y="-1285.29" font-family="Times,serif" font-size="14.00">tailport=n headport=s</text>
</g>
<!-- node32 -->
<g id="node5" class="node">
<title>node32</title>
<polygon fill="none" stroke="black" points="55.75,-1235.34 0,-1235.34 0,-1199.34 55.75,-1199.34 55.75,-1235.34"/>
<text xml:space="preserve" text-anchor="middle" x="27.88" y="-1212.29" font-family="Times,serif" font-size="14.00">node32</text>
</g>
<!-- node26&#45;&gt;node32 -->
<g id="edge12" class="edge">
<title>node26&#45;&gt;node32</title>
<path fill="none" stroke="black" d="M27.88,-1272.16C27.88,-1264.57 27.88,-1255.45 27.88,-1246.88"/>
<polygon fill="black" stroke="black" points="31.38,-1246.89 27.88,-1236.89 24.38,-1246.89 31.38,-1246.89"/>
</g>
<!-- node32&#45;&gt;node32 -->
<g id="edge13" class="edge">
<title>node32:ne&#45;&gt;node32:n</title>
<path fill="none" stroke="black" d="M55.75,-1235.34C61.75,-1230.78 73.75,-1230.78 73.75,-1235.34 73.75,-1238.98 54.33,-1239.72 38.7,-1237.56"/>
<polygon fill="black" stroke="black" points="39.86,-1234.22 29.36,-1235.65 38.45,-1241.08 39.86,-1234.22"/>
<text xml:space="preserve" text-anchor="middle" x="136.75" y="-1212.29" font-family="Times,serif" font-size="14.00">tailport=ne headport=n</text>
</g>
<!-- node32&#45;&gt;node32 -->
<g id="edge14" class="edge">
<title>node32:ne&#45;&gt;node32:n</title>
<path fill="none" stroke="black" d="M55.75,-1235.34C67.75,-1226.22 199.75,-1226.22 199.75,-1235.34 199.75,-1243.49 79.78,-1244.36 38.87,-1237.97"/>
<polygon fill="black" stroke="black" points="39.89,-1234.61 29.35,-1235.7 38.26,-1241.42 39.89,-1234.61"/>
<text xml:space="preserve" text-anchor="middle" x="262.75" y="-1212.29" font-family="Times,serif" font-size="14.00">tailport=ne headport=n</text>
</g>
<!-- node34 -->
<g id="node6" class="node">
<title>node34</title>
<polygon fill="none" stroke="black" points="55.75,-1162.34 0,-1162.34 0,-1126.34 55.75,-1126.34 55.75,-1162.34"/>
<text xml:space="preserve" text-anchor="middle" x="27.88" y="-1139.29" font-family="Times,serif" font-size="14.00">node34</text>
</g>
<!-- node32&#45;&gt;node34 -->
<g id="edge15" class="edge">
<title>node32&#45;&gt;node34</title>
<path fill="none" stroke="black" d="M27.88,-1199.16C27.88,-1191.57 27.88,-1182.45 27.88,-1173.88"/>
<polygon fill="black" stroke="black" points="31.38,-1173.89 27.88,-1163.89 24.38,-1173.89 31.38,-1173.89"/>
</g>
<!-- node34&#45;&gt;node34 -->
<g id="edge16" class="edge">
<title>node34:ne&#45;&gt;node34:e</title>
<path fill="none" stroke="black" d="M55.75,-1162.34C61.75,-1166.91 73.75,-1166.91 73.75,-1153.34 73.75,-1146.56 70.75,-1143.17 67,-1142.05"/>
<polygon fill="black" stroke="black" points="66.33,-1138.61 57.23,-1144.04 67.73,-1145.47 66.33,-1138.61"/>
<text xml:space="preserve" text-anchor="middle" x="136.38" y="-1139.29" font-family="Times,serif" font-size="14.00">tailport=ne headport=e</text>
</g>
<!-- node34&#45;&gt;node34 -->
<g id="edge17" class="edge">
<title>node34:ne&#45;&gt;node34:e</title>
<path fill="none" stroke="black" d="M55.75,-1162.34C67.75,-1171.47 199,-1171.47 199,-1153.34 199,-1137.7 101.19,-1135.56 66.72,-1141.14"/>
<polygon fill="black" stroke="black" points="65.82,-1137.75 57.2,-1143.92 67.78,-1144.47 65.82,-1137.75"/>
<text xml:space="preserve" text-anchor="middle" x="261.62" y="-1139.29" font-family="Times,serif" font-size="14.00">tailport=ne headport=e</text>
</g>
<!-- node35 -->
<g id="node7" class="node">
<title>node35</title>
<polygon fill="none" stroke="black" points="55.75,-1089.34 0,-1089.34 0,-1053.34 55.75,-1053.34 55.75,-1089.34"/>
<text xml:space="preserve" text-anchor="middle" x="27.88" y="-1066.29" font-family="Times,serif" font-size="14.00">node35</text>
</g>
<!-- node34&#45;&gt;node35 -->
<g id="edge18" class="edge">
<title>node34&#45;&gt;node35</title>
<path fill="none" stroke="black" d="M27.88,-1126.16C27.88,-1118.57 27.88,-1109.45 27.88,-1100.88"/>
<polygon fill="black" stroke="black" points="31.38,-1100.89 27.88,-1090.89 24.38,-1100.89 31.38,-1100.89"/>
</g>
<!-- node35&#45;&gt;node35 -->
<g id="edge19" class="edge">
<title>node35:ne&#45;&gt;node35:se</title>
<path fill="none" stroke="black" d="M55.75,-1089.34C61.75,-1093.91 73.75,-1093.91 73.75,-1071.34 73.75,-1060.06 70.75,-1054.42 67,-1052.17"/>
<polygon fill="black" stroke="black" points="66.84,-1048.67 57.26,-1053.19 67.56,-1055.63 66.84,-1048.67"/>
<text xml:space="preserve" text-anchor="middle" x="139" y="-1066.29" font-family="Times,serif" font-size="14.00">tailport=ne headport=se</text>
</g>
<!-- node35&#45;&gt;node35 -->
<g id="edge20" class="edge">
<title>node35:ne&#45;&gt;node35:se</title>
<path fill="none" stroke="black" d="M55.75,-1089.34C67.75,-1098.47 204.25,-1098.47 204.25,-1071.34 204.25,-1047.82 101.6,-1044.7 66.51,-1050.23"/>
<polygon fill="black" stroke="black" points="65.84,-1046.78 57.2,-1052.92 67.78,-1053.51 65.84,-1046.78"/>
<text xml:space="preserve" text-anchor="middle" x="269.5" y="-1066.29" font-family="Times,serif" font-size="14.00">tailport=ne headport=se</text>
</g>
<!-- node36 -->
<g id="node8" class="node">
<title>node36</title>
<polygon fill="none" stroke="black" points="55.75,-1016.34 0,-1016.34 0,-980.34 55.75,-980.34 55.75,-1016.34"/>
<text xml:space="preserve" text-anchor="middle" x="27.88" y="-993.29" font-family="Times,serif" font-size="14.00">node36</text>
</g>
<!-- node35&#45;&gt;node36 -->
<g id="edge21" class="edge">
<title>node35&#45;&gt;node36</title>
<path fill="none" stroke="black" d="M27.88,-1053.16C27.88,-1045.57 27.88,-1036.45 27.88,-1027.88"/>
<polygon fill="black" stroke="black" points="31.38,-1027.89 27.88,-1017.89 24.38,-1027.89 31.38,-1027.89"/>
</g>
<!-- node36&#45;&gt;node36 -->
<g id="edge22" class="edge">
<title>node36:ne&#45;&gt;node36:s</title>
<path fill="none" stroke="black" d="M55.75,-1016.34C61.75,-1020.91 73.75,-1020.91 73.75,-998.34 73.75,-980.54 54.71,-976.79 39.16,-978.23"/>
<polygon fill="black" stroke="black" points="38.55,-974.79 29.36,-980.07 39.84,-981.67 38.55,-974.79"/>
<text xml:space="preserve" text-anchor="middle" x="136" y="-993.29" font-family="Times,serif" font-size="14.00">tailport=ne headport=s</text>
</g>
<!-- node36&#45;&gt;node36 -->
<g id="edge23" class="edge">
<title>node36:ne&#45;&gt;node36:s</title>
<path fill="none" stroke="black" d="M55.75,-1016.34C67.75,-1025.47 198.25,-1025.47 198.25,-998.34 198.25,-974.13 79.48,-971.53 38.82,-977.74"/>
<polygon fill="black" stroke="black" points="38.27,-974.27 29.35,-979.99 39.89,-981.08 38.27,-974.27"/>
<text xml:space="preserve" text-anchor="middle" x="260.5" y="-993.29" font-family="Times,serif" font-size="14.00">tailport=ne headport=s</text>
</g>
<!-- node42 -->
<g id="node9" class="node">
<title>node42</title>
<polygon fill="none" stroke="black" points="55.75,-943.34 0,-943.34 0,-907.34 55.75,-907.34 55.75,-943.34"/>
<text xml:space="preserve" text-anchor="middle" x="27.88" y="-920.29" font-family="Times,serif" font-size="14.00">node42</text>
</g>
<!-- node36&#45;&gt;node42 -->
<g id="edge24" class="edge">
<title>node36&#45;&gt;node42</title>
<path fill="none" stroke="black" d="M27.88,-980.16C27.88,-972.57 27.88,-963.45 27.88,-954.88"/>
<polygon fill="black" stroke="black" points="31.38,-954.89 27.88,-944.89 24.38,-954.89 31.38,-954.89"/>
</g>
<!-- node42&#45;&gt;node42 -->
<g id="edge25" class="edge">
<title>node42:e&#45;&gt;node42:n</title>
<path fill="none" stroke="black" d="M55.75,-925.34C61.75,-920.78 73.75,-920.78 73.75,-934.34 73.75,-945.05 54.71,-947.3 39.16,-945.54"/>
<polygon fill="black" stroke="black" points="39.84,-942.1 29.36,-943.63 38.51,-948.98 39.84,-942.1"/>
<text xml:space="preserve" text-anchor="middle" x="133.38" y="-920.29" font-family="Times,serif" font-size="14.00">tailport=e headport=n</text>
</g>
<!-- node42&#45;&gt;node42 -->
<g id="edge26" class="edge">
<title>node42:e&#45;&gt;node42:n</title>
<path fill="none" stroke="black" d="M55.75,-925.34C67.75,-916.22 193,-916.22 193,-934.34 193,-950.49 78.91,-952.25 38.91,-946"/>
<polygon fill="black" stroke="black" points="39.89,-942.63 29.35,-943.7 38.25,-949.44 39.89,-942.63"/>
<text xml:space="preserve" text-anchor="middle" x="252.62" y="-920.29" font-family="Times,serif" font-size="14.00">tailport=e headport=n</text>
</g>
<!-- node43 -->
<g id="node10" class="node">
<title>node43</title>
<polygon fill="none" stroke="black" points="55.75,-870.34 0,-870.34 0,-834.34 55.75,-834.34 55.75,-870.34"/>
<text xml:space="preserve" text-anchor="middle" x="27.88" y="-847.29" font-family="Times,serif" font-size="14.00">node43</text>
</g>
<!-- node42&#45;&gt;node43 -->
<g id="edge27" class="edge">
<title>node42&#45;&gt;node43</title>
<path fill="none" stroke="black" d="M27.88,-907.16C27.88,-899.57 27.88,-890.45 27.88,-881.88"/>
<polygon fill="black" stroke="black" points="31.38,-881.89 27.88,-871.89 24.38,-881.89 31.38,-881.89"/>
</g>
<!-- node43&#45;&gt;node43 -->
<g id="edge28" class="edge">
<title>node43:e&#45;&gt;node43:ne</title>
<path fill="none" stroke="black" d="M55.75,-852.34C61.75,-847.78 73.75,-847.78 73.75,-861.34 73.75,-868.12 70.75,-871.52 67,-872.64"/>
<polygon fill="black" stroke="black" points="67.73,-869.22 57.23,-870.65 66.33,-876.08 67.73,-869.22"/>
<text xml:space="preserve" text-anchor="middle" x="136.38" y="-847.29" font-family="Times,serif" font-size="14.00">tailport=e headport=ne</text>
</g>
<!-- node43&#45;&gt;node43 -->
<g id="edge29" class="edge">
<title>node43:e&#45;&gt;node43:ne</title>
<path fill="none" stroke="black" d="M55.75,-852.34C67.75,-843.22 199,-843.22 199,-861.34 199,-876.99 101.19,-879.13 66.72,-873.55"/>
<polygon fill="black" stroke="black" points="67.78,-870.22 57.2,-870.77 65.82,-876.94 67.78,-870.22"/>
<text xml:space="preserve" text-anchor="middle" x="261.62" y="-847.29" font-family="Times,serif" font-size="14.00">tailport=e headport=ne</text>
</g>
<!-- node44 -->
<g id="node11" class="node">
<title>node44</title>
<polygon fill="none" stroke="black" points="55.75,-797.34 0,-797.34 0,-761.34 55.75,-761.34 55.75,-797.34"/>
<text xml:space="preserve" text-anchor="middle" x="27.88" y="-774.29" font-family="Times,serif" font-size="14.00">node44</text>
</g>
<!-- node43&#45;&gt;node44 -->
<g id="edge30" class="edge">
<title>node43&#45;&gt;node44</title>
<path fill="none" stroke="black" d="M27.88,-834.16C27.88,-826.57 27.88,-817.45 27.88,-808.88"/>
<polygon fill="black" stroke="black" points="31.38,-808.89 27.88,-798.89 24.38,-808.89 31.38,-808.89"/>
</g>
<!-- node44&#45;&gt;node44 -->
<g id="edge31" class="edge">
<title>node44:e&#45;&gt;node44:e</title>
<path fill="none" stroke="black" d="M55.75,-779.34C61.75,-783.91 73.75,-783.91 73.75,-779.34 73.75,-776.99 70.56,-775.85 66.65,-775.93"/>
<polygon fill="black" stroke="black" points="65.69,-772.56 57.19,-778.89 67.78,-779.24 65.69,-772.56"/>
<text xml:space="preserve" text-anchor="middle" x="133" y="-774.29" font-family="Times,serif" font-size="14.00">tailport=e headport=e</text>
</g>
<!-- node44&#45;&gt;node44 -->
<g id="edge32" class="edge">
<title>node44:e&#45;&gt;node44:e</title>
<path fill="none" stroke="black" d="M55.75,-779.34C67.75,-788.47 192.25,-788.47 192.25,-779.34 192.25,-771.47 99.47,-770.39 66.37,-776.11"/>
<polygon fill="black" stroke="black" points="65.75,-772.65 57.2,-778.9 67.78,-779.34 65.75,-772.65"/>
<text xml:space="preserve" text-anchor="middle" x="251.5" y="-774.29" font-family="Times,serif" font-size="14.00">tailport=e headport=e</text>
</g>
<!-- node45 -->
<g id="node12" class="node">
<title>node45</title>
<polygon fill="none" stroke="black" points="55.75,-724.34 0,-724.34 0,-688.34 55.75,-688.34 55.75,-724.34"/>
<text xml:space="preserve" text-anchor="middle" x="27.88" y="-701.29" font-family="Times,serif" font-size="14.00">node45</text>
</g>
<!-- node44&#45;&gt;node45 -->
<g id="edge33" class="edge">
<title>node44&#45;&gt;node45</title>
<path fill="none" stroke="black" d="M27.88,-761.16C27.88,-753.57 27.88,-744.45 27.88,-735.88"/>
<polygon fill="black" stroke="black" points="31.38,-735.89 27.88,-725.89 24.38,-735.89 31.38,-735.89"/>
</g>
<!-- node45&#45;&gt;node45 -->
<g id="edge34" class="edge">
<title>node45:e&#45;&gt;node45:se</title>
<path fill="none" stroke="black" d="M55.75,-706.34C61.75,-710.91 73.75,-710.91 73.75,-697.34 73.75,-690.56 70.75,-687.17 67,-686.05"/>
<polygon fill="black" stroke="black" points="66.33,-682.61 57.23,-688.04 67.73,-689.47 66.33,-682.61"/>
<text xml:space="preserve" text-anchor="middle" x="135.62" y="-701.29" font-family="Times,serif" font-size="14.00">tailport=e headport=se</text>
</g>
<!-- node45&#45;&gt;node45 -->
<g id="edge35" class="edge">
<title>node45:e&#45;&gt;node45:se</title>
<path fill="none" stroke="black" d="M55.75,-706.34C67.75,-715.47 197.5,-715.47 197.5,-697.34 197.5,-681.7 100.8,-679.56 66.64,-685.14"/>
<polygon fill="black" stroke="black" points="65.81,-681.73 57.2,-687.92 67.78,-688.45 65.81,-681.73"/>
<text xml:space="preserve" text-anchor="middle" x="259.38" y="-701.29" font-family="Times,serif" font-size="14.00">tailport=e headport=se</text>
</g>
<!-- node46 -->
<g id="node13" class="node">
<title>node46</title>
<polygon fill="none" stroke="black" points="55.75,-651.34 0,-651.34 0,-615.34 55.75,-615.34 55.75,-651.34"/>
<text xml:space="preserve" text-anchor="middle" x="27.88" y="-628.29" font-family="Times,serif" font-size="14.00">node46</text>
</g>
<!-- node45&#45;&gt;node46 -->
<g id="edge36" class="edge">
<title>node45&#45;&gt;node46</title>
<path fill="none" stroke="black" d="M27.88,-688.16C27.88,-680.57 27.88,-671.45 27.88,-662.88"/>
<polygon fill="black" stroke="black" points="31.38,-662.89 27.88,-652.89 24.38,-662.89 31.38,-662.89"/>
</g>
<!-- node46&#45;&gt;node46 -->
<g id="edge37" class="edge">
<title>node46:e&#45;&gt;node46:s</title>
<path fill="none" stroke="black" d="M55.75,-633.34C61.75,-637.91 73.75,-637.91 73.75,-624.34 73.75,-613.64 54.71,-611.38 39.16,-613.15"/>
<polygon fill="black" stroke="black" points="38.51,-609.71 29.36,-615.05 39.84,-616.58 38.51,-609.71"/>
<text xml:space="preserve" text-anchor="middle" x="132.62" y="-628.29" font-family="Times,serif" font-size="14.00">tailport=e headport=s</text>
</g>
<!-- node46&#45;&gt;node46 -->
<g id="edge38" class="edge">
<title>node46:e&#45;&gt;node46:s</title>
<path fill="none" stroke="black" d="M55.75,-633.34C67.75,-642.47 191.5,-642.47 191.5,-624.34 191.5,-608.2 78.6,-606.44 38.86,-612.69"/>
<polygon fill="black" stroke="black" points="38.24,-609.24 29.35,-614.99 39.89,-616.04 38.24,-609.24"/>
<text xml:space="preserve" text-anchor="middle" x="250.38" y="-628.29" font-family="Times,serif" font-size="14.00">tailport=e headport=s</text>
</g>
<!-- node52 -->
<g id="node14" class="node">
<title>node52</title>
<polygon fill="none" stroke="black" points="55.75,-578.34 0,-578.34 0,-542.34 55.75,-542.34 55.75,-578.34"/>
<text xml:space="preserve" text-anchor="middle" x="27.88" y="-555.29" font-family="Times,serif" font-size="14.00">node52</text>
</g>
<!-- node46&#45;&gt;node52 -->
<g id="edge39" class="edge">
<title>node46&#45;&gt;node52</title>
<path fill="none" stroke="black" d="M27.88,-615.16C27.88,-607.57 27.88,-598.45 27.88,-589.88"/>
<polygon fill="black" stroke="black" points="31.38,-589.89 27.88,-579.89 24.38,-589.89 31.38,-589.89"/>
</g>
<!-- node52&#45;&gt;node52 -->
<g id="edge40" class="edge">
<title>node52:se&#45;&gt;node52:n</title>
<path fill="none" stroke="black" d="M55.75,-542.34C61.75,-537.78 73.75,-537.78 73.75,-560.34 73.75,-578.15 54.71,-581.9 39.16,-580.45"/>
<polygon fill="black" stroke="black" points="39.84,-577.02 29.36,-578.62 38.55,-583.9 39.84,-577.02"/>
<text xml:space="preserve" text-anchor="middle" x="136" y="-555.29" font-family="Times,serif" font-size="14.00">tailport=se headport=n</text>
</g>
<!-- node52&#45;&gt;node52 -->
<g id="edge41" class="edge">
<title>node52:se&#45;&gt;node52:n</title>
<path fill="none" stroke="black" d="M55.75,-542.34C67.75,-533.22 198.25,-533.22 198.25,-560.34 198.25,-584.55 79.48,-587.16 38.82,-580.95"/>
<polygon fill="black" stroke="black" points="39.89,-577.6 29.35,-578.69 38.27,-584.41 39.89,-577.6"/>
<text xml:space="preserve" text-anchor="middle" x="260.5" y="-555.29" font-family="Times,serif" font-size="14.00">tailport=se headport=n</text>
</g>
<!-- node53 -->
<g id="node15" class="node">
<title>node53</title>
<polygon fill="none" stroke="black" points="55.75,-505.34 0,-505.34 0,-469.34 55.75,-469.34 55.75,-505.34"/>
<text xml:space="preserve" text-anchor="middle" x="27.88" y="-482.29" font-family="Times,serif" font-size="14.00">node53</text>
</g>
<!-- node52&#45;&gt;node53 -->
<g id="edge42" class="edge">
<title>node52&#45;&gt;node53</title>
<path fill="none" stroke="black" d="M27.88,-542.16C27.88,-534.57 27.88,-525.45 27.88,-516.88"/>
<polygon fill="black" stroke="black" points="31.38,-516.89 27.88,-506.89 24.38,-516.89 31.38,-516.89"/>
</g>
<!-- node53&#45;&gt;node53 -->
<g id="edge43" class="edge">
<title>node53:se&#45;&gt;node53:ne</title>
<path fill="none" stroke="black" d="M55.75,-469.34C61.75,-464.78 73.75,-464.78 73.75,-487.34 73.75,-498.62 70.75,-504.27 67,-506.52"/>
<polygon fill="black" stroke="black" points="67.56,-503.06 57.26,-505.5 66.84,-510.02 67.56,-503.06"/>
<text xml:space="preserve" text-anchor="middle" x="139" y="-482.29" font-family="Times,serif" font-size="14.00">tailport=se headport=ne</text>
</g>
<!-- node53&#45;&gt;node53 -->
<g id="edge44" class="edge">
<title>node53:se&#45;&gt;node53:ne</title>
<path fill="none" stroke="black" d="M55.75,-469.34C67.75,-460.22 204.25,-460.22 204.25,-487.34 204.25,-510.87 101.6,-513.99 66.51,-508.45"/>
<polygon fill="black" stroke="black" points="67.78,-505.18 57.2,-505.76 65.84,-511.9 67.78,-505.18"/>
<text xml:space="preserve" text-anchor="middle" x="269.5" y="-482.29" font-family="Times,serif" font-size="14.00">tailport=se headport=ne</text>
</g>
<!-- node54 -->
<g id="node16" class="node">
<title>node54</title>
<polygon fill="none" stroke="black" points="55.75,-432.34 0,-432.34 0,-396.34 55.75,-396.34 55.75,-432.34"/>
<text xml:space="preserve" text-anchor="middle" x="27.88" y="-409.29" font-family="Times,serif" font-size="14.00">node54</text>
</g>
<!-- node53&#45;&gt;node54 -->
<g id="edge45" class="edge">
<title>node53&#45;&gt;node54</title>
<path fill="none" stroke="black" d="M27.88,-469.16C27.88,-461.57 27.88,-452.45 27.88,-443.88"/>
<polygon fill="black" stroke="black" points="31.38,-443.89 27.88,-433.89 24.38,-443.89 31.38,-443.89"/>
</g>
<!-- node54&#45;&gt;node54 -->
<g id="edge46" class="edge">
<title>node54:se&#45;&gt;node54:e</title>
<path fill="none" stroke="black" d="M55.75,-396.34C61.75,-391.78 73.75,-391.78 73.75,-405.34 73.75,-412.12 70.75,-415.52 67,-416.64"/>
<polygon fill="black" stroke="black" points="67.73,-413.22 57.23,-414.65 66.33,-420.08 67.73,-413.22"/>
<text xml:space="preserve" text-anchor="middle" x="135.62" y="-409.29" font-family="Times,serif" font-size="14.00">tailport=se headport=e</text>
</g>
<!-- node54&#45;&gt;node54 -->
<g id="edge47" class="edge">
<title>node54:se&#45;&gt;node54:e</title>
<path fill="none" stroke="black" d="M55.75,-396.34C67.75,-387.22 197.5,-387.22 197.5,-405.34 197.5,-420.99 100.8,-423.13 66.64,-417.55"/>
<polygon fill="black" stroke="black" points="67.78,-414.24 57.2,-414.77 65.81,-420.95 67.78,-414.24"/>
<text xml:space="preserve" text-anchor="middle" x="259.38" y="-409.29" font-family="Times,serif" font-size="14.00">tailport=se headport=e</text>
</g>
<!-- node56 -->
<g id="node17" class="node">
<title>node56</title>
<polygon fill="none" stroke="black" points="55.75,-359.34 0,-359.34 0,-323.34 55.75,-323.34 55.75,-359.34"/>
<text xml:space="preserve" text-anchor="middle" x="27.88" y="-336.29" font-family="Times,serif" font-size="14.00">node56</text>
</g>
<!-- node54&#45;&gt;node56 -->
<g id="edge48" class="edge">
<title>node54&#45;&gt;node56</title>
<path fill="none" stroke="black" d="M27.88,-396.16C27.88,-388.57 27.88,-379.45 27.88,-370.88"/>
<polygon fill="black" stroke="black" points="31.38,-370.89 27.88,-360.89 24.38,-370.89 31.38,-370.89"/>
</g>
<!-- node56&#45;&gt;node56 -->
<g id="edge49" class="edge">
<title>node56:se&#45;&gt;node56:s</title>
<path fill="none" stroke="black" d="M55.75,-323.34C61.75,-327.91 73.75,-327.91 73.75,-323.34 73.75,-319.71 54.33,-318.97 38.7,-321.13"/>
<polygon fill="black" stroke="black" points="38.45,-317.61 29.36,-323.04 39.86,-324.46 38.45,-317.61"/>
<text xml:space="preserve" text-anchor="middle" x="135.25" y="-336.29" font-family="Times,serif" font-size="14.00">tailport=se headport=s</text>
</g>
<!-- node56&#45;&gt;node56 -->
<g id="edge50" class="edge">
<title>node56:se&#45;&gt;node56:s</title>
<path fill="none" stroke="black" d="M55.75,-323.34C67.75,-332.47 196.75,-332.47 196.75,-323.34 196.75,-315.22 79.68,-314.33 39.04,-320.68"/>
<polygon fill="black" stroke="black" points="38.26,-317.26 29.35,-322.99 39.89,-324.07 38.26,-317.26"/>
<text xml:space="preserve" text-anchor="middle" x="258.25" y="-336.29" font-family="Times,serif" font-size="14.00">tailport=se headport=s</text>
</g>
<!-- node62 -->
<g id="node18" class="node">
<title>node62</title>
<polygon fill="none" stroke="black" points="55.75,-286.34 0,-286.34 0,-250.34 55.75,-250.34 55.75,-286.34"/>
<text xml:space="preserve" text-anchor="middle" x="27.88" y="-263.29" font-family="Times,serif" font-size="14.00">node62</text>
</g>
<!-- node56&#45;&gt;node62 -->
<g id="edge51" class="edge">
<title>node56&#45;&gt;node62</title>
<path fill="none" stroke="black" d="M27.88,-323.16C27.88,-315.57 27.88,-306.45 27.88,-297.88"/>
<polygon fill="black" stroke="black" points="31.38,-297.89 27.88,-287.89 24.38,-297.89 31.38,-297.89"/>
</g>
<!-- node62&#45;&gt;node62 -->
<g id="edge52" class="edge">
<title>node62:s&#45;&gt;node62:n</title>
<path fill="none" stroke="black" d="M27.88,-250.34C43.17,-245.78 73.75,-245.78 73.75,-268.34 73.75,-286.15 54.71,-289.9 39.16,-288.45"/>
<polygon fill="black" stroke="black" points="39.84,-285.02 29.36,-286.62 38.55,-291.9 39.84,-285.02"/>
<text xml:space="preserve" text-anchor="middle" x="133" y="-263.29" font-family="Times,serif" font-size="14.00">tailport=s headport=n</text>
</g>
<!-- node62&#45;&gt;node62 -->
<g id="edge53" class="edge">
<title>node62:s&#45;&gt;node62:n</title>
<path fill="none" stroke="black" d="M27.88,-250.34C49.17,-241.22 192.25,-241.22 192.25,-268.34 192.25,-292.5 78.75,-295.14 38.89,-288.99"/>
<polygon fill="black" stroke="black" points="39.89,-285.63 29.35,-286.7 38.25,-292.43 39.89,-285.63"/>
<text xml:space="preserve" text-anchor="middle" x="251.5" y="-263.29" font-family="Times,serif" font-size="14.00">tailport=s headport=n</text>
</g>
<!-- node63 -->
<g id="node19" class="node">
<title>node63</title>
<polygon fill="none" stroke="black" points="55.75,-213.34 0,-213.34 0,-177.34 55.75,-177.34 55.75,-213.34"/>
<text xml:space="preserve" text-anchor="middle" x="27.88" y="-190.29" font-family="Times,serif" font-size="14.00">node63</text>
</g>
<!-- node62&#45;&gt;node63 -->
<g id="edge54" class="edge">
<title>node62&#45;&gt;node63</title>
<path fill="none" stroke="black" d="M27.88,-250.16C27.88,-242.57 27.88,-233.45 27.88,-224.88"/>
<polygon fill="black" stroke="black" points="31.38,-224.89 27.88,-214.89 24.38,-224.89 31.38,-224.89"/>
</g>
<!-- node63&#45;&gt;node63 -->
<g id="edge55" class="edge">
<title>node63:s&#45;&gt;node63:ne</title>
<path fill="none" stroke="black" d="M27.88,-177.34C43.17,-172.78 73.75,-172.78 73.75,-195.34 73.75,-206.62 70.75,-212.27 67,-214.52"/>
<polygon fill="black" stroke="black" points="67.56,-211.06 57.26,-213.5 66.84,-218.02 67.56,-211.06"/>
<text xml:space="preserve" text-anchor="middle" x="136" y="-190.29" font-family="Times,serif" font-size="14.00">tailport=s headport=ne</text>
</g>
<!-- node63&#45;&gt;node63 -->
<g id="edge56" class="edge">
<title>node63:s&#45;&gt;node63:ne</title>
<path fill="none" stroke="black" d="M27.88,-177.34C49.17,-168.22 198.25,-168.22 198.25,-195.34 198.25,-218.76 100.99,-221.96 66.68,-216.53"/>
<polygon fill="black" stroke="black" points="67.78,-213.2 57.2,-213.77 65.82,-219.92 67.78,-213.2"/>
<text xml:space="preserve" text-anchor="middle" x="260.5" y="-190.29" font-family="Times,serif" font-size="14.00">tailport=s headport=ne</text>
</g>
<!-- node64 -->
<g id="node20" class="node">
<title>node64</title>
<polygon fill="none" stroke="black" points="55.75,-140.34 0,-140.34 0,-104.34 55.75,-104.34 55.75,-140.34"/>
<text xml:space="preserve" text-anchor="middle" x="27.88" y="-117.29" font-family="Times,serif" font-size="14.00">node64</text>
</g>
<!-- node63&#45;&gt;node64 -->
<g id="edge57" class="edge">
<title>node63&#45;&gt;node64</title>
<path fill="none" stroke="black" d="M27.88,-177.16C27.88,-169.57 27.88,-160.45 27.88,-151.88"/>
<polygon fill="black" stroke="black" points="31.38,-151.89 27.88,-141.89 24.38,-151.89 31.38,-151.89"/>
</g>
<!-- node64&#45;&gt;node64 -->
<g id="edge58" class="edge">
<title>node64:s&#45;&gt;node64:e</title>
<path fill="none" stroke="black" d="M27.88,-104.34C43.17,-99.78 73.75,-99.78 73.75,-113.34 73.75,-120.12 70.75,-123.52 67,-124.64"/>
<polygon fill="black" stroke="black" points="67.73,-121.22 57.23,-122.65 66.33,-128.08 67.73,-121.22"/>
<text xml:space="preserve" text-anchor="middle" x="132.62" y="-117.29" font-family="Times,serif" font-size="14.00">tailport=s headport=e</text>
</g>
<!-- node64&#45;&gt;node64 -->
<g id="edge59" class="edge">
<title>node64:s&#45;&gt;node64:e</title>
<path fill="none" stroke="black" d="M27.88,-104.34C49.17,-95.22 191.5,-95.22 191.5,-113.34 191.5,-128.99 99.27,-131.13 66.34,-125.55"/>
<polygon fill="black" stroke="black" points="67.78,-122.33 57.2,-122.78 65.75,-129.03 67.78,-122.33"/>
<text xml:space="preserve" text-anchor="middle" x="250.38" y="-117.29" font-family="Times,serif" font-size="14.00">tailport=s headport=e</text>
</g>
<!-- node65 -->
<g id="node21" class="node">
<title>node65</title>
<polygon fill="none" stroke="black" points="55.75,-67.34 0,-67.34 0,-31.34 55.75,-31.34 55.75,-67.34"/>
<text xml:space="preserve" text-anchor="middle" x="27.88" y="-44.29" font-family="Times,serif" font-size="14.00">node65</text>
</g>
<!-- node64&#45;&gt;node65 -->
<g id="edge60" class="edge">
<title>node64&#45;&gt;node65</title>
<path fill="none" stroke="black" d="M27.88,-104.16C27.88,-96.57 27.88,-87.45 27.88,-78.88"/>
<polygon fill="black" stroke="black" points="31.38,-78.89 27.88,-68.89 24.38,-78.89 31.38,-78.89"/>
</g>
<!-- node65&#45;&gt;node65 -->
<g id="edge61" class="edge">
<title>node65:s&#45;&gt;node65:se</title>
<path fill="none" stroke="black" d="M27.88,-31.34C43.17,-26.78 73.75,-26.78 73.75,-31.34 73.75,-33.7 70.56,-34.84 66.65,-34.76"/>
<polygon fill="black" stroke="black" points="67.78,-31.45 57.19,-31.8 65.69,-38.13 67.78,-31.45"/>
<text xml:space="preserve" text-anchor="middle" x="135.25" y="-44.29" font-family="Times,serif" font-size="14.00">tailport=s headport=se</text>
</g>
<!-- node65&#45;&gt;node65 -->
<g id="edge62" class="edge">
<title>node65:s&#45;&gt;node65:se</title>
<path fill="none" stroke="black" d="M27.88,-31.34C49.17,-22.22 196.75,-22.22 196.75,-31.34 196.75,-39.22 100.61,-40.3 66.6,-34.57"/>
<polygon fill="black" stroke="black" points="67.78,-31.27 57.2,-31.78 65.79,-37.98 67.78,-31.27"/>
<text xml:space="preserve" text-anchor="middle" x="258.25" y="-44.29" font-family="Times,serif" font-size="14.00">tailport=s headport=se</text>
</g>
</g>
</svg>
