<?xml version="1.0" encoding="UTF-8" standalone="no"?>
<!DOCTYPE svg PUBLIC "-//W3C//DTD SVG 1.1//EN"
 "http://www.w3.org/Graphics/SVG/1.1/DTD/svg11.dtd">
<!-- Generated by graphviz version 14.1.1 (20251213.1925)
 -->
<!-- Title: G Pages: 1 -->
<svg width="238pt" height="2412pt"
 viewBox="0.00 0.00 238.00 2412.00" xmlns="http://www.w3.org/2000/svg" xmlns:xlink="http://www.w3.org/1999/xlink">
<g id="graph0" class="graph" transform="scale(1 1) rotate(0) translate(4 2408.32)">
<title>G</title>
<polygon fill="white" stroke="none" points="-4,4 -4,-2408.32 233.67,-2408.32 233.67,4 -4,4"/>
<text xml:space="preserve" text-anchor="middle" x="114.83" y="-7.2" font-family="Times,serif" font-size="14.00">SelfRight</text>
<!-- node23 -->
<g id="node1" class="node">
<title>node23</title>
<ellipse fill="none" stroke="black" cx="39.04" cy="-2365.28" rx="39.04" ry="39.04"/>
<text xml:space="preserve" text-anchor="middle" x="39.04" y="-2360.23" font-family="Times,serif" font-size="14.00">node23</text>
</g>
<!-- node23&#45;&gt;node23 -->
<g id="edge1" class="edge">
<title>node23:n&#45;&gt;node23:ne</title>
<path fill="none" stroke="black" d="M76.89,-2376.03C87.73,-2375.6 96.09,-2372.02 96.09,-2365.28 96.09,-2361.17 92.98,-2358.23 88.11,-2356.47"/>
<polygon fill="black" stroke="black" points="88.84,-2353.05 78.39,-2354.79 87.64,-2359.94 88.84,-2353.05"/>
<text xml:space="preserve" text-anchor="middle" x="160.55" y="-2360.23" font-family="Times,serif" font-size="14.00">tailport=n headport=ne</text>
</g>
<!-- node24 -->
<g id="node2" class="node">
<title>node24</title>
<ellipse fill="none" stroke="black" cx="39.04" cy="-2250.19" rx="39.04" ry="39.04"/>
<text xml:space="preserve" text-anchor="middle" x="39.04" y="-2245.14" font-family="Times,serif" font-size="14.00">node24</text>
</g>
<!-- node23&#45;&gt;node24 -->
<g id="edge2" class="edge">
<title>node23&#45;&gt;node24</title>
<path fill="none" stroke="black" d="M39.04,-2325.99C39.04,-2317.89 39.04,-2309.22 39.04,-2300.76"/>
<polygon fill="black" stroke="black" points="42.54,-2300.95 39.04,-2290.95 35.54,-2300.95 42.54,-2300.95"/>
</g>
<!-- node24&#45;&gt;node24 -->
<g id="edge3" class="edge">
<title>node24:n&#45;&gt;node24:e</title>
<path fill="none" stroke="black" d="M76.89,-2260.94C87.73,-2260.52 96.09,-2256.93 96.09,-2250.19 96.09,-2246.08 92.98,-2243.15 88.11,-2241.38"/>
<polygon fill="black" stroke="black" points="88.84,-2237.96 78.39,-2239.7 87.64,-2244.86 88.84,-2237.96"/>
<text xml:space="preserve" text-anchor="middle" x="157.05" y="-2245.14" font-family="Times,serif" font-size="14.00">tailport=n headport=e</text>
</g>
<!-- node25 -->
<g id="node3" class="node">
<title>node25</title>
<ellipse fill="none" stroke="black" cx="39.04" cy="-2135.1" rx="39.04" ry="39.04"/>
<text xml:space="preserve" text-anchor="middle" x="39.04" y="-2130.05" font-family="Times,serif" font-size="14.00">node25</text>
</g>
<!-- node24&#45;&gt;node25 -->
<g id="edge4" class="edge">
<title>node24&#45;&gt;node25</title>
<path fill="none" stroke="black" d="M39.04,-2210.91C39.04,-2202.8 39.04,-2194.13 39.04,-2185.68"/>
<polygon fill="black" stroke="black" points="42.54,-2185.86 39.04,-2175.86 35.54,-2185.86 42.54,-2185.86"/>
</g>
<!-- node25&#45;&gt;node25 -->
<g id="edge5" class="edge">
<title>node25:n&#45;&gt;node25:se</title>
<path fill="none" stroke="black" d="M76.89,-2145.85C87.73,-2145.43 96.09,-2141.85 96.09,-2135.1 96.09,-2131 92.98,-2128.06 88.11,-2126.3"/>
<polygon fill="black" stroke="black" points="88.84,-2122.87 78.39,-2124.62 87.64,-2129.77 88.84,-2122.87"/>
<text xml:space="preserve" text-anchor="middle" x="159.77" y="-2130.05" font-family="Times,serif" font-size="14.00">tailport=n headport=se</text>
</g>
<!-- node26 -->
<g id="node4" class="node">
<title>node26</title>
<ellipse fill="none" stroke="black" cx="39.04" cy="-2020.02" rx="39.04" ry="39.04"/>
<text xml:space="preserve" text-anchor="middle" x="39.04" y="-2014.97" font-family="Times,serif" font-size="14.00">node26</text>
</g>
<!-- node25&#45;&gt;node26 -->
<g id="edge6" class="edge">
<title>node25&#45;&gt;node26</title>
<path fill="none" stroke="black" d="M39.04,-2095.82C39.04,-2087.71 39.04,-2079.05 39.04,-2070.59"/>
<polygon fill="black" stroke="black" points="42.54,-2070.78 39.04,-2060.78 35.54,-2070.78 42.54,-2070.78"/>
</g>
<!-- node26&#45;&gt;node26 -->
<g id="edge7" class="edge">
<title>node26:n&#45;&gt;node26:s</title>
<path fill="none" stroke="black" d="M76.89,-2030.76C87.73,-2030.34 96.09,-2026.76 96.09,-2020.02 96.09,-2015.91 92.98,-2012.97 88.11,-2011.21"/>
<polygon fill="black" stroke="black" points="88.84,-2007.79 78.39,-2009.53 87.64,-2014.68 88.84,-2007.79"/>
<text xml:space="preserve" text-anchor="middle" x="156.66" y="-2014.97" font-family="Times,serif" font-size="14.00">tailport=n headport=s</text>
</g>
<!-- node32 -->
<g id="node5" class="node">
<title>node32</title>
<ellipse fill="none" stroke="black" cx="39.04" cy="-1904.93" rx="39.04" ry="39.04"/>
<text xml:space="preserve" text-anchor="middle" x="39.04" y="-1899.88" font-family="Times,serif" font-size="14.00">node32</text>
</g>
<!-- node26&#45;&gt;node32 -->
<g id="edge8" class="edge">
<title>node26&#45;&gt;node32</title>
<path fill="none" stroke="black" d="M39.04,-1980.73C39.04,-1972.63 39.04,-1963.96 39.04,-1955.5"/>
<polygon fill="black" stroke="black" points="42.54,-1955.69 39.04,-1945.69 35.54,-1955.69 42.54,-1955.69"/>
</g>
<!-- node32&#45;&gt;node32 -->
<g id="edge9" class="edge">
<title>node32:ne&#45;&gt;node32:n</title>
<path fill="none" stroke="black" d="M76.89,-1915.68C87.73,-1915.26 96.09,-1911.67 96.09,-1904.93 96.09,-1900.82 92.98,-1897.89 88.11,-1896.12"/>
<polygon fill="black" stroke="black" points="88.84,-1892.7 78.39,-1894.44 87.64,-1899.6 88.84,-1892.7"/>
<text xml:space="preserve" text-anchor="middle" x="160.55" y="-1899.88" font-family="Times,serif" font-size="14.00">tailport=ne headport=n</text>
</g>
<!-- node34 -->
<g id="node6" class="node">
<title>node34</title>
<ellipse fill="none" stroke="black" cx="39.04" cy="-1789.84" rx="39.04" ry="39.04"/>
<text xml:space="preserve" text-anchor="middle" x="39.04" y="-1784.79" font-family="Times,serif" font-size="14.00">node34</text>
</g>
<!-- node32&#45;&gt;node34 -->
<g id="edge10" class="edge">
<title>node32&#45;&gt;node34</title>
<path fill="none" stroke="black" d="M39.04,-1865.64C39.04,-1857.54 39.04,-1848.87 39.04,-1840.42"/>
<polygon fill="black" stroke="black" points="42.54,-1840.6 39.04,-1830.6 35.54,-1840.6 42.54,-1840.6"/>
</g>
<!-- node34&#45;&gt;node34 -->
<g id="edge11" class="edge">
<title>node34:ne&#45;&gt;node34:e</title>
<path fill="none" stroke="black" d="M76.89,-1800.59C87.73,-1800.17 96.09,-1796.59 96.09,-1789.84 96.09,-1785.73 92.98,-1782.8 88.11,-1781.04"/>
<polygon fill="black" stroke="black" points="88.84,-1777.61 78.39,-1779.36 87.64,-1784.51 88.84,-1777.61"/>
<text xml:space="preserve" text-anchor="middle" x="160.15" y="-1784.79" font-family="Times,serif" font-size="14.00">tailport=ne headport=e</text>
</g>
<!-- node35 -->
<g id="node7" class="node">
<title>node35</title>
<ellipse fill="none" stroke="black" cx="39.04" cy="-1674.76" rx="39.04" ry="39.04"/>
<text xml:space="preserve" text-anchor="middle" x="39.04" y="-1669.71" font-family="Times,serif" font-size="14.00">node35</text>
</g>
<!-- node34&#45;&gt;node35 -->
<g id="edge12" class="edge">
<title>node34&#45;&gt;node35</title>
<path fill="none" stroke="black" d="M39.04,-1750.56C39.04,-1742.45 39.04,-1733.79 39.04,-1725.33"/>
<polygon fill="black" stroke="black" points="42.54,-1725.52 39.04,-1715.52 35.54,-1725.52 42.54,-1725.52"/>
</g>
<!-- node35&#45;&gt;node35 -->
<g id="edge13" class="edge">
<title>node35:ne&#45;&gt;node35:se</title>
<path fill="none" stroke="black" d="M76.89,-1685.5C87.73,-1685.08 96.09,-1681.5 96.09,-1674.76 96.09,-1670.65 92.98,-1667.71 88.11,-1665.95"/>
<polygon fill="black" stroke="black" points="88.84,-1662.53 78.39,-1664.27 87.64,-1669.42 88.84,-1662.53"/>
<text xml:space="preserve" text-anchor="middle" x="162.88" y="-1669.71" font-family="Times,serif" font-size="14.00">tailport=ne headport=se</text>
</g>
<!-- node36 -->
<g id="node8" class="node">
<title>node36</title>
<ellipse fill="none" stroke="black" cx="39.04" cy="-1559.67" rx="39.04" ry="39.04"/>
<text xml:space="preserve" text-anchor="middle" x="39.04" y="-1554.62" font-family="Times,serif" font-size="14.00">node36</text>
</g>
<!-- node35&#45;&gt;node36 -->
<g id="edge14" class="edge">
<title>node35&#45;&gt;node36</title>
<path fill="none" stroke="black" d="M39.04,-1635.47C39.04,-1627.37 39.04,-1618.7 39.04,-1610.24"/>
<polygon fill="black" stroke="black" points="42.54,-1610.43 39.04,-1600.43 35.54,-1610.43 42.54,-1610.43"/>
</g>
<!-- node36&#45;&gt;node36 -->
<g id="edge15" class="edge">
<title>node36:ne&#45;&gt;node36:s</title>
<path fill="none" stroke="black" d="M76.89,-1570.42C87.73,-1570 96.09,-1566.41 96.09,-1559.67 96.09,-1555.56 92.98,-1552.63 88.11,-1550.86"/>
<polygon fill="black" stroke="black" points="88.84,-1547.44 78.39,-1549.18 87.64,-1554.34 88.84,-1547.44"/>
<text xml:space="preserve" text-anchor="middle" x="159.77" y="-1554.62" font-family="Times,serif" font-size="14.00">tailport=ne headport=s</text>
</g>
<!-- node42 -->
<g id="node9" class="node">
<title>node42</title>
<ellipse fill="none" stroke="black" cx="39.04" cy="-1444.58" rx="39.04" ry="39.04"/>
<text xml:space="preserve" text-anchor="middle" x="39.04" y="-1439.53" font-family="Times,serif" font-size="14.00">node42</text>
</g>
<!-- node36&#45;&gt;node42 -->
<g id="edge16" class="edge">
<title>node36&#45;&gt;node42</title>
<path fill="none" stroke="black" d="M39.04,-1520.38C39.04,-1512.28 39.04,-1503.61 39.04,-1495.16"/>
<polygon fill="black" stroke="black" points="42.54,-1495.34 39.04,-1485.34 35.54,-1495.34 42.54,-1495.34"/>
</g>
<!-- node42&#45;&gt;node42 -->
<g id="edge17" class="edge">
<title>node42:e&#45;&gt;node42:n</title>
<path fill="none" stroke="black" d="M76.89,-1455.33C87.73,-1454.91 96.09,-1451.33 96.09,-1444.58 96.09,-1440.47 92.98,-1437.54 88.11,-1435.78"/>
<polygon fill="black" stroke="black" points="88.84,-1432.35 78.39,-1434.09 87.64,-1439.25 88.84,-1432.35"/>
<text xml:space="preserve" text-anchor="middle" x="157.05" y="-1439.53" font-family="Times,serif" font-size="14.00">tailport=e headport=n</text>
</g>
<!-- node43 -->
<g id="node10" class="node">
<title>node43</title>
<ellipse fill="none" stroke="black" cx="39.04" cy="-1329.5" rx="39.04" ry="39.04"/>
<text xml:space="preserve" text-anchor="middle" x="39.04" y="-1324.45" font-family="Times,serif" font-size="14.00">node43</text>
</g>
<!-- node42&#45;&gt;node43 -->
<g id="edge18" class="edge">
<title>node42&#45;&gt;node43</title>
<path fill="none" stroke="black" d="M39.04,-1405.3C39.04,-1397.19 39.04,-1388.53 39.04,-1380.07"/>
<polygon fill="black" stroke="black" points="42.54,-1380.26 39.04,-1370.26 35.54,-1380.26 42.54,-1380.26"/>
</g>
<!-- node43&#45;&gt;node43 -->
<g id="edge19" class="edge">
<title>node43:e&#45;&gt;node43:ne</title>
<path fill="none" stroke="black" d="M76.89,-1340.24C87.73,-1339.82 96.09,-1336.24 96.09,-1329.5 96.09,-1325.39 92.98,-1322.45 88.11,-1320.69"/>
<polygon fill="black" stroke="black" points="88.84,-1317.27 78.39,-1319.01 87.64,-1324.16 88.84,-1317.27"/>
<text xml:space="preserve" text-anchor="middle" x="160.15" y="-1324.45" font-family="Times,serif" font-size="14.00">tailport=e headport=ne</text>
</g>
<!-- node44 -->
<g id="node11" class="node">
<title>node44</title>
<ellipse fill="none" stroke="black" cx="39.04" cy="-1214.41" rx="39.04" ry="39.04"/>
<text xml:space="preserve" text-anchor="middle" x="39.04" y="-1209.36" font-family="Times,serif" font-size="14.00">node44</text>
</g>
<!-- node43&#45;&gt;node44 -->
<g id="edge20" class="edge">
<title>node43&#45;&gt;node44</title>
<path fill="none" stroke="black" d="M39.04,-1290.21C39.04,-1282.11 39.04,-1273.44 39.04,-1264.98"/>
<polygon fill="black" stroke="black" points="42.54,-1265.17 39.04,-1255.17 35.54,-1265.17 42.54,-1265.17"/>
</g>
<!-- node44&#45;&gt;node44 -->
<g id="edge21" class="edge">
<title>node44:e&#45;&gt;node44:e</title>
<path fill="none" stroke="black" d="M76.89,-1225.16C87.73,-1224.74 96.09,-1221.15 96.09,-1214.41 96.09,-1210.3 92.98,-1207.37 88.11,-1205.6"/>
<polygon fill="black" stroke="black" points="88.84,-1202.18 78.39,-1203.92 87.64,-1209.08 88.84,-1202.18"/>
<text xml:space="preserve" text-anchor="middle" x="156.65" y="-1209.36" font-family="Times,serif" font-size="14.00">tailport=e headport=e</text>
</g>
<!-- node45 -->
<g id="node12" class="node">
<title>node45</title>
<ellipse fill="none" stroke="black" cx="39.04" cy="-1099.32" rx="39.04" ry="39.04"/>
<text xml:space="preserve" text-anchor="middle" x="39.04" y="-1094.27" font-family="Times,serif" font-size="14.00">node45</text>
</g>
<!-- node44&#45;&gt;node45 -->
<g id="edge22" class="edge">
<title>node44&#45;&gt;node45</title>
<path fill="none" stroke="black" d="M39.04,-1175.12C39.04,-1167.02 39.04,-1158.35 39.04,-1149.9"/>
<polygon fill="black" stroke="black" points="42.54,-1150.08 39.04,-1140.08 35.54,-1150.08 42.54,-1150.08"/>
</g>
<!-- node45&#45;&gt;node45 -->
<g id="edge23" class="edge">
<title>node45:e&#45;&gt;node45:se</title>
<path fill="none" stroke="black" d="M76.89,-1110.07C87.73,-1109.65 96.09,-1106.07 96.09,-1099.32 96.09,-1095.21 92.98,-1092.28 88.11,-1090.52"/>
<polygon fill="black" stroke="black" points="88.84,-1087.09 78.39,-1088.83 87.64,-1093.99 88.84,-1087.09"/>
<text xml:space="preserve" text-anchor="middle" x="159.38" y="-1094.27" font-family="Times,serif" font-size="14.00">tailport=e headport=se</text>
</g>
<!-- node46 -->
<g id="node13" class="node">
<title>node46</title>
<ellipse fill="none" stroke="black" cx="39.04" cy="-984.24" rx="39.04" ry="39.04"/>
<text xml:space="preserve" text-anchor="middle" x="39.04" y="-979.19" font-family="Times,serif" font-size="14.00">node46</text>
</g>
<!-- node45&#45;&gt;node46 -->
<g id="edge24" class="edge">
<title>node45&#45;&gt;node46</title>
<path fill="none" stroke="black" d="M39.04,-1060.04C39.04,-1051.93 39.04,-1043.27 39.04,-1034.81"/>
<polygon fill="black" stroke="black" points="42.54,-1035 39.04,-1025 35.54,-1035 42.54,-1035"/>
</g>
<!-- node46&#45;&gt;node46 -->
<g id="edge25" class="edge">
<title>node46:e&#45;&gt;node46:s</title>
<path fill="none" stroke="black" d="M76.89,-994.98C87.73,-994.56 96.09,-990.98 96.09,-984.24 96.09,-980.13 92.98,-977.19 88.11,-975.43"/>
<polygon fill="black" stroke="black" points="88.84,-972 78.39,-973.75 87.64,-978.9 88.84,-972"/>
<text xml:space="preserve" text-anchor="middle" x="156.27" y="-979.19" font-family="Times,serif" font-size="14.00">tailport=e headport=s</text>
</g>
<!-- node52 -->
<g id="node14" class="node">
<title>node52</title>
<ellipse fill="none" stroke="black" cx="39.04" cy="-869.15" rx="39.04" ry="39.04"/>
<text xml:space="preserve" text-anchor="middle" x="39.04" y="-864.1" font-family="Times,serif" font-size="14.00">node52</text>
</g>
<!-- node46&#45;&gt;node52 -->
<g id="edge26" class="edge">
<title>node46&#45;&gt;node52</title>
<path fill="none" stroke="black" d="M39.04,-944.95C39.04,-936.85 39.04,-928.18 39.04,-919.72"/>
<polygon fill="black" stroke="black" points="42.54,-919.91 39.04,-909.91 35.54,-919.91 42.54,-919.91"/>
</g>
<!-- node52&#45;&gt;node52 -->
<g id="edge27" class="edge">
<title>node52:se&#45;&gt;node52:n</title>
<path fill="none" stroke="black" d="M76.89,-879.9C87.73,-879.48 96.09,-875.89 96.09,-869.15 96.09,-865.04 92.98,-862.11 88.11,-860.34"/>
<polygon fill="black" stroke="black" points="88.84,-856.92 78.39,-858.66 87.64,-863.82 88.84,-856.92"/>
<text xml:space="preserve" text-anchor="middle" x="159.77" y="-864.1" font-family="Times,serif" font-size="14.00">tailport=se headport=n</text>
</g>
<!-- node53 -->
<g id="node15" class="node">
<title>node53</title>
<ellipse fill="none" stroke="black" cx="39.04" cy="-754.06" rx="39.04" ry="39.04"/>
<text xml:space="preserve" text-anchor="middle" x="39.04" y="-749.01" font-family="Times,serif" font-size="14.00">node53</text>
</g>
<!-- node52&#45;&gt;node53 -->
<g id="edge28" class="edge">
<title>node52&#45;&gt;node53</title>
<path fill="none" stroke="black" d="M39.04,-829.86C39.04,-821.76 39.04,-813.09 39.04,-804.64"/>
<polygon fill="black" stroke="black" points="42.54,-804.82 39.04,-794.82 35.54,-804.82 42.54,-804.82"/>
</g>
<!-- node53&#45;&gt;node53 -->
<g id="edge29" class="edge">
<title>node53:se&#45;&gt;node53:ne</title>
<path fill="none" stroke="black" d="M76.89,-764.81C87.73,-764.39 96.09,-760.81 96.09,-754.06 96.09,-749.95 92.98,-747.02 88.11,-745.26"/>
<polygon fill="black" stroke="black" points="88.84,-741.83 78.39,-743.57 87.64,-748.73 88.84,-741.83"/>
<text xml:space="preserve" text-anchor="middle" x="162.88" y="-749.01" font-family="Times,serif" font-size="14.00">tailport=se headport=ne</text>
</g>
<!-- node54 -->
<g id="node16" class="node">
<title>node54</title>
<ellipse fill="none" stroke="black" cx="39.04" cy="-638.98" rx="39.04" ry="39.04"/>
<text xml:space="preserve" text-anchor="middle" x="39.04" y="-633.93" font-family="Times,serif" font-size="14.00">node54</text>
</g>
<!-- node53&#45;&gt;node54 -->
<g id="edge30" class="edge">
<title>node53&#45;&gt;node54</title>
<path fill="none" stroke="black" d="M39.04,-714.78C39.04,-706.67 39.04,-698.01 39.04,-689.55"/>
<polygon fill="black" stroke="black" points="42.54,-689.74 39.04,-679.74 35.54,-689.74 42.54,-689.74"/>
</g>
<!-- node54&#45;&gt;node54 -->
<g id="edge31" class="edge">
<title>node54:se&#45;&gt;node54:e</title>
<path fill="none" stroke="black" d="M76.89,-649.72C87.73,-649.3 96.09,-645.72 96.09,-638.98 96.09,-634.87 92.98,-631.93 88.11,-630.17"/>
<polygon fill="black" stroke="black" points="88.84,-626.74 78.39,-628.49 87.64,-633.64 88.84,-626.74"/>
<text xml:space="preserve" text-anchor="middle" x="159.38" y="-633.93" font-family="Times,serif" font-size="14.00">tailport=se headport=e</text>
</g>
<!-- node56 -->
<g id="node17" class="node">
<title>node56</title>
<ellipse fill="none" stroke="black" cx="39.04" cy="-523.89" rx="39.04" ry="39.04"/>
<text xml:space="preserve" text-anchor="middle" x="39.04" y="-518.84" font-family="Times,serif" font-size="14.00">node56</text>
</g>
<!-- node54&#45;&gt;node56 -->
<g id="edge32" class="edge">
<title>node54&#45;&gt;node56</title>
<path fill="none" stroke="black" d="M39.04,-599.69C39.04,-591.59 39.04,-582.92 39.04,-574.46"/>
<polygon fill="black" stroke="black" points="42.54,-574.65 39.04,-564.65 35.54,-574.65 42.54,-574.65"/>
</g>
<!-- node56&#45;&gt;node56 -->
<g id="edge33" class="edge">
<title>node56:se&#45;&gt;node56:s</title>
<path fill="none" stroke="black" d="M76.89,-534.64C87.73,-534.22 96.09,-530.63 96.09,-523.89 96.09,-519.78 92.98,-516.85 88.11,-515.08"/>
<polygon fill="black" stroke="black" points="88.84,-511.66 78.39,-513.4 87.64,-518.56 88.84,-511.66"/>
<text xml:space="preserve" text-anchor="middle" x="158.99" y="-518.84" font-family="Times,serif" font-size="14.00">tailport=se headport=s</text>
</g>
<!-- node62 -->
<g id="node18" class="node">
<title>node62</title>
<ellipse fill="none" stroke="black" cx="39.04" cy="-408.8" rx="39.04" ry="39.04"/>
<text xml:space="preserve" text-anchor="middle" x="39.04" y="-403.75" font-family="Times,serif" font-size="14.00">node62</text>
</g>
<!-- node56&#45;&gt;node62 -->
<g id="edge34" class="edge">
<title>node56&#45;&gt;node62</title>
<path fill="none" stroke="black" d="M39.04,-484.6C39.04,-476.5 39.04,-467.83 39.04,-459.38"/>
<polygon fill="black" stroke="black" points="42.54,-459.56 39.04,-449.56 35.54,-459.56 42.54,-459.56"/>
</g>
<!-- node62&#45;&gt;node62 -->
<g id="edge35" class="edge">
<title>node62:s&#45;&gt;node62:n</title>
<path fill="none" stroke="black" d="M76.89,-419.55C87.73,-419.13 96.09,-415.55 96.09,-408.8 96.09,-404.69 92.98,-401.76 88.11,-400"/>
<polygon fill="black" stroke="black" points="88.84,-396.57 78.39,-398.31 87.64,-403.47 88.84,-396.57"/>
<text xml:space="preserve" text-anchor="middle" x="156.66" y="-403.75" font-family="Times,serif" font-size="14.00">tailport=s headport=n</text>
</g>
<!-- node63 -->
<g id="node19" class="node">
<title>node63</title>
<ellipse fill="none" stroke="black" cx="39.04" cy="-293.72" rx="39.04" ry="39.04"/>
<text xml:space="preserve" text-anchor="middle" x="39.04" y="-288.67" font-family="Times,serif" font-size="14.00">node63</text>
</g>
<!-- node62&#45;&gt;node63 -->
<g id="edge36" class="edge">
<title>node62&#45;&gt;node63</title>
<path fill="none" stroke="black" d="M39.04,-369.52C39.04,-361.41 39.04,-352.75 39.04,-344.29"/>
<polygon fill="black" stroke="black" points="42.54,-344.48 39.04,-334.48 35.54,-344.48 42.54,-344.48"/>
</g>
<!-- node63&#45;&gt;node63 -->
<g id="edge37" class="edge">
<title>node63:s&#45;&gt;node63:ne</title>
<path fill="none" stroke="black" d="M76.89,-304.46C87.73,-304.04 96.09,-300.46 96.09,-293.72 96.09,-289.61 92.98,-286.67 88.11,-284.91"/>
<polygon fill="black" stroke="black" points="88.84,-281.48 78.39,-283.23 87.64,-288.38 88.84,-281.48"/>
<text xml:space="preserve" text-anchor="middle" x="159.77" y="-288.67" font-family="Times,serif" font-size="14.00">tailport=s headport=ne</text>
</g>
<!-- node64 -->
<g id="node20" class="node">
<title>node64</title>
<ellipse fill="none" stroke="black" cx="39.04" cy="-178.63" rx="39.04" ry="39.04"/>
<text xml:space="preserve" text-anchor="middle" x="39.04" y="-173.58" font-family="Times,serif" font-size="14.00">node64</text>
</g>
<!-- node63&#45;&gt;node64 -->
<g id="edge38" class="edge">
<title>node63&#45;&gt;node64</title>
<path fill="none" stroke="black" d="M39.04,-254.43C39.04,-246.33 39.04,-237.66 39.04,-229.2"/>
<polygon fill="black" stroke="black" points="42.54,-229.39 39.04,-219.39 35.54,-229.39 42.54,-229.39"/>
</g>
<!-- node64&#45;&gt;node64 -->
<g id="edge39" class="edge">
<title>node64:s&#45;&gt;node64:e</title>
<path fill="none" stroke="black" d="M76.89,-189.38C87.73,-188.96 96.09,-185.37 96.09,-178.63 96.09,-174.52 92.98,-171.59 88.11,-169.82"/>
<polygon fill="black" stroke="black" points="88.84,-166.4 78.39,-168.14 87.64,-173.3 88.84,-166.4"/>
<text xml:space="preserve" text-anchor="middle" x="156.27" y="-173.58" font-family="Times,serif" font-size="14.00">tailport=s headport=e</text>
</g>
<!-- node65 -->
<g id="node21" class="node">
<title>node65</title>
<ellipse fill="none" stroke="black" cx="39.04" cy="-63.54" rx="39.04" ry="39.04"/>
<text xml:space="preserve" text-anchor="middle" x="39.04" y="-58.49" font-family="Times,serif" font-size="14.00">node65</text>
</g>
<!-- node64&#45;&gt;node65 -->
<g id="edge40" class="edge">
<title>node64&#45;&gt;node65</title>
<path fill="none" stroke="black" d="M39.04,-139.34C39.04,-131.24 39.04,-122.57 39.04,-114.12"/>
<polygon fill="black" stroke="black" points="42.54,-114.3 39.04,-104.3 35.54,-114.3 42.54,-114.3"/>
</g>
<!-- node65&#45;&gt;node65 -->
<g id="edge41" class="edge">
<title>node65:s&#45;&gt;node65:se</title>
<path fill="none" stroke="black" d="M76.89,-74.29C87.73,-73.87 96.09,-70.29 96.09,-63.54 96.09,-59.43 92.98,-56.5 88.11,-54.74"/>
<polygon fill="black" stroke="black" points="88.84,-51.31 78.39,-53.05 87.64,-58.21 88.84,-51.31"/>
<text xml:space="preserve" text-anchor="middle" x="158.99" y="-58.49" font-family="Times,serif" font-size="14.00">tailport=s headport=se</text>
</g>
</g>
</svg>
