<?xml version="1.0" encoding="UTF-8" standalone="no"?>
<!DOCTYPE svg PUBLIC "-//W3C//DTD SVG 1.1//EN"
 "http://www.w3.org/Graphics/SVG/1.1/DTD/svg11.dtd">
<!-- Generated by graphviz version 14.1.1 (20251213.1925)
 -->
<!-- Title: G Pages: 1 -->
<svg width="433pt" height="310pt"
 viewBox="0.00 0.00 433.00 310.00" xmlns="http://www.w3.org/2000/svg" xmlns:xlink="http://www.w3.org/1999/xlink">
<g id="graph0" class="graph" transform="scale(1 1) rotate(0) translate(4 305.6)">
<title>G</title>
<polygon fill="#808080" stroke="none" points="-4,4 -4,-305.6 428.8,-305.6 428.8,4 -4,4"/>
<!-- 1 -->
<!-- a -->
<g id="node17" class="node">
<title>a</title>
<ellipse fill="none" stroke="black" cx="68.4" cy="-290.8" rx="10.8" ry="10.8"/>
</g>
<!-- 1&#45;&gt;a -->
<g id="edge1" class="edge">
<title>1&#45;&gt;a</title>
<path fill="none" stroke="#0000ff" d="M22,-290.8C32.03,-290.8 47.26,-290.8 57.27,-290.8"/>
</g>
<!-- 2 -->
<!-- b -->
<g id="node18" class="node">
<title>b</title>
<ellipse fill="none" stroke="black" cx="68.4" cy="-250.8" rx="10.8" ry="10.8"/>
</g>
<!-- 2&#45;&gt;b -->
<g id="edge4" class="edge">
<title>2&#45;&gt;b</title>
<path fill="none" stroke="#ff0000" d="M22,-250.8C32.03,-250.8 47.26,-250.8 57.27,-250.8"/>
</g>
<!-- 3 -->
<!-- c -->
<g id="node19" class="node">
<title>c</title>
<ellipse fill="none" stroke="black" cx="68.4" cy="-210.8" rx="10.8" ry="10.8"/>
</g>
<!-- 3&#45;&gt;c -->
<g id="edge7" class="edge">
<title>3&#45;&gt;c</title>
<path fill="none" stroke="#ffff00" d="M22,-210.8C32.03,-210.8 47.26,-210.8 57.27,-210.8"/>
</g>
<!-- 4 -->
<!-- d -->
<g id="node20" class="node">
<title>d</title>
<ellipse fill="none" stroke="black" cx="68.4" cy="-170.8" rx="10.8" ry="10.8"/>
</g>
<!-- 4&#45;&gt;d -->
<g id="edge10" class="edge">
<title>4&#45;&gt;d</title>
<path fill="none" stroke="#00ff00" d="M22,-170.8C32.03,-170.8 47.26,-170.8 57.27,-170.8"/>
</g>
<!-- 5 -->
<!-- e -->
<g id="node21" class="node">
<title>e</title>
<ellipse fill="none" stroke="black" cx="68.4" cy="-130.8" rx="10.8" ry="10.8"/>
</g>
<!-- 5&#45;&gt;e -->
<g id="edge13" class="edge">
<title>5&#45;&gt;e</title>
<path fill="none" stroke="#000000" d="M22,-130.8C32.03,-130.8 47.26,-130.8 57.27,-130.8"/>
</g>
<!-- 6 -->
<!-- f -->
<g id="node22" class="node">
<title>f</title>
<ellipse fill="none" stroke="black" cx="68.4" cy="-90.8" rx="10.8" ry="10.8"/>
</g>
<!-- 6&#45;&gt;f -->
<g id="edge16" class="edge">
<title>6&#45;&gt;f</title>
<path fill="none" stroke="#00ffff" d="M22,-90.8C32.03,-90.8 47.26,-90.8 57.27,-90.8"/>
</g>
<!-- 7 -->
<!-- g -->
<g id="node23" class="node">
<title>g</title>
<ellipse fill="none" stroke="black" cx="68.4" cy="-50.8" rx="10.8" ry="10.8"/>
</g>
<!-- 7&#45;&gt;g -->
<g id="edge19" class="edge">
<title>7&#45;&gt;g</title>
<path fill="none" stroke="#ffffff" d="M22,-50.8C32.03,-50.8 47.26,-50.8 57.27,-50.8"/>
</g>
<!-- 8 -->
<!-- h -->
<g id="node24" class="node">
<title>h</title>
<ellipse fill="none" stroke="black" cx="68.4" cy="-10.8" rx="10.8" ry="10.8"/>
</g>
<!-- 8&#45;&gt;h -->
<g id="edge22" class="edge">
<title>8&#45;&gt;h</title>
<path fill="none" stroke="#ff00ff" d="M22,-10.8C32.03,-10.8 47.26,-10.8 57.27,-10.8"/>
</g>
<!-- 10 -->
<!-- 20 -->
<!-- 30 -->
<!-- 40 -->
<!-- 50 -->
<!-- 60 -->
<!-- 70 -->
<!-- 80 -->
<!-- A -->
<g id="node41" class="node">
<title>A</title>
<polygon fill="none" stroke="black" points="126,-301.6 115.2,-290.8 126,-280 136.8,-290.8 126,-301.6"/>
</g>
<!-- a&#45;&gt;A -->
<g id="edge2" class="edge">
<title>a&#45;&gt;A</title>
<path fill="none" stroke="#0000ff" d="M79.6,-290.8C89.63,-290.8 104.86,-290.8 114.87,-290.8"/>
</g>
<!-- B -->
<g id="node42" class="node">
<title>B</title>
<polygon fill="none" stroke="black" points="126,-261.6 115.2,-250.8 126,-240 136.8,-250.8 126,-261.6"/>
</g>
<!-- a&#45;&gt;B -->
<g id="edge3" class="edge">
<title>a&#45;&gt;B</title>
<path fill="none" stroke="#0000ff" d="M77.6,-284.9C88.96,-276.73 109.2,-262.17 119.15,-255.01"/>
</g>
<!-- b&#45;&gt;A -->
<g id="edge5" class="edge">
<title>b&#45;&gt;A</title>
<path fill="none" stroke="#ff0000" d="M77.6,-256.7C88.96,-264.87 109.2,-279.43 119.15,-286.59"/>
</g>
<!-- b&#45;&gt;B -->
<g id="edge6" class="edge">
<title>b&#45;&gt;B</title>
<path fill="none" stroke="#ff0000" d="M79.6,-250.8C89.63,-250.8 104.86,-250.8 114.87,-250.8"/>
</g>
<!-- C -->
<g id="node43" class="node">
<title>C</title>
<polygon fill="none" stroke="black" points="126,-221.6 115.2,-210.8 126,-200 136.8,-210.8 126,-221.6"/>
</g>
<!-- c&#45;&gt;C -->
<g id="edge8" class="edge">
<title>c&#45;&gt;C</title>
<path fill="none" stroke="#ffff00" d="M79.6,-210.8C89.63,-210.8 104.86,-210.8 114.87,-210.8"/>
</g>
<!-- D -->
<g id="node44" class="node">
<title>D</title>
<polygon fill="none" stroke="black" points="126,-181.6 115.2,-170.8 126,-160 136.8,-170.8 126,-181.6"/>
</g>
<!-- c&#45;&gt;D -->
<g id="edge9" class="edge">
<title>c&#45;&gt;D</title>
<path fill="none" stroke="#ffff00" d="M77.6,-204.9C88.96,-196.73 109.2,-182.17 119.15,-175.01"/>
</g>
<!-- d&#45;&gt;C -->
<g id="edge11" class="edge">
<title>d&#45;&gt;C</title>
<path fill="none" stroke="#00ff00" d="M77.6,-176.7C88.96,-184.87 109.2,-199.43 119.15,-206.59"/>
</g>
<!-- d&#45;&gt;D -->
<g id="edge12" class="edge">
<title>d&#45;&gt;D</title>
<path fill="none" stroke="#00ff00" d="M79.6,-170.8C89.63,-170.8 104.86,-170.8 114.87,-170.8"/>
</g>
<!-- E -->
<g id="node45" class="node">
<title>E</title>
<polygon fill="none" stroke="black" points="126,-141.6 115.2,-130.8 126,-120 136.8,-130.8 126,-141.6"/>
</g>
<!-- e&#45;&gt;E -->
<g id="edge14" class="edge">
<title>e&#45;&gt;E</title>
<path fill="none" stroke="#000000" d="M79.6,-130.8C89.63,-130.8 104.86,-130.8 114.87,-130.8"/>
</g>
<!-- F -->
<g id="node46" class="node">
<title>F</title>
<polygon fill="none" stroke="black" points="126,-101.6 115.2,-90.8 126,-80 136.8,-90.8 126,-101.6"/>
</g>
<!-- e&#45;&gt;F -->
<g id="edge15" class="edge">
<title>e&#45;&gt;F</title>
<path fill="none" stroke="#000000" d="M77.6,-124.9C88.96,-116.73 109.2,-102.17 119.15,-95.01"/>
</g>
<!-- f&#45;&gt;E -->
<g id="edge17" class="edge">
<title>f&#45;&gt;E</title>
<path fill="none" stroke="#00ffff" d="M77.6,-96.7C88.96,-104.87 109.2,-119.43 119.15,-126.59"/>
</g>
<!-- f&#45;&gt;F -->
<g id="edge18" class="edge">
<title>f&#45;&gt;F</title>
<path fill="none" stroke="#00ffff" d="M79.6,-90.8C89.63,-90.8 104.86,-90.8 114.87,-90.8"/>
</g>
<!-- G -->
<g id="node47" class="node">
<title>G</title>
<polygon fill="none" stroke="black" points="126,-61.6 115.2,-50.8 126,-40 136.8,-50.8 126,-61.6"/>
</g>
<!-- g&#45;&gt;G -->
<g id="edge20" class="edge">
<title>g&#45;&gt;G</title>
<path fill="none" stroke="#ffffff" d="M79.6,-50.8C89.63,-50.8 104.86,-50.8 114.87,-50.8"/>
</g>
<!-- H -->
<g id="node48" class="node">
<title>H</title>
<polygon fill="none" stroke="black" points="126,-21.6 115.2,-10.8 126,0 136.8,-10.8 126,-21.6"/>
</g>
<!-- g&#45;&gt;H -->
<g id="edge21" class="edge">
<title>g&#45;&gt;H</title>
<path fill="none" stroke="#ffffff" d="M77.6,-44.9C88.96,-36.73 109.2,-22.17 119.15,-15.01"/>
</g>
<!-- h&#45;&gt;G -->
<g id="edge23" class="edge">
<title>h&#45;&gt;G</title>
<path fill="none" stroke="#ff00ff" d="M77.6,-16.7C88.96,-24.87 109.2,-39.43 119.15,-46.59"/>
</g>
<!-- h&#45;&gt;H -->
<g id="edge24" class="edge">
<title>h&#45;&gt;H</title>
<path fill="none" stroke="#ff00ff" d="M79.6,-10.8C89.63,-10.8 104.86,-10.8 114.87,-10.8"/>
</g>
<!-- i -->
<g id="node25" class="node">
<title>i</title>
<ellipse fill="none" stroke="black" cx="183.6" cy="-290.8" rx="10.8" ry="10.8"/>
</g>
<!-- I -->
<g id="node49" class="node">
<title>I</title>
<polygon fill="none" stroke="black" points="241.2,-301.6 230.4,-290.8 241.2,-280 252,-290.8 241.2,-301.6"/>
</g>
<!-- i&#45;&gt;I -->
<g id="edge26" class="edge">
<title>i&#45;&gt;I</title>
<path fill="none" stroke="#ff0000" d="M194.8,-289.8C204.83,-289.8 220.06,-289.8 230.07,-289.8"/>
<path fill="none" stroke="#0000ff" d="M194.8,-291.8C204.83,-291.8 220.06,-291.8 230.07,-291.8"/>
</g>
<!-- K -->
<g id="node51" class="node">
<title>K</title>
<polygon fill="none" stroke="black" points="241.2,-261.6 230.4,-250.8 241.2,-240 252,-250.8 241.2,-261.6"/>
</g>
<!-- i&#45;&gt;K -->
<g id="edge27" class="edge">
<title>i&#45;&gt;K</title>
<path fill="none" stroke="#ff0000" d="M192.22,-284.09C203.58,-275.91 223.81,-261.36 233.76,-254.2"/>
<path fill="none" stroke="#0000ff" d="M193.39,-285.71C204.75,-277.54 224.98,-262.98 234.93,-255.82"/>
</g>
<!-- j -->
<g id="node26" class="node">
<title>j</title>
<ellipse fill="none" stroke="black" cx="183.6" cy="-130.8" rx="10.8" ry="10.8"/>
</g>
<!-- J -->
<g id="node50" class="node">
<title>J</title>
<polygon fill="none" stroke="black" points="241.2,-141.6 230.4,-130.8 241.2,-120 252,-130.8 241.2,-141.6"/>
</g>
<!-- j&#45;&gt;J -->
<g id="edge29" class="edge">
<title>j&#45;&gt;J</title>
<path fill="none" stroke="#ff0000" d="M194.8,-129.8C204.83,-129.8 220.06,-129.8 230.07,-129.8"/>
<path fill="none" stroke="#0000ff" d="M194.8,-131.8C204.83,-131.8 220.06,-131.8 230.07,-131.8"/>
</g>
<!-- L -->
<g id="node52" class="node">
<title>L</title>
<polygon fill="none" stroke="black" points="241.2,-101.6 230.4,-90.8 241.2,-80 252,-90.8 241.2,-101.6"/>
</g>
<!-- j&#45;&gt;L -->
<g id="edge30" class="edge">
<title>j&#45;&gt;L</title>
<path fill="none" stroke="#ff0000" d="M192.22,-124.09C203.58,-115.91 223.81,-101.36 233.76,-94.2"/>
<path fill="none" stroke="#0000ff" d="M193.39,-125.71C204.75,-117.54 224.98,-102.98 234.93,-95.82"/>
</g>
<!-- k -->
<g id="node27" class="node">
<title>k</title>
<ellipse fill="none" stroke="black" cx="183.6" cy="-250.8" rx="10.8" ry="10.8"/>
</g>
<!-- k&#45;&gt;I -->
<g id="edge32" class="edge">
<title>k&#45;&gt;I</title>
<path fill="none" stroke="#00ff00" d="M193.39,-255.89C204.75,-264.06 224.98,-278.62 234.93,-285.78"/>
<path fill="none" stroke="#ffff00" d="M192.22,-257.51C203.58,-265.69 223.81,-280.24 233.76,-287.4"/>
</g>
<!-- k&#45;&gt;K -->
<g id="edge33" class="edge">
<title>k&#45;&gt;K</title>
<path fill="none" stroke="#00ff00" d="M194.8,-249.8C204.83,-249.8 220.06,-249.8 230.07,-249.8"/>
<path fill="none" stroke="#ffff00" d="M194.8,-251.8C204.83,-251.8 220.06,-251.8 230.07,-251.8"/>
</g>
<!-- l -->
<g id="node28" class="node">
<title>l</title>
<ellipse fill="none" stroke="black" cx="183.6" cy="-90.8" rx="10.8" ry="10.8"/>
</g>
<!-- l&#45;&gt;J -->
<g id="edge35" class="edge">
<title>l&#45;&gt;J</title>
<path fill="none" stroke="#00ff00" d="M193.39,-95.89C204.75,-104.06 224.98,-118.62 234.93,-125.78"/>
<path fill="none" stroke="#ffff00" d="M192.22,-97.51C203.58,-105.69 223.81,-120.24 233.76,-127.4"/>
</g>
<!-- l&#45;&gt;L -->
<g id="edge36" class="edge">
<title>l&#45;&gt;L</title>
<path fill="none" stroke="#00ff00" d="M194.8,-89.8C204.83,-89.8 220.06,-89.8 230.07,-89.8"/>
<path fill="none" stroke="#ffff00" d="M194.8,-91.8C204.83,-91.8 220.06,-91.8 230.07,-91.8"/>
</g>
<!-- m -->
<g id="node29" class="node">
<title>m</title>
<ellipse fill="none" stroke="black" cx="183.6" cy="-210.8" rx="10.8" ry="10.8"/>
</g>
<!-- M -->
<g id="node53" class="node">
<title>M</title>
<polygon fill="none" stroke="black" points="241.2,-221.6 230.4,-210.8 241.2,-200 252,-210.8 241.2,-221.6"/>
</g>
<!-- m&#45;&gt;M -->
<g id="edge38" class="edge">
<title>m&#45;&gt;M</title>
<path fill="none" stroke="#00ffff" d="M194.8,-209.8C204.83,-209.8 220.06,-209.8 230.07,-209.8"/>
<path fill="none" stroke="#000000" d="M194.8,-211.8C204.83,-211.8 220.06,-211.8 230.07,-211.8"/>
</g>
<!-- O -->
<g id="node55" class="node">
<title>O</title>
<polygon fill="none" stroke="black" points="241.2,-181.6 230.4,-170.8 241.2,-160 252,-170.8 241.2,-181.6"/>
</g>
<!-- m&#45;&gt;O -->
<g id="edge39" class="edge">
<title>m&#45;&gt;O</title>
<path fill="none" stroke="#00ffff" d="M192.22,-204.09C203.58,-195.91 223.81,-181.36 233.76,-174.2"/>
<path fill="none" stroke="#000000" d="M193.39,-205.71C204.75,-197.54 224.98,-182.98 234.93,-175.82"/>
</g>
<!-- n -->
<g id="node30" class="node">
<title>n</title>
<ellipse fill="none" stroke="black" cx="183.6" cy="-50.8" rx="10.8" ry="10.8"/>
</g>
<!-- N -->
<g id="node54" class="node">
<title>N</title>
<polygon fill="none" stroke="black" points="241.2,-61.6 230.4,-50.8 241.2,-40 252,-50.8 241.2,-61.6"/>
</g>
<!-- n&#45;&gt;N -->
<g id="edge41" class="edge">
<title>n&#45;&gt;N</title>
<path fill="none" stroke="#00ffff" d="M194.8,-49.8C204.83,-49.8 220.06,-49.8 230.07,-49.8"/>
<path fill="none" stroke="#000000" d="M194.8,-51.8C204.83,-51.8 220.06,-51.8 230.07,-51.8"/>
</g>
<!-- P -->
<g id="node56" class="node">
<title>P</title>
<polygon fill="none" stroke="black" points="241.2,-21.6 230.4,-10.8 241.2,0 252,-10.8 241.2,-21.6"/>
</g>
<!-- n&#45;&gt;P -->
<g id="edge42" class="edge">
<title>n&#45;&gt;P</title>
<path fill="none" stroke="#00ffff" d="M192.22,-44.09C203.58,-35.91 223.81,-21.36 233.76,-14.2"/>
<path fill="none" stroke="#000000" d="M193.39,-45.71C204.75,-37.54 224.98,-22.98 234.93,-15.82"/>
</g>
<!-- o -->
<g id="node31" class="node">
<title>o</title>
<ellipse fill="none" stroke="black" cx="183.6" cy="-170.8" rx="10.8" ry="10.8"/>
</g>
<!-- o&#45;&gt;M -->
<g id="edge44" class="edge">
<title>o&#45;&gt;M</title>
<path fill="none" stroke="#ff00ff" d="M193.39,-175.89C204.75,-184.06 224.98,-198.62 234.93,-205.78"/>
<path fill="none" stroke="#ffffff" d="M192.22,-177.51C203.58,-185.69 223.81,-200.24 233.76,-207.4"/>
</g>
<!-- o&#45;&gt;O -->
<g id="edge45" class="edge">
<title>o&#45;&gt;O</title>
<path fill="none" stroke="#ff00ff" d="M194.8,-169.8C204.83,-169.8 220.06,-169.8 230.07,-169.8"/>
<path fill="none" stroke="#ffffff" d="M194.8,-171.8C204.83,-171.8 220.06,-171.8 230.07,-171.8"/>
</g>
<!-- p -->
<g id="node32" class="node">
<title>p</title>
<ellipse fill="none" stroke="black" cx="183.6" cy="-10.8" rx="10.8" ry="10.8"/>
</g>
<!-- p&#45;&gt;N -->
<g id="edge47" class="edge">
<title>p&#45;&gt;N</title>
<path fill="none" stroke="#ff00ff" d="M193.39,-15.89C204.75,-24.06 224.98,-38.62 234.93,-45.78"/>
<path fill="none" stroke="#ffffff" d="M192.22,-17.51C203.58,-25.69 223.81,-40.24 233.76,-47.4"/>
</g>
<!-- p&#45;&gt;P -->
<g id="edge48" class="edge">
<title>p&#45;&gt;P</title>
<path fill="none" stroke="#ff00ff" d="M194.8,-9.8C204.83,-9.8 220.06,-9.8 230.07,-9.8"/>
<path fill="none" stroke="#ffffff" d="M194.8,-11.8C204.83,-11.8 220.06,-11.8 230.07,-11.8"/>
</g>
<!-- q -->
<g id="node33" class="node">
<title>q</title>
<ellipse fill="none" stroke="black" cx="298.8" cy="-290.8" rx="10.8" ry="10.8"/>
</g>
<!-- Q -->
<g id="node57" class="node">
<title>Q</title>
<polygon fill="none" stroke="black" points="356.4,-301.6 345.6,-290.8 356.4,-280 367.2,-290.8 356.4,-301.6"/>
</g>
<!-- q&#45;&gt;Q -->
<g id="edge50" class="edge">
<title>q&#45;&gt;Q</title>
<path fill="none" stroke="#00ff00" d="M310,-287.8C320.03,-287.8 335.26,-287.8 345.27,-287.8"/>
<path fill="none" stroke="#ffff00" d="M310,-289.8C320.03,-289.8 335.26,-289.8 345.27,-289.8"/>
<path fill="none" stroke="#ff0000" d="M310,-291.8C320.03,-291.8 335.26,-291.8 345.27,-291.8"/>
<path fill="none" stroke="#0000ff" d="M310,-293.8C320.03,-293.8 335.26,-293.8 345.27,-293.8"/>
</g>
<!-- U -->
<g id="node61" class="node">
<title>U</title>
<polygon fill="none" stroke="black" points="356.4,-261.6 345.6,-250.8 356.4,-240 367.2,-250.8 356.4,-261.6"/>
</g>
<!-- q&#45;&gt;U -->
<g id="edge51" class="edge">
<title>q&#45;&gt;U</title>
<path fill="none" stroke="#00ff00" d="M306.25,-282.46C317.61,-274.29 337.85,-259.73 347.8,-252.57"/>
<path fill="none" stroke="#ffff00" d="M307.42,-284.09C318.78,-275.91 339.01,-261.36 348.96,-254.2"/>
<path fill="none" stroke="#ff0000" d="M308.59,-285.71C319.95,-277.54 340.18,-262.98 350.13,-255.82"/>
<path fill="none" stroke="#0000ff" d="M309.76,-287.33C321.11,-279.16 341.35,-264.6 351.3,-257.45"/>
</g>
<!-- r -->
<g id="node34" class="node">
<title>r</title>
<ellipse fill="none" stroke="black" cx="298.8" cy="-130.8" rx="10.8" ry="10.8"/>
</g>
<!-- R -->
<g id="node58" class="node">
<title>R</title>
<polygon fill="none" stroke="black" points="356.4,-141.6 345.6,-130.8 356.4,-120 367.2,-130.8 356.4,-141.6"/>
</g>
<!-- r&#45;&gt;R -->
<g id="edge53" class="edge">
<title>r&#45;&gt;R</title>
<path fill="none" stroke="#00ff00" d="M310,-127.8C320.03,-127.8 335.26,-127.8 345.27,-127.8"/>
<path fill="none" stroke="#ffff00" d="M310,-129.8C320.03,-129.8 335.26,-129.8 345.27,-129.8"/>
<path fill="none" stroke="#ff0000" d="M310,-131.8C320.03,-131.8 335.26,-131.8 345.27,-131.8"/>
<path fill="none" stroke="#0000ff" d="M310,-133.8C320.03,-133.8 335.26,-133.8 345.27,-133.8"/>
</g>
<!-- V -->
<g id="node62" class="node">
<title>V</title>
<polygon fill="none" stroke="black" points="356.4,-101.6 345.6,-90.8 356.4,-80 367.2,-90.8 356.4,-101.6"/>
</g>
<!-- r&#45;&gt;V -->
<g id="edge54" class="edge">
<title>r&#45;&gt;V</title>
<path fill="none" stroke="#00ff00" d="M306.25,-122.46C317.61,-114.29 337.85,-99.73 347.8,-92.57"/>
<path fill="none" stroke="#ffff00" d="M307.42,-124.09C318.78,-115.91 339.01,-101.36 348.96,-94.2"/>
<path fill="none" stroke="#ff0000" d="M308.59,-125.71C319.95,-117.54 340.18,-102.98 350.13,-95.82"/>
<path fill="none" stroke="#0000ff" d="M309.76,-127.33C321.11,-119.16 341.35,-104.6 351.3,-97.45"/>
</g>
<!-- s -->
<g id="node35" class="node">
<title>s</title>
<ellipse fill="none" stroke="black" cx="298.8" cy="-210.8" rx="10.8" ry="10.8"/>
</g>
<!-- S -->
<g id="node59" class="node">
<title>S</title>
<polygon fill="none" stroke="black" points="356.4,-221.6 345.6,-210.8 356.4,-200 367.2,-210.8 356.4,-221.6"/>
</g>
<!-- s&#45;&gt;S -->
<g id="edge56" class="edge">
<title>s&#45;&gt;S</title>
<path fill="none" stroke="#00ff00" d="M310,-207.8C320.03,-207.8 335.26,-207.8 345.27,-207.8"/>
<path fill="none" stroke="#ffff00" d="M310,-209.8C320.03,-209.8 335.26,-209.8 345.27,-209.8"/>
<path fill="none" stroke="#ff0000" d="M310,-211.8C320.03,-211.8 335.26,-211.8 345.27,-211.8"/>
<path fill="none" stroke="#0000ff" d="M310,-213.8C320.03,-213.8 335.26,-213.8 345.27,-213.8"/>
</g>
<!-- W -->
<g id="node63" class="node">
<title>W</title>
<polygon fill="none" stroke="black" points="356.4,-181.6 345.6,-170.8 356.4,-160 367.2,-170.8 356.4,-181.6"/>
</g>
<!-- s&#45;&gt;W -->
<g id="edge57" class="edge">
<title>s&#45;&gt;W</title>
<path fill="none" stroke="#00ff00" d="M306.25,-202.46C317.61,-194.29 337.85,-179.73 347.8,-172.57"/>
<path fill="none" stroke="#ffff00" d="M307.42,-204.09C318.78,-195.91 339.01,-181.36 348.96,-174.2"/>
<path fill="none" stroke="#ff0000" d="M308.59,-205.71C319.95,-197.54 340.18,-182.98 350.13,-175.82"/>
<path fill="none" stroke="#0000ff" d="M309.76,-207.33C321.11,-199.16 341.35,-184.6 351.3,-177.45"/>
</g>
<!-- t -->
<g id="node36" class="node">
<title>t</title>
<ellipse fill="none" stroke="black" cx="298.8" cy="-50.8" rx="10.8" ry="10.8"/>
</g>
<!-- T -->
<g id="node60" class="node">
<title>T</title>
<polygon fill="none" stroke="black" points="356.4,-61.6 345.6,-50.8 356.4,-40 367.2,-50.8 356.4,-61.6"/>
</g>
<!-- t&#45;&gt;T -->
<g id="edge59" class="edge">
<title>t&#45;&gt;T</title>
<path fill="none" stroke="#00ff00" d="M310,-47.8C320.03,-47.8 335.26,-47.8 345.27,-47.8"/>
<path fill="none" stroke="#ffff00" d="M310,-49.8C320.03,-49.8 335.26,-49.8 345.27,-49.8"/>
<path fill="none" stroke="#ff0000" d="M310,-51.8C320.03,-51.8 335.26,-51.8 345.27,-51.8"/>
<path fill="none" stroke="#0000ff" d="M310,-53.8C320.03,-53.8 335.26,-53.8 345.27,-53.8"/>
</g>
<!-- X -->
<g id="node64" class="node">
<title>X</title>
<polygon fill="none" stroke="black" points="356.4,-21.6 345.6,-10.8 356.4,0 367.2,-10.8 356.4,-21.6"/>
</g>
<!-- t&#45;&gt;X -->
<g id="edge60" class="edge">
<title>t&#45;&gt;X</title>
<path fill="none" stroke="#00ff00" d="M306.25,-42.46C317.61,-34.29 337.85,-19.73 347.8,-12.57"/>
<path fill="none" stroke="#ffff00" d="M307.42,-44.09C318.78,-35.91 339.01,-21.36 348.96,-14.2"/>
<path fill="none" stroke="#ff0000" d="M308.59,-45.71C319.95,-37.54 340.18,-22.98 350.13,-15.82"/>
<path fill="none" stroke="#0000ff" d="M309.76,-47.33C321.11,-39.16 341.35,-24.6 351.3,-17.45"/>
</g>
<!-- u -->
<g id="node37" class="node">
<title>u</title>
<ellipse fill="none" stroke="black" cx="298.8" cy="-250.8" rx="10.8" ry="10.8"/>
</g>
<!-- u&#45;&gt;Q -->
<g id="edge62" class="edge">
<title>u&#45;&gt;Q</title>
<path fill="none" stroke="#ff00ff" d="M309.76,-254.27C321.11,-262.44 341.35,-277 351.3,-284.15"/>
<path fill="none" stroke="#ffffff" d="M308.59,-255.89C319.95,-264.06 340.18,-278.62 350.13,-285.78"/>
<path fill="none" stroke="#00ffff" d="M307.42,-257.51C318.78,-265.69 339.01,-280.24 348.96,-287.4"/>
<path fill="none" stroke="#000000" d="M306.25,-259.14C317.61,-267.31 337.85,-281.87 347.8,-289.03"/>
</g>
<!-- u&#45;&gt;U -->
<g id="edge63" class="edge">
<title>u&#45;&gt;U</title>
<path fill="none" stroke="#ff00ff" d="M310,-247.8C320.03,-247.8 335.26,-247.8 345.27,-247.8"/>
<path fill="none" stroke="#ffffff" d="M310,-249.8C320.03,-249.8 335.26,-249.8 345.27,-249.8"/>
<path fill="none" stroke="#00ffff" d="M310,-251.8C320.03,-251.8 335.26,-251.8 345.27,-251.8"/>
<path fill="none" stroke="#000000" d="M310,-253.8C320.03,-253.8 335.26,-253.8 345.27,-253.8"/>
</g>
<!-- v -->
<g id="node38" class="node">
<title>v</title>
<ellipse fill="none" stroke="black" cx="298.8" cy="-90.8" rx="10.8" ry="10.8"/>
</g>
<!-- v&#45;&gt;R -->
<g id="edge65" class="edge">
<title>v&#45;&gt;R</title>
<path fill="none" stroke="#ff00ff" d="M309.76,-94.27C321.11,-102.44 341.35,-117 351.3,-124.15"/>
<path fill="none" stroke="#ffffff" d="M308.59,-95.89C319.95,-104.06 340.18,-118.62 350.13,-125.78"/>
<path fill="none" stroke="#00ffff" d="M307.42,-97.51C318.78,-105.69 339.01,-120.24 348.96,-127.4"/>
<path fill="none" stroke="#000000" d="M306.25,-99.14C317.61,-107.31 337.85,-121.87 347.8,-129.03"/>
</g>
<!-- v&#45;&gt;V -->
<g id="edge66" class="edge">
<title>v&#45;&gt;V</title>
<path fill="none" stroke="#ff00ff" d="M310,-87.8C320.03,-87.8 335.26,-87.8 345.27,-87.8"/>
<path fill="none" stroke="#ffffff" d="M310,-89.8C320.03,-89.8 335.26,-89.8 345.27,-89.8"/>
<path fill="none" stroke="#00ffff" d="M310,-91.8C320.03,-91.8 335.26,-91.8 345.27,-91.8"/>
<path fill="none" stroke="#000000" d="M310,-93.8C320.03,-93.8 335.26,-93.8 345.27,-93.8"/>
</g>
<!-- w -->
<g id="node39" class="node">
<title>w</title>
<ellipse fill="none" stroke="black" cx="298.8" cy="-170.8" rx="10.8" ry="10.8"/>
</g>
<!-- w&#45;&gt;S -->
<g id="edge68" class="edge">
<title>w&#45;&gt;S</title>
<path fill="none" stroke="#ff00ff" d="M309.76,-174.27C321.11,-182.44 341.35,-197 351.3,-204.15"/>
<path fill="none" stroke="#ffffff" d="M308.59,-175.89C319.95,-184.06 340.18,-198.62 350.13,-205.78"/>
<path fill="none" stroke="#00ffff" d="M307.42,-177.51C318.78,-185.69 339.01,-200.24 348.96,-207.4"/>
<path fill="none" stroke="#000000" d="M306.25,-179.14C317.61,-187.31 337.85,-201.87 347.8,-209.03"/>
</g>
<!-- w&#45;&gt;W -->
<g id="edge69" class="edge">
<title>w&#45;&gt;W</title>
<path fill="none" stroke="#ff00ff" d="M310,-167.8C320.03,-167.8 335.26,-167.8 345.27,-167.8"/>
<path fill="none" stroke="#ffffff" d="M310,-169.8C320.03,-169.8 335.26,-169.8 345.27,-169.8"/>
<path fill="none" stroke="#00ffff" d="M310,-171.8C320.03,-171.8 335.26,-171.8 345.27,-171.8"/>
<path fill="none" stroke="#000000" d="M310,-173.8C320.03,-173.8 335.26,-173.8 345.27,-173.8"/>
</g>
<!-- x -->
<g id="node40" class="node">
<title>x</title>
<ellipse fill="none" stroke="black" cx="298.8" cy="-10.8" rx="10.8" ry="10.8"/>
</g>
<!-- x&#45;&gt;T -->
<g id="edge71" class="edge">
<title>x&#45;&gt;T</title>
<path fill="none" stroke="#ff00ff" d="M309.76,-14.27C321.11,-22.44 341.35,-37 351.3,-44.15"/>
<path fill="none" stroke="#ffffff" d="M308.59,-15.89C319.95,-24.06 340.18,-38.62 350.13,-45.78"/>
<path fill="none" stroke="#00ffff" d="M307.42,-17.51C318.78,-25.69 339.01,-40.24 348.96,-47.4"/>
<path fill="none" stroke="#000000" d="M306.25,-19.14C317.61,-27.31 337.85,-41.87 347.8,-49.03"/>
</g>
<!-- x&#45;&gt;X -->
<g id="edge72" class="edge">
<title>x&#45;&gt;X</title>
<path fill="none" stroke="#ff00ff" d="M310,-7.8C320.03,-7.8 335.26,-7.8 345.27,-7.8"/>
<path fill="none" stroke="#ffffff" d="M310,-9.8C320.03,-9.8 335.26,-9.8 345.27,-9.8"/>
<path fill="none" stroke="#00ffff" d="M310,-11.8C320.03,-11.8 335.26,-11.8 345.27,-11.8"/>
<path fill="none" stroke="#000000" d="M310,-13.8C320.03,-13.8 335.26,-13.8 345.27,-13.8"/>
</g>
<!-- A&#45;&gt;i -->
<g id="edge25" class="edge">
<title>A&#45;&gt;i</title>
<path fill="none" stroke="#ff0000" d="M137.46,-289.8C147.52,-289.8 162.64,-289.8 172.56,-289.8"/>
<path fill="none" stroke="#0000ff" d="M137.46,-291.8C147.52,-291.8 162.64,-291.8 172.56,-291.8"/>
</g>
<!-- B&#45;&gt;j -->
<g id="edge28" class="edge">
<title>B&#45;&gt;j</title>
<path fill="none" stroke="#ff0000" d="M129.43,-243.72C131.35,-239.84 133.8,-234.84 135.89,-230.37 152.42,-195.22 155.26,-185.8 171.89,-150.37 173.54,-146.86 175.4,-143.05 177.05,-139.69"/>
<path fill="none" stroke="#0000ff" d="M131.22,-244.6C133.14,-240.72 135.59,-235.72 137.71,-231.23 154.34,-195.8 157.18,-186.38 173.71,-151.23 175.34,-147.74 177.2,-143.92 178.85,-140.57"/>
</g>
<!-- C&#45;&gt;k -->
<g id="edge31" class="edge">
<title>C&#45;&gt;k</title>
<path fill="none" stroke="#00ff00" d="M133.53,-214.27C143.51,-221.44 163.62,-235.91 174.94,-244.06"/>
<path fill="none" stroke="#ffff00" d="M132.37,-215.89C142.34,-223.07 162.45,-237.53 173.77,-245.68"/>
</g>
<!-- D&#45;&gt;l -->
<g id="edge34" class="edge">
<title>D&#45;&gt;l</title>
<path fill="none" stroke="#00ff00" d="M130.36,-164.22C140.16,-150.12 164.63,-114.9 175.92,-98.67"/>
<path fill="none" stroke="#ffff00" d="M132,-165.36C141.8,-151.26 166.28,-116.04 177.56,-99.81"/>
</g>
<!-- E&#45;&gt;m -->
<g id="edge37" class="edge">
<title>E&#45;&gt;m</title>
<path fill="none" stroke="#00ffff" d="M132,-136.24C141.8,-150.34 166.28,-185.56 177.56,-201.79"/>
<path fill="none" stroke="#000000" d="M130.36,-137.38C140.16,-151.48 164.63,-186.7 175.92,-202.93"/>
</g>
<!-- F&#45;&gt;n -->
<g id="edge40" class="edge">
<title>F&#45;&gt;n</title>
<path fill="none" stroke="#00ffff" d="M132.37,-85.71C142.34,-78.53 162.45,-64.07 173.77,-55.92"/>
<path fill="none" stroke="#000000" d="M133.53,-87.33C143.51,-80.16 163.62,-65.69 174.94,-57.54"/>
</g>
<!-- G&#45;&gt;o -->
<g id="edge43" class="edge">
<title>G&#45;&gt;o</title>
<path fill="none" stroke="#ff00ff" d="M131.22,-57C133.14,-60.88 135.59,-65.88 137.71,-70.37 154.34,-105.8 157.18,-115.22 173.71,-150.37 175.34,-153.86 177.2,-157.68 178.85,-161.03"/>
<path fill="none" stroke="#ffffff" d="M129.43,-57.88C131.35,-61.76 133.8,-66.76 135.89,-71.23 152.42,-106.38 155.26,-115.8 171.89,-151.23 173.54,-154.74 175.4,-158.55 177.05,-161.91"/>
</g>
<!-- H&#45;&gt;p -->
<g id="edge46" class="edge">
<title>H&#45;&gt;p</title>
<path fill="none" stroke="#ff00ff" d="M137.46,-9.8C147.52,-9.8 162.64,-9.8 172.56,-9.8"/>
<path fill="none" stroke="#ffffff" d="M137.46,-11.8C147.52,-11.8 162.64,-11.8 172.56,-11.8"/>
</g>
<!-- I&#45;&gt;q -->
<g id="edge49" class="edge">
<title>I&#45;&gt;q</title>
<path fill="none" stroke="#00ff00" d="M252.66,-287.8C262.72,-287.8 277.84,-287.8 287.76,-287.8"/>
<path fill="none" stroke="#ffff00" d="M252.66,-289.8C262.72,-289.8 277.84,-289.8 287.76,-289.8"/>
<path fill="none" stroke="#ff0000" d="M252.66,-291.8C262.72,-291.8 277.84,-291.8 287.76,-291.8"/>
<path fill="none" stroke="#0000ff" d="M252.66,-293.8C262.72,-293.8 277.84,-293.8 287.76,-293.8"/>
</g>
<!-- J&#45;&gt;r -->
<g id="edge52" class="edge">
<title>J&#45;&gt;r</title>
<path fill="none" stroke="#00ff00" d="M252.66,-127.8C262.72,-127.8 277.84,-127.8 287.76,-127.8"/>
<path fill="none" stroke="#ffff00" d="M252.66,-129.8C262.72,-129.8 277.84,-129.8 287.76,-129.8"/>
<path fill="none" stroke="#ff0000" d="M252.66,-131.8C262.72,-131.8 277.84,-131.8 287.76,-131.8"/>
<path fill="none" stroke="#0000ff" d="M252.66,-133.8C262.72,-133.8 277.84,-133.8 287.76,-133.8"/>
</g>
<!-- K&#45;&gt;s -->
<g id="edge55" class="edge">
<title>K&#45;&gt;s</title>
<path fill="none" stroke="#00ff00" d="M246.4,-244.08C256.37,-236.91 276.48,-222.44 287.81,-214.29"/>
<path fill="none" stroke="#ffff00" d="M247.57,-245.71C257.54,-238.53 277.65,-224.07 288.97,-215.92"/>
<path fill="none" stroke="#ff0000" d="M248.73,-247.33C258.71,-240.16 278.82,-225.69 290.14,-217.54"/>
<path fill="none" stroke="#0000ff" d="M249.9,-248.95C259.88,-241.78 279.98,-227.31 291.31,-219.16"/>
</g>
<!-- L&#45;&gt;t -->
<g id="edge58" class="edge">
<title>L&#45;&gt;t</title>
<path fill="none" stroke="#00ff00" d="M246.4,-84.08C256.37,-76.91 276.48,-62.44 287.81,-54.29"/>
<path fill="none" stroke="#ffff00" d="M247.57,-85.71C257.54,-78.53 277.65,-64.07 288.97,-55.92"/>
<path fill="none" stroke="#ff0000" d="M248.73,-87.33C258.71,-80.16 278.82,-65.69 290.14,-57.54"/>
<path fill="none" stroke="#0000ff" d="M249.9,-88.95C259.88,-81.78 279.98,-67.31 291.31,-59.16"/>
</g>
<!-- M&#45;&gt;u -->
<g id="edge61" class="edge">
<title>M&#45;&gt;u</title>
<path fill="none" stroke="#ff00ff" d="M249.9,-212.65C259.88,-219.82 279.98,-234.29 291.31,-242.44"/>
<path fill="none" stroke="#ffffff" d="M248.73,-214.27C258.71,-221.44 278.82,-235.91 290.14,-244.06"/>
<path fill="none" stroke="#00ffff" d="M247.57,-215.89C257.54,-223.07 277.65,-237.53 288.97,-245.68"/>
<path fill="none" stroke="#000000" d="M246.4,-217.52C256.37,-224.69 276.48,-239.16 287.81,-247.31"/>
</g>
<!-- N&#45;&gt;v -->
<g id="edge64" class="edge">
<title>N&#45;&gt;v</title>
<path fill="none" stroke="#ff00ff" d="M249.9,-52.65C259.88,-59.82 279.98,-74.29 291.31,-82.44"/>
<path fill="none" stroke="#ffffff" d="M248.73,-54.27C258.71,-61.44 278.82,-75.91 290.14,-84.06"/>
<path fill="none" stroke="#00ffff" d="M247.57,-55.89C257.54,-63.07 277.65,-77.53 288.97,-85.68"/>
<path fill="none" stroke="#000000" d="M246.4,-57.52C256.37,-64.69 276.48,-79.16 287.81,-87.31"/>
</g>
<!-- O&#45;&gt;w -->
<g id="edge67" class="edge">
<title>O&#45;&gt;w</title>
<path fill="none" stroke="#ff00ff" d="M252.66,-167.8C262.72,-167.8 277.84,-167.8 287.76,-167.8"/>
<path fill="none" stroke="#ffffff" d="M252.66,-169.8C262.72,-169.8 277.84,-169.8 287.76,-169.8"/>
<path fill="none" stroke="#00ffff" d="M252.66,-171.8C262.72,-171.8 277.84,-171.8 287.76,-171.8"/>
<path fill="none" stroke="#000000" d="M252.66,-173.8C262.72,-173.8 277.84,-173.8 287.76,-173.8"/>
</g>
<!-- P&#45;&gt;x -->
<g id="edge70" class="edge">
<title>P&#45;&gt;x</title>
<path fill="none" stroke="#ff00ff" d="M252.66,-7.8C262.72,-7.8 277.84,-7.8 287.76,-7.8"/>
<path fill="none" stroke="#ffffff" d="M252.66,-9.8C262.72,-9.8 277.84,-9.8 287.76,-9.8"/>
<path fill="none" stroke="#00ffff" d="M252.66,-11.8C262.72,-11.8 277.84,-11.8 287.76,-11.8"/>
<path fill="none" stroke="#000000" d="M252.66,-13.8C262.72,-13.8 277.84,-13.8 287.76,-13.8"/>
</g>
<!-- Q&#45;&gt;10 -->
<g id="edge73" class="edge">
<title>Q&#45;&gt;10</title>
<path fill="none" stroke="#ff00ff" d="M367.86,-283.8C377.92,-283.8 393.04,-283.8 402.96,-283.8"/>
<path fill="none" stroke="#ffffff" d="M367.86,-285.8C377.92,-285.8 393.04,-285.8 402.96,-285.8"/>
<path fill="none" stroke="#00ffff" d="M367.86,-287.8C377.92,-287.8 393.04,-287.8 402.96,-287.8"/>
<path fill="none" stroke="#000000" d="M367.86,-289.8C377.92,-289.8 393.04,-289.8 402.96,-289.8"/>
<path fill="none" stroke="#00ff00" d="M367.86,-291.8C377.92,-291.8 393.04,-291.8 402.96,-291.8"/>
<path fill="none" stroke="#ffff00" d="M367.86,-293.8C377.92,-293.8 393.04,-293.8 402.96,-293.8"/>
<path fill="none" stroke="#ff0000" d="M367.86,-295.8C377.92,-295.8 393.04,-295.8 402.96,-295.8"/>
<path fill="none" stroke="#0000ff" d="M367.86,-297.8C377.92,-297.8 393.04,-297.8 402.96,-297.8"/>
</g>
<!-- R&#45;&gt;20 -->
<g id="edge74" class="edge">
<title>R&#45;&gt;20</title>
<path fill="none" stroke="#ff00ff" d="M367.86,-123.8C377.92,-123.8 393.04,-123.8 402.96,-123.8"/>
<path fill="none" stroke="#ffffff" d="M367.86,-125.8C377.92,-125.8 393.04,-125.8 402.96,-125.8"/>
<path fill="none" stroke="#00ffff" d="M367.86,-127.8C377.92,-127.8 393.04,-127.8 402.96,-127.8"/>
<path fill="none" stroke="#000000" d="M367.86,-129.8C377.92,-129.8 393.04,-129.8 402.96,-129.8"/>
<path fill="none" stroke="#00ff00" d="M367.86,-131.8C377.92,-131.8 393.04,-131.8 402.96,-131.8"/>
<path fill="none" stroke="#ffff00" d="M367.86,-133.8C377.92,-133.8 393.04,-133.8 402.96,-133.8"/>
<path fill="none" stroke="#ff0000" d="M367.86,-135.8C377.92,-135.8 393.04,-135.8 402.96,-135.8"/>
<path fill="none" stroke="#0000ff" d="M367.86,-137.8C377.92,-137.8 393.04,-137.8 402.96,-137.8"/>
</g>
<!-- S&#45;&gt;30 -->
<g id="edge75" class="edge">
<title>S&#45;&gt;30</title>
<path fill="none" stroke="#ff00ff" d="M367.86,-203.8C377.92,-203.8 393.04,-203.8 402.96,-203.8"/>
<path fill="none" stroke="#ffffff" d="M367.86,-205.8C377.92,-205.8 393.04,-205.8 402.96,-205.8"/>
<path fill="none" stroke="#00ffff" d="M367.86,-207.8C377.92,-207.8 393.04,-207.8 402.96,-207.8"/>
<path fill="none" stroke="#000000" d="M367.86,-209.8C377.92,-209.8 393.04,-209.8 402.96,-209.8"/>
<path fill="none" stroke="#00ff00" d="M367.86,-211.8C377.92,-211.8 393.04,-211.8 402.96,-211.8"/>
<path fill="none" stroke="#ffff00" d="M367.86,-213.8C377.92,-213.8 393.04,-213.8 402.96,-213.8"/>
<path fill="none" stroke="#ff0000" d="M367.86,-215.8C377.92,-215.8 393.04,-215.8 402.96,-215.8"/>
<path fill="none" stroke="#0000ff" d="M367.86,-217.8C377.92,-217.8 393.04,-217.8 402.96,-217.8"/>
</g>
<!-- T&#45;&gt;40 -->
<g id="edge76" class="edge">
<title>T&#45;&gt;40</title>
<path fill="none" stroke="#ff00ff" d="M367.86,-43.8C377.92,-43.8 393.04,-43.8 402.96,-43.8"/>
<path fill="none" stroke="#ffffff" d="M367.86,-45.8C377.92,-45.8 393.04,-45.8 402.96,-45.8"/>
<path fill="none" stroke="#00ffff" d="M367.86,-47.8C377.92,-47.8 393.04,-47.8 402.96,-47.8"/>
<path fill="none" stroke="#000000" d="M367.86,-49.8C377.92,-49.8 393.04,-49.8 402.96,-49.8"/>
<path fill="none" stroke="#00ff00" d="M367.86,-51.8C377.92,-51.8 393.04,-51.8 402.96,-51.8"/>
<path fill="none" stroke="#ffff00" d="M367.86,-53.8C377.92,-53.8 393.04,-53.8 402.96,-53.8"/>
<path fill="none" stroke="#ff0000" d="M367.86,-55.8C377.92,-55.8 393.04,-55.8 402.96,-55.8"/>
<path fill="none" stroke="#0000ff" d="M367.86,-57.8C377.92,-57.8 393.04,-57.8 402.96,-57.8"/>
</g>
<!-- U&#45;&gt;50 -->
<g id="edge77" class="edge">
<title>U&#45;&gt;50</title>
<path fill="none" stroke="#ff00ff" d="M367.86,-243.8C377.92,-243.8 393.04,-243.8 402.96,-243.8"/>
<path fill="none" stroke="#ffffff" d="M367.86,-245.8C377.92,-245.8 393.04,-245.8 402.96,-245.8"/>
<path fill="none" stroke="#00ffff" d="M367.86,-247.8C377.92,-247.8 393.04,-247.8 402.96,-247.8"/>
<path fill="none" stroke="#000000" d="M367.86,-249.8C377.92,-249.8 393.04,-249.8 402.96,-249.8"/>
<path fill="none" stroke="#00ff00" d="M367.86,-251.8C377.92,-251.8 393.04,-251.8 402.96,-251.8"/>
<path fill="none" stroke="#ffff00" d="M367.86,-253.8C377.92,-253.8 393.04,-253.8 402.96,-253.8"/>
<path fill="none" stroke="#ff0000" d="M367.86,-255.8C377.92,-255.8 393.04,-255.8 402.96,-255.8"/>
<path fill="none" stroke="#0000ff" d="M367.86,-257.8C377.92,-257.8 393.04,-257.8 402.96,-257.8"/>
</g>
<!-- V&#45;&gt;60 -->
<g id="edge78" class="edge">
<title>V&#45;&gt;60</title>
<path fill="none" stroke="#ff00ff" d="M367.86,-83.8C377.92,-83.8 393.04,-83.8 402.96,-83.8"/>
<path fill="none" stroke="#ffffff" d="M367.86,-85.8C377.92,-85.8 393.04,-85.8 402.96,-85.8"/>
<path fill="none" stroke="#00ffff" d="M367.86,-87.8C377.92,-87.8 393.04,-87.8 402.96,-87.8"/>
<path fill="none" stroke="#000000" d="M367.86,-89.8C377.92,-89.8 393.04,-89.8 402.96,-89.8"/>
<path fill="none" stroke="#00ff00" d="M367.86,-91.8C377.92,-91.8 393.04,-91.8 402.96,-91.8"/>
<path fill="none" stroke="#ffff00" d="M367.86,-93.8C377.92,-93.8 393.04,-93.8 402.96,-93.8"/>
<path fill="none" stroke="#ff0000" d="M367.86,-95.8C377.92,-95.8 393.04,-95.8 402.96,-95.8"/>
<path fill="none" stroke="#0000ff" d="M367.86,-97.8C377.92,-97.8 393.04,-97.8 402.96,-97.8"/>
</g>
<!-- W&#45;&gt;70 -->
<g id="edge79" class="edge">
<title>W&#45;&gt;70</title>
<path fill="none" stroke="#ff00ff" d="M367.86,-163.8C377.92,-163.8 393.04,-163.8 402.96,-163.8"/>
<path fill="none" stroke="#ffffff" d="M367.86,-165.8C377.92,-165.8 393.04,-165.8 402.96,-165.8"/>
<path fill="none" stroke="#00ffff" d="M367.86,-167.8C377.92,-167.8 393.04,-167.8 402.96,-167.8"/>
<path fill="none" stroke="#000000" d="M367.86,-169.8C377.92,-169.8 393.04,-169.8 402.96,-169.8"/>
<path fill="none" stroke="#00ff00" d="M367.86,-171.8C377.92,-171.8 393.04,-171.8 402.96,-171.8"/>
<path fill="none" stroke="#ffff00" d="M367.86,-173.8C377.92,-173.8 393.04,-173.8 402.96,-173.8"/>
<path fill="none" stroke="#ff0000" d="M367.86,-175.8C377.92,-175.8 393.04,-175.8 402.96,-175.8"/>
<path fill="none" stroke="#0000ff" d="M367.86,-177.8C377.92,-177.8 393.04,-177.8 402.96,-177.8"/>
</g>
<!-- X&#45;&gt;80 -->
<g id="edge80" class="edge">
<title>X&#45;&gt;80</title>
<path fill="none" stroke="#ff00ff" d="M367.86,-3.8C377.92,-3.8 393.04,-3.8 402.96,-3.8"/>
<path fill="none" stroke="#ffffff" d="M367.86,-5.8C377.92,-5.8 393.04,-5.8 402.96,-5.8"/>
<path fill="none" stroke="#00ffff" d="M367.86,-7.8C377.92,-7.8 393.04,-7.8 402.96,-7.8"/>
<path fill="none" stroke="#000000" d="M367.86,-9.8C377.92,-9.8 393.04,-9.8 402.96,-9.8"/>
<path fill="none" stroke="#00ff00" d="M367.86,-11.8C377.92,-11.8 393.04,-11.8 402.96,-11.8"/>
<path fill="none" stroke="#ffff00" d="M367.86,-13.8C377.92,-13.8 393.04,-13.8 402.96,-13.8"/>
<path fill="none" stroke="#ff0000" d="M367.86,-15.8C377.92,-15.8 393.04,-15.8 402.96,-15.8"/>
<path fill="none" stroke="#0000ff" d="M367.86,-17.8C377.92,-17.8 393.04,-17.8 402.96,-17.8"/>
</g>
</g>
</svg>
