<?xml version="1.0" encoding="UTF-8" standalone="no"?>
<!DOCTYPE svg PUBLIC "-//W3C//DTD SVG 1.1//EN"
 "http://www.w3.org/Graphics/SVG/1.1/DTD/svg11.dtd">
<!-- Generated by graphviz version 14.1.1 (20251213.1925)
 -->
<!-- Title: g Pages: 1 -->
<svg width="821pt" height="570pt"
 viewBox="0.00 0.00 821.00 570.00" xmlns="http://www.w3.org/2000/svg" xmlns:xlink="http://www.w3.org/1999/xlink">
<g id="graph0" class="graph" transform="scale(1 1) rotate(0) translate(4 565.94)">
<title>g</title>
<polygon fill="white" stroke="none" points="-4,4 -4,-565.94 817,-565.94 817,4 -4,4"/>
<!-- node0 -->
<g id="node1" class="node">
<title>node0</title>
<polygon fill="none" stroke="black" points="0,-446.25 0,-499.75 72.25,-499.75 72.25,-446.25 0,-446.25"/>
<text xml:space="preserve" text-anchor="middle" x="36.12" y="-480.55" font-family="Times,serif" font-size="16.00">0x10ba8</text>
<polyline fill="none" stroke="black" points="0,-473 72.25,-473"/>
<text xml:space="preserve" text-anchor="middle" x="36.12" y="-453.8" font-family="Times,serif" font-size="16.00"> </text>
</g>
<!-- node1 -->
<g id="node2" class="node">
<title>node1</title>
<polygon fill="none" stroke="black" points="108.25,-443.5 108.25,-550.5 199.25,-550.5 199.25,-443.5 108.25,-443.5"/>
<text xml:space="preserve" text-anchor="middle" x="153.75" y="-531.3" font-family="Times,serif" font-size="16.00">0xf7fc4380</text>
<polyline fill="none" stroke="black" points="108.25,-523.75 199.25,-523.75"/>
<text xml:space="preserve" text-anchor="middle" x="153.75" y="-504.55" font-family="Times,serif" font-size="16.00"> </text>
<polyline fill="none" stroke="black" points="108.25,-497 199.25,-497"/>
<text xml:space="preserve" text-anchor="middle" x="153.75" y="-477.8" font-family="Times,serif" font-size="16.00"> </text>
<polyline fill="none" stroke="black" points="108.25,-470.25 199.25,-470.25"/>
<text xml:space="preserve" text-anchor="middle" x="153.75" y="-451.05" font-family="Times,serif" font-size="16.00">&#45;1</text>
</g>
<!-- node0&#45;&gt;node1 -->
<g id="0" class="edge">
<title>node0:f0&#45;&gt;node1:f0</title>
<path fill="none" stroke="black" d="M72.25,-486.38C95.15,-486.38 85.85,-521.18 97.68,-533.14"/>
<polygon fill="black" stroke="black" points="96.24,-536.34 106.83,-536.59 98.71,-529.79 96.24,-536.34"/>
</g>
<!-- node2 -->
<g id="node3" class="node">
<title>node2</title>
<polygon fill="none" stroke="black" points="108.25,-317.5 108.25,-424.5 199.25,-424.5 199.25,-317.5 108.25,-317.5"/>
<text xml:space="preserve" text-anchor="middle" x="153.75" y="-405.3" font-family="Times,serif" font-size="16.00">0xf7fc44b8</text>
<polyline fill="none" stroke="black" points="108.25,-397.75 199.25,-397.75"/>
<text xml:space="preserve" text-anchor="middle" x="153.75" y="-378.55" font-family="Times,serif" font-size="16.00"> </text>
<polyline fill="none" stroke="black" points="108.25,-371 199.25,-371"/>
<text xml:space="preserve" text-anchor="middle" x="153.75" y="-351.8" font-family="Times,serif" font-size="16.00"> </text>
<polyline fill="none" stroke="black" points="108.25,-344.25 199.25,-344.25"/>
<text xml:space="preserve" text-anchor="middle" x="153.75" y="-325.05" font-family="Times,serif" font-size="16.00">2</text>
</g>
<!-- node0&#45;&gt;node2 -->
<g id="1" class="edge">
<title>node0:f1&#45;&gt;node2:f0</title>
<path fill="none" stroke="black" d="M72.25,-459.62C94.27,-459.62 86.32,-426.99 97.58,-415.26"/>
<polygon fill="black" stroke="black" points="98.78,-418.55 106.84,-411.67 96.25,-412.02 98.78,-418.55"/>
</g>
<!-- node3 -->
<g id="node4" class="node">
<title>node3</title>
<polygon fill="none" stroke="black" points="616.25,-468.88 616.25,-549.12 813,-549.12 813,-468.88 616.25,-468.88"/>
<text xml:space="preserve" text-anchor="middle" x="714.62" y="-529.92" font-family="Times,serif" font-size="16.00">3.43322790286038071e&#45;06</text>
<polyline fill="none" stroke="black" points="616.25,-522.38 813,-522.38"/>
<text xml:space="preserve" text-anchor="middle" x="714.62" y="-503.18" font-family="Times,serif" font-size="16.00">44.79998779296875</text>
<polyline fill="none" stroke="black" points="616.25,-495.62 813,-495.62"/>
<text xml:space="preserve" text-anchor="middle" x="714.62" y="-476.43" font-family="Times,serif" font-size="16.00">0</text>
</g>
<!-- node1&#45;&gt;node3 -->
<g id="2" class="edge">
<title>node1:f0&#45;&gt;node3:f0</title>
<path fill="none" stroke="black" d="M199.25,-537.12C217.53,-537.12 217.55,-552.44 235.25,-557 274.41,-567.09 285.82,-557.95 326.25,-557 439.23,-554.33 468.49,-561.82 580.25,-545 591.99,-543.23 596.92,-539.23 604.89,-537.11"/>
<polygon fill="black" stroke="black" points="605.24,-540.6 614.75,-535.93 604.4,-533.65 605.24,-540.6"/>
</g>
<!-- node4 -->
<g id="node5" class="node">
<title>node4</title>
<polygon fill="none" stroke="black" points="235.25,-417.5 235.25,-524.5 326.25,-524.5 326.25,-417.5 235.25,-417.5"/>
<text xml:space="preserve" text-anchor="middle" x="280.75" y="-505.3" font-family="Times,serif" font-size="16.00">0xf7fc4380</text>
<polyline fill="none" stroke="black" points="235.25,-497.75 326.25,-497.75"/>
<text xml:space="preserve" text-anchor="middle" x="280.75" y="-478.55" font-family="Times,serif" font-size="16.00"> </text>
<polyline fill="none" stroke="black" points="235.25,-471 326.25,-471"/>
<text xml:space="preserve" text-anchor="middle" x="280.75" y="-451.8" font-family="Times,serif" font-size="16.00"> </text>
<polyline fill="none" stroke="black" points="235.25,-444.25 326.25,-444.25"/>
<text xml:space="preserve" text-anchor="middle" x="280.75" y="-425.05" font-family="Times,serif" font-size="16.00">2</text>
</g>
<!-- node1&#45;&gt;node4 -->
<g id="3" class="edge">
<title>node1:f1&#45;&gt;node4:f0</title>
<path fill="none" stroke="black" d="M199.25,-510.38C210.63,-510.38 215.93,-510.75 223.8,-510.97"/>
<polygon fill="black" stroke="black" points="223.69,-514.47 233.74,-511.1 223.78,-507.47 223.69,-514.47"/>
</g>
<!-- node5 -->
<g id="node6" class="node">
<title>node5</title>
<polygon fill="none" stroke="black" points="253.75,-73.5 253.75,-180.5 307.75,-180.5 307.75,-73.5 253.75,-73.5"/>
<text xml:space="preserve" text-anchor="middle" x="280.75" y="-161.3" font-family="Times,serif" font-size="16.00">(nil)</text>
<polyline fill="none" stroke="black" points="253.75,-153.75 307.75,-153.75"/>
<text xml:space="preserve" text-anchor="middle" x="280.75" y="-134.55" font-family="Times,serif" font-size="16.00"> </text>
<polyline fill="none" stroke="black" points="253.75,-127 307.75,-127"/>
<text xml:space="preserve" text-anchor="middle" x="280.75" y="-107.8" font-family="Times,serif" font-size="16.00"> </text>
<polyline fill="none" stroke="black" points="253.75,-100.25 307.75,-100.25"/>
<text xml:space="preserve" text-anchor="middle" x="280.75" y="-81.05" font-family="Times,serif" font-size="16.00">&#45;1</text>
</g>
<!-- node1&#45;&gt;node5 -->
<g id="4" class="edge">
<title>node1:f2&#45;&gt;node5:f0</title>
<path fill="none" stroke="black" d="M199.25,-483.62C263.89,-483.62 193.45,-244.3 235.25,-195 244.95,-183.56 263.85,-192.23 273.97,-190.61"/>
<polygon fill="black" stroke="black" points="276.69,-192.83 279.85,-182.71 271.07,-188.65 276.69,-192.83"/>
</g>
<!-- node4&#45;&gt;node3 -->
<g id="5" class="edge">
<title>node4:f0&#45;&gt;node3:f0</title>
<path fill="none" stroke="black" d="M326.25,-511.12C451.69,-511.12 484.91,-534.28 604.77,-535.68"/>
<polygon fill="black" stroke="black" points="604.72,-539.18 614.74,-535.74 604.76,-532.18 604.72,-539.18"/>
</g>
<!-- node6 -->
<g id="node7" class="node">
<title>node6</title>
<polygon fill="none" stroke="black" points="362.25,-391.5 362.25,-498.5 453.25,-498.5 453.25,-391.5 362.25,-391.5"/>
<text xml:space="preserve" text-anchor="middle" x="407.75" y="-479.3" font-family="Times,serif" font-size="16.00">0xf7fc4380</text>
<polyline fill="none" stroke="black" points="362.25,-471.75 453.25,-471.75"/>
<text xml:space="preserve" text-anchor="middle" x="407.75" y="-452.55" font-family="Times,serif" font-size="16.00"> </text>
<polyline fill="none" stroke="black" points="362.25,-445 453.25,-445"/>
<text xml:space="preserve" text-anchor="middle" x="407.75" y="-425.8" font-family="Times,serif" font-size="16.00"> </text>
<polyline fill="none" stroke="black" points="362.25,-418.25 453.25,-418.25"/>
<text xml:space="preserve" text-anchor="middle" x="407.75" y="-399.05" font-family="Times,serif" font-size="16.00">1</text>
</g>
<!-- node4&#45;&gt;node6 -->
<g id="6" class="edge">
<title>node4:f1&#45;&gt;node6:f0</title>
<path fill="none" stroke="black" d="M326.25,-484.38C337.63,-484.38 342.93,-484.75 350.8,-484.97"/>
<polygon fill="black" stroke="black" points="350.69,-488.47 360.74,-485.1 350.78,-481.47 350.69,-488.47"/>
</g>
<!-- node10 -->
<g id="node11" class="node">
<title>node10</title>
<polygon fill="none" stroke="black" points="380.75,-237.5 380.75,-344.5 434.75,-344.5 434.75,-237.5 380.75,-237.5"/>
<text xml:space="preserve" text-anchor="middle" x="407.75" y="-325.3" font-family="Times,serif" font-size="16.00">(nil)</text>
<polyline fill="none" stroke="black" points="380.75,-317.75 434.75,-317.75"/>
<text xml:space="preserve" text-anchor="middle" x="407.75" y="-298.55" font-family="Times,serif" font-size="16.00"> </text>
<polyline fill="none" stroke="black" points="380.75,-291 434.75,-291"/>
<text xml:space="preserve" text-anchor="middle" x="407.75" y="-271.8" font-family="Times,serif" font-size="16.00"> </text>
<polyline fill="none" stroke="black" points="380.75,-264.25 434.75,-264.25"/>
<text xml:space="preserve" text-anchor="middle" x="407.75" y="-245.05" font-family="Times,serif" font-size="16.00">&#45;1</text>
</g>
<!-- node4&#45;&gt;node10 -->
<g id="7" class="edge">
<title>node4:f2&#45;&gt;node10:f0</title>
<path fill="none" stroke="black" d="M326.25,-457.62C382.88,-457.62 327.94,-348.75 368.45,-333.01"/>
<polygon fill="black" stroke="black" points="368.97,-336.47 378.26,-331.37 367.82,-329.57 368.97,-336.47"/>
</g>
<!-- node6&#45;&gt;node3 -->
<g id="8" class="edge">
<title>node6:f0&#45;&gt;node3:f0</title>
<path fill="none" stroke="black" d="M453.25,-485.12C461.44,-485.12 569.9,-522.85 605.5,-533.17"/>
<polygon fill="black" stroke="black" points="604.24,-536.47 614.78,-535.4 605.87,-529.66 604.24,-536.47"/>
</g>
<!-- node7 -->
<g id="node8" class="node">
<title>node7</title>
<polygon fill="none" stroke="black" points="489.25,-378.5 489.25,-485.5 580.25,-485.5 580.25,-378.5 489.25,-378.5"/>
<text xml:space="preserve" text-anchor="middle" x="534.75" y="-466.3" font-family="Times,serif" font-size="16.00">0xf7fc4380</text>
<polyline fill="none" stroke="black" points="489.25,-458.75 580.25,-458.75"/>
<text xml:space="preserve" text-anchor="middle" x="534.75" y="-439.55" font-family="Times,serif" font-size="16.00"> </text>
<polyline fill="none" stroke="black" points="489.25,-432 580.25,-432"/>
<text xml:space="preserve" text-anchor="middle" x="534.75" y="-412.8" font-family="Times,serif" font-size="16.00"> </text>
<polyline fill="none" stroke="black" points="489.25,-405.25 580.25,-405.25"/>
<text xml:space="preserve" text-anchor="middle" x="534.75" y="-386.05" font-family="Times,serif" font-size="16.00">2</text>
</g>
<!-- node6&#45;&gt;node7 -->
<g id="9" class="edge">
<title>node6:f1&#45;&gt;node7:f0</title>
<path fill="none" stroke="black" d="M453.25,-458.38C465.69,-458.38 470.02,-465.63 478.02,-469.6"/>
<polygon fill="black" stroke="black" points="477.25,-473.02 487.77,-471.79 478.78,-466.19 477.25,-473.02"/>
</g>
<!-- node9 -->
<g id="node10" class="node">
<title>node9</title>
<polygon fill="none" stroke="black" points="507.75,-252.5 507.75,-359.5 561.75,-359.5 561.75,-252.5 507.75,-252.5"/>
<text xml:space="preserve" text-anchor="middle" x="534.75" y="-340.3" font-family="Times,serif" font-size="16.00">(nil)</text>
<polyline fill="none" stroke="black" points="507.75,-332.75 561.75,-332.75"/>
<text xml:space="preserve" text-anchor="middle" x="534.75" y="-313.55" font-family="Times,serif" font-size="16.00"> </text>
<polyline fill="none" stroke="black" points="507.75,-306 561.75,-306"/>
<text xml:space="preserve" text-anchor="middle" x="534.75" y="-286.8" font-family="Times,serif" font-size="16.00"> </text>
<polyline fill="none" stroke="black" points="507.75,-279.25 561.75,-279.25"/>
<text xml:space="preserve" text-anchor="middle" x="534.75" y="-260.05" font-family="Times,serif" font-size="16.00">&#45;1</text>
</g>
<!-- node6&#45;&gt;node9 -->
<g id="10" class="edge">
<title>node6:f2&#45;&gt;node9:f0</title>
<path fill="none" stroke="black" d="M453.25,-431.62C493.7,-431.62 468.21,-362.01 495.78,-348.41"/>
<polygon fill="black" stroke="black" points="496.19,-351.9 505.27,-346.43 494.76,-345.05 496.19,-351.9"/>
</g>
<!-- node7&#45;&gt;node1 -->
<g id="12" class="edge">
<title>node7:f1&#45;&gt;node1:f0</title>
<path fill="none" stroke="black" d="M489.25,-445.38C457.15,-445.38 479.28,-489.2 453.25,-508 364.28,-572.26 316.23,-539.56 210.68,-537.25"/>
<polygon fill="black" stroke="black" points="210.8,-533.75 200.76,-537.14 210.72,-540.75 210.8,-533.75"/>
</g>
<!-- node7&#45;&gt;node3 -->
<g id="11" class="edge">
<title>node7:f0&#45;&gt;node3:f0</title>
<path fill="none" stroke="black" d="M580.25,-472.12C607.92,-472.12 591.01,-518.26 605.44,-531.96"/>
<polygon fill="black" stroke="black" points="604.23,-535.24 614.82,-535.25 606.54,-528.64 604.23,-535.24"/>
</g>
<!-- node8 -->
<g id="node9" class="node">
<title>node8</title>
<polygon fill="none" stroke="black" points="687.62,-325.5 687.62,-432.5 741.62,-432.5 741.62,-325.5 687.62,-325.5"/>
<text xml:space="preserve" text-anchor="middle" x="714.62" y="-413.3" font-family="Times,serif" font-size="16.00">(nil)</text>
<polyline fill="none" stroke="black" points="687.62,-405.75 741.62,-405.75"/>
<text xml:space="preserve" text-anchor="middle" x="714.62" y="-386.55" font-family="Times,serif" font-size="16.00"> </text>
<polyline fill="none" stroke="black" points="687.62,-379 741.62,-379"/>
<text xml:space="preserve" text-anchor="middle" x="714.62" y="-359.8" font-family="Times,serif" font-size="16.00"> </text>
<polyline fill="none" stroke="black" points="687.62,-352.25 741.62,-352.25"/>
<text xml:space="preserve" text-anchor="middle" x="714.62" y="-333.05" font-family="Times,serif" font-size="16.00">&#45;1</text>
</g>
<!-- node7&#45;&gt;node8 -->
<g id="13" class="edge">
<title>node7:f2&#45;&gt;node8:f0</title>
<path fill="none" stroke="black" d="M580.25,-418.62C623.47,-418.62 637.05,-419.04 675.18,-419.11"/>
<polygon fill="black" stroke="black" points="675.11,-422.61 685.11,-419.12 675.11,-415.61 675.11,-422.61"/>
</g>
<!-- node11 -->
<g id="node12" class="node">
<title>node11</title>
<polygon fill="none" stroke="black" points="507.75,-126.5 507.75,-233.5 561.75,-233.5 561.75,-126.5 507.75,-126.5"/>
<text xml:space="preserve" text-anchor="middle" x="534.75" y="-214.3" font-family="Times,serif" font-size="16.00">(nil)</text>
<polyline fill="none" stroke="black" points="507.75,-206.75 561.75,-206.75"/>
<text xml:space="preserve" text-anchor="middle" x="534.75" y="-187.55" font-family="Times,serif" font-size="16.00"> </text>
<polyline fill="none" stroke="black" points="507.75,-180 561.75,-180"/>
<text xml:space="preserve" text-anchor="middle" x="534.75" y="-160.8" font-family="Times,serif" font-size="16.00"> </text>
<polyline fill="none" stroke="black" points="507.75,-153.25 561.75,-153.25"/>
<text xml:space="preserve" text-anchor="middle" x="534.75" y="-134.05" font-family="Times,serif" font-size="16.00">&#45;1</text>
</g>
<!-- node10&#45;&gt;node11 -->
<g id="14" class="edge">
<title>node10:f1&#45;&gt;node11:f0</title>
<path fill="none" stroke="black" d="M435.75,-304.38C480.51,-304.38 461.85,-233.98 495.71,-221.88"/>
<polygon fill="black" stroke="black" points="495.93,-225.39 505.26,-220.36 494.83,-218.48 495.93,-225.39"/>
</g>
<!-- node12 -->
<g id="node13" class="node">
<title>node12</title>
<polygon fill="none" stroke="black" points="490,-0.5 490,-107.5 579.5,-107.5 579.5,-0.5 490,-0.5"/>
<text xml:space="preserve" text-anchor="middle" x="534.75" y="-88.3" font-family="Times,serif" font-size="16.00">0xf7fc43e0</text>
<polyline fill="none" stroke="black" points="490,-80.75 579.5,-80.75"/>
<text xml:space="preserve" text-anchor="middle" x="534.75" y="-61.55" font-family="Times,serif" font-size="16.00"> </text>
<polyline fill="none" stroke="black" points="490,-54 579.5,-54"/>
<text xml:space="preserve" text-anchor="middle" x="534.75" y="-34.8" font-family="Times,serif" font-size="16.00"> </text>
<polyline fill="none" stroke="black" points="490,-27.25 579.5,-27.25"/>
<text xml:space="preserve" text-anchor="middle" x="534.75" y="-8.05" font-family="Times,serif" font-size="16.00">1</text>
</g>
<!-- node10&#45;&gt;node12 -->
<g id="15" class="edge">
<title>node10:f2&#45;&gt;node12:f0</title>
<path fill="none" stroke="black" d="M435.75,-277.62C516.55,-277.62 415.19,-111.61 478.2,-95.39"/>
<polygon fill="black" stroke="black" points="478.21,-98.92 487.75,-94.3 477.41,-91.96 478.21,-98.92"/>
</g>
<!-- node11&#45;&gt;node1 -->
<g id="16" class="edge">
<title>node11:f2&#45;&gt;node1:f0</title>
<path fill="none" stroke="black" d="M506.75,-166.62C345.29,-166.62 304.48,-262.14 235.25,-408 211.55,-457.93 252.12,-526.35 210.53,-535.98"/>
<polygon fill="black" stroke="black" points="210.35,-532.48 200.76,-536.97 211.06,-539.45 210.35,-532.48"/>
</g>
</g>
</svg>
