<?xml version="1.0" encoding="UTF-8"?>
<svg xmlns="http://www.w3.org/2000/svg" width="300pt" height="249.60000000000002pt" viewBox="0 0 300 249.60000000000002">
  <rect x="0" y="0" width="300" height="249.60000000000002" fill="white"/>
  <g transform="translate(0 249.60000000000002) scale(1 -1)">
    <rect x="4" y="12" width="142" height="148.8" fill="none" stroke="hotpink"/>
    <text x="75" y="-143.3502" transform="scale(1 -1)" text-anchor="middle" font-family="Times,serif" font-size="14" fill="black">hello world</text>
    <rect x="154" y="12" width="142" height="225.60000000000002" fill="none" stroke="purple" stroke-dasharray="5,2"/>
    <text x="225" y="-220.1502" transform="scale(1 -1)" text-anchor="middle" font-family="Times,serif" font-size="14" fill="black">MSDOT</text>
    <path d="M 111 91.69662499427795 C 111 84.40655407865415 111 75.72646815594726 111 67.535711707834" fill="none" stroke="black"/>
    <polygon points="111,67.535711707834 114,77.535711707834 108,77.535711707834" fill="black" stroke="black"/>
    <path d="M 93.20224285125732 91.69662499427795 C 84.72136757156113 83.45132958346221 74.4115378837294 73.4278840536258 65.0695720750651 64.34541729520217" fill="none" stroke="black"/>
    <polygon points="65.0695720750651,64.34541729520217 74.33075644308482,69.16521647167696 70.14828608333397,73.46718598456354" fill="black" stroke="black"/>
    <path d="M 202.8251953125 168.4513671875 C 200.7351107597351 159.765904712677 198.15210099262185 149.03206412489527 195.78659126719128 139.20205704366157" fill="none" stroke="black"/>
    <polygon points="195.78659126719128,139.20205704366157 201.04295620226267,148.2226239698227 195.2094829508778,149.62640095545007" fill="black" stroke="black"/>
    <path d="M 204.86447882652283 168.38363842964174 C 201.81971970035374 143.551936222885 196.19431333286195 97.67362207022974 192.52576739460318 67.75459186265263" fill="none" stroke="black"/>
    <polygon points="192.52576739460318,67.75459186265263 196.7205098609738,77.31514287401316 190.76511146577835,78.04536883527692" fill="black" stroke="black"/>
    <path d="M 189 91.69662499427795 C 189 84.40655407865415 189 75.72646815594726 189 67.535711707834" fill="none" stroke="black"/>
    <polygon points="189,67.535711707834 192,77.535711707834 186,77.535711707834" fill="black" stroke="black"/>
    <path d="M 206.79775714874268 91.69662499427795 C 215.27863242843887 83.45132958346221 225.58846211627062 73.4278840536258 234.93042792493492 64.34541729520217" fill="none" stroke="black"/>
    <polygon points="234.93042792493492,64.34541729520217 229.85171391666603,73.46718598456354 225.6692435569152,69.16521647167696" fill="black" stroke="black"/>
    <path d="M 113.30419921875 168.4513671875 C 112.95963817834854 159.8603119134903 112.53469919016788 149.2651664748526 112.14396727212976 139.52291731843513" fill="none" stroke="black"/>
    <polygon points="112.14396727212976,139.52291731843513 115.54230466141907,149.39465997049805 109.54712455012564,149.63510837068364" fill="black" stroke="black"/>
    <path d="M 131.39501953125 168.4513671875 C 140.95564180612564 158.91623990535737 152.99161562458175 146.9123620170838 163.5863538783775 136.3458763986315" fill="none" stroke="black"/>
    <polygon points="163.5863538783775,136.3458763986315 158.6243379511535,145.53164789252222 154.38736544708553,141.2833465849674" fill="black" stroke="black"/>
    <path d="M 169.71909642219543 91.69662499427795 C 160.34397919123876 83.2830582485476 148.90579732525484 73.0180232406133 138.6237520902038 63.7905467476188" fill="none" stroke="black"/>
    <polygon points="138.6237520902038,63.7905467476188 148.06990415248214,68.23691731430739 144.0624457018186,72.70237101647533" fill="black" stroke="black"/>
    <ellipse cx="111" cy="110" rx="27" ry="18" fill="none" stroke="black"/>
    <text x="111" y="-104.95020000000001" transform="scale(1 -1)" text-anchor="middle" font-family="Times,serif" font-size="14" fill="black">a</text>
    <ellipse cx="111" cy="38" rx="27" ry="18" fill="none" stroke="black"/>
    <text x="111" y="-32.950199999999995" transform="scale(1 -1)" text-anchor="middle" font-family="Times,serif" font-size="14" fill="black">b</text>
    <ellipse cx="39" cy="38" rx="27" ry="18" fill="none" stroke="black"/>
    <text x="39" y="-32.950199999999995" transform="scale(1 -1)" text-anchor="middle" font-family="Times,serif" font-size="14" fill="black">c</text>
    <ellipse cx="207" cy="186.8" rx="27" ry="18" fill="none" stroke="black"/>
    <text x="207" y="-181.7502" transform="scale(1 -1)" text-anchor="middle" font-family="Times,serif" font-size="14" fill="black">x</text>
    <ellipse cx="189" cy="110" rx="27" ry="18" fill="none" stroke="black"/>
    <text x="189" y="-104.95020000000001" transform="scale(1 -1)" text-anchor="middle" font-family="Times,serif" font-size="14" fill="black">y</text>
    <ellipse cx="189" cy="38" rx="27" ry="18" fill="none" stroke="black"/>
    <text x="189" y="-32.950199999999995" transform="scale(1 -1)" text-anchor="middle" font-family="Times,serif" font-size="14" fill="black">z</text>
    <ellipse cx="261" cy="38" rx="27" ry="18" fill="none" stroke="black"/>
    <text x="261" y="-32.950199999999995" transform="scale(1 -1)" text-anchor="middle" font-family="Times,serif" font-size="14" fill="black">q</text>
    <ellipse cx="114" cy="186.8" rx="27" ry="18" fill="none" stroke="black"/>
    <text x="114" y="-181.7502" transform="scale(1 -1)" text-anchor="middle" font-family="Times,serif" font-size="14" fill="black">top</text>
  </g>
</svg>

