<?xml version="1.0" encoding="UTF-8"?>
<svg xmlns="http://www.w3.org/2000/svg" width="1276.7268856pt" height="985.5999999999998pt" viewBox="0 0 1276.7268856 985.5999999999998">
  <rect x="0" y="0" width="1276.7268856" height="985.5999999999998" fill="white"/>
  <g transform="translate(0 985.5999999999998) scale(1 -1)">
    <rect x="205.14758599999996" y="598.1999999999999" width="295.74044960000003" height="76.79999999999995" fill="none" stroke="black" stroke-dasharray="5,2"/>
    <text x="353.0178108" y="-657.5501999999999" transform="scale(1 -1)" text-anchor="middle" font-family="Times,serif" font-size="14" fill="black">xvm_a Clients</text>
    <rect x="27.490142200000008" y="743.9" width="238.05533719999997" height="76.79999999999995" fill="none" stroke="black" stroke-dasharray="5,2"/>
    <text x="146.51781079999998" y="-803.2502" transform="scale(1 -1)" text-anchor="middle" font-family="Times,serif" font-size="14" fill="black">Z Clients</text>
    <rect x="11.92" y="598.1999999999999" width="185.1956216" height="110.39999999999998" fill="none" stroke="black" stroke-dasharray="5,2"/>
    <text x="104.5178108" y="-690.8505999999999" transform="scale(1 -1)" text-anchor="middle" font-family="Times,serif" font-size="14" fill="black">Z Shapeshifters</text>
    <text x="104.5178108" y="-674.3501999999999" transform="scale(1 -1)" text-anchor="middle" font-family="Times,serif" font-size="14" fill="black">(Configurable</text>
    <text x="104.5178108" y="-657.8497999999998" transform="scale(1 -1)" text-anchor="middle" font-family="Times,serif" font-size="14" fill="black">Z Shapeshifter)</text>
    <rect x="222.21917439999996" y="486.09999999999997" width="298.59727280000004" height="76.7999999999999" fill="none" stroke="black"/>
    <text x="371.5178108" y="-545.4501999999999" transform="scale(1 -1)" text-anchor="middle" font-family="Times,serif" font-size="14" fill="black">Machsrv Shapeshifter</text>
    <rect x="916.2636186" y="598.1999999999999" width="136.50838440000007" height="76.79999999999995" fill="none" stroke="black"/>
    <text x="984.5178107999999" y="-657.5501999999999" transform="scale(1 -1)" text-anchor="middle" font-family="Times,serif" font-size="14" fill="black">NOXd Shapeshifter</text>
    <rect x="528.705963" y="405.09999999999997" width="380.0962532" height="543.6999999999998" fill="none" stroke="black"/>
    <text x="718.7540895999999" y="-931.3501999999999" transform="scale(1 -1)" text-anchor="middle" font-family="Times,serif" font-size="14" fill="black">YoursTruly</text>
    <rect x="758.2334054" y="413.09999999999997" width="142.56881079999994" height="261.8999999999999" fill="none" stroke="black"/>
    <text x="829.5178108" y="-657.5501999999999" transform="scale(1 -1)" text-anchor="middle" font-family="Times,serif" font-size="14" fill="black">Foo Reactor</text>
    <rect x="536.705963" y="598.1999999999999" width="213.7438664" height="317.79999999999995" fill="none" stroke="black"/>
    <text x="643.5778962" y="-898.5501999999999" transform="scale(1 -1)" text-anchor="middle" font-family="Times,serif" font-size="14" fill="black">YoursTruly Front-End</text>
    <rect x="1060.7370484" y="598.1999999999999" width="204.06983719999994" height="76.79999999999995" fill="none" stroke="black" stroke-dasharray="5,2"/>
    <text x="1162.7719670000001" y="-657.5501999999999" transform="scale(1 -1)" text-anchor="middle" font-family="Times,serif" font-size="14" fill="black">Other Shapeshifters</text>
    <rect x="728.6160054000001" y="12" width="226.06607939999992" height="360.3" fill="none" stroke="black"/>
    <text x="841.6490451000001" y="-354.85020000000003" transform="scale(1 -1)" text-anchor="middle" font-family="Times,serif" font-size="14" fill="black">ShipX</text>
    <rect x="750.5178108" y="20" width="158" height="117.6" fill="none" stroke="black"/>
    <text x="829.5178108" y="-120.1502" transform="scale(1 -1)" text-anchor="middle" font-family="Times,serif" font-size="14" fill="black">ReactorX</text>
    <rect x="758.5178108" y="28" width="142" height="76.8" fill="none" stroke="black"/>
    <text x="829.5178108" y="-87.3502" transform="scale(1 -1)" text-anchor="middle" font-family="Times,serif" font-size="14" fill="black">Tungsten</text>
    <rect x="736.6160054000001" y="172.9" width="210.06607939999992" height="166.6" fill="none" stroke="black"/>
    <text x="841.6490451000001" y="-322.0502" transform="scale(1 -1)" text-anchor="middle" font-family="Times,serif" font-size="14" fill="black">ReactorY</text>
    <path d="M 89.75736089239928 740.4762999122818 C 91.57639329876147 726.0008666081878 98.85252292421023 668.0991333918121 100.67155533057243 653.6237000877181" fill="none" stroke="black"/>
    <polygon points="100.67155533057243,653.6237000877181 102.40131707199599,663.9197150604106 96.44813716642561,663.1716181335936" fill="black" stroke="black"/>
    <polygon points="89.75736089239928,740.4762999122818 88.02759915097572,730.1802849395893 93.9807790565461,730.9283818664063" fill="black" stroke="black"/>
    <path d="M 179.72745955434232 742.292516920796 C 169.76786139601185 727.2116779471972 129.92946876268996 666.8883220528027 119.96987060435951 651.807483079204" fill="none" stroke="black"/>
    <polygon points="119.96987060435951,651.807483079204 127.98405080487206,658.4987397409764 122.97734765518797,661.8052369163786" fill="black" stroke="black"/>
    <polygon points="179.72745955434232,742.292516920796 171.71327935382976,735.6012602590235 176.71998250351385,732.2947630836213" fill="black" stroke="black"/>
    <path d="M 125.96676642729763 598.836262701002 C 141.86703051975744 585.6075084673347 205.46808688959666 532.6924915326651 221.36835098205646 519.4637372989978" fill="none" stroke="black"/>
    <polygon points="221.36835098205646,519.4637372989978 215.59975179201606,528.165648777786 211.76232148645127,523.5532601720923" fill="black" stroke="black"/>
    <polygon points="125.96676642729763,598.836262701002 131.735365617338,590.1343512222138 135.5727959229028,594.7467398279075" fill="black" stroke="black"/>
    <text x="173.66755870467702" y="-554.1001999999999" transform="scale(1 -1)" text-anchor="middle" font-family="Times,serif" font-size="14" fill="black">Foo SCADA</text>
    <path d="M 387.59375502698714 600.0495365019738 C 370.76674062756825 589.4163576679825 303.45868302989277 546.8836423320174 286.6316686304739 536.2504634980261" fill="none" stroke="black"/>
    <polygon points="286.6316686304739,536.2504634980261 296.6878706003875,539.0563148733318 293.48270805014175,544.1284872902063" fill="black" stroke="black"/>
    <polygon points="387.59375502698714,600.0495365019738 377.5375530570735,597.2436851266681 380.74271560731927,592.1715127097935" fill="black" stroke="black"/>
    <path d="M 277.99738767778007 594.6881215828415 C 277.84689067984147 585.8420810552277 277.24490268808717 550.4579189447722 277.0944056901486 541.6118784171583" fill="none" stroke="black"/>
    <polygon points="277.0944056901486,541.6118784171583 280.26407622987176,551.5594001522243 274.2649443599729,551.6614629150886" fill="black" stroke="black"/>
    <polygon points="277.99738767778007,594.6881215828415 274.82771713805687,584.7405998477756 280.82684900795573,584.6385370849113" fill="black" stroke="black"/>
    <path d="M 829.5178108 594.686455707113 C 829.5178108 585.8409704714087 829.5178108 550.4590295285913 829.5178108 541.6135442928869" fill="none" stroke="black"/>
    <polygon points="829.5178108,541.6135442928869 832.5178108,551.6135442928869 826.5178108,551.6135442928869" fill="black" stroke="black"/>
    <polygon points="829.5178108,594.686455707113 826.5178108,584.686455707113 832.5178108,584.686455707113" fill="black" stroke="black"/>
    <path d="M 829.5178108 482.58645570711303 C 829.5178108 480.2576371380753 829.5178108 470.9423628619246 829.5178108 468.6135442928869" fill="none" stroke="black"/>
    <polygon points="829.5178108,468.6135442928869 832.5178108,478.6135442928869 826.5178108,478.6135442928869" fill="black" stroke="black"/>
    <polygon points="829.5178108,482.58645570711303 826.5178108,472.58645570711303 832.5178108,472.58645570711303" fill="black" stroke="black"/>
    <path d="M 944.1830905306413 599.3656079821465 C 930.0763116629558 588.9604053214309 873.6491961922144 547.3395946785689 859.542417324529 536.9343920178534" fill="none" stroke="black"/>
    <polygon points="859.542417324529,536.9343920178534 869.3708378965047,540.4560605230315 865.8092628450712,545.284640350787" fill="black" stroke="black"/>
    <polygon points="944.1830905306413,599.3656079821465 934.3546699586656,595.8439394769683 937.916245010099,591.0153596492129" fill="black" stroke="black"/>
    <path d="M 580.4794546356164 847.1999999999999 C 577.5608473296803 844.1166666666666 565.6697514392694 849.0666666666666 562.9678107999999 828.6999999999999 C 560.2658701607305 808.3333333333333 558.5195425130872 754.3392348105399 564.2678108 725 C 570.0160790869128 695.6607651894601 591.9258189012303 664.7204926139672 597.4574205214764 652.6645911367606" fill="none" stroke="black" stroke-dasharray="1,5"/>
    <polygon points="597.4574205214764,652.6645911367606 596.0138299782118,663.0046127200744 590.5604660771103,660.5024492237853" fill="black" stroke="black"/>
    <path d="M 597.5178108 847.1999999999999 C 597.5178108 839.2355907154811 597.5178108 807.3779535774057 597.5178108 799.4135442928869" fill="none" stroke="black" stroke-dasharray="1,5"/>
    <polygon points="597.5178108,799.4135442928869 600.5178108,809.4135442928869 594.5178108,809.4135442928869" fill="black" stroke="black"/>
    <path d="M 625.2821943616439 847.1999999999999 C 633.6325245818531 838.6866071337347 667.0338454626902 804.633035668674 675.3841756828995 796.1196428024089" fill="none" stroke="black" stroke-dasharray="1,5"/>
    <polygon points="675.3841756828995,796.1196428024089 670.5235406233663,805.3594602691144 666.240076247855,801.1580399207412" fill="black" stroke="black"/>
    <path d="M 642.8495974864469 752.1241244626032 C 646.7276330387057 750.6034370521693 648.6713971477411 750.5206874104339 666.1178107999999 743 C 683.5642244522587 735.4793125895661 724.6155846156366 722.4364604963846 747.5280793999999 707 C 770.4405741843632 691.5635395036154 794.2486628218165 659.8176975180771 803.5927795061798 650.3812370216925" fill="none" stroke="black"/>
    <polygon points="803.5927795061798,650.3812370216925 798.6882901573813,659.5978515968781 794.4248400084568,655.3761229429216" fill="black" stroke="black"/>
    <polygon points="642.8495974864469,752.1241244626032 651.0642265165603,745.6805330806473 653.2546133089944,751.2664265364455" fill="black" stroke="black"/>
    <text x="721.912324173913" y="-694.2138551774052" transform="scale(1 -1)" text-anchor="middle" font-family="Times,serif" font-size="14" fill="black">XPROT over PROT_G</text>
    <path d="M 599.8613627893335 740.433582255693 C 601.1738161086171 725.972388170462 606.4236293857514 668.127611829538 607.736082705035 653.666417744307" fill="none" stroke="black"/>
    <polygon points="607.736082705035,653.666417744307 609.8199489723327,663.8966426382191 603.8445078122768,663.3543300505809" fill="black" stroke="black"/>
    <polygon points="599.8613627893335,740.433582255693 597.7774965220358,730.2033573617808 603.7529376820917,730.745669949419" fill="black" stroke="black"/>
    <path d="M 552.2249977071531 601.2315649715213 C 529.1730137004523 590.2043766476809 436.9650776736489 546.0956233523191 413.9130936669481 535.0684350284786" fill="none" stroke="black"/>
    <polygon points="413.9130936669481,535.0684350284786 424.2286702625935,536.6774345621559 421.639492732848,542.0900272606195" fill="black" stroke="black"/>
    <polygon points="552.2249977071531,601.2315649715213 541.9094211115078,599.622565437844 544.4985986412532,594.2099727393803" fill="black" stroke="black"/>
    <text x="483.0690456870506" y="-563.1001999999999" transform="scale(1 -1)" text-anchor="middle" font-family="Times,serif" font-size="14" fill="black">XPROT over PROT_G</text>
    <path d="M 753.8806771589456 762.9875128837449 C 806.4201994324546 756.6562607364541 1011.6394668091278 743.3562093721744 1069.1178108 725 C 1126.5961547908719 706.6437906278256 1093.8119193868145 664.8752138755821 1098.7507411041775 652.8502566506985" fill="none" stroke="black" stroke-dasharray="1,5"/>
    <polygon points="1098.7507411041775,652.8502566506985 1097.726612019544,663.2402113964137 1092.1764931092735,660.9606982725523" fill="black" stroke="black"/>
    <polygon points="753.8806771589456,762.9875128837449 763.4499346231119,758.8126701819779 764.1677688226625,764.7695749203428" fill="black" stroke="black"/>
    <path d="M 753.9056999369182 764.1342443001843 C 818.8243850807651 757.6118702501535 1069.9977022534406 743.7469600556428 1143.4178107999999 725 C 1216.8379193465591 706.2530399443572 1185.924927813562 663.8770699719394 1194.4263512162743 651.6524839663273" fill="none" stroke="black" stroke-dasharray="1,5"/>
    <polygon points="1194.4263512162743,651.6524839663273 1191.1798641607813,661.5752014267066 1186.2539349807455,658.1495304394" fill="black" stroke="black"/>
    <polygon points="753.9056999369182,764.1342443001843 763.5557079545263,760.1496056390133 764.1555077284099,766.1195503817432" fill="black" stroke="black"/>
    <path d="M 816.2212926825486 260.27077792983 C 814.9373790354572 257.5256482748583 811.0856380941829 249.29025930994334 808.5178108 243.8 C 805.9499835058172 238.30974069005669 802.0982425645428 230.07435172514167 800.8143289174515 227.32922207017" fill="none" stroke="black"/>
    <polygon points="800.8143289174515,227.32922207017 807.7683791163239,235.11646714346526 802.3334469330449,237.65841760780503" fill="black" stroke="black"/>
    <polygon points="816.2212926825486,260.27077792983 809.2672424836761,252.48353285653474 814.7021746669551,249.94158239219496" fill="black" stroke="black"/>
    <text x="808.5178108" y="-238.7502" transform="scale(1 -1)" text-anchor="middle" font-family="Times,serif" font-size="14" fill="black">MechCmd</text>
    <path d="M 842.6142960583104 261.3239941219333 C 846.7773830063569 255.48266274795552 863.4297307985429 232.11733725204448 867.5928177465894 226.2760058780667" fill="none" stroke="black"/>
    <polygon points="867.5928177465894,226.2760058780667 864.2320545455214,236.16060352826705 859.3459800373305,232.67832325516898" fill="black" stroke="black"/>
    <polygon points="842.6142960583104,261.3239941219333 845.9750592593784,251.43939647173295 850.8611337675693,254.92167674483102" fill="black" stroke="black"/>
    <text x="855.1035569024499" y="-238.7502" transform="scale(1 -1)" text-anchor="middle" font-family="Times,serif" font-size="14" fill="black">MechCmd</text>
    <path d="M 788.5035722051949 169.39287527116392 C 788.5892786376625 166.82739605930325 788.4033686513143 168.31516179448744 789.0178108 154 C 789.6322529486857 139.68483820551256 791.6614893810911 95.25158708686605 792.1902250973093 83.50190450423926" fill="none" stroke="black"/>
    <polygon points="792.1902250973093,83.50190450423926 794.7376471369265,93.62665837542409 788.7437129260624,93.3569313359352" fill="black" stroke="black"/>
    <polygon points="788.5035722051949,169.39287527116392 785.8391343585049,159.29828409761333 791.8357889608301,159.49861777029687" fill="black" stroke="black"/>
    <text x="790.4134789514477" y="-121.4002" transform="scale(1 -1)" text-anchor="middle" font-family="Times,serif" font-size="14" fill="black">SCADA_A()</text>
    <path d="M 885.8389348366453 169.5734083896689 C 883.2164814643709 155.19893892644595 872.7266679752729 97.70106107355407 870.1042146029985 83.3265916103311" fill="none" stroke="black"/>
    <polygon points="870.1042146029985,83.3265916103311 874.8502607787825,92.62578758080753 868.9476865641707,93.70264302189443" fill="black" stroke="black"/>
    <polygon points="885.8389348366453,169.5734083896689 881.0928886608613,160.27421241919248 886.9954628754731,159.1973569781056" fill="black" stroke="black"/>
    <text x="877.9715747198219" y="-121.4002" transform="scale(1 -1)" text-anchor="middle" font-family="Times,serif" font-size="14" fill="black">SCADA_A()</text>
    <path d="M 829.5178108 409.58645570711303 C 829.5178108 394.35763713807535 829.5178108 333.4423628619246 829.5178108 318.2135442928869" fill="none" stroke="black"/>
    <polygon points="829.5178108,318.2135442928869 832.5178108,328.2135442928869 826.5178108,328.2135442928869" fill="black" stroke="black"/>
    <polygon points="829.5178108,409.58645570711303 826.5178108,399.58645570711303 832.5178108,399.58645570711303" fill="black" stroke="black"/>
    <text x="829.5178108" y="-358.8502" transform="scale(1 -1)" text-anchor="middle" font-family="Times,serif" font-size="14" fill="black">Raw PROT_G</text>
    <rect x="213.147586" y="606.1999999999999" width="130.74044960000003" height="36" rx="6" ry="6" fill="none" stroke="black"/>
    <text x="278.5178108" y="-619.1501999999999" transform="scale(1 -1)" text-anchor="middle" font-family="Times,serif" font-size="14" fill="black">xvm_a Application ..</text>
    <rect x="362.147586" y="606.1999999999999" width="130.74044960000003" height="36" rx="6" ry="6" fill="none" stroke="black"/>
    <text x="427.5178108" y="-619.1501999999999" transform="scale(1 -1)" text-anchor="middle" font-family="Times,serif" font-size="14" fill="black">xvm_a Application 1</text>
    <rect x="155.49014219999998" y="751.9" width="102.0553372" height="36" rx="6" ry="6" fill="none" stroke="black"/>
    <text x="206.51781079999998" y="-764.8502" transform="scale(1 -1)" text-anchor="middle" font-family="Times,serif" font-size="14" fill="black">Z Application ..</text>
    <rect x="35.49014220000001" y="751.9" width="102.0553372" height="36" rx="6" ry="6" fill="none" stroke="black"/>
    <text x="86.5178108" y="-764.8502" transform="scale(1 -1)" text-anchor="middle" font-family="Times,serif" font-size="14" fill="black">Z Application 1</text>
    <rect x="19.92" y="606.1999999999999" width="169.19562159999998" height="36" rx="6" ry="6" fill="none" stroke="black"/>
    <text x="104.5178108" y="-619.1501999999999" transform="scale(1 -1)" text-anchor="middle" font-family="Times,serif" font-size="14" fill="black">Z Shapeshifter Appearances</text>
    <rect x="230.21917439999999" y="494.09999999999997" width="282.59727280000004" height="35.99999999999994" rx="6" ry="6" fill="none" stroke="black"/>
    <line x1="323.5779356" y1="494.09999999999997" x2="323.5779356" y2="530.0999999999999" stroke="black"/>
    <text x="276.898555" y="-507.05019999999985" transform="scale(1 -1)" text-anchor="middle" font-family="Times,serif" font-size="14" fill="black">Machsrv Core</text>
    <text x="418.19719139999995" y="-507.05019999999985" transform="scale(1 -1)" text-anchor="middle" font-family="Times,serif" font-size="14" fill="black">PROT_A-to-XPROT Converter</text>
    <rect x="924.2636186" y="606.1999999999999" width="120.50838440000007" height="36" rx="6" ry="6" fill="none" stroke="black"/>
    <text x="984.5178108" y="-619.1501999999999" transform="scale(1 -1)" text-anchor="middle" font-family="Times,serif" font-size="14" fill="black">NOXd Appearance</text>
    <rect x="766.2334054" y="606.1999999999999" width="126.56881079999994" height="36" rx="6" ry="6" fill="none" stroke="black"/>
    <text x="829.5178108" y="-619.1501999999999" transform="scale(1 -1)" text-anchor="middle" font-family="Times,serif" font-size="14" fill="black">Ingress Shapeshifter</text>
    <rect x="771.1388178" y="494.09999999999997" width="116.75798600000007" height="35.99999999999994" rx="6" ry="6" fill="none" stroke="black"/>
    <text x="829.5178108" y="-507.05019999999985" transform="scale(1 -1)" text-anchor="middle" font-family="Times,serif" font-size="14" fill="black">NOX Shapeshifter</text>
    <rect x="767.7417178000001" y="421.09999999999997" width="123.55218599999989" height="36" rx="6" ry="6" fill="none" stroke="black"/>
    <text x="829.5178108" y="-434.05019999999996" transform="scale(1 -1)" text-anchor="middle" font-family="Times,serif" font-size="14" fill="black">Egress Shapeshifter</text>
    <rect x="650.5857922" y="751.9" width="91.86403719999998" height="36" rx="6" ry="6" fill="none" stroke="black"/>
    <text x="696.5178108" y="-764.8502" transform="scale(1 -1)" text-anchor="middle" font-family="Times,serif" font-size="14" fill="black">Other Chunks</text>
    <rect x="544.705963" y="606.1999999999999" width="131.62369560000002" height="36" rx="6" ry="6" fill="none" stroke="black"/>
    <text x="610.5178108" y="-619.1501999999999" transform="scale(1 -1)" text-anchor="middle" font-family="Times,serif" font-size="14" fill="black">XPROT &quot;crystalizer&quot;</text>
    <rect x="562.9049294" y="751.9" width="69.22576279999998" height="36" rx="6" ry="6" fill="none" stroke="black"/>
    <text x="597.5178108" y="-764.8502" transform="scale(1 -1)" text-anchor="middle" font-family="Times,serif" font-size="14" fill="black">JZ Chunk</text>
    <rect x="547.434536" y="847.1999999999999" width="100.16654960000005" height="36" rx="6" ry="6" fill="none" stroke="black"/>
    <text x="597.5178108" y="-860.1501999999999" transform="scale(1 -1)" text-anchor="middle" font-family="Times,serif" font-size="14" fill="black">Arbiter Chunks</text>
    <rect x="1170.228736" y="606.1999999999999" width="86.57814959999996" height="36" rx="6" ry="6" fill="none" stroke="black"/>
    <text x="1213.5178108" y="-619.1501999999999" transform="scale(1 -1)" text-anchor="middle" font-family="Times,serif" font-size="14" fill="black">Shapeshift X</text>
    <rect x="1068.7370484" y="606.1999999999999" width="83.56152479999992" height="36" rx="6" ry="6" fill="none" stroke="black"/>
    <text x="1110.5178108" y="-619.1501999999999" transform="scale(1 -1)" text-anchor="middle" font-family="Times,serif" font-size="14" fill="black">Shapeshift 1</text>
    <rect x="766.5178108" y="36" width="54" height="36" rx="6" ry="6" fill="none" stroke="black"/>
    <text x="793.5178108" y="-48.9502" transform="scale(1 -1)" text-anchor="middle" font-family="Times,serif" font-size="14" fill="black">ZZZ</text>
    <rect x="838.5178108" y="36" width="54" height="36" rx="6" ry="6" fill="none" stroke="black"/>
    <text x="865.5178108" y="-48.9502" transform="scale(1 -1)" text-anchor="middle" font-family="Times,serif" font-size="14" fill="black">YYY</text>
    <rect x="744.6160054" y="180.9" width="85.80361080000011" height="36" rx="6" ry="6" fill="none" stroke="black"/>
    <text x="787.5178108" y="-193.8502" transform="scale(1 -1)" text-anchor="middle" font-family="Times,serif" font-size="14" fill="black">ZZZ Worker</text>
    <rect x="848.3535368" y="180.9" width="90.32854799999996" height="36" rx="6" ry="6" fill="none" stroke="black"/>
    <text x="893.5178108" y="-193.8502" transform="scale(1 -1)" text-anchor="middle" font-family="Times,serif" font-size="14" fill="black">YYY Worker</text>
    <rect x="792.6424608" y="270.7" width="73.75070000000005" height="36" rx="6" ry="6" fill="none" stroke="black"/>
    <text x="829.5178108" y="-283.6502" transform="scale(1 -1)" text-anchor="middle" font-family="Times,serif" font-size="14" fill="black">Foo Agent</text>
    <text x="638.3634427999999" y="-964.1501999999998" transform="scale(1 -1)" text-anchor="middle" font-family="Times,serif" font-size="14" fill="black">Complex Architecture</text>
  </g>
</svg>
