<?xml version="1.0" encoding="UTF-8"?>
<svg xmlns="http://www.w3.org/2000/svg" width="286.2405436199382pt" height="581.0024pt" viewBox="0 0 286.2405436199382 581.0024">
  <rect x="0" y="0" width="286.2405436199382" height="581.0024" fill="white"/>
  <g transform="translate(0 581.0024) scale(1 -1)">
    <path d="M 219.36333441080663 93.5004 C 214.60111466010267 85.14313387106068 207.82320925723764 73.9726566199005 204.1202718099691 66.7502 C 201.39659239207808 61.43775367262699 198.99154491506798 55.55451442477048 196.6611861009814 50.46748891247115" fill="none" stroke="black"/>
    <polygon points="191.86604501321736,40 198.75826478468068,47.842021845280094 193.30339077914724,50.340891506498046" fill="black" stroke="black"/>
    <text x="213.61446647806335" y="-61.7004" transform="scale(1 -1)" text-anchor="middle" font-family="Times,serif" font-size="14" fill="black" textLength="6.7398464" lengthAdjust="spacing">g</text>
    <path d="M 197.0950719225943 40 C 203.2561143955008 48.23008605585256 213.46327665170412 59.32230908938218 217.1202718099691 66.7502 C 219.51439218588362 71.61300790910796 220.1489631128437 77.59296332335187 221.4948722219584 82.41133946852821" fill="none" stroke="black"/>
    <polygon points="224.59236132018358,93.5004 219.01266570756877,84.6761721657605 224.79145645143518,83.06199202135153" fill="black" stroke="black"/>
    <text x="226.61446647806338" y="-61.7004" transform="scale(1 -1)" text-anchor="middle" font-family="Times,serif" font-size="14" fill="black" textLength="6.7398464" lengthAdjust="spacing">g</text>
    <path d="M 167.63151645245114 40 C 160.29816973319612 48.25581716618885 148.82751958396005 59.262692471292134 143.8702718099691 66.7502 C 140.539715344006 71.78072656446275 138.50259163006726 78.05395348643026 136.10648106125012 83.09990300062701" fill="none" stroke="black"/>
    <polygon points="131.16771964260448,93.5004 132.74726133069896,83.18027170353142 138.1672241509046,85.7539855624498" fill="black" stroke="black"/>
    <text x="173.03151645245114" y="-61.7004" transform="scale(1 -1)" text-anchor="middle" font-family="Times,serif" font-size="14" fill="black" textLength="11.088134400000001" lengthAdjust="spacing">m</text>
    <path d="M 138.2067943283042 93.5004 C 145.37073263946138 85.22716974936914 156.4049294472532 74.20575140007868 161.3702718099691 66.7502 C 164.76279285385917 61.65626826862659 167.01649804334434 55.39425603645896 169.54464688536214 50.309529460725706" fill="none" stroke="black"/>
    <polygon points="174.67059113815088,40 172.90477049869142,50.28989200474228 167.53221317048715,47.61863242260532" fill="black" stroke="black"/>
    <text x="173.9382326826291" y="-61.7004" transform="scale(1 -1)" text-anchor="middle" font-family="Times,serif" font-size="14" fill="black" textLength="11.088134400000001" lengthAdjust="spacing">m</text>
    <path d="M 106.22928361326828 129.5004 C 98.70946123717084 137.7584013569285 87.00307125957431 148.7484513212899 81.87027180996908 156.2506 C 78.41438512598124 161.30175697088947 76.2193919033837 167.61590364025517 73.69589673457605 172.69127053927429" fill="none" stroke="black"/>
    <polygon points="68.56995248178731,183.0008 70.33577312124677,172.71090799525774 75.70833044945104,175.38216757739468" fill="black" stroke="black"/>
    <text x="111.62928361326829" y="-151.2008" transform="scale(1 -1)" text-anchor="middle" font-family="Times,serif" font-size="14" fill="black" textLength="9.7564712" lengthAdjust="spacing">w</text>
    <path d="M 75.60902716748704 183.0008 C 82.96004494525468 174.7250889117319 94.2293957057883 163.72116147233822 99.37027180996908 156.2506 C 102.89098096268253 151.13441481705422 105.30271019057213 144.8321998271113 107.96016644397066 139.71728804944095" fill="none" stroke="black"/>
    <polygon points="113.26835829896801,129.5004 111.32010901698901,139.75731594658296 105.9958294782793,136.99108251578267" fill="black" stroke="black"/>
    <text x="111.69814187935644" y="-151.2008" transform="scale(1 -1)" text-anchor="middle" font-family="Times,serif" font-size="14" fill="black" textLength="9.7564712" lengthAdjust="spacing">w</text>
    <path d="M 130.2626957544431 129.5004 C 133.85444786858784 137.9599592346527 138.0871686020015 149.03788478635593 141.6202718099691 156.2506 C 144.42508128315222 161.9765272565203 147.99897665415622 167.6685327007337 150.94917572930285 172.94941264683877" fill="none" stroke="black"/>
    <polygon points="156.56445083039804,183.0008 149.0683305328667,175.73387627087368 154.30636346041848,172.80761397062042" fill="black" stroke="black"/>
    <text x="150.55587470415188" y="-151.2008" transform="scale(1 -1)" text-anchor="middle" font-family="Times,serif" font-size="14" fill="black" textLength="5.978896" lengthAdjust="spacing">c</text>
    <path d="M 161.793477739775 183.0008 C 159.48429389154174 174.389430079566 158.11380392729214 163.6447583513013 154.6202718099691 156.2506 C 151.57693019544988 149.80928242822876 146.19068892214653 144.4623024954176 142.18876287710486 138.86583402976686" fill="none" stroke="black"/>
    <polygon points="135.49172266382,129.5004 143.74866785843582,135.88967664552968 138.86810260857467,139.3796741873408" fill="black" stroke="black"/>
    <text x="167.193477739775" y="-151.2008" transform="scale(1 -1)" text-anchor="middle" font-family="Times,serif" font-size="14" fill="black" textLength="5.978896" lengthAdjust="spacing">c</text>
    <path d="M 56.90520014548491 219.0008 C 55.647643786696236 227.3379701580837 53.103709777877825 238.69098969077464 52.87027180996909 245.751 C 52.701398307577854 250.85834684043866 53.75146041116498 256.26656430432956 54.15045065734432 261.02786918821624" fill="none" stroke="black"/>
    <polygon points="55.111898663033436,272.5012 51.2873185535491,262.7866445811382 57.266362288433726,262.285609635913" fill="black" stroke="black"/>
    <text x="62.30520014548491" y="-240.7012" transform="scale(1 -1)" text-anchor="middle" font-family="Times,serif" font-size="14" fill="black" textLength="6.7398464" lengthAdjust="spacing">g</text>
    <path d="M 60.139809152818955 272.5012 C 61.770076294620075 264.16351078296816 65.13787132322514 252.86609446944348 65.3702718099691 245.751 C 65.5384682495571 240.60155485958919 64.0144073922944 235.19879063237804 63.40043484567894 230.42046119663007" fill="none" stroke="black"/>
    <polygon points="61.93311063527043,219.0008 66.18308131755683,228.5369286274728 60.232006180588726,229.3015884957542" fill="black" stroke="black"/>
    <text x="73.25378340996909" y="-240.7012" transform="scale(1 -1)" text-anchor="middle" font-family="Times,serif" font-size="14" fill="black" textLength="6.7398464" lengthAdjust="spacing">g</text>
    <path d="M 162.49738520834498 219.0008 C 160.58738366164548 227.33962450879136 156.60168956962548 238.5833383586275 156.3702718099691 245.751 C 156.2026267138826 250.9434421287611 158.08579010553774 256.33993611453195 158.86277746398898 261.1358450370373" fill="none" stroke="black"/>
    <polygon points="160.7040837258935,272.5012 156.1434439982665,263.10968439948107 162.0662187792612,262.15013299720323" fill="black" stroke="black"/>
    <text x="187.98002573977502" y="-240.7012" transform="scale(1 -1)" text-anchor="middle" font-family="Times,serif" font-size="14" fill="black" textLength="6.7398464" lengthAdjust="spacing">g</text>
    <path d="M 165.731994215679 272.5012 C 166.71013757140167 264.16365508623625 168.63626763468162 252.7811241300862 168.8702718099691 245.751 C 169.03960833270142 240.66366866028022 168.3424584198779 235.25333121366276 168.10345606930105 230.49981877420316" fill="none" stroke="black"/>
    <polygon points="167.5252956981305,219.0008 171.02366761642844,228.83753695496958 165.03123723268953,229.13883099082668" fill="black" stroke="black"/>
    <text x="180.43308791284954" y="-240.7012" transform="scale(1 -1)" text-anchor="middle" font-family="Times,serif" font-size="14" fill="black" textLength="6.7398464" lengthAdjust="spacing">g</text>
    <path d="M 65.56995248178731 308.5012 C 69.85261507296657 317.1146834825973 74.07250235121404 327.83950105204053 78.87027180996908 335.2514 C 83.0546079338435 341.71562817541985 88.81042146302357 347.3554458504522 93.53119408848617 353.10389535096857" fill="none" stroke="black"/>
    <polygon points="100.83821496999965,362.0016 92.17334859832444,356.1775042967159 96.81016820279415,352.3696303550517" fill="black" stroke="black"/>
    <text x="94.04033140996908" y="-330.2016" transform="scale(1 -1)" text-anchor="middle" font-family="Times,serif" font-size="14" fill="black" textLength="5.978896" lengthAdjust="spacing">c</text>
    <path d="M 107.27394039692511 362.0016 C 103.26156921564309 353.3483752849828 99.65695521612584 342.7076482062588 94.87027180996908 335.2514 C 90.60663479714613 328.60990459879804 84.46287395747358 323.07537031689554 79.48648697025355 317.25329677557545" fill="none" stroke="black"/>
    <polygon points="72.00567790871277,308.5012 80.78354668406215,314.15354639444064 76.2226070361472,318.0519857652758" fill="black" stroke="black"/>
    <text x="112.67394039692512" y="-330.2016" transform="scale(1 -1)" text-anchor="middle" font-family="Times,serif" font-size="14" fill="black" textLength="5.978896" lengthAdjust="spacing">c</text>
    <path d="M 152.35775231284953 308.5012 C 147.1437429461 316.83434149871124 139.48831480890325 327.99426524679393 135.6202718099691 335.2514 C 132.8315670104118 340.48350484549326 130.6236178160516 346.43146327793033 128.3627885555863 351.4900913565141" fill="none" stroke="black"/>
    <polygon points="123.66492859362592,362.0016 125.00631168959292,351.64782332721757 130.4841254936254,354.0959973260075" fill="black" stroke="black"/>
    <text x="157.75775231284953" y="-330.2016" transform="scale(1 -1)" text-anchor="middle" font-family="Times,serif" font-size="14" fill="black" textLength="9.7564712" lengthAdjust="spacing">w</text>
    <path d="M 129.69842118136853 362.0016 C 136.12968553548305 353.7787323971573 146.79923329858437 342.7138168381459 150.6202718099691 335.2514 C 153.1030562950324 330.40256827751904 153.77789797644084 324.38183057885817 155.1793270299916 319.5576590071499" fill="none" stroke="black"/>
    <polygon points="158.39124490059214,308.5012 158.4824590644264,318.9411080444378 152.72065780190087,317.26729616398063" fill="black" stroke="black"/>
    <text x="161.79571389398922" y="-330.2016" transform="scale(1 -1)" text-anchor="middle" font-family="Times,serif" font-size="14" fill="black" textLength="9.7564712" lengthAdjust="spacing">w</text>
    <path d="M 112.80464193568919 398.0016 C 111.49881968523546 406.349572410322 108.62027180996908 417.64556074842045 108.62027180996908 424.7518 C 108.62027180996908 429.9391152027651 110.2747499239113 435.32868949921954 111.02528610662965 440.12678153977424" fill="none" stroke="black"/>
    <polygon points="112.80464193568919,451.502 108.29523871887537,442.0857755640496 114.22315361850539,441.15850810385035" fill="black" stroke="black"/>
    <text x="135.34927599692514" y="-419.702" transform="scale(1 -1)" text-anchor="middle" font-family="Times,serif" font-size="14" fill="black" textLength="11.088134400000001" lengthAdjust="spacing">m</text>
    <path d="M 118.63701810384039 451.502 C 120.03628135556177 443.1530252843757 123.12027180996908 431.87397202432425 123.12027180996908 424.7518 C 123.12027180996908 419.5485520244903 121.34540215273124 414.16169704862335 120.54011111027062 409.3567723541805" fill="none" stroke="black"/>
    <polygon points="118.63701810384039,398.0016 123.2486690235009,407.3681722543092 117.33120065824914,408.35992229653" fill="black" stroke="black"/>
    <text x="141.66268557487206" y="-419.702" transform="scale(1 -1)" text-anchor="middle" font-family="Times,serif" font-size="14" fill="black" textLength="11.088134400000001" lengthAdjust="spacing">m</text>
    <path d="M 113.20687477487203 487.502 C 112.08784132225496 495.84816180188415 109.62027180996908 507.17460051736174 109.62027180996908 514.2522 C 109.62027180996908 519.4108754338238 111.03519505001603 524.8052163294581 111.67685739452729 529.5909693710161" fill="none" stroke="black"/>
    <polygon points="113.20687477487203,541.0024 108.90459700268319,531.4897554691174 114.85138298206256,530.6924245996179" fill="black" stroke="black"/>
    <text x="118.60687477487204" y="-509.20239999999995" transform="scale(1 -1)" text-anchor="middle" font-family="Times,serif" font-size="14" fill="black" textLength="6.7398464" lengthAdjust="spacing">g</text>
    <path d="M 118.23478526465756 541.0024 C 119.4471982565893 532.655365558224 122.12027180996908 521.3435799646396 122.12027180996908 514.2522 C 122.12027180996908 509.07974408417493 120.58576697040212 503.687677158217 119.88976906143296 498.8959778311475" fill="none" stroke="black"/>
    <polygon points="118.23478526465756,487.502 122.6410541051343,496.96692445323487 116.70336322144003,497.8293784924127" fill="black" stroke="black"/>
    <text x="130.0037834099691" y="-509.20239999999995" transform="scale(1 -1)" text-anchor="middle" font-family="Times,serif" font-size="14" fill="black" textLength="6.7398464" lengthAdjust="spacing">g</text>
    <ellipse cx="229.6202718099691" cy="111.5004" rx="44.70027180996908" ry="18" fill="none" stroke="black"/>
    <text x="229.6202718099691" y="-106.45060000000001" transform="scale(1 -1)" text-anchor="middle" font-family="Times,serif" font-size="14" fill="black" textLength="49.5025412" lengthAdjust="spacing">MWGC-</text>
    <ellipse cx="183.6202718099691" cy="22" rx="44.70027180996908" ry="18" fill="none" stroke="black"/>
    <text x="183.6202718099691" y="-16.9502" transform="scale(1 -1)" text-anchor="middle" font-family="Times,serif" font-size="14" fill="black" textLength="49.5025412" lengthAdjust="spacing">WC-MG</text>
    <ellipse cx="122.62027180996908" cy="111.5004" rx="44.700271809969095" ry="18" fill="none" stroke="black"/>
    <text x="122.62027180996908" y="-106.45060000000001" transform="scale(1 -1)" text-anchor="middle" font-family="Times,serif" font-size="14" fill="black" textLength="49.5025412" lengthAdjust="spacing">MWC-G</text>
    <ellipse cx="59.62027180996909" cy="201.0008" rx="44.70027180996909" ry="18" fill="none" stroke="black"/>
    <text x="59.62027180996909" y="-195.951" transform="scale(1 -1)" text-anchor="middle" font-family="Times,serif" font-size="14" fill="black" textLength="49.5025412" lengthAdjust="spacing">C-MWG</text>
    <ellipse cx="166.6202718099691" cy="201.0008" rx="44.70027180996908" ry="18" fill="none" stroke="black"/>
    <text x="166.6202718099691" y="-195.951" transform="scale(1 -1)" text-anchor="middle" font-family="Times,serif" font-size="14" fill="black" textLength="49.5025412" lengthAdjust="spacing">W-MGC</text>
    <ellipse cx="56.62027180996909" cy="290.5012" rx="44.70027180996909" ry="18" fill="none" stroke="black"/>
    <text x="56.62027180996909" y="-285.4514" transform="scale(1 -1)" text-anchor="middle" font-family="Times,serif" font-size="14" fill="black" textLength="49.5025412" lengthAdjust="spacing">MGC-W</text>
    <ellipse cx="163.6202718099691" cy="290.5012" rx="44.70027180996908" ry="18" fill="none" stroke="black"/>
    <text x="163.6202718099691" y="-285.4514" transform="scale(1 -1)" text-anchor="middle" font-family="Times,serif" font-size="14" fill="black" textLength="49.5025412" lengthAdjust="spacing">MWG-C</text>
    <ellipse cx="115.62027180996908" cy="380.0016" rx="44.700271809969095" ry="18" fill="none" stroke="black"/>
    <text x="115.62027180996908" y="-374.9518" transform="scale(1 -1)" text-anchor="middle" font-family="Times,serif" font-size="14" fill="black" textLength="49.5025412" lengthAdjust="spacing">G-MWC</text>
    <ellipse cx="115.62027180996908" cy="469.502" rx="44.700271809969095" ry="18" fill="none" stroke="black"/>
    <text x="115.62027180996908" y="-464.4522" transform="scale(1 -1)" text-anchor="middle" font-family="Times,serif" font-size="14" fill="black" textLength="49.5025412" lengthAdjust="spacing">MG-WC</text>
    <ellipse cx="115.62027180996908" cy="559.0024" rx="44.700271809969095" ry="18" fill="none" stroke="black"/>
    <text x="115.62027180996908" y="-553.9526" transform="scale(1 -1)" text-anchor="middle" font-family="Times,serif" font-size="14" fill="black" textLength="49.5025412" lengthAdjust="spacing">-MWGC</text>
  </g>
</svg>
