<?xml version="1.0" encoding="UTF-8" standalone="no"?>
<!DOCTYPE svg PUBLIC "-//W3C//DTD SVG 1.1//EN"
 "http://www.w3.org/Graphics/SVG/1.1/DTD/svg11.dtd">
<!-- Generated by graphviz version 14.1.1 (20251213.1925)
 -->
<!-- Title: G Pages: 1 -->
<svg width="134pt" height="167pt"
 viewBox="0.00 0.00 134.00 167.00" xmlns="http://www.w3.org/2000/svg" xmlns:xlink="http://www.w3.org/1999/xlink">
<g id="graph0" class="graph" transform="scale(1 1) rotate(0) translate(4 163.49)">
<title>G</title>
<polygon fill="white" stroke="none" points="-4,4 -4,-163.49 129.5,-163.49 129.5,4 -4,4"/>
<!-- a -->
<g id="node1" class="node">
<title>a</title>
<polygon fill="none" stroke="black" points="35.5,-122.99 35.5,-158.99 125.5,-158.99 125.5,-122.99 35.5,-122.99"/>
<text xml:space="preserve" text-anchor="middle" x="52.5" y="-135.94" font-family="Times,serif" font-size="14.00">foo</text>
<polyline fill="none" stroke="black" points="69.5,-122.99 69.5,-158.99"/>
<text xml:space="preserve" text-anchor="middle" x="80.88" y="-135.94" font-family="Times,serif" font-size="14.00">x</text>
<polyline fill="none" stroke="black" points="92.25,-122.99 92.25,-158.99"/>
<text xml:space="preserve" text-anchor="middle" x="108.88" y="-135.94" font-family="Times,serif" font-size="14.00">bar</text>
</g>
<!-- b -->
<g id="node2" class="node">
<title>b</title>
<polygon fill="none" stroke="black" points="14.13,-12.49 14.13,-85.99 92.88,-85.99 92.88,-12.49 14.13,-12.49"/>
<text xml:space="preserve" text-anchor="middle" x="25.13" y="-44.19" font-family="Times,serif" font-size="14.00">a</text>
<polyline fill="none" stroke="black" points="36.13,-12.49 36.13,-85.99"/>
<text xml:space="preserve" text-anchor="middle" x="53.13" y="-68.69" font-family="Times,serif" font-size="14.00">foo</text>
<polyline fill="none" stroke="black" points="36.13,-61.49 70.13,-61.49"/>
<text xml:space="preserve" text-anchor="middle" x="53.13" y="-44.19" font-family="Times,serif" font-size="14.00">x</text>
<polyline fill="none" stroke="black" points="36.13,-36.99 70.13,-36.99"/>
<text xml:space="preserve" text-anchor="middle" x="53.13" y="-19.69" font-family="Times,serif" font-size="14.00">bar</text>
<polyline fill="none" stroke="black" points="70.13,-12.49 70.13,-85.99"/>
<text xml:space="preserve" text-anchor="middle" x="81.5" y="-44.19" font-family="Times,serif" font-size="14.00">b</text>
</g>
<!-- a&#45;&gt;b -->
<g id="edge1" class="edge">
<title>a:f0&#45;&gt;b:f1</title>
<path fill="none" stroke="black" d="M52.5,-122.49C52.5,-99.1 23.42,-107.95 14.13,-86.49 1.06,-56.31 -8.83,-36.04 14.13,-12.49 22.64,-3.76 38.46,1.76 47.11,-1.76"/>
<polygon fill="black" stroke="black" points="44.09,-3.54 52.33,-10.2 50.05,0.14 44.09,-3.54"/>
</g>
</g>
</svg>
